%TF.GenerationSoftware,KiCad,Pcbnew,(6.0.4-0)*%
%TF.CreationDate,2022-04-27T14:28:45-07:00*%
%TF.ProjectId,bluescsi_iigs_internal,626c7565-7363-4736-995f-696967735f69,rev?*%
%TF.SameCoordinates,Original*%
%TF.FileFunction,Paste,Top*%
%TF.FilePolarity,Positive*%
%FSLAX46Y46*%
G04 Gerber Fmt 4.6, Leading zero omitted, Abs format (unit mm)*
G04 Created by KiCad (PCBNEW (6.0.4-0)) date 2022-04-27 14:28:45*
%MOMM*%
%LPD*%
G01*
G04 APERTURE LIST*
G04 Aperture macros list*
%AMRoundRect*
0 Rectangle with rounded corners*
0 $1 Rounding radius*
0 $2 $3 $4 $5 $6 $7 $8 $9 X,Y pos of 4 corners*
0 Add a 4 corners polygon primitive as box body*
4,1,4,$2,$3,$4,$5,$6,$7,$8,$9,$2,$3,0*
0 Add four circle primitives for the rounded corners*
1,1,$1+$1,$2,$3*
1,1,$1+$1,$4,$5*
1,1,$1+$1,$6,$7*
1,1,$1+$1,$8,$9*
0 Add four rect primitives between the rounded corners*
20,1,$1+$1,$2,$3,$4,$5,0*
20,1,$1+$1,$4,$5,$6,$7,0*
20,1,$1+$1,$6,$7,$8,$9,0*
20,1,$1+$1,$8,$9,$2,$3,0*%
G04 Aperture macros list end*
%ADD10R,3.480000X1.846667*%
%ADD11R,1.000000X0.500000*%
%ADD12R,0.780000X0.720000*%
%ADD13R,1.080000X1.050000*%
%ADD14R,1.200000X1.050000*%
%ADD15R,2.390000X1.050000*%
%ADD16R,0.550000X2.910000*%
%ADD17R,1.000000X1.000000*%
%ADD18R,1.500000X0.700000*%
%ADD19R,0.800000X1.000000*%
%ADD20RoundRect,0.249999X0.450001X-0.325001X0.450001X0.325001X-0.450001X0.325001X-0.450001X-0.325001X0*%
%ADD21RoundRect,0.249999X-0.450001X0.325001X-0.450001X-0.325001X0.450001X-0.325001X0.450001X0.325001X0*%
%ADD22RoundRect,0.249999X0.350001X0.450001X-0.350001X0.450001X-0.350001X-0.450001X0.350001X-0.450001X0*%
%ADD23RoundRect,0.249999X-0.350001X-0.450001X0.350001X-0.450001X0.350001X0.450001X-0.350001X0.450001X0*%
G04 APERTURE END LIST*
D10*
%TO.C,J6*%
X127000000Y-49420000D03*
X127000000Y-52190000D03*
X127000000Y-54960000D03*
X127000000Y-57730000D03*
X127000000Y-60500000D03*
X127000000Y-63270000D03*
X127000000Y-66040000D03*
X127000000Y-68810000D03*
X127000000Y-71580000D03*
X127000000Y-74350000D03*
X127000000Y-77120000D03*
X127000000Y-79890000D03*
X127000000Y-82660000D03*
%TD*%
D11*
%TO.C,J3*%
X181965000Y-71634000D03*
X181965000Y-72734000D03*
X181965000Y-73834000D03*
X181965000Y-74934000D03*
X181965000Y-76034000D03*
X181965000Y-77134000D03*
X181965000Y-78234000D03*
X181965000Y-79334000D03*
D12*
X179285000Y-69874000D03*
D13*
X178015000Y-69859000D03*
D14*
X175405000Y-69859000D03*
X175975000Y-80509000D03*
D15*
X179160000Y-80509000D03*
D16*
X174730000Y-73198000D03*
X174730000Y-77388000D03*
%TD*%
D17*
%TO.C,D4*%
X137180000Y-97155000D03*
X139680000Y-97155000D03*
%TD*%
%TO.C,D3*%
X139466000Y-100330000D03*
X141966000Y-100330000D03*
%TD*%
D18*
%TO.C,SW1*%
X182466000Y-63845000D03*
X182466000Y-60845000D03*
X182466000Y-59345000D03*
D19*
X185326000Y-65245000D03*
X185326000Y-57945000D03*
X183116000Y-57945000D03*
X183116000Y-65245000D03*
%TD*%
D20*
%TO.C,D2*%
X184531000Y-89399000D03*
X184531000Y-91449000D03*
%TD*%
D21*
%TO.C,D1*%
X184531000Y-85861000D03*
X184531000Y-83811000D03*
%TD*%
D22*
%TO.C,R2*%
X176927000Y-89408000D03*
X178927000Y-89408000D03*
%TD*%
D23*
%TO.C,R1*%
X178927000Y-85725000D03*
X176927000Y-85725000D03*
%TD*%
M02*
