%FSLAX45Y45*%
G04 Gerber Fmt 4.5, Leading zero omitted, Abs format (unit mm)*
G04 Created by KiCad (PCBNEW (6.0.4-0)) date 2022-04-27 14:28:38*
%MOMM*%
%LPD*%
G01*
G04 APERTURE LIST*
%TA.AperFunction,Profile*%
%ADD10C,0.050000*%
%TD*%
%ADD11C,0.200000*%
%ADD12C,0.090000*%
%ADD13C,0.350000*%
G04 APERTURE END LIST*
D10*
X18199100Y-9372600D02*
G75*
G03*
X18072100Y-9499600I0J-127000D01*
G01*
X18072100Y-5486400D02*
G75*
G03*
X18199100Y-5613400I127000J0D01*
G01*
X18656300Y-5740400D02*
G75*
G03*
X18529300Y-5613400I-127000J0D01*
G01*
X18529300Y-9372600D02*
G75*
G03*
X18656300Y-9245600I0J127000D01*
G01*
X12509500Y-10109200D02*
G75*
G03*
X12636500Y-10236200I127000J0D01*
G01*
X17945100Y-10236200D02*
G75*
G03*
X18072100Y-10109200I0J127000D01*
G01*
X18072100Y-4826000D02*
G75*
G03*
X17945100Y-4699000I-127000J0D01*
G01*
X12636500Y-4699000D02*
G75*
G03*
X12509500Y-4826000I0J-127000D01*
G01*
X18199100Y-9372600D02*
X18529300Y-9372600D01*
X18072100Y-9499600D02*
X18072100Y-10109200D01*
X18199100Y-5613400D02*
X18529300Y-5613400D01*
X18072100Y-4826000D02*
X18072100Y-5486400D01*
X12636500Y-4699000D02*
X17945100Y-4699000D01*
X12509500Y-10109200D02*
X12509500Y-4826000D01*
X17945100Y-10236200D02*
X12636500Y-10236200D01*
X18656300Y-5740400D02*
X18656300Y-9245600D01*
D11*
D12*
X18377600Y-5964500D02*
X18467600Y-6054500D01*
X18467600Y-5964500D02*
X18377600Y-6054500D01*
X18377600Y-6264500D02*
X18467600Y-6354500D01*
X18467600Y-6264500D02*
X18377600Y-6354500D01*
D13*
X14795000Y-9715500D02*
G75*
G03*
X14795000Y-9715500I-175000J0D01*
G01*
D11*
X12764619Y-10549176D02*
X12764619Y-10349176D01*
X12812238Y-10349176D01*
X12840809Y-10358700D01*
X12859857Y-10377748D01*
X12869381Y-10396795D01*
X12878905Y-10434890D01*
X12878905Y-10463462D01*
X12869381Y-10501557D01*
X12859857Y-10520605D01*
X12840809Y-10539652D01*
X12812238Y-10549176D01*
X12764619Y-10549176D01*
X12964619Y-10549176D02*
X12964619Y-10415843D01*
X12964619Y-10453938D02*
X12974143Y-10434890D01*
X12983667Y-10425367D01*
X13002714Y-10415843D01*
X13021762Y-10415843D01*
X13088428Y-10549176D02*
X13088428Y-10415843D01*
X13088428Y-10349176D02*
X13078905Y-10358700D01*
X13088428Y-10368224D01*
X13097952Y-10358700D01*
X13088428Y-10349176D01*
X13088428Y-10368224D01*
X13212238Y-10549176D02*
X13193190Y-10539652D01*
X13183667Y-10520605D01*
X13183667Y-10349176D01*
X13317000Y-10549176D02*
X13297952Y-10539652D01*
X13288428Y-10520605D01*
X13288428Y-10349176D01*
X13545571Y-10549176D02*
X13545571Y-10349176D01*
X13612238Y-10492033D01*
X13678905Y-10349176D01*
X13678905Y-10549176D01*
X13859857Y-10549176D02*
X13859857Y-10444414D01*
X13850333Y-10425367D01*
X13831286Y-10415843D01*
X13793190Y-10415843D01*
X13774143Y-10425367D01*
X13859857Y-10539652D02*
X13840809Y-10549176D01*
X13793190Y-10549176D01*
X13774143Y-10539652D01*
X13764619Y-10520605D01*
X13764619Y-10501557D01*
X13774143Y-10482510D01*
X13793190Y-10472986D01*
X13840809Y-10472986D01*
X13859857Y-10463462D01*
X13955095Y-10415843D02*
X13955095Y-10615843D01*
X13955095Y-10425367D02*
X13974143Y-10415843D01*
X14012238Y-10415843D01*
X14031286Y-10425367D01*
X14040809Y-10434890D01*
X14050333Y-10453938D01*
X14050333Y-10511081D01*
X14040809Y-10530129D01*
X14031286Y-10539652D01*
X14012238Y-10549176D01*
X13974143Y-10549176D01*
X13955095Y-10539652D01*
X14136048Y-10530129D02*
X14145571Y-10539652D01*
X14136048Y-10549176D01*
X14126524Y-10539652D01*
X14136048Y-10530129D01*
X14136048Y-10549176D01*
X14136048Y-10425367D02*
X14145571Y-10434890D01*
X14136048Y-10444414D01*
X14126524Y-10434890D01*
X14136048Y-10425367D01*
X14136048Y-10444414D01*
D12*
X12417000Y-10833700D02*
X12507000Y-10923700D01*
X12507000Y-10833700D02*
X12417000Y-10923700D01*
D11*
X12802714Y-10769176D02*
X12821762Y-10769176D01*
X12840809Y-10778700D01*
X12850333Y-10788224D01*
X12859857Y-10807271D01*
X12869381Y-10845367D01*
X12869381Y-10892986D01*
X12859857Y-10931081D01*
X12850333Y-10950129D01*
X12840809Y-10959652D01*
X12821762Y-10969176D01*
X12802714Y-10969176D01*
X12783667Y-10959652D01*
X12774143Y-10950129D01*
X12764619Y-10931081D01*
X12755095Y-10892986D01*
X12755095Y-10845367D01*
X12764619Y-10807271D01*
X12774143Y-10788224D01*
X12783667Y-10778700D01*
X12802714Y-10769176D01*
X12955095Y-10950129D02*
X12964619Y-10959652D01*
X12955095Y-10969176D01*
X12945571Y-10959652D01*
X12955095Y-10950129D01*
X12955095Y-10969176D01*
X13059857Y-10969176D02*
X13097952Y-10969176D01*
X13117000Y-10959652D01*
X13126524Y-10950129D01*
X13145571Y-10921557D01*
X13155095Y-10883462D01*
X13155095Y-10807271D01*
X13145571Y-10788224D01*
X13136048Y-10778700D01*
X13117000Y-10769176D01*
X13078905Y-10769176D01*
X13059857Y-10778700D01*
X13050333Y-10788224D01*
X13040809Y-10807271D01*
X13040809Y-10854890D01*
X13050333Y-10873938D01*
X13059857Y-10883462D01*
X13078905Y-10892986D01*
X13117000Y-10892986D01*
X13136048Y-10883462D01*
X13145571Y-10873938D01*
X13155095Y-10854890D01*
X13278905Y-10769176D02*
X13297952Y-10769176D01*
X13317000Y-10778700D01*
X13326524Y-10788224D01*
X13336048Y-10807271D01*
X13345571Y-10845367D01*
X13345571Y-10892986D01*
X13336048Y-10931081D01*
X13326524Y-10950129D01*
X13317000Y-10959652D01*
X13297952Y-10969176D01*
X13278905Y-10969176D01*
X13259857Y-10959652D01*
X13250333Y-10950129D01*
X13240809Y-10931081D01*
X13231286Y-10892986D01*
X13231286Y-10845367D01*
X13240809Y-10807271D01*
X13250333Y-10788224D01*
X13259857Y-10778700D01*
X13278905Y-10769176D01*
X13469381Y-10769176D02*
X13488428Y-10769176D01*
X13507476Y-10778700D01*
X13517000Y-10788224D01*
X13526524Y-10807271D01*
X13536048Y-10845367D01*
X13536048Y-10892986D01*
X13526524Y-10931081D01*
X13517000Y-10950129D01*
X13507476Y-10959652D01*
X13488428Y-10969176D01*
X13469381Y-10969176D01*
X13450333Y-10959652D01*
X13440809Y-10950129D01*
X13431286Y-10931081D01*
X13421762Y-10892986D01*
X13421762Y-10845367D01*
X13431286Y-10807271D01*
X13440809Y-10788224D01*
X13450333Y-10778700D01*
X13469381Y-10769176D01*
X13621762Y-10969176D02*
X13621762Y-10835843D01*
X13621762Y-10854890D02*
X13631286Y-10845367D01*
X13650333Y-10835843D01*
X13678905Y-10835843D01*
X13697952Y-10845367D01*
X13707476Y-10864414D01*
X13707476Y-10969176D01*
X13707476Y-10864414D02*
X13717000Y-10845367D01*
X13736048Y-10835843D01*
X13764619Y-10835843D01*
X13783667Y-10845367D01*
X13793190Y-10864414D01*
X13793190Y-10969176D01*
X13888428Y-10969176D02*
X13888428Y-10835843D01*
X13888428Y-10854890D02*
X13897952Y-10845367D01*
X13917000Y-10835843D01*
X13945571Y-10835843D01*
X13964619Y-10845367D01*
X13974143Y-10864414D01*
X13974143Y-10969176D01*
X13974143Y-10864414D02*
X13983667Y-10845367D01*
X14002714Y-10835843D01*
X14031286Y-10835843D01*
X14050333Y-10845367D01*
X14059857Y-10864414D01*
X14059857Y-10969176D01*
X14450333Y-10759652D02*
X14278905Y-11016795D01*
X14707476Y-10769176D02*
X14726524Y-10769176D01*
X14745571Y-10778700D01*
X14755095Y-10788224D01*
X14764619Y-10807271D01*
X14774143Y-10845367D01*
X14774143Y-10892986D01*
X14764619Y-10931081D01*
X14755095Y-10950129D01*
X14745571Y-10959652D01*
X14726524Y-10969176D01*
X14707476Y-10969176D01*
X14688428Y-10959652D01*
X14678905Y-10950129D01*
X14669381Y-10931081D01*
X14659857Y-10892986D01*
X14659857Y-10845367D01*
X14669381Y-10807271D01*
X14678905Y-10788224D01*
X14688428Y-10778700D01*
X14707476Y-10769176D01*
X14859857Y-10950129D02*
X14869381Y-10959652D01*
X14859857Y-10969176D01*
X14850333Y-10959652D01*
X14859857Y-10950129D01*
X14859857Y-10969176D01*
X14993190Y-10769176D02*
X15012238Y-10769176D01*
X15031286Y-10778700D01*
X15040809Y-10788224D01*
X15050333Y-10807271D01*
X15059857Y-10845367D01*
X15059857Y-10892986D01*
X15050333Y-10931081D01*
X15040809Y-10950129D01*
X15031286Y-10959652D01*
X15012238Y-10969176D01*
X14993190Y-10969176D01*
X14974143Y-10959652D01*
X14964619Y-10950129D01*
X14955095Y-10931081D01*
X14945571Y-10892986D01*
X14945571Y-10845367D01*
X14955095Y-10807271D01*
X14964619Y-10788224D01*
X14974143Y-10778700D01*
X14993190Y-10769176D01*
X15126524Y-10769176D02*
X15250333Y-10769176D01*
X15183667Y-10845367D01*
X15212238Y-10845367D01*
X15231286Y-10854890D01*
X15240809Y-10864414D01*
X15250333Y-10883462D01*
X15250333Y-10931081D01*
X15240809Y-10950129D01*
X15231286Y-10959652D01*
X15212238Y-10969176D01*
X15155095Y-10969176D01*
X15136048Y-10959652D01*
X15126524Y-10950129D01*
X15431286Y-10769176D02*
X15336048Y-10769176D01*
X15326524Y-10864414D01*
X15336048Y-10854890D01*
X15355095Y-10845367D01*
X15402714Y-10845367D01*
X15421762Y-10854890D01*
X15431286Y-10864414D01*
X15440809Y-10883462D01*
X15440809Y-10931081D01*
X15431286Y-10950129D01*
X15421762Y-10959652D01*
X15402714Y-10969176D01*
X15355095Y-10969176D01*
X15336048Y-10959652D01*
X15326524Y-10950129D01*
X15612238Y-10835843D02*
X15612238Y-10969176D01*
X15564619Y-10759652D02*
X15517000Y-10902510D01*
X15640809Y-10902510D01*
X15707476Y-10769176D02*
X15707476Y-10807271D01*
X15783667Y-10769176D02*
X15783667Y-10807271D01*
X16078905Y-11045367D02*
X16069381Y-11035843D01*
X16050333Y-11007271D01*
X16040809Y-10988224D01*
X16031286Y-10959652D01*
X16021762Y-10912033D01*
X16021762Y-10873938D01*
X16031286Y-10826319D01*
X16040809Y-10797748D01*
X16050333Y-10778700D01*
X16069381Y-10750129D01*
X16078905Y-10740605D01*
X16145571Y-10788224D02*
X16155095Y-10778700D01*
X16174143Y-10769176D01*
X16221762Y-10769176D01*
X16240809Y-10778700D01*
X16250333Y-10788224D01*
X16259857Y-10807271D01*
X16259857Y-10826319D01*
X16250333Y-10854890D01*
X16136048Y-10969176D01*
X16259857Y-10969176D01*
X16497952Y-10969176D02*
X16497952Y-10769176D01*
X16583667Y-10969176D02*
X16583667Y-10864414D01*
X16574143Y-10845367D01*
X16555095Y-10835843D01*
X16526524Y-10835843D01*
X16507476Y-10845367D01*
X16497952Y-10854890D01*
X16707476Y-10969176D02*
X16688428Y-10959652D01*
X16678905Y-10950129D01*
X16669381Y-10931081D01*
X16669381Y-10873938D01*
X16678905Y-10854890D01*
X16688428Y-10845367D01*
X16707476Y-10835843D01*
X16736048Y-10835843D01*
X16755095Y-10845367D01*
X16764619Y-10854890D01*
X16774143Y-10873938D01*
X16774143Y-10931081D01*
X16764619Y-10950129D01*
X16755095Y-10959652D01*
X16736048Y-10969176D01*
X16707476Y-10969176D01*
X16888429Y-10969176D02*
X16869381Y-10959652D01*
X16859857Y-10940605D01*
X16859857Y-10769176D01*
X17040810Y-10959652D02*
X17021762Y-10969176D01*
X16983667Y-10969176D01*
X16964619Y-10959652D01*
X16955095Y-10940605D01*
X16955095Y-10864414D01*
X16964619Y-10845367D01*
X16983667Y-10835843D01*
X17021762Y-10835843D01*
X17040810Y-10845367D01*
X17050333Y-10864414D01*
X17050333Y-10883462D01*
X16955095Y-10902510D01*
X17126524Y-10959652D02*
X17145571Y-10969176D01*
X17183667Y-10969176D01*
X17202714Y-10959652D01*
X17212238Y-10940605D01*
X17212238Y-10931081D01*
X17202714Y-10912033D01*
X17183667Y-10902510D01*
X17155095Y-10902510D01*
X17136048Y-10892986D01*
X17126524Y-10873938D01*
X17126524Y-10864414D01*
X17136048Y-10845367D01*
X17155095Y-10835843D01*
X17183667Y-10835843D01*
X17202714Y-10845367D01*
X17278905Y-11045367D02*
X17288429Y-11035843D01*
X17307476Y-11007271D01*
X17317000Y-10988224D01*
X17326524Y-10959652D01*
X17336048Y-10912033D01*
X17336048Y-10873938D01*
X17326524Y-10826319D01*
X17317000Y-10797748D01*
X17307476Y-10778700D01*
X17288429Y-10750129D01*
X17278905Y-10740605D01*
X17640810Y-11045367D02*
X17631286Y-11035843D01*
X17612238Y-11007271D01*
X17602714Y-10988224D01*
X17593190Y-10959652D01*
X17583667Y-10912033D01*
X17583667Y-10873938D01*
X17593190Y-10826319D01*
X17602714Y-10797748D01*
X17612238Y-10778700D01*
X17631286Y-10750129D01*
X17640810Y-10740605D01*
X17717000Y-10835843D02*
X17717000Y-10969176D01*
X17717000Y-10854890D02*
X17726524Y-10845367D01*
X17745571Y-10835843D01*
X17774143Y-10835843D01*
X17793190Y-10845367D01*
X17802714Y-10864414D01*
X17802714Y-10969176D01*
X17926524Y-10969176D02*
X17907476Y-10959652D01*
X17897952Y-10950129D01*
X17888429Y-10931081D01*
X17888429Y-10873938D01*
X17897952Y-10854890D01*
X17907476Y-10845367D01*
X17926524Y-10835843D01*
X17955095Y-10835843D01*
X17974143Y-10845367D01*
X17983667Y-10854890D01*
X17993190Y-10873938D01*
X17993190Y-10931081D01*
X17983667Y-10950129D01*
X17974143Y-10959652D01*
X17955095Y-10969176D01*
X17926524Y-10969176D01*
X18050333Y-10835843D02*
X18126524Y-10835843D01*
X18078905Y-10769176D02*
X18078905Y-10940605D01*
X18088429Y-10959652D01*
X18107476Y-10969176D01*
X18126524Y-10969176D01*
X18345571Y-10835843D02*
X18345571Y-11035843D01*
X18345571Y-10845367D02*
X18364619Y-10835843D01*
X18402714Y-10835843D01*
X18421762Y-10845367D01*
X18431286Y-10854890D01*
X18440810Y-10873938D01*
X18440810Y-10931081D01*
X18431286Y-10950129D01*
X18421762Y-10959652D01*
X18402714Y-10969176D01*
X18364619Y-10969176D01*
X18345571Y-10959652D01*
X18555095Y-10969176D02*
X18536048Y-10959652D01*
X18526524Y-10940605D01*
X18526524Y-10769176D01*
X18717000Y-10969176D02*
X18717000Y-10864414D01*
X18707476Y-10845367D01*
X18688429Y-10835843D01*
X18650333Y-10835843D01*
X18631286Y-10845367D01*
X18717000Y-10959652D02*
X18697952Y-10969176D01*
X18650333Y-10969176D01*
X18631286Y-10959652D01*
X18621762Y-10940605D01*
X18621762Y-10921557D01*
X18631286Y-10902510D01*
X18650333Y-10892986D01*
X18697952Y-10892986D01*
X18717000Y-10883462D01*
X18783667Y-10835843D02*
X18859857Y-10835843D01*
X18812238Y-10769176D02*
X18812238Y-10940605D01*
X18821762Y-10959652D01*
X18840810Y-10969176D01*
X18859857Y-10969176D01*
X19002714Y-10959652D02*
X18983667Y-10969176D01*
X18945571Y-10969176D01*
X18926524Y-10959652D01*
X18917000Y-10940605D01*
X18917000Y-10864414D01*
X18926524Y-10845367D01*
X18945571Y-10835843D01*
X18983667Y-10835843D01*
X19002714Y-10845367D01*
X19012238Y-10864414D01*
X19012238Y-10883462D01*
X18917000Y-10902510D01*
X19183667Y-10969176D02*
X19183667Y-10769176D01*
X19183667Y-10959652D02*
X19164619Y-10969176D01*
X19126524Y-10969176D01*
X19107476Y-10959652D01*
X19097952Y-10950129D01*
X19088429Y-10931081D01*
X19088429Y-10873938D01*
X19097952Y-10854890D01*
X19107476Y-10845367D01*
X19126524Y-10835843D01*
X19164619Y-10835843D01*
X19183667Y-10845367D01*
X19259857Y-11045367D02*
X19269381Y-11035843D01*
X19288429Y-11007271D01*
X19297952Y-10988224D01*
X19307476Y-10959652D01*
X19317000Y-10912033D01*
X19317000Y-10873938D01*
X19307476Y-10826319D01*
X19297952Y-10797748D01*
X19288429Y-10778700D01*
X19269381Y-10750129D01*
X19259857Y-10740605D01*
X12507000Y-11142700D02*
G75*
G03*
X12507000Y-11142700I-100000J0D01*
G01*
X12745571Y-11033176D02*
X12869381Y-11033176D01*
X12802714Y-11109367D01*
X12831286Y-11109367D01*
X12850333Y-11118890D01*
X12859857Y-11128414D01*
X12869381Y-11147462D01*
X12869381Y-11195081D01*
X12859857Y-11214128D01*
X12850333Y-11223652D01*
X12831286Y-11233176D01*
X12774143Y-11233176D01*
X12755095Y-11223652D01*
X12745571Y-11214128D01*
X12955095Y-11214128D02*
X12964619Y-11223652D01*
X12955095Y-11233176D01*
X12945571Y-11223652D01*
X12955095Y-11214128D01*
X12955095Y-11233176D01*
X13145571Y-11033176D02*
X13050333Y-11033176D01*
X13040809Y-11128414D01*
X13050333Y-11118890D01*
X13069381Y-11109367D01*
X13117000Y-11109367D01*
X13136048Y-11118890D01*
X13145571Y-11128414D01*
X13155095Y-11147462D01*
X13155095Y-11195081D01*
X13145571Y-11214128D01*
X13136048Y-11223652D01*
X13117000Y-11233176D01*
X13069381Y-11233176D01*
X13050333Y-11223652D01*
X13040809Y-11214128D01*
X13278905Y-11033176D02*
X13297952Y-11033176D01*
X13317000Y-11042700D01*
X13326524Y-11052224D01*
X13336048Y-11071271D01*
X13345571Y-11109367D01*
X13345571Y-11156986D01*
X13336048Y-11195081D01*
X13326524Y-11214128D01*
X13317000Y-11223652D01*
X13297952Y-11233176D01*
X13278905Y-11233176D01*
X13259857Y-11223652D01*
X13250333Y-11214128D01*
X13240809Y-11195081D01*
X13231286Y-11156986D01*
X13231286Y-11109367D01*
X13240809Y-11071271D01*
X13250333Y-11052224D01*
X13259857Y-11042700D01*
X13278905Y-11033176D01*
X13469381Y-11033176D02*
X13488428Y-11033176D01*
X13507476Y-11042700D01*
X13517000Y-11052224D01*
X13526524Y-11071271D01*
X13536048Y-11109367D01*
X13536048Y-11156986D01*
X13526524Y-11195081D01*
X13517000Y-11214128D01*
X13507476Y-11223652D01*
X13488428Y-11233176D01*
X13469381Y-11233176D01*
X13450333Y-11223652D01*
X13440809Y-11214128D01*
X13431286Y-11195081D01*
X13421762Y-11156986D01*
X13421762Y-11109367D01*
X13431286Y-11071271D01*
X13440809Y-11052224D01*
X13450333Y-11042700D01*
X13469381Y-11033176D01*
X13621762Y-11233176D02*
X13621762Y-11099843D01*
X13621762Y-11118890D02*
X13631286Y-11109367D01*
X13650333Y-11099843D01*
X13678905Y-11099843D01*
X13697952Y-11109367D01*
X13707476Y-11128414D01*
X13707476Y-11233176D01*
X13707476Y-11128414D02*
X13717000Y-11109367D01*
X13736048Y-11099843D01*
X13764619Y-11099843D01*
X13783667Y-11109367D01*
X13793190Y-11128414D01*
X13793190Y-11233176D01*
X13888428Y-11233176D02*
X13888428Y-11099843D01*
X13888428Y-11118890D02*
X13897952Y-11109367D01*
X13917000Y-11099843D01*
X13945571Y-11099843D01*
X13964619Y-11109367D01*
X13974143Y-11128414D01*
X13974143Y-11233176D01*
X13974143Y-11128414D02*
X13983667Y-11109367D01*
X14002714Y-11099843D01*
X14031286Y-11099843D01*
X14050333Y-11109367D01*
X14059857Y-11128414D01*
X14059857Y-11233176D01*
X14450333Y-11023652D02*
X14278905Y-11280795D01*
X14707476Y-11033176D02*
X14726524Y-11033176D01*
X14745571Y-11042700D01*
X14755095Y-11052224D01*
X14764619Y-11071271D01*
X14774143Y-11109367D01*
X14774143Y-11156986D01*
X14764619Y-11195081D01*
X14755095Y-11214128D01*
X14745571Y-11223652D01*
X14726524Y-11233176D01*
X14707476Y-11233176D01*
X14688428Y-11223652D01*
X14678905Y-11214128D01*
X14669381Y-11195081D01*
X14659857Y-11156986D01*
X14659857Y-11109367D01*
X14669381Y-11071271D01*
X14678905Y-11052224D01*
X14688428Y-11042700D01*
X14707476Y-11033176D01*
X14859857Y-11214128D02*
X14869381Y-11223652D01*
X14859857Y-11233176D01*
X14850333Y-11223652D01*
X14859857Y-11214128D01*
X14859857Y-11233176D01*
X15059857Y-11233176D02*
X14945571Y-11233176D01*
X15002714Y-11233176D02*
X15002714Y-11033176D01*
X14983667Y-11061748D01*
X14964619Y-11080795D01*
X14945571Y-11090319D01*
X15126524Y-11033176D02*
X15250333Y-11033176D01*
X15183667Y-11109367D01*
X15212238Y-11109367D01*
X15231286Y-11118890D01*
X15240809Y-11128414D01*
X15250333Y-11147462D01*
X15250333Y-11195081D01*
X15240809Y-11214128D01*
X15231286Y-11223652D01*
X15212238Y-11233176D01*
X15155095Y-11233176D01*
X15136048Y-11223652D01*
X15126524Y-11214128D01*
X15317000Y-11033176D02*
X15450333Y-11033176D01*
X15364619Y-11233176D01*
X15555095Y-11118890D02*
X15536048Y-11109367D01*
X15526524Y-11099843D01*
X15517000Y-11080795D01*
X15517000Y-11071271D01*
X15526524Y-11052224D01*
X15536048Y-11042700D01*
X15555095Y-11033176D01*
X15593190Y-11033176D01*
X15612238Y-11042700D01*
X15621762Y-11052224D01*
X15631286Y-11071271D01*
X15631286Y-11080795D01*
X15621762Y-11099843D01*
X15612238Y-11109367D01*
X15593190Y-11118890D01*
X15555095Y-11118890D01*
X15536048Y-11128414D01*
X15526524Y-11137938D01*
X15517000Y-11156986D01*
X15517000Y-11195081D01*
X15526524Y-11214128D01*
X15536048Y-11223652D01*
X15555095Y-11233176D01*
X15593190Y-11233176D01*
X15612238Y-11223652D01*
X15621762Y-11214128D01*
X15631286Y-11195081D01*
X15631286Y-11156986D01*
X15621762Y-11137938D01*
X15612238Y-11128414D01*
X15593190Y-11118890D01*
X15707476Y-11033176D02*
X15707476Y-11071271D01*
X15783667Y-11033176D02*
X15783667Y-11071271D01*
X16078905Y-11309367D02*
X16069381Y-11299843D01*
X16050333Y-11271271D01*
X16040809Y-11252224D01*
X16031286Y-11223652D01*
X16021762Y-11176033D01*
X16021762Y-11137938D01*
X16031286Y-11090319D01*
X16040809Y-11061748D01*
X16050333Y-11042700D01*
X16069381Y-11014129D01*
X16078905Y-11004605D01*
X16259857Y-11233176D02*
X16145571Y-11233176D01*
X16202714Y-11233176D02*
X16202714Y-11033176D01*
X16183667Y-11061748D01*
X16164619Y-11080795D01*
X16145571Y-11090319D01*
X16497952Y-11233176D02*
X16497952Y-11033176D01*
X16583667Y-11233176D02*
X16583667Y-11128414D01*
X16574143Y-11109367D01*
X16555095Y-11099843D01*
X16526524Y-11099843D01*
X16507476Y-11109367D01*
X16497952Y-11118890D01*
X16707476Y-11233176D02*
X16688428Y-11223652D01*
X16678905Y-11214128D01*
X16669381Y-11195081D01*
X16669381Y-11137938D01*
X16678905Y-11118890D01*
X16688428Y-11109367D01*
X16707476Y-11099843D01*
X16736048Y-11099843D01*
X16755095Y-11109367D01*
X16764619Y-11118890D01*
X16774143Y-11137938D01*
X16774143Y-11195081D01*
X16764619Y-11214128D01*
X16755095Y-11223652D01*
X16736048Y-11233176D01*
X16707476Y-11233176D01*
X16888429Y-11233176D02*
X16869381Y-11223652D01*
X16859857Y-11204605D01*
X16859857Y-11033176D01*
X17040810Y-11223652D02*
X17021762Y-11233176D01*
X16983667Y-11233176D01*
X16964619Y-11223652D01*
X16955095Y-11204605D01*
X16955095Y-11128414D01*
X16964619Y-11109367D01*
X16983667Y-11099843D01*
X17021762Y-11099843D01*
X17040810Y-11109367D01*
X17050333Y-11128414D01*
X17050333Y-11147462D01*
X16955095Y-11166510D01*
X17117000Y-11309367D02*
X17126524Y-11299843D01*
X17145571Y-11271271D01*
X17155095Y-11252224D01*
X17164619Y-11223652D01*
X17174143Y-11176033D01*
X17174143Y-11137938D01*
X17164619Y-11090319D01*
X17155095Y-11061748D01*
X17145571Y-11042700D01*
X17126524Y-11014129D01*
X17117000Y-11004605D01*
X17478905Y-11309367D02*
X17469381Y-11299843D01*
X17450333Y-11271271D01*
X17440810Y-11252224D01*
X17431286Y-11223652D01*
X17421762Y-11176033D01*
X17421762Y-11137938D01*
X17431286Y-11090319D01*
X17440810Y-11061748D01*
X17450333Y-11042700D01*
X17469381Y-11014129D01*
X17478905Y-11004605D01*
X17555095Y-11099843D02*
X17555095Y-11233176D01*
X17555095Y-11118890D02*
X17564619Y-11109367D01*
X17583667Y-11099843D01*
X17612238Y-11099843D01*
X17631286Y-11109367D01*
X17640810Y-11128414D01*
X17640810Y-11233176D01*
X17764619Y-11233176D02*
X17745571Y-11223652D01*
X17736048Y-11214128D01*
X17726524Y-11195081D01*
X17726524Y-11137938D01*
X17736048Y-11118890D01*
X17745571Y-11109367D01*
X17764619Y-11099843D01*
X17793190Y-11099843D01*
X17812238Y-11109367D01*
X17821762Y-11118890D01*
X17831286Y-11137938D01*
X17831286Y-11195081D01*
X17821762Y-11214128D01*
X17812238Y-11223652D01*
X17793190Y-11233176D01*
X17764619Y-11233176D01*
X17888429Y-11099843D02*
X17964619Y-11099843D01*
X17917000Y-11033176D02*
X17917000Y-11204605D01*
X17926524Y-11223652D01*
X17945571Y-11233176D01*
X17964619Y-11233176D01*
X18183667Y-11099843D02*
X18183667Y-11299843D01*
X18183667Y-11109367D02*
X18202714Y-11099843D01*
X18240810Y-11099843D01*
X18259857Y-11109367D01*
X18269381Y-11118890D01*
X18278905Y-11137938D01*
X18278905Y-11195081D01*
X18269381Y-11214128D01*
X18259857Y-11223652D01*
X18240810Y-11233176D01*
X18202714Y-11233176D01*
X18183667Y-11223652D01*
X18393190Y-11233176D02*
X18374143Y-11223652D01*
X18364619Y-11204605D01*
X18364619Y-11033176D01*
X18555095Y-11233176D02*
X18555095Y-11128414D01*
X18545571Y-11109367D01*
X18526524Y-11099843D01*
X18488429Y-11099843D01*
X18469381Y-11109367D01*
X18555095Y-11223652D02*
X18536048Y-11233176D01*
X18488429Y-11233176D01*
X18469381Y-11223652D01*
X18459857Y-11204605D01*
X18459857Y-11185557D01*
X18469381Y-11166510D01*
X18488429Y-11156986D01*
X18536048Y-11156986D01*
X18555095Y-11147462D01*
X18621762Y-11099843D02*
X18697952Y-11099843D01*
X18650333Y-11033176D02*
X18650333Y-11204605D01*
X18659857Y-11223652D01*
X18678905Y-11233176D01*
X18697952Y-11233176D01*
X18840810Y-11223652D02*
X18821762Y-11233176D01*
X18783667Y-11233176D01*
X18764619Y-11223652D01*
X18755095Y-11204605D01*
X18755095Y-11128414D01*
X18764619Y-11109367D01*
X18783667Y-11099843D01*
X18821762Y-11099843D01*
X18840810Y-11109367D01*
X18850333Y-11128414D01*
X18850333Y-11147462D01*
X18755095Y-11166510D01*
X19021762Y-11233176D02*
X19021762Y-11033176D01*
X19021762Y-11223652D02*
X19002714Y-11233176D01*
X18964619Y-11233176D01*
X18945571Y-11223652D01*
X18936048Y-11214128D01*
X18926524Y-11195081D01*
X18926524Y-11137938D01*
X18936048Y-11118890D01*
X18945571Y-11109367D01*
X18964619Y-11099843D01*
X19002714Y-11099843D01*
X19021762Y-11109367D01*
X19097952Y-11309367D02*
X19107476Y-11299843D01*
X19126524Y-11271271D01*
X19136048Y-11252224D01*
X19145571Y-11223652D01*
X19155095Y-11176033D01*
X19155095Y-11137938D01*
X19145571Y-11090319D01*
X19136048Y-11061748D01*
X19126524Y-11042700D01*
X19107476Y-11014129D01*
X19097952Y-11004605D01*
M02*
