%TF.GenerationSoftware,KiCad,Pcbnew,(5.1.8-0-10_14)*%
%TF.CreationDate,2021-05-17T09:41:11-06:00*%
%TF.ProjectId,bluescsi_iigs_internal,626c7565-7363-4736-995f-696967735f69,rev?*%
%TF.SameCoordinates,Original*%
%TF.FileFunction,Paste,Top*%
%TF.FilePolarity,Positive*%
%FSLAX46Y46*%
G04 Gerber Fmt 4.6, Leading zero omitted, Abs format (unit mm)*
G04 Created by KiCad (PCBNEW (5.1.8-0-10_14)) date 2021-05-17 09:41:11*
%MOMM*%
%LPD*%
G01*
G04 APERTURE LIST*
%ADD10R,0.550000X2.910000*%
%ADD11R,2.390000X1.050000*%
%ADD12R,1.200000X1.050000*%
%ADD13R,1.080000X1.050000*%
%ADD14R,0.780000X0.720000*%
%ADD15R,1.000000X0.500000*%
%ADD16R,1.000000X1.000000*%
%ADD17R,2.000000X1.500000*%
%ADD18R,2.000000X3.800000*%
%ADD19R,1.500000X0.700000*%
%ADD20R,0.800000X1.000000*%
G04 APERTURE END LIST*
D10*
%TO.C,J3*%
X177524000Y-77388000D03*
X177524000Y-73198000D03*
D11*
X181954000Y-80509000D03*
D12*
X178769000Y-80509000D03*
X178199000Y-69859000D03*
D13*
X180809000Y-69859000D03*
D14*
X182079000Y-69874000D03*
D15*
X184759000Y-79334000D03*
X184759000Y-78234000D03*
X184759000Y-77134000D03*
X184759000Y-76034000D03*
X184759000Y-74934000D03*
X184759000Y-73834000D03*
X184759000Y-72734000D03*
X184759000Y-71634000D03*
%TD*%
D16*
%TO.C,D4*%
X144546000Y-94488000D03*
X147046000Y-94488000D03*
%TD*%
%TO.C,D3*%
X144546000Y-98044000D03*
X147046000Y-98044000D03*
%TD*%
D17*
%TO.C,U4*%
X135280000Y-93585000D03*
X135280000Y-98185000D03*
X135280000Y-95885000D03*
D18*
X141580000Y-95885000D03*
%TD*%
D19*
%TO.C,SW1*%
X182466000Y-63845000D03*
X182466000Y-60845000D03*
X182466000Y-59345000D03*
D20*
X185326000Y-65245000D03*
X185326000Y-57945000D03*
X183116000Y-57945000D03*
X183116000Y-65245000D03*
%TD*%
%TO.C,D2*%
G36*
G01*
X184981001Y-89974000D02*
X184080999Y-89974000D01*
G75*
G02*
X183831000Y-89724001I0J249999D01*
G01*
X183831000Y-89073999D01*
G75*
G02*
X184080999Y-88824000I249999J0D01*
G01*
X184981001Y-88824000D01*
G75*
G02*
X185231000Y-89073999I0J-249999D01*
G01*
X185231000Y-89724001D01*
G75*
G02*
X184981001Y-89974000I-249999J0D01*
G01*
G37*
G36*
G01*
X184981001Y-92024000D02*
X184080999Y-92024000D01*
G75*
G02*
X183831000Y-91774001I0J249999D01*
G01*
X183831000Y-91123999D01*
G75*
G02*
X184080999Y-90874000I249999J0D01*
G01*
X184981001Y-90874000D01*
G75*
G02*
X185231000Y-91123999I0J-249999D01*
G01*
X185231000Y-91774001D01*
G75*
G02*
X184981001Y-92024000I-249999J0D01*
G01*
G37*
%TD*%
%TO.C,D1*%
G36*
G01*
X184981001Y-84386000D02*
X184080999Y-84386000D01*
G75*
G02*
X183831000Y-84136001I0J249999D01*
G01*
X183831000Y-83485999D01*
G75*
G02*
X184080999Y-83236000I249999J0D01*
G01*
X184981001Y-83236000D01*
G75*
G02*
X185231000Y-83485999I0J-249999D01*
G01*
X185231000Y-84136001D01*
G75*
G02*
X184981001Y-84386000I-249999J0D01*
G01*
G37*
G36*
G01*
X184981001Y-86436000D02*
X184080999Y-86436000D01*
G75*
G02*
X183831000Y-86186001I0J249999D01*
G01*
X183831000Y-85535999D01*
G75*
G02*
X184080999Y-85286000I249999J0D01*
G01*
X184981001Y-85286000D01*
G75*
G02*
X185231000Y-85535999I0J-249999D01*
G01*
X185231000Y-86186001D01*
G75*
G02*
X184981001Y-86436000I-249999J0D01*
G01*
G37*
%TD*%
%TO.C,R2*%
G36*
G01*
X176638000Y-89211999D02*
X176638000Y-90112001D01*
G75*
G02*
X176388001Y-90362000I-249999J0D01*
G01*
X175687999Y-90362000D01*
G75*
G02*
X175438000Y-90112001I0J249999D01*
G01*
X175438000Y-89211999D01*
G75*
G02*
X175687999Y-88962000I249999J0D01*
G01*
X176388001Y-88962000D01*
G75*
G02*
X176638000Y-89211999I0J-249999D01*
G01*
G37*
G36*
G01*
X178638000Y-89211999D02*
X178638000Y-90112001D01*
G75*
G02*
X178388001Y-90362000I-249999J0D01*
G01*
X177687999Y-90362000D01*
G75*
G02*
X177438000Y-90112001I0J249999D01*
G01*
X177438000Y-89211999D01*
G75*
G02*
X177687999Y-88962000I249999J0D01*
G01*
X178388001Y-88962000D01*
G75*
G02*
X178638000Y-89211999I0J-249999D01*
G01*
G37*
%TD*%
%TO.C,R1*%
G36*
G01*
X177438000Y-86175001D02*
X177438000Y-85274999D01*
G75*
G02*
X177687999Y-85025000I249999J0D01*
G01*
X178388001Y-85025000D01*
G75*
G02*
X178638000Y-85274999I0J-249999D01*
G01*
X178638000Y-86175001D01*
G75*
G02*
X178388001Y-86425000I-249999J0D01*
G01*
X177687999Y-86425000D01*
G75*
G02*
X177438000Y-86175001I0J249999D01*
G01*
G37*
G36*
G01*
X175438000Y-86175001D02*
X175438000Y-85274999D01*
G75*
G02*
X175687999Y-85025000I249999J0D01*
G01*
X176388001Y-85025000D01*
G75*
G02*
X176638000Y-85274999I0J-249999D01*
G01*
X176638000Y-86175001D01*
G75*
G02*
X176388001Y-86425000I-249999J0D01*
G01*
X175687999Y-86425000D01*
G75*
G02*
X175438000Y-86175001I0J249999D01*
G01*
G37*
%TD*%
M02*
