%TF.GenerationSoftware,KiCad,Pcbnew,(5.1.8-0-10_14)*%
%TF.CreationDate,2021-05-17T09:41:11-06:00*%
%TF.ProjectId,bluescsi_iigs_internal,626c7565-7363-4736-995f-696967735f69,rev?*%
%TF.SameCoordinates,Original*%
%TF.FileFunction,Soldermask,Top*%
%TF.FilePolarity,Negative*%
%FSLAX46Y46*%
G04 Gerber Fmt 4.6, Leading zero omitted, Abs format (unit mm)*
G04 Created by KiCad (PCBNEW (5.1.8-0-10_14)) date 2021-05-17 09:41:11*
%MOMM*%
%LPD*%
G01*
G04 APERTURE LIST*
%ADD10C,2.100000*%
%ADD11O,1.700000X1.700000*%
%ADD12R,1.700000X1.700000*%
%ADD13R,1.000000X1.500000*%
%ADD14R,0.550000X2.910000*%
%ADD15R,2.390000X1.050000*%
%ADD16R,1.200000X1.050000*%
%ADD17R,1.080000X1.050000*%
%ADD18R,0.780000X0.720000*%
%ADD19R,1.000000X0.500000*%
%ADD20R,1.000000X1.000000*%
%ADD21R,2.000000X1.500000*%
%ADD22R,2.000000X3.800000*%
%ADD23C,0.900000*%
%ADD24R,1.500000X0.700000*%
%ADD25R,0.800000X1.000000*%
%ADD26C,1.700000*%
G04 APERTURE END LIST*
D10*
%TO.C,M2*%
X172461000Y-48791000D03*
X177541000Y-48791000D03*
X172461000Y-53871000D03*
X177541000Y-53871000D03*
%TD*%
%TO.C,M1*%
X172461000Y-95481000D03*
X177541000Y-95481000D03*
X172461000Y-100561000D03*
X177541000Y-100561000D03*
%TD*%
D11*
%TO.C,J5*%
X132080000Y-92075000D03*
D12*
X132080000Y-89535000D03*
%TD*%
D13*
%TO.C,JP2*%
X173833000Y-66548000D03*
X175133000Y-66548000D03*
X176433000Y-66548000D03*
%TD*%
%TO.C,JP1*%
X173833000Y-61722000D03*
X175133000Y-61722000D03*
X176433000Y-61722000D03*
%TD*%
D14*
%TO.C,J3*%
X177524000Y-77388000D03*
X177524000Y-73198000D03*
D15*
X181954000Y-80509000D03*
D16*
X178769000Y-80509000D03*
X178199000Y-69859000D03*
D17*
X180809000Y-69859000D03*
D18*
X182079000Y-69874000D03*
D19*
X184759000Y-79334000D03*
X184759000Y-78234000D03*
X184759000Y-77134000D03*
X184759000Y-76034000D03*
X184759000Y-74934000D03*
X184759000Y-73834000D03*
X184759000Y-72734000D03*
X184759000Y-71634000D03*
%TD*%
D20*
%TO.C,D4*%
X144546000Y-94488000D03*
X147046000Y-94488000D03*
%TD*%
%TO.C,D3*%
X144546000Y-98044000D03*
X147046000Y-98044000D03*
%TD*%
D21*
%TO.C,U4*%
X135280000Y-93585000D03*
X135280000Y-98185000D03*
X135280000Y-95885000D03*
D22*
X141580000Y-95885000D03*
%TD*%
D11*
%TO.C,J4*%
X131445000Y-99060000D03*
D12*
X131445000Y-96520000D03*
%TD*%
D23*
%TO.C,SW1*%
X184226000Y-63095000D03*
X184226000Y-60095000D03*
D24*
X182466000Y-63845000D03*
X182466000Y-60845000D03*
X182466000Y-59345000D03*
D25*
X185326000Y-65245000D03*
X185326000Y-57945000D03*
X183116000Y-57945000D03*
X183116000Y-65245000D03*
%TD*%
%TO.C,D2*%
G36*
G01*
X184981001Y-89974000D02*
X184080999Y-89974000D01*
G75*
G02*
X183831000Y-89724001I0J249999D01*
G01*
X183831000Y-89073999D01*
G75*
G02*
X184080999Y-88824000I249999J0D01*
G01*
X184981001Y-88824000D01*
G75*
G02*
X185231000Y-89073999I0J-249999D01*
G01*
X185231000Y-89724001D01*
G75*
G02*
X184981001Y-89974000I-249999J0D01*
G01*
G37*
G36*
G01*
X184981001Y-92024000D02*
X184080999Y-92024000D01*
G75*
G02*
X183831000Y-91774001I0J249999D01*
G01*
X183831000Y-91123999D01*
G75*
G02*
X184080999Y-90874000I249999J0D01*
G01*
X184981001Y-90874000D01*
G75*
G02*
X185231000Y-91123999I0J-249999D01*
G01*
X185231000Y-91774001D01*
G75*
G02*
X184981001Y-92024000I-249999J0D01*
G01*
G37*
%TD*%
%TO.C,D1*%
G36*
G01*
X184981001Y-84386000D02*
X184080999Y-84386000D01*
G75*
G02*
X183831000Y-84136001I0J249999D01*
G01*
X183831000Y-83485999D01*
G75*
G02*
X184080999Y-83236000I249999J0D01*
G01*
X184981001Y-83236000D01*
G75*
G02*
X185231000Y-83485999I0J-249999D01*
G01*
X185231000Y-84136001D01*
G75*
G02*
X184981001Y-84386000I-249999J0D01*
G01*
G37*
G36*
G01*
X184981001Y-86436000D02*
X184080999Y-86436000D01*
G75*
G02*
X183831000Y-86186001I0J249999D01*
G01*
X183831000Y-85535999D01*
G75*
G02*
X184080999Y-85286000I249999J0D01*
G01*
X184981001Y-85286000D01*
G75*
G02*
X185231000Y-85535999I0J-249999D01*
G01*
X185231000Y-86186001D01*
G75*
G02*
X184981001Y-86436000I-249999J0D01*
G01*
G37*
%TD*%
%TO.C,R2*%
G36*
G01*
X176638000Y-89211999D02*
X176638000Y-90112001D01*
G75*
G02*
X176388001Y-90362000I-249999J0D01*
G01*
X175687999Y-90362000D01*
G75*
G02*
X175438000Y-90112001I0J249999D01*
G01*
X175438000Y-89211999D01*
G75*
G02*
X175687999Y-88962000I249999J0D01*
G01*
X176388001Y-88962000D01*
G75*
G02*
X176638000Y-89211999I0J-249999D01*
G01*
G37*
G36*
G01*
X178638000Y-89211999D02*
X178638000Y-90112001D01*
G75*
G02*
X178388001Y-90362000I-249999J0D01*
G01*
X177687999Y-90362000D01*
G75*
G02*
X177438000Y-90112001I0J249999D01*
G01*
X177438000Y-89211999D01*
G75*
G02*
X177687999Y-88962000I249999J0D01*
G01*
X178388001Y-88962000D01*
G75*
G02*
X178638000Y-89211999I0J-249999D01*
G01*
G37*
%TD*%
%TO.C,R1*%
G36*
G01*
X177438000Y-86175001D02*
X177438000Y-85274999D01*
G75*
G02*
X177687999Y-85025000I249999J0D01*
G01*
X178388001Y-85025000D01*
G75*
G02*
X178638000Y-85274999I0J-249999D01*
G01*
X178638000Y-86175001D01*
G75*
G02*
X178388001Y-86425000I-249999J0D01*
G01*
X177687999Y-86425000D01*
G75*
G02*
X177438000Y-86175001I0J249999D01*
G01*
G37*
G36*
G01*
X175438000Y-86175001D02*
X175438000Y-85274999D01*
G75*
G02*
X175687999Y-85025000I249999J0D01*
G01*
X176388001Y-85025000D01*
G75*
G02*
X176638000Y-85274999I0J-249999D01*
G01*
X176638000Y-86175001D01*
G75*
G02*
X176388001Y-86425000I-249999J0D01*
G01*
X175687999Y-86425000D01*
G75*
G02*
X175438000Y-86175001I0J249999D01*
G01*
G37*
%TD*%
D11*
%TO.C,J2*%
X144780000Y-85090000D03*
X142240000Y-85090000D03*
X144780000Y-82550000D03*
X142240000Y-82550000D03*
X144780000Y-80010000D03*
X142240000Y-80010000D03*
X144780000Y-77470000D03*
X142240000Y-77470000D03*
X144780000Y-74930000D03*
X142240000Y-74930000D03*
X144780000Y-72390000D03*
X142240000Y-72390000D03*
X144780000Y-69850000D03*
X142240000Y-69850000D03*
X144780000Y-67310000D03*
X142240000Y-67310000D03*
X144780000Y-64770000D03*
X142240000Y-64770000D03*
X144780000Y-62230000D03*
X142240000Y-62230000D03*
X144780000Y-59690000D03*
X142240000Y-59690000D03*
X144780000Y-57150000D03*
X142240000Y-57150000D03*
X144780000Y-54610000D03*
D12*
X142240000Y-54610000D03*
%TD*%
D26*
%TO.C,U1*%
X167640000Y-50800000D03*
D12*
X152400000Y-50800000D03*
D26*
X167640000Y-53340000D03*
X152400000Y-53340000D03*
X167640000Y-55880000D03*
X152400000Y-55880000D03*
X167640000Y-58420000D03*
X152400000Y-58420000D03*
X167640000Y-60960000D03*
X152400000Y-60960000D03*
X167640000Y-63500000D03*
X152400000Y-63500000D03*
X167640000Y-66040000D03*
X152400000Y-66040000D03*
X167640000Y-68580000D03*
X152400000Y-68580000D03*
X167640000Y-71120000D03*
X152400000Y-71120000D03*
X167640000Y-73660000D03*
X152400000Y-73660000D03*
X167640000Y-76200000D03*
X152400000Y-76200000D03*
X167640000Y-78740000D03*
X152400000Y-78740000D03*
X167640000Y-81280000D03*
X152400000Y-81280000D03*
X167640000Y-83820000D03*
X152400000Y-83820000D03*
X167640000Y-86360000D03*
X152400000Y-86360000D03*
X167640000Y-88900000D03*
X152400000Y-88900000D03*
X167640000Y-91440000D03*
X152400000Y-91440000D03*
X167640000Y-93980000D03*
X152400000Y-93980000D03*
X167640000Y-96520000D03*
X152400000Y-96520000D03*
X167640000Y-99060000D03*
X152400000Y-99060000D03*
%TD*%
D11*
%TO.C,J1*%
X134620000Y-85090000D03*
X132080000Y-85090000D03*
X134620000Y-82550000D03*
X132080000Y-82550000D03*
X134620000Y-80010000D03*
X132080000Y-80010000D03*
X134620000Y-77470000D03*
X132080000Y-77470000D03*
X134620000Y-74930000D03*
X132080000Y-74930000D03*
X134620000Y-72390000D03*
X132080000Y-72390000D03*
X134620000Y-69850000D03*
X132080000Y-69850000D03*
X134620000Y-67310000D03*
X132080000Y-67310000D03*
X134620000Y-64770000D03*
X132080000Y-64770000D03*
X134620000Y-62230000D03*
X132080000Y-62230000D03*
X134620000Y-59690000D03*
X132080000Y-59690000D03*
X134620000Y-57150000D03*
X132080000Y-57150000D03*
X134620000Y-54610000D03*
D12*
X132080000Y-54610000D03*
%TD*%
M02*
