%TF.GenerationSoftware,KiCad,Pcbnew,(5.1.8-0-10_14)*%
%TF.CreationDate,2021-05-17T09:41:11-06:00*%
%TF.ProjectId,bluescsi_iigs_internal,626c7565-7363-4736-995f-696967735f69,rev?*%
%TF.SameCoordinates,Original*%
%TF.FileFunction,Soldermask,Bot*%
%TF.FilePolarity,Negative*%
%FSLAX46Y46*%
G04 Gerber Fmt 4.6, Leading zero omitted, Abs format (unit mm)*
G04 Created by KiCad (PCBNEW (5.1.8-0-10_14)) date 2021-05-17 09:41:11*
%MOMM*%
%LPD*%
G01*
G04 APERTURE LIST*
%ADD10C,2.100000*%
%ADD11O,1.700000X1.700000*%
%ADD12R,1.700000X1.700000*%
%ADD13R,0.800000X0.900000*%
%ADD14C,0.900000*%
%ADD15C,1.700000*%
%ADD16R,1.970000X0.600000*%
G04 APERTURE END LIST*
D10*
%TO.C,M2*%
X172461000Y-48791000D03*
X177541000Y-48791000D03*
X172461000Y-53871000D03*
X177541000Y-53871000D03*
%TD*%
%TO.C,M1*%
X172461000Y-95481000D03*
X177541000Y-95481000D03*
X172461000Y-100561000D03*
X177541000Y-100561000D03*
%TD*%
D11*
%TO.C,J5*%
X132080000Y-92075000D03*
D12*
X132080000Y-89535000D03*
%TD*%
%TO.C,R3*%
G36*
G01*
X172066000Y-87814999D02*
X172066000Y-88715001D01*
G75*
G02*
X171816001Y-88965000I-249999J0D01*
G01*
X171115999Y-88965000D01*
G75*
G02*
X170866000Y-88715001I0J249999D01*
G01*
X170866000Y-87814999D01*
G75*
G02*
X171115999Y-87565000I249999J0D01*
G01*
X171816001Y-87565000D01*
G75*
G02*
X172066000Y-87814999I0J-249999D01*
G01*
G37*
G36*
G01*
X174066000Y-87814999D02*
X174066000Y-88715001D01*
G75*
G02*
X173816001Y-88965000I-249999J0D01*
G01*
X173115999Y-88965000D01*
G75*
G02*
X172866000Y-88715001I0J249999D01*
G01*
X172866000Y-87814999D01*
G75*
G02*
X173115999Y-87565000I249999J0D01*
G01*
X173816001Y-87565000D01*
G75*
G02*
X174066000Y-87814999I0J-249999D01*
G01*
G37*
%TD*%
D13*
%TO.C,Q1*%
X172085000Y-85201000D03*
X173035000Y-83201000D03*
X171135000Y-83201000D03*
%TD*%
%TO.C,F1*%
G36*
G01*
X148395000Y-91300000D02*
X146245000Y-91300000D01*
G75*
G02*
X145995000Y-91050000I0J250000D01*
G01*
X145995000Y-90300000D01*
G75*
G02*
X146245000Y-90050000I250000J0D01*
G01*
X148395000Y-90050000D01*
G75*
G02*
X148645000Y-90300000I0J-250000D01*
G01*
X148645000Y-91050000D01*
G75*
G02*
X148395000Y-91300000I-250000J0D01*
G01*
G37*
G36*
G01*
X148395000Y-94100000D02*
X146245000Y-94100000D01*
G75*
G02*
X145995000Y-93850000I0J250000D01*
G01*
X145995000Y-93100000D01*
G75*
G02*
X146245000Y-92850000I250000J0D01*
G01*
X148395000Y-92850000D01*
G75*
G02*
X148645000Y-93100000I0J-250000D01*
G01*
X148645000Y-93850000D01*
G75*
G02*
X148395000Y-94100000I-250000J0D01*
G01*
G37*
%TD*%
D11*
%TO.C,J4*%
X131445000Y-99060000D03*
D12*
X131445000Y-96520000D03*
%TD*%
%TO.C,C4*%
G36*
G01*
X137019000Y-96937000D02*
X137019000Y-95087000D01*
G75*
G02*
X137269000Y-94837000I250000J0D01*
G01*
X138269000Y-94837000D01*
G75*
G02*
X138519000Y-95087000I0J-250000D01*
G01*
X138519000Y-96937000D01*
G75*
G02*
X138269000Y-97187000I-250000J0D01*
G01*
X137269000Y-97187000D01*
G75*
G02*
X137019000Y-96937000I0J250000D01*
G01*
G37*
G36*
G01*
X133769000Y-96937000D02*
X133769000Y-95087000D01*
G75*
G02*
X134019000Y-94837000I250000J0D01*
G01*
X135019000Y-94837000D01*
G75*
G02*
X135269000Y-95087000I0J-250000D01*
G01*
X135269000Y-96937000D01*
G75*
G02*
X135019000Y-97187000I-250000J0D01*
G01*
X134019000Y-97187000D01*
G75*
G02*
X133769000Y-96937000I0J250000D01*
G01*
G37*
%TD*%
D14*
%TO.C,SW1*%
X184226000Y-63095000D03*
X184226000Y-60095000D03*
%TD*%
%TO.C,C3*%
G36*
G01*
X156555000Y-96252000D02*
X158405000Y-96252000D01*
G75*
G02*
X158655000Y-96502000I0J-250000D01*
G01*
X158655000Y-97502000D01*
G75*
G02*
X158405000Y-97752000I-250000J0D01*
G01*
X156555000Y-97752000D01*
G75*
G02*
X156305000Y-97502000I0J250000D01*
G01*
X156305000Y-96502000D01*
G75*
G02*
X156555000Y-96252000I250000J0D01*
G01*
G37*
G36*
G01*
X156555000Y-93002000D02*
X158405000Y-93002000D01*
G75*
G02*
X158655000Y-93252000I0J-250000D01*
G01*
X158655000Y-94252000D01*
G75*
G02*
X158405000Y-94502000I-250000J0D01*
G01*
X156555000Y-94502000D01*
G75*
G02*
X156305000Y-94252000I0J250000D01*
G01*
X156305000Y-93252000D01*
G75*
G02*
X156555000Y-93002000I250000J0D01*
G01*
G37*
%TD*%
%TO.C,C2*%
G36*
G01*
X161889000Y-96252000D02*
X163739000Y-96252000D01*
G75*
G02*
X163989000Y-96502000I0J-250000D01*
G01*
X163989000Y-97502000D01*
G75*
G02*
X163739000Y-97752000I-250000J0D01*
G01*
X161889000Y-97752000D01*
G75*
G02*
X161639000Y-97502000I0J250000D01*
G01*
X161639000Y-96502000D01*
G75*
G02*
X161889000Y-96252000I250000J0D01*
G01*
G37*
G36*
G01*
X161889000Y-93002000D02*
X163739000Y-93002000D01*
G75*
G02*
X163989000Y-93252000I0J-250000D01*
G01*
X163989000Y-94252000D01*
G75*
G02*
X163739000Y-94502000I-250000J0D01*
G01*
X161889000Y-94502000D01*
G75*
G02*
X161639000Y-94252000I0J250000D01*
G01*
X161639000Y-93252000D01*
G75*
G02*
X161889000Y-93002000I250000J0D01*
G01*
G37*
%TD*%
%TO.C,C1*%
G36*
G01*
X163435000Y-53757000D02*
X163435000Y-51907000D01*
G75*
G02*
X163685000Y-51657000I250000J0D01*
G01*
X164685000Y-51657000D01*
G75*
G02*
X164935000Y-51907000I0J-250000D01*
G01*
X164935000Y-53757000D01*
G75*
G02*
X164685000Y-54007000I-250000J0D01*
G01*
X163685000Y-54007000D01*
G75*
G02*
X163435000Y-53757000I0J250000D01*
G01*
G37*
G36*
G01*
X160185000Y-53757000D02*
X160185000Y-51907000D01*
G75*
G02*
X160435000Y-51657000I250000J0D01*
G01*
X161435000Y-51657000D01*
G75*
G02*
X161685000Y-51907000I0J-250000D01*
G01*
X161685000Y-53757000D01*
G75*
G02*
X161435000Y-54007000I-250000J0D01*
G01*
X160435000Y-54007000D01*
G75*
G02*
X160185000Y-53757000I0J250000D01*
G01*
G37*
%TD*%
D11*
%TO.C,J2*%
X144780000Y-85090000D03*
X142240000Y-85090000D03*
X144780000Y-82550000D03*
X142240000Y-82550000D03*
X144780000Y-80010000D03*
X142240000Y-80010000D03*
X144780000Y-77470000D03*
X142240000Y-77470000D03*
X144780000Y-74930000D03*
X142240000Y-74930000D03*
X144780000Y-72390000D03*
X142240000Y-72390000D03*
X144780000Y-69850000D03*
X142240000Y-69850000D03*
X144780000Y-67310000D03*
X142240000Y-67310000D03*
X144780000Y-64770000D03*
X142240000Y-64770000D03*
X144780000Y-62230000D03*
X142240000Y-62230000D03*
X144780000Y-59690000D03*
X142240000Y-59690000D03*
X144780000Y-57150000D03*
X142240000Y-57150000D03*
X144780000Y-54610000D03*
D12*
X142240000Y-54610000D03*
%TD*%
D15*
%TO.C,U1*%
X167640000Y-50800000D03*
D12*
X152400000Y-50800000D03*
D15*
X167640000Y-53340000D03*
X152400000Y-53340000D03*
X167640000Y-55880000D03*
X152400000Y-55880000D03*
X167640000Y-58420000D03*
X152400000Y-58420000D03*
X167640000Y-60960000D03*
X152400000Y-60960000D03*
X167640000Y-63500000D03*
X152400000Y-63500000D03*
X167640000Y-66040000D03*
X152400000Y-66040000D03*
X167640000Y-68580000D03*
X152400000Y-68580000D03*
X167640000Y-71120000D03*
X152400000Y-71120000D03*
X167640000Y-73660000D03*
X152400000Y-73660000D03*
X167640000Y-76200000D03*
X152400000Y-76200000D03*
X167640000Y-78740000D03*
X152400000Y-78740000D03*
X167640000Y-81280000D03*
X152400000Y-81280000D03*
X167640000Y-83820000D03*
X152400000Y-83820000D03*
X167640000Y-86360000D03*
X152400000Y-86360000D03*
X167640000Y-88900000D03*
X152400000Y-88900000D03*
X167640000Y-91440000D03*
X152400000Y-91440000D03*
X167640000Y-93980000D03*
X152400000Y-93980000D03*
X167640000Y-96520000D03*
X152400000Y-96520000D03*
X167640000Y-99060000D03*
X152400000Y-99060000D03*
%TD*%
D16*
%TO.C,U3*%
X162495000Y-81915000D03*
X162495000Y-83185000D03*
X162495000Y-84455000D03*
X162495000Y-85725000D03*
X162495000Y-86995000D03*
X162495000Y-88265000D03*
X162495000Y-89535000D03*
X162495000Y-90805000D03*
X157545000Y-90805000D03*
X157545000Y-89535000D03*
X157545000Y-88265000D03*
X157545000Y-86995000D03*
X157545000Y-85725000D03*
X157545000Y-84455000D03*
X157545000Y-83185000D03*
X157545000Y-81915000D03*
%TD*%
%TO.C,U2*%
X162495000Y-56515000D03*
X162495000Y-57785000D03*
X162495000Y-59055000D03*
X162495000Y-60325000D03*
X162495000Y-61595000D03*
X162495000Y-62865000D03*
X162495000Y-64135000D03*
X162495000Y-65405000D03*
X157545000Y-65405000D03*
X157545000Y-64135000D03*
X157545000Y-62865000D03*
X157545000Y-61595000D03*
X157545000Y-60325000D03*
X157545000Y-59055000D03*
X157545000Y-57785000D03*
X157545000Y-56515000D03*
%TD*%
D11*
%TO.C,J1*%
X134620000Y-85090000D03*
X132080000Y-85090000D03*
X134620000Y-82550000D03*
X132080000Y-82550000D03*
X134620000Y-80010000D03*
X132080000Y-80010000D03*
X134620000Y-77470000D03*
X132080000Y-77470000D03*
X134620000Y-74930000D03*
X132080000Y-74930000D03*
X134620000Y-72390000D03*
X132080000Y-72390000D03*
X134620000Y-69850000D03*
X132080000Y-69850000D03*
X134620000Y-67310000D03*
X132080000Y-67310000D03*
X134620000Y-64770000D03*
X132080000Y-64770000D03*
X134620000Y-62230000D03*
X132080000Y-62230000D03*
X134620000Y-59690000D03*
X132080000Y-59690000D03*
X134620000Y-57150000D03*
X132080000Y-57150000D03*
X134620000Y-54610000D03*
D12*
X132080000Y-54610000D03*
%TD*%
M02*
