%TF.GenerationSoftware,KiCad,Pcbnew,(6.0.4-0)*%
%TF.CreationDate,2022-11-20T14:03:23-07:00*%
%TF.ProjectId,bluescsi_iigs_internal,626c7565-7363-4736-995f-696967735f69,rev?*%
%TF.SameCoordinates,Original*%
%TF.FileFunction,Legend,Top*%
%TF.FilePolarity,Positive*%
%FSLAX46Y46*%
G04 Gerber Fmt 4.6, Leading zero omitted, Abs format (unit mm)*
G04 Created by KiCad (PCBNEW (6.0.4-0)) date 2022-11-20 14:03:23*
%MOMM*%
%LPD*%
G01*
G04 APERTURE LIST*
G04 Aperture macros list*
%AMRoundRect*
0 Rectangle with rounded corners*
0 $1 Rounding radius*
0 $2 $3 $4 $5 $6 $7 $8 $9 X,Y pos of 4 corners*
0 Add a 4 corners polygon primitive as box body*
4,1,4,$2,$3,$4,$5,$6,$7,$8,$9,$2,$3,0*
0 Add four circle primitives for the rounded corners*
1,1,$1+$1,$2,$3*
1,1,$1+$1,$4,$5*
1,1,$1+$1,$6,$7*
1,1,$1+$1,$8,$9*
0 Add four rect primitives between the rounded corners*
20,1,$1+$1,$2,$3,$4,$5,0*
20,1,$1+$1,$4,$5,$6,$7,0*
20,1,$1+$1,$6,$7,$8,$9,0*
20,1,$1+$1,$8,$9,$2,$3,0*%
G04 Aperture macros list end*
%ADD10C,0.125000*%
%ADD11C,0.150000*%
%ADD12C,0.200000*%
%ADD13C,0.120000*%
%ADD14R,1.700000X1.700000*%
%ADD15C,1.700000*%
%ADD16R,1.500000X0.700000*%
%ADD17R,0.800000X1.000000*%
%ADD18C,0.900000*%
%ADD19RoundRect,0.249999X0.350001X0.450001X-0.350001X0.450001X-0.350001X-0.450001X0.350001X-0.450001X0*%
%ADD20RoundRect,0.249999X-0.450001X0.325001X-0.450001X-0.325001X0.450001X-0.325001X0.450001X0.325001X0*%
%ADD21R,1.000000X1.500000*%
%ADD22RoundRect,0.249999X-0.350001X-0.450001X0.350001X-0.450001X0.350001X0.450001X-0.350001X0.450001X0*%
%ADD23O,1.700000X1.700000*%
%ADD24C,2.100000*%
%ADD25RoundRect,0.249999X0.450001X-0.325001X0.450001X0.325001X-0.450001X0.325001X-0.450001X-0.325001X0*%
%ADD26R,0.550000X2.910000*%
%ADD27R,2.390000X1.050000*%
%ADD28R,1.200000X1.050000*%
%ADD29R,1.080000X1.050000*%
%ADD30R,0.780000X0.720000*%
%ADD31R,1.000000X0.500000*%
%ADD32R,3.480000X1.846667*%
G04 APERTURE END LIST*
D10*
X132370571Y-99685000D02*
X132334857Y-99649285D01*
X132263428Y-99542142D01*
X132227714Y-99470714D01*
X132192000Y-99363571D01*
X132156285Y-99185000D01*
X132156285Y-99042142D01*
X132192000Y-98863571D01*
X132227714Y-98756428D01*
X132263428Y-98685000D01*
X132334857Y-98577857D01*
X132370571Y-98542142D01*
X132942000Y-99363571D02*
X132870571Y-99399285D01*
X132727714Y-99399285D01*
X132656285Y-99363571D01*
X132620571Y-99292142D01*
X132620571Y-99006428D01*
X132656285Y-98935000D01*
X132727714Y-98899285D01*
X132870571Y-98899285D01*
X132942000Y-98935000D01*
X132977714Y-99006428D01*
X132977714Y-99077857D01*
X132620571Y-99149285D01*
X133299142Y-98899285D02*
X133299142Y-99399285D01*
X133299142Y-98970714D02*
X133334857Y-98935000D01*
X133406285Y-98899285D01*
X133513428Y-98899285D01*
X133584857Y-98935000D01*
X133620571Y-99006428D01*
X133620571Y-99399285D01*
X133942000Y-99363571D02*
X134013428Y-99399285D01*
X134156285Y-99399285D01*
X134227714Y-99363571D01*
X134263428Y-99292142D01*
X134263428Y-99256428D01*
X134227714Y-99185000D01*
X134156285Y-99149285D01*
X134049142Y-99149285D01*
X133977714Y-99113571D01*
X133942000Y-99042142D01*
X133942000Y-99006428D01*
X133977714Y-98935000D01*
X134049142Y-98899285D01*
X134156285Y-98899285D01*
X134227714Y-98935000D01*
X134906285Y-98899285D02*
X134906285Y-99399285D01*
X134584857Y-98899285D02*
X134584857Y-99292142D01*
X134620571Y-99363571D01*
X134692000Y-99399285D01*
X134799142Y-99399285D01*
X134870571Y-99363571D01*
X134906285Y-99327857D01*
X135263428Y-99399285D02*
X135263428Y-98899285D01*
X135263428Y-99042142D02*
X135299142Y-98970714D01*
X135334857Y-98935000D01*
X135406285Y-98899285D01*
X135477714Y-98899285D01*
X136013428Y-99363571D02*
X135942000Y-99399285D01*
X135799142Y-99399285D01*
X135727714Y-99363571D01*
X135692000Y-99292142D01*
X135692000Y-99006428D01*
X135727714Y-98935000D01*
X135799142Y-98899285D01*
X135942000Y-98899285D01*
X136013428Y-98935000D01*
X136049142Y-99006428D01*
X136049142Y-99077857D01*
X135692000Y-99149285D01*
X137263428Y-99363571D02*
X137192000Y-99399285D01*
X137049142Y-99399285D01*
X136977714Y-99363571D01*
X136942000Y-99327857D01*
X136906285Y-99256428D01*
X136906285Y-99042142D01*
X136942000Y-98970714D01*
X136977714Y-98935000D01*
X137049142Y-98899285D01*
X137192000Y-98899285D01*
X137263428Y-98935000D01*
X137692000Y-99399285D02*
X137620571Y-99363571D01*
X137584857Y-99327857D01*
X137549142Y-99256428D01*
X137549142Y-99042142D01*
X137584857Y-98970714D01*
X137620571Y-98935000D01*
X137692000Y-98899285D01*
X137799142Y-98899285D01*
X137870571Y-98935000D01*
X137906285Y-98970714D01*
X137942000Y-99042142D01*
X137942000Y-99256428D01*
X137906285Y-99327857D01*
X137870571Y-99363571D01*
X137799142Y-99399285D01*
X137692000Y-99399285D01*
X138263428Y-99399285D02*
X138263428Y-98899285D01*
X138263428Y-99042142D02*
X138299142Y-98970714D01*
X138334857Y-98935000D01*
X138406285Y-98899285D01*
X138477714Y-98899285D01*
X138727714Y-99399285D02*
X138727714Y-98899285D01*
X138727714Y-99042142D02*
X138763428Y-98970714D01*
X138799142Y-98935000D01*
X138870571Y-98899285D01*
X138942000Y-98899285D01*
X139477714Y-99363571D02*
X139406285Y-99399285D01*
X139263428Y-99399285D01*
X139192000Y-99363571D01*
X139156285Y-99292142D01*
X139156285Y-99006428D01*
X139192000Y-98935000D01*
X139263428Y-98899285D01*
X139406285Y-98899285D01*
X139477714Y-98935000D01*
X139513428Y-99006428D01*
X139513428Y-99077857D01*
X139156285Y-99149285D01*
X140156285Y-99363571D02*
X140084857Y-99399285D01*
X139942000Y-99399285D01*
X139870571Y-99363571D01*
X139834857Y-99327857D01*
X139799142Y-99256428D01*
X139799142Y-99042142D01*
X139834857Y-98970714D01*
X139870571Y-98935000D01*
X139942000Y-98899285D01*
X140084857Y-98899285D01*
X140156285Y-98935000D01*
X140370571Y-98899285D02*
X140656285Y-98899285D01*
X140477714Y-98649285D02*
X140477714Y-99292142D01*
X140513428Y-99363571D01*
X140584857Y-99399285D01*
X140656285Y-99399285D01*
X141477714Y-98899285D02*
X141477714Y-99649285D01*
X141477714Y-98935000D02*
X141549142Y-98899285D01*
X141692000Y-98899285D01*
X141763428Y-98935000D01*
X141799142Y-98970714D01*
X141834857Y-99042142D01*
X141834857Y-99256428D01*
X141799142Y-99327857D01*
X141763428Y-99363571D01*
X141692000Y-99399285D01*
X141549142Y-99399285D01*
X141477714Y-99363571D01*
X142263428Y-99399285D02*
X142192000Y-99363571D01*
X142156285Y-99327857D01*
X142120571Y-99256428D01*
X142120571Y-99042142D01*
X142156285Y-98970714D01*
X142192000Y-98935000D01*
X142263428Y-98899285D01*
X142370571Y-98899285D01*
X142442000Y-98935000D01*
X142477714Y-98970714D01*
X142513428Y-99042142D01*
X142513428Y-99256428D01*
X142477714Y-99327857D01*
X142442000Y-99363571D01*
X142370571Y-99399285D01*
X142263428Y-99399285D01*
X142942000Y-99399285D02*
X142870571Y-99363571D01*
X142834857Y-99292142D01*
X142834857Y-98649285D01*
X143549142Y-99399285D02*
X143549142Y-99006428D01*
X143513428Y-98935000D01*
X143442000Y-98899285D01*
X143299142Y-98899285D01*
X143227714Y-98935000D01*
X143549142Y-99363571D02*
X143477714Y-99399285D01*
X143299142Y-99399285D01*
X143227714Y-99363571D01*
X143192000Y-99292142D01*
X143192000Y-99220714D01*
X143227714Y-99149285D01*
X143299142Y-99113571D01*
X143477714Y-99113571D01*
X143549142Y-99077857D01*
X143906285Y-99399285D02*
X143906285Y-98899285D01*
X143906285Y-99042142D02*
X143942000Y-98970714D01*
X143977714Y-98935000D01*
X144049142Y-98899285D01*
X144120571Y-98899285D01*
X144370571Y-99399285D02*
X144370571Y-98899285D01*
X144370571Y-98649285D02*
X144334857Y-98685000D01*
X144370571Y-98720714D01*
X144406285Y-98685000D01*
X144370571Y-98649285D01*
X144370571Y-98720714D01*
X144620571Y-98899285D02*
X144906285Y-98899285D01*
X144727714Y-98649285D02*
X144727714Y-99292142D01*
X144763428Y-99363571D01*
X144834857Y-99399285D01*
X144906285Y-99399285D01*
X145084857Y-98899285D02*
X145263428Y-99399285D01*
X145442000Y-98899285D02*
X145263428Y-99399285D01*
X145192000Y-99577857D01*
X145156285Y-99613571D01*
X145084857Y-99649285D01*
X145727714Y-99327857D02*
X145763428Y-99363571D01*
X145727714Y-99399285D01*
X145692000Y-99363571D01*
X145727714Y-99327857D01*
X145727714Y-99399285D01*
X145727714Y-99113571D02*
X145692000Y-98685000D01*
X145727714Y-98649285D01*
X145763428Y-98685000D01*
X145727714Y-99113571D01*
X145727714Y-98649285D01*
X146013428Y-99685000D02*
X146049142Y-99649285D01*
X146120571Y-99542142D01*
X146156285Y-99470714D01*
X146192000Y-99363571D01*
X146227714Y-99185000D01*
X146227714Y-99042142D01*
X146192000Y-98863571D01*
X146156285Y-98756428D01*
X146120571Y-98685000D01*
X146049142Y-98577857D01*
X146013428Y-98542142D01*
X133062107Y-92065000D02*
X133026392Y-92029285D01*
X132954964Y-91922142D01*
X132919250Y-91850714D01*
X132883535Y-91743571D01*
X132847821Y-91565000D01*
X132847821Y-91422142D01*
X132883535Y-91243571D01*
X132919250Y-91136428D01*
X132954964Y-91065000D01*
X133026392Y-90957857D01*
X133062107Y-90922142D01*
X133347821Y-91779285D02*
X133347821Y-91279285D01*
X133347821Y-91422142D02*
X133383535Y-91350714D01*
X133419250Y-91315000D01*
X133490678Y-91279285D01*
X133562107Y-91279285D01*
X134097821Y-91743571D02*
X134026392Y-91779285D01*
X133883535Y-91779285D01*
X133812107Y-91743571D01*
X133776392Y-91672142D01*
X133776392Y-91386428D01*
X133812107Y-91315000D01*
X133883535Y-91279285D01*
X134026392Y-91279285D01*
X134097821Y-91315000D01*
X134133535Y-91386428D01*
X134133535Y-91457857D01*
X133776392Y-91529285D01*
X134419250Y-91743571D02*
X134490678Y-91779285D01*
X134633535Y-91779285D01*
X134704964Y-91743571D01*
X134740678Y-91672142D01*
X134740678Y-91636428D01*
X134704964Y-91565000D01*
X134633535Y-91529285D01*
X134526392Y-91529285D01*
X134454964Y-91493571D01*
X134419250Y-91422142D01*
X134419250Y-91386428D01*
X134454964Y-91315000D01*
X134526392Y-91279285D01*
X134633535Y-91279285D01*
X134704964Y-91315000D01*
X135062107Y-91779285D02*
X135062107Y-91279285D01*
X135062107Y-91029285D02*
X135026392Y-91065000D01*
X135062107Y-91100714D01*
X135097821Y-91065000D01*
X135062107Y-91029285D01*
X135062107Y-91100714D01*
X135383535Y-91743571D02*
X135454964Y-91779285D01*
X135597821Y-91779285D01*
X135669250Y-91743571D01*
X135704964Y-91672142D01*
X135704964Y-91636428D01*
X135669250Y-91565000D01*
X135597821Y-91529285D01*
X135490678Y-91529285D01*
X135419250Y-91493571D01*
X135383535Y-91422142D01*
X135383535Y-91386428D01*
X135419250Y-91315000D01*
X135490678Y-91279285D01*
X135597821Y-91279285D01*
X135669250Y-91315000D01*
X135919250Y-91279285D02*
X136204964Y-91279285D01*
X136026392Y-91029285D02*
X136026392Y-91672142D01*
X136062107Y-91743571D01*
X136133535Y-91779285D01*
X136204964Y-91779285D01*
X136562107Y-91779285D02*
X136490678Y-91743571D01*
X136454964Y-91707857D01*
X136419250Y-91636428D01*
X136419250Y-91422142D01*
X136454964Y-91350714D01*
X136490678Y-91315000D01*
X136562107Y-91279285D01*
X136669250Y-91279285D01*
X136740678Y-91315000D01*
X136776392Y-91350714D01*
X136812107Y-91422142D01*
X136812107Y-91636428D01*
X136776392Y-91707857D01*
X136740678Y-91743571D01*
X136669250Y-91779285D01*
X136562107Y-91779285D01*
X137133535Y-91779285D02*
X137133535Y-91279285D01*
X137133535Y-91422142D02*
X137169250Y-91350714D01*
X137204964Y-91315000D01*
X137276392Y-91279285D01*
X137347821Y-91279285D01*
X138169250Y-91779285D02*
X138169250Y-91279285D01*
X138169250Y-91422142D02*
X138204964Y-91350714D01*
X138240678Y-91315000D01*
X138312107Y-91279285D01*
X138383535Y-91279285D01*
X138919250Y-91743571D02*
X138847821Y-91779285D01*
X138704964Y-91779285D01*
X138633535Y-91743571D01*
X138597821Y-91672142D01*
X138597821Y-91386428D01*
X138633535Y-91315000D01*
X138704964Y-91279285D01*
X138847821Y-91279285D01*
X138919250Y-91315000D01*
X138954964Y-91386428D01*
X138954964Y-91457857D01*
X138597821Y-91529285D01*
X139597821Y-91279285D02*
X139597821Y-92029285D01*
X139597821Y-91743571D02*
X139526392Y-91779285D01*
X139383535Y-91779285D01*
X139312107Y-91743571D01*
X139276392Y-91707857D01*
X139240678Y-91636428D01*
X139240678Y-91422142D01*
X139276392Y-91350714D01*
X139312107Y-91315000D01*
X139383535Y-91279285D01*
X139526392Y-91279285D01*
X139597821Y-91315000D01*
X140276392Y-91279285D02*
X140276392Y-91779285D01*
X139954964Y-91279285D02*
X139954964Y-91672142D01*
X139990678Y-91743571D01*
X140062107Y-91779285D01*
X140169250Y-91779285D01*
X140240678Y-91743571D01*
X140276392Y-91707857D01*
X140633535Y-91779285D02*
X140633535Y-91279285D01*
X140633535Y-91029285D02*
X140597821Y-91065000D01*
X140633535Y-91100714D01*
X140669250Y-91065000D01*
X140633535Y-91029285D01*
X140633535Y-91100714D01*
X140990678Y-91779285D02*
X140990678Y-91279285D01*
X140990678Y-91422142D02*
X141026392Y-91350714D01*
X141062107Y-91315000D01*
X141133535Y-91279285D01*
X141204964Y-91279285D01*
X141740678Y-91743571D02*
X141669250Y-91779285D01*
X141526392Y-91779285D01*
X141454964Y-91743571D01*
X141419250Y-91672142D01*
X141419250Y-91386428D01*
X141454964Y-91315000D01*
X141526392Y-91279285D01*
X141669250Y-91279285D01*
X141740678Y-91315000D01*
X141776392Y-91386428D01*
X141776392Y-91457857D01*
X141419250Y-91529285D01*
X142419250Y-91779285D02*
X142419250Y-91029285D01*
X142419250Y-91743571D02*
X142347821Y-91779285D01*
X142204964Y-91779285D01*
X142133535Y-91743571D01*
X142097821Y-91707857D01*
X142062107Y-91636428D01*
X142062107Y-91422142D01*
X142097821Y-91350714D01*
X142133535Y-91315000D01*
X142204964Y-91279285D01*
X142347821Y-91279285D01*
X142419250Y-91315000D01*
X142704964Y-92065000D02*
X142740678Y-92029285D01*
X142812107Y-91922142D01*
X142847821Y-91850714D01*
X142883535Y-91743571D01*
X142919250Y-91565000D01*
X142919250Y-91422142D01*
X142883535Y-91243571D01*
X142847821Y-91136428D01*
X142812107Y-91065000D01*
X142740678Y-90957857D01*
X142704964Y-90922142D01*
D11*
X130747333Y-97702666D02*
X131223523Y-97702666D01*
X130652095Y-97988380D02*
X130985428Y-96988380D01*
X131318761Y-97988380D01*
X132080666Y-97321714D02*
X132080666Y-97988380D01*
X131652095Y-97321714D02*
X131652095Y-97845523D01*
X131699714Y-97940761D01*
X131794952Y-97988380D01*
X131937809Y-97988380D01*
X132033047Y-97940761D01*
X132080666Y-97893142D01*
X132461619Y-97988380D02*
X132985428Y-97321714D01*
X132461619Y-97321714D02*
X132985428Y-97988380D01*
X134128285Y-97607428D02*
X134890190Y-97607428D01*
X134509238Y-97988380D02*
X134509238Y-97226476D01*
X135842571Y-96988380D02*
X135366380Y-96988380D01*
X135318761Y-97464571D01*
X135366380Y-97416952D01*
X135461619Y-97369333D01*
X135699714Y-97369333D01*
X135794952Y-97416952D01*
X135842571Y-97464571D01*
X135890190Y-97559809D01*
X135890190Y-97797904D01*
X135842571Y-97893142D01*
X135794952Y-97940761D01*
X135699714Y-97988380D01*
X135461619Y-97988380D01*
X135366380Y-97940761D01*
X135318761Y-97893142D01*
X136175904Y-96988380D02*
X136509238Y-97988380D01*
X136842571Y-96988380D01*
X137937809Y-97988380D02*
X137937809Y-96988380D01*
X138318761Y-96988380D01*
X138414000Y-97036000D01*
X138461619Y-97083619D01*
X138509238Y-97178857D01*
X138509238Y-97321714D01*
X138461619Y-97416952D01*
X138414000Y-97464571D01*
X138318761Y-97512190D01*
X137937809Y-97512190D01*
X139080666Y-97988380D02*
X138985428Y-97940761D01*
X138937809Y-97893142D01*
X138890190Y-97797904D01*
X138890190Y-97512190D01*
X138937809Y-97416952D01*
X138985428Y-97369333D01*
X139080666Y-97321714D01*
X139223523Y-97321714D01*
X139318761Y-97369333D01*
X139366380Y-97416952D01*
X139414000Y-97512190D01*
X139414000Y-97797904D01*
X139366380Y-97893142D01*
X139318761Y-97940761D01*
X139223523Y-97988380D01*
X139080666Y-97988380D01*
X139747333Y-97321714D02*
X139937809Y-97988380D01*
X140128285Y-97512190D01*
X140318761Y-97988380D01*
X140509238Y-97321714D01*
X141271142Y-97940761D02*
X141175904Y-97988380D01*
X140985428Y-97988380D01*
X140890190Y-97940761D01*
X140842571Y-97845523D01*
X140842571Y-97464571D01*
X140890190Y-97369333D01*
X140985428Y-97321714D01*
X141175904Y-97321714D01*
X141271142Y-97369333D01*
X141318761Y-97464571D01*
X141318761Y-97559809D01*
X140842571Y-97655047D01*
X141747333Y-97988380D02*
X141747333Y-97321714D01*
X141747333Y-97512190D02*
X141794952Y-97416952D01*
X141842571Y-97369333D01*
X141937809Y-97321714D01*
X142033047Y-97321714D01*
X143128285Y-97988380D02*
X143128285Y-96988380D01*
X143604476Y-97321714D02*
X143604476Y-97988380D01*
X143604476Y-97416952D02*
X143652095Y-97369333D01*
X143747333Y-97321714D01*
X143890190Y-97321714D01*
X143985428Y-97369333D01*
X144033047Y-97464571D01*
X144033047Y-97988380D01*
X138537142Y-59500000D02*
X138465714Y-59714285D01*
X138394285Y-59785714D01*
X138251428Y-59857142D01*
X138037142Y-59857142D01*
X137894285Y-59785714D01*
X137822857Y-59714285D01*
X137751428Y-59571428D01*
X137751428Y-59000000D01*
X139251428Y-59000000D01*
X139251428Y-59500000D01*
X139180000Y-59642857D01*
X139108571Y-59714285D01*
X138965714Y-59785714D01*
X138822857Y-59785714D01*
X138680000Y-59714285D01*
X138608571Y-59642857D01*
X138537142Y-59500000D01*
X138537142Y-59000000D01*
X137751428Y-60714285D02*
X137822857Y-60571428D01*
X137965714Y-60500000D01*
X139251428Y-60500000D01*
X138751428Y-61928571D02*
X137751428Y-61928571D01*
X138751428Y-61285714D02*
X137965714Y-61285714D01*
X137822857Y-61357142D01*
X137751428Y-61500000D01*
X137751428Y-61714285D01*
X137822857Y-61857142D01*
X137894285Y-61928571D01*
X137822857Y-63214285D02*
X137751428Y-63071428D01*
X137751428Y-62785714D01*
X137822857Y-62642857D01*
X137965714Y-62571428D01*
X138537142Y-62571428D01*
X138680000Y-62642857D01*
X138751428Y-62785714D01*
X138751428Y-63071428D01*
X138680000Y-63214285D01*
X138537142Y-63285714D01*
X138394285Y-63285714D01*
X138251428Y-62571428D01*
X138322857Y-63928571D02*
X138322857Y-65071428D01*
X139180000Y-66571428D02*
X139251428Y-66428571D01*
X139251428Y-66214285D01*
X139180000Y-66000000D01*
X139037142Y-65857142D01*
X138894285Y-65785714D01*
X138608571Y-65714285D01*
X138394285Y-65714285D01*
X138108571Y-65785714D01*
X137965714Y-65857142D01*
X137822857Y-66000000D01*
X137751428Y-66214285D01*
X137751428Y-66357142D01*
X137822857Y-66571428D01*
X137894285Y-66642857D01*
X138394285Y-66642857D01*
X138394285Y-66357142D01*
X137822857Y-67214285D02*
X137751428Y-67428571D01*
X137751428Y-67785714D01*
X137822857Y-67928571D01*
X137894285Y-68000000D01*
X138037142Y-68071428D01*
X138180000Y-68071428D01*
X138322857Y-68000000D01*
X138394285Y-67928571D01*
X138465714Y-67785714D01*
X138537142Y-67500000D01*
X138608571Y-67357142D01*
X138680000Y-67285714D01*
X138822857Y-67214285D01*
X138965714Y-67214285D01*
X139108571Y-67285714D01*
X139180000Y-67357142D01*
X139251428Y-67500000D01*
X139251428Y-67857142D01*
X139180000Y-68071428D01*
X130428952Y-91622571D02*
X129667047Y-91622571D01*
X130048000Y-91241619D02*
X130048000Y-92003523D01*
X139036619Y-70446285D02*
X140036619Y-70446285D01*
X139703285Y-70922476D02*
X139036619Y-70922476D01*
X139608047Y-70922476D02*
X139655666Y-70970095D01*
X139703285Y-71065333D01*
X139703285Y-71208190D01*
X139655666Y-71303428D01*
X139560428Y-71351047D01*
X139036619Y-71351047D01*
X139703285Y-71684380D02*
X139703285Y-72065333D01*
X140036619Y-71827238D02*
X139179476Y-71827238D01*
X139084238Y-71874857D01*
X139036619Y-71970095D01*
X139036619Y-72065333D01*
X139084238Y-72779619D02*
X139036619Y-72684380D01*
X139036619Y-72493904D01*
X139084238Y-72398666D01*
X139179476Y-72351047D01*
X139560428Y-72351047D01*
X139655666Y-72398666D01*
X139703285Y-72493904D01*
X139703285Y-72684380D01*
X139655666Y-72779619D01*
X139560428Y-72827238D01*
X139465190Y-72827238D01*
X139369952Y-72351047D01*
X139036619Y-73255809D02*
X139703285Y-73255809D01*
X139512809Y-73255809D02*
X139608047Y-73303428D01*
X139655666Y-73351047D01*
X139703285Y-73446285D01*
X139703285Y-73541523D01*
X139703285Y-73874857D02*
X139036619Y-73874857D01*
X139608047Y-73874857D02*
X139655666Y-73922476D01*
X139703285Y-74017714D01*
X139703285Y-74160571D01*
X139655666Y-74255809D01*
X139560428Y-74303428D01*
X139036619Y-74303428D01*
X139036619Y-75208190D02*
X139560428Y-75208190D01*
X139655666Y-75160571D01*
X139703285Y-75065333D01*
X139703285Y-74874857D01*
X139655666Y-74779619D01*
X139084238Y-75208190D02*
X139036619Y-75112952D01*
X139036619Y-74874857D01*
X139084238Y-74779619D01*
X139179476Y-74732000D01*
X139274714Y-74732000D01*
X139369952Y-74779619D01*
X139417571Y-74874857D01*
X139417571Y-75112952D01*
X139465190Y-75208190D01*
X139036619Y-75827238D02*
X139084238Y-75732000D01*
X139179476Y-75684380D01*
X140036619Y-75684380D01*
X139560428Y-77303428D02*
X139512809Y-77446285D01*
X139465190Y-77493904D01*
X139369952Y-77541523D01*
X139227095Y-77541523D01*
X139131857Y-77493904D01*
X139084238Y-77446285D01*
X139036619Y-77351047D01*
X139036619Y-76970095D01*
X140036619Y-76970095D01*
X140036619Y-77303428D01*
X139989000Y-77398666D01*
X139941380Y-77446285D01*
X139846142Y-77493904D01*
X139750904Y-77493904D01*
X139655666Y-77446285D01*
X139608047Y-77398666D01*
X139560428Y-77303428D01*
X139560428Y-76970095D01*
X139036619Y-78112952D02*
X139084238Y-78017714D01*
X139179476Y-77970095D01*
X140036619Y-77970095D01*
X139703285Y-78922476D02*
X139036619Y-78922476D01*
X139703285Y-78493904D02*
X139179476Y-78493904D01*
X139084238Y-78541523D01*
X139036619Y-78636761D01*
X139036619Y-78779619D01*
X139084238Y-78874857D01*
X139131857Y-78922476D01*
X139084238Y-79779619D02*
X139036619Y-79684380D01*
X139036619Y-79493904D01*
X139084238Y-79398666D01*
X139179476Y-79351047D01*
X139560428Y-79351047D01*
X139655666Y-79398666D01*
X139703285Y-79493904D01*
X139703285Y-79684380D01*
X139655666Y-79779619D01*
X139560428Y-79827238D01*
X139465190Y-79827238D01*
X139369952Y-79351047D01*
X139084238Y-80208190D02*
X139036619Y-80351047D01*
X139036619Y-80589142D01*
X139084238Y-80684380D01*
X139131857Y-80732000D01*
X139227095Y-80779619D01*
X139322333Y-80779619D01*
X139417571Y-80732000D01*
X139465190Y-80684380D01*
X139512809Y-80589142D01*
X139560428Y-80398666D01*
X139608047Y-80303428D01*
X139655666Y-80255809D01*
X139750904Y-80208190D01*
X139846142Y-80208190D01*
X139941380Y-80255809D01*
X139989000Y-80303428D01*
X140036619Y-80398666D01*
X140036619Y-80636761D01*
X139989000Y-80779619D01*
X139131857Y-81779619D02*
X139084238Y-81732000D01*
X139036619Y-81589142D01*
X139036619Y-81493904D01*
X139084238Y-81351047D01*
X139179476Y-81255809D01*
X139274714Y-81208190D01*
X139465190Y-81160571D01*
X139608047Y-81160571D01*
X139798523Y-81208190D01*
X139893761Y-81255809D01*
X139989000Y-81351047D01*
X140036619Y-81493904D01*
X140036619Y-81589142D01*
X139989000Y-81732000D01*
X139941380Y-81779619D01*
X139084238Y-82160571D02*
X139036619Y-82303428D01*
X139036619Y-82541523D01*
X139084238Y-82636761D01*
X139131857Y-82684380D01*
X139227095Y-82732000D01*
X139322333Y-82732000D01*
X139417571Y-82684380D01*
X139465190Y-82636761D01*
X139512809Y-82541523D01*
X139560428Y-82351047D01*
X139608047Y-82255809D01*
X139655666Y-82208190D01*
X139750904Y-82160571D01*
X139846142Y-82160571D01*
X139941380Y-82208190D01*
X139989000Y-82255809D01*
X140036619Y-82351047D01*
X140036619Y-82589142D01*
X139989000Y-82732000D01*
X139036619Y-83160571D02*
X140036619Y-83160571D01*
X139703285Y-84255809D02*
X139703285Y-84636761D01*
X139036619Y-84398666D02*
X139893761Y-84398666D01*
X139989000Y-84446285D01*
X140036619Y-84541523D01*
X140036619Y-84636761D01*
X139036619Y-85112952D02*
X139084238Y-85017714D01*
X139131857Y-84970095D01*
X139227095Y-84922476D01*
X139512809Y-84922476D01*
X139608047Y-84970095D01*
X139655666Y-85017714D01*
X139703285Y-85112952D01*
X139703285Y-85255809D01*
X139655666Y-85351047D01*
X139608047Y-85398666D01*
X139512809Y-85446285D01*
X139227095Y-85446285D01*
X139131857Y-85398666D01*
X139084238Y-85351047D01*
X139036619Y-85255809D01*
X139036619Y-85112952D01*
X139036619Y-85874857D02*
X139703285Y-85874857D01*
X139512809Y-85874857D02*
X139608047Y-85922476D01*
X139655666Y-85970095D01*
X139703285Y-86065333D01*
X139703285Y-86160571D01*
X137712333Y-70970095D02*
X137712333Y-71446285D01*
X137426619Y-70874857D02*
X138426619Y-71208190D01*
X137426619Y-71541523D01*
X138093285Y-71874857D02*
X137093285Y-71874857D01*
X138045666Y-71874857D02*
X138093285Y-71970095D01*
X138093285Y-72160571D01*
X138045666Y-72255809D01*
X137998047Y-72303428D01*
X137902809Y-72351047D01*
X137617095Y-72351047D01*
X137521857Y-72303428D01*
X137474238Y-72255809D01*
X137426619Y-72160571D01*
X137426619Y-71970095D01*
X137474238Y-71874857D01*
X138093285Y-72779619D02*
X137093285Y-72779619D01*
X138045666Y-72779619D02*
X138093285Y-72874857D01*
X138093285Y-73065333D01*
X138045666Y-73160571D01*
X137998047Y-73208190D01*
X137902809Y-73255809D01*
X137617095Y-73255809D01*
X137521857Y-73208190D01*
X137474238Y-73160571D01*
X137426619Y-73065333D01*
X137426619Y-72874857D01*
X137474238Y-72779619D01*
X137426619Y-73827238D02*
X137474238Y-73732000D01*
X137569476Y-73684380D01*
X138426619Y-73684380D01*
X137474238Y-74589142D02*
X137426619Y-74493904D01*
X137426619Y-74303428D01*
X137474238Y-74208190D01*
X137569476Y-74160571D01*
X137950428Y-74160571D01*
X138045666Y-74208190D01*
X138093285Y-74303428D01*
X138093285Y-74493904D01*
X138045666Y-74589142D01*
X137950428Y-74636761D01*
X137855190Y-74636761D01*
X137759952Y-74160571D01*
X137426619Y-75827238D02*
X138426619Y-75827238D01*
X137426619Y-76303428D02*
X138426619Y-76303428D01*
X138379000Y-77303428D02*
X138426619Y-77208190D01*
X138426619Y-77065333D01*
X138379000Y-76922476D01*
X138283761Y-76827238D01*
X138188523Y-76779619D01*
X137998047Y-76732000D01*
X137855190Y-76732000D01*
X137664714Y-76779619D01*
X137569476Y-76827238D01*
X137474238Y-76922476D01*
X137426619Y-77065333D01*
X137426619Y-77160571D01*
X137474238Y-77303428D01*
X137521857Y-77351047D01*
X137855190Y-77351047D01*
X137855190Y-77160571D01*
X137474238Y-77732000D02*
X137426619Y-77874857D01*
X137426619Y-78112952D01*
X137474238Y-78208190D01*
X137521857Y-78255809D01*
X137617095Y-78303428D01*
X137712333Y-78303428D01*
X137807571Y-78255809D01*
X137855190Y-78208190D01*
X137902809Y-78112952D01*
X137950428Y-77922476D01*
X137998047Y-77827238D01*
X138045666Y-77779619D01*
X138140904Y-77732000D01*
X138236142Y-77732000D01*
X138331380Y-77779619D01*
X138379000Y-77827238D01*
X138426619Y-77922476D01*
X138426619Y-78160571D01*
X138379000Y-78303428D01*
X137426619Y-79922476D02*
X137950428Y-79922476D01*
X138045666Y-79874857D01*
X138093285Y-79779619D01*
X138093285Y-79589142D01*
X138045666Y-79493904D01*
X137474238Y-79922476D02*
X137426619Y-79827238D01*
X137426619Y-79589142D01*
X137474238Y-79493904D01*
X137569476Y-79446285D01*
X137664714Y-79446285D01*
X137759952Y-79493904D01*
X137807571Y-79589142D01*
X137807571Y-79827238D01*
X137855190Y-79922476D01*
X138093285Y-80398666D02*
X137426619Y-80398666D01*
X137998047Y-80398666D02*
X138045666Y-80446285D01*
X138093285Y-80541523D01*
X138093285Y-80684380D01*
X138045666Y-80779619D01*
X137950428Y-80827238D01*
X137426619Y-80827238D01*
X137426619Y-81732000D02*
X138426619Y-81732000D01*
X137474238Y-81732000D02*
X137426619Y-81636761D01*
X137426619Y-81446285D01*
X137474238Y-81351047D01*
X137521857Y-81303428D01*
X137617095Y-81255809D01*
X137902809Y-81255809D01*
X137998047Y-81303428D01*
X138045666Y-81351047D01*
X138093285Y-81446285D01*
X138093285Y-81636761D01*
X138045666Y-81732000D01*
X138474238Y-83684380D02*
X137188523Y-82827238D01*
X138474238Y-84732000D02*
X137188523Y-83874857D01*
X137474238Y-85446285D02*
X137426619Y-85351047D01*
X137426619Y-85160571D01*
X137474238Y-85065333D01*
X137569476Y-85017714D01*
X137950428Y-85017714D01*
X138045666Y-85065333D01*
X138093285Y-85160571D01*
X138093285Y-85351047D01*
X138045666Y-85446285D01*
X137950428Y-85493904D01*
X137855190Y-85493904D01*
X137759952Y-85017714D01*
X183052738Y-88336380D02*
X183052738Y-87336380D01*
X183433690Y-87336380D01*
X183528928Y-87384000D01*
X183576547Y-87431619D01*
X183624166Y-87526857D01*
X183624166Y-87669714D01*
X183576547Y-87764952D01*
X183528928Y-87812571D01*
X183433690Y-87860190D01*
X183052738Y-87860190D01*
X183957500Y-87336380D02*
X184195595Y-88336380D01*
X184386071Y-87622095D01*
X184576547Y-88336380D01*
X184814642Y-87336380D01*
X185767023Y-88336380D02*
X185433690Y-87860190D01*
X185195595Y-88336380D02*
X185195595Y-87336380D01*
X185576547Y-87336380D01*
X185671785Y-87384000D01*
X185719404Y-87431619D01*
X185767023Y-87526857D01*
X185767023Y-87669714D01*
X185719404Y-87764952D01*
X185671785Y-87812571D01*
X185576547Y-87860190D01*
X185195595Y-87860190D01*
X130129595Y-89971571D02*
X130462928Y-89971571D01*
X130605785Y-90495380D02*
X130129595Y-90495380D01*
X130129595Y-89495380D01*
X130605785Y-89495380D01*
X130939119Y-90495380D02*
X131462928Y-89828714D01*
X130939119Y-89828714D02*
X131462928Y-90495380D01*
X131701023Y-89828714D02*
X132081976Y-89828714D01*
X131843880Y-89495380D02*
X131843880Y-90352523D01*
X131891500Y-90447761D01*
X131986738Y-90495380D01*
X132081976Y-90495380D01*
X132796261Y-90447761D02*
X132701023Y-90495380D01*
X132510547Y-90495380D01*
X132415309Y-90447761D01*
X132367690Y-90352523D01*
X132367690Y-89971571D01*
X132415309Y-89876333D01*
X132510547Y-89828714D01*
X132701023Y-89828714D01*
X132796261Y-89876333D01*
X132843880Y-89971571D01*
X132843880Y-90066809D01*
X132367690Y-90162047D01*
X133272452Y-90495380D02*
X133272452Y-89828714D01*
X133272452Y-90019190D02*
X133320071Y-89923952D01*
X133367690Y-89876333D01*
X133462928Y-89828714D01*
X133558166Y-89828714D01*
X133891500Y-89828714D02*
X133891500Y-90495380D01*
X133891500Y-89923952D02*
X133939119Y-89876333D01*
X134034357Y-89828714D01*
X134177214Y-89828714D01*
X134272452Y-89876333D01*
X134320071Y-89971571D01*
X134320071Y-90495380D01*
X135224833Y-90495380D02*
X135224833Y-89971571D01*
X135177214Y-89876333D01*
X135081976Y-89828714D01*
X134891500Y-89828714D01*
X134796261Y-89876333D01*
X135224833Y-90447761D02*
X135129595Y-90495380D01*
X134891500Y-90495380D01*
X134796261Y-90447761D01*
X134748642Y-90352523D01*
X134748642Y-90257285D01*
X134796261Y-90162047D01*
X134891500Y-90114428D01*
X135129595Y-90114428D01*
X135224833Y-90066809D01*
X135843880Y-90495380D02*
X135748642Y-90447761D01*
X135701023Y-90352523D01*
X135701023Y-89495380D01*
X136939119Y-90209666D02*
X137415309Y-90209666D01*
X136843880Y-90495380D02*
X137177214Y-89495380D01*
X137510547Y-90495380D01*
X138272452Y-90447761D02*
X138177214Y-90495380D01*
X137986738Y-90495380D01*
X137891500Y-90447761D01*
X137843880Y-90400142D01*
X137796261Y-90304904D01*
X137796261Y-90019190D01*
X137843880Y-89923952D01*
X137891500Y-89876333D01*
X137986738Y-89828714D01*
X138177214Y-89828714D01*
X138272452Y-89876333D01*
X138558166Y-89828714D02*
X138939119Y-89828714D01*
X138701023Y-89495380D02*
X138701023Y-90352523D01*
X138748642Y-90447761D01*
X138843880Y-90495380D01*
X138939119Y-90495380D01*
X139272452Y-90495380D02*
X139272452Y-89828714D01*
X139272452Y-89495380D02*
X139224833Y-89543000D01*
X139272452Y-89590619D01*
X139320071Y-89543000D01*
X139272452Y-89495380D01*
X139272452Y-89590619D01*
X139653404Y-89828714D02*
X139891500Y-90495380D01*
X140129595Y-89828714D01*
X140510547Y-90495380D02*
X140510547Y-89828714D01*
X140510547Y-89495380D02*
X140462928Y-89543000D01*
X140510547Y-89590619D01*
X140558166Y-89543000D01*
X140510547Y-89495380D01*
X140510547Y-89590619D01*
X140843880Y-89828714D02*
X141224833Y-89828714D01*
X140986738Y-89495380D02*
X140986738Y-90352523D01*
X141034357Y-90447761D01*
X141129595Y-90495380D01*
X141224833Y-90495380D01*
X141462928Y-89828714D02*
X141701023Y-90495380D01*
X141939119Y-89828714D02*
X141701023Y-90495380D01*
X141605785Y-90733476D01*
X141558166Y-90781095D01*
X141462928Y-90828714D01*
X143558166Y-90495380D02*
X143081976Y-90495380D01*
X143081976Y-89495380D01*
X143891500Y-89971571D02*
X144224833Y-89971571D01*
X144367690Y-90495380D02*
X143891500Y-90495380D01*
X143891500Y-89495380D01*
X144367690Y-89495380D01*
X144796261Y-90495380D02*
X144796261Y-89495380D01*
X145034357Y-89495380D01*
X145177214Y-89543000D01*
X145272452Y-89638238D01*
X145320071Y-89733476D01*
X145367690Y-89923952D01*
X145367690Y-90066809D01*
X145320071Y-90257285D01*
X145272452Y-90352523D01*
X145177214Y-90447761D01*
X145034357Y-90495380D01*
X144796261Y-90495380D01*
X182626047Y-88971428D02*
X183387952Y-88971428D01*
X183007000Y-89352380D02*
X183007000Y-88590476D01*
X178717380Y-77668095D02*
X177717380Y-77668095D01*
X178431666Y-77334761D01*
X177717380Y-77001428D01*
X178717380Y-77001428D01*
X178717380Y-76525238D02*
X178050714Y-76525238D01*
X177717380Y-76525238D02*
X177765000Y-76572857D01*
X177812619Y-76525238D01*
X177765000Y-76477619D01*
X177717380Y-76525238D01*
X177812619Y-76525238D01*
X178669761Y-75620476D02*
X178717380Y-75715714D01*
X178717380Y-75906190D01*
X178669761Y-76001428D01*
X178622142Y-76049047D01*
X178526904Y-76096666D01*
X178241190Y-76096666D01*
X178145952Y-76049047D01*
X178098333Y-76001428D01*
X178050714Y-75906190D01*
X178050714Y-75715714D01*
X178098333Y-75620476D01*
X178717380Y-75191904D02*
X178050714Y-75191904D01*
X178241190Y-75191904D02*
X178145952Y-75144285D01*
X178098333Y-75096666D01*
X178050714Y-75001428D01*
X178050714Y-74906190D01*
X178717380Y-74430000D02*
X178669761Y-74525238D01*
X178622142Y-74572857D01*
X178526904Y-74620476D01*
X178241190Y-74620476D01*
X178145952Y-74572857D01*
X178098333Y-74525238D01*
X178050714Y-74430000D01*
X178050714Y-74287142D01*
X178098333Y-74191904D01*
X178145952Y-74144285D01*
X178241190Y-74096666D01*
X178526904Y-74096666D01*
X178622142Y-74144285D01*
X178669761Y-74191904D01*
X178717380Y-74287142D01*
X178717380Y-74430000D01*
X178669761Y-73715714D02*
X178717380Y-73572857D01*
X178717380Y-73334761D01*
X178669761Y-73239523D01*
X178622142Y-73191904D01*
X178526904Y-73144285D01*
X178431666Y-73144285D01*
X178336428Y-73191904D01*
X178288809Y-73239523D01*
X178241190Y-73334761D01*
X178193571Y-73525238D01*
X178145952Y-73620476D01*
X178098333Y-73668095D01*
X178003095Y-73715714D01*
X177907857Y-73715714D01*
X177812619Y-73668095D01*
X177765000Y-73620476D01*
X177717380Y-73525238D01*
X177717380Y-73287142D01*
X177765000Y-73144285D01*
X178717380Y-72715714D02*
X177717380Y-72715714D01*
X177717380Y-72477619D01*
X177765000Y-72334761D01*
X177860238Y-72239523D01*
X177955476Y-72191904D01*
X178145952Y-72144285D01*
X178288809Y-72144285D01*
X178479285Y-72191904D01*
X178574523Y-72239523D01*
X178669761Y-72334761D01*
X178717380Y-72477619D01*
X178717380Y-72715714D01*
X180232142Y-77691904D02*
X180279761Y-77739523D01*
X180327380Y-77882380D01*
X180327380Y-77977619D01*
X180279761Y-78120476D01*
X180184523Y-78215714D01*
X180089285Y-78263333D01*
X179898809Y-78310952D01*
X179755952Y-78310952D01*
X179565476Y-78263333D01*
X179470238Y-78215714D01*
X179375000Y-78120476D01*
X179327380Y-77977619D01*
X179327380Y-77882380D01*
X179375000Y-77739523D01*
X179422619Y-77691904D01*
X180327380Y-76834761D02*
X179803571Y-76834761D01*
X179708333Y-76882380D01*
X179660714Y-76977619D01*
X179660714Y-77168095D01*
X179708333Y-77263333D01*
X180279761Y-76834761D02*
X180327380Y-76930000D01*
X180327380Y-77168095D01*
X180279761Y-77263333D01*
X180184523Y-77310952D01*
X180089285Y-77310952D01*
X179994047Y-77263333D01*
X179946428Y-77168095D01*
X179946428Y-76930000D01*
X179898809Y-76834761D01*
X180327380Y-76358571D02*
X179660714Y-76358571D01*
X179851190Y-76358571D02*
X179755952Y-76310952D01*
X179708333Y-76263333D01*
X179660714Y-76168095D01*
X179660714Y-76072857D01*
X180327380Y-75310952D02*
X179327380Y-75310952D01*
X180279761Y-75310952D02*
X180327380Y-75406190D01*
X180327380Y-75596666D01*
X180279761Y-75691904D01*
X180232142Y-75739523D01*
X180136904Y-75787142D01*
X179851190Y-75787142D01*
X179755952Y-75739523D01*
X179708333Y-75691904D01*
X179660714Y-75596666D01*
X179660714Y-75406190D01*
X179708333Y-75310952D01*
X180279761Y-74120476D02*
X180327380Y-73977619D01*
X180327380Y-73739523D01*
X180279761Y-73644285D01*
X180232142Y-73596666D01*
X180136904Y-73549047D01*
X180041666Y-73549047D01*
X179946428Y-73596666D01*
X179898809Y-73644285D01*
X179851190Y-73739523D01*
X179803571Y-73930000D01*
X179755952Y-74025238D01*
X179708333Y-74072857D01*
X179613095Y-74120476D01*
X179517857Y-74120476D01*
X179422619Y-74072857D01*
X179375000Y-74025238D01*
X179327380Y-73930000D01*
X179327380Y-73691904D01*
X179375000Y-73549047D01*
X180327380Y-72977619D02*
X180279761Y-73072857D01*
X180184523Y-73120476D01*
X179327380Y-73120476D01*
X180327380Y-72453809D02*
X180279761Y-72549047D01*
X180232142Y-72596666D01*
X180136904Y-72644285D01*
X179851190Y-72644285D01*
X179755952Y-72596666D01*
X179708333Y-72549047D01*
X179660714Y-72453809D01*
X179660714Y-72310952D01*
X179708333Y-72215714D01*
X179755952Y-72168095D01*
X179851190Y-72120476D01*
X180136904Y-72120476D01*
X180232142Y-72168095D01*
X180279761Y-72215714D01*
X180327380Y-72310952D01*
X180327380Y-72453809D01*
X179660714Y-71834761D02*
X179660714Y-71453809D01*
X179327380Y-71691904D02*
X180184523Y-71691904D01*
X180279761Y-71644285D01*
X180327380Y-71549047D01*
X180327380Y-71453809D01*
X186205714Y-80636380D02*
X184777142Y-80636380D01*
X185777142Y-76303047D02*
X185824761Y-76350666D01*
X185872380Y-76493523D01*
X185872380Y-76588761D01*
X185824761Y-76731619D01*
X185729523Y-76826857D01*
X185634285Y-76874476D01*
X185443809Y-76922095D01*
X185300952Y-76922095D01*
X185110476Y-76874476D01*
X185015238Y-76826857D01*
X184920000Y-76731619D01*
X184872380Y-76588761D01*
X184872380Y-76493523D01*
X184920000Y-76350666D01*
X184967619Y-76303047D01*
X185586666Y-75922095D02*
X185586666Y-75445904D01*
X185872380Y-76017333D02*
X184872380Y-75684000D01*
X185872380Y-75350666D01*
X185872380Y-74445904D02*
X185396190Y-74779238D01*
X185872380Y-75017333D02*
X184872380Y-75017333D01*
X184872380Y-74636380D01*
X184920000Y-74541142D01*
X184967619Y-74493523D01*
X185062857Y-74445904D01*
X185205714Y-74445904D01*
X185300952Y-74493523D01*
X185348571Y-74541142D01*
X185396190Y-74636380D01*
X185396190Y-75017333D01*
X185872380Y-74017333D02*
X184872380Y-74017333D01*
X184872380Y-73779238D01*
X184920000Y-73636380D01*
X185015238Y-73541142D01*
X185110476Y-73493523D01*
X185300952Y-73445904D01*
X185443809Y-73445904D01*
X185634285Y-73493523D01*
X185729523Y-73541142D01*
X185824761Y-73636380D01*
X185872380Y-73779238D01*
X185872380Y-74017333D01*
X186205714Y-69731619D02*
X184777142Y-69731619D01*
X130969714Y-50352142D02*
X130922095Y-50399761D01*
X130779238Y-50447380D01*
X130684000Y-50447380D01*
X130541142Y-50399761D01*
X130445904Y-50304523D01*
X130398285Y-50209285D01*
X130350666Y-50018809D01*
X130350666Y-49875952D01*
X130398285Y-49685476D01*
X130445904Y-49590238D01*
X130541142Y-49495000D01*
X130684000Y-49447380D01*
X130779238Y-49447380D01*
X130922095Y-49495000D01*
X130969714Y-49542619D01*
X131588761Y-49447380D02*
X131779238Y-49447380D01*
X131874476Y-49495000D01*
X131969714Y-49590238D01*
X132017333Y-49780714D01*
X132017333Y-50114047D01*
X131969714Y-50304523D01*
X131874476Y-50399761D01*
X131779238Y-50447380D01*
X131588761Y-50447380D01*
X131493523Y-50399761D01*
X131398285Y-50304523D01*
X131350666Y-50114047D01*
X131350666Y-49780714D01*
X131398285Y-49590238D01*
X131493523Y-49495000D01*
X131588761Y-49447380D01*
X132445904Y-50447380D02*
X132445904Y-49447380D01*
X133017333Y-50447380D01*
X133017333Y-49447380D01*
X133493523Y-50447380D02*
X133493523Y-49447380D01*
X134064952Y-50447380D01*
X134064952Y-49447380D01*
X134541142Y-49923571D02*
X134874476Y-49923571D01*
X135017333Y-50447380D02*
X134541142Y-50447380D01*
X134541142Y-49447380D01*
X135017333Y-49447380D01*
X136017333Y-50352142D02*
X135969714Y-50399761D01*
X135826857Y-50447380D01*
X135731619Y-50447380D01*
X135588761Y-50399761D01*
X135493523Y-50304523D01*
X135445904Y-50209285D01*
X135398285Y-50018809D01*
X135398285Y-49875952D01*
X135445904Y-49685476D01*
X135493523Y-49590238D01*
X135588761Y-49495000D01*
X135731619Y-49447380D01*
X135826857Y-49447380D01*
X135969714Y-49495000D01*
X136017333Y-49542619D01*
X136303047Y-49447380D02*
X136874476Y-49447380D01*
X136588761Y-50447380D02*
X136588761Y-49447380D01*
X137207809Y-50447380D02*
X137207809Y-49447380D01*
X137874476Y-49447380D02*
X138064952Y-49447380D01*
X138160190Y-49495000D01*
X138255428Y-49590238D01*
X138303047Y-49780714D01*
X138303047Y-50114047D01*
X138255428Y-50304523D01*
X138160190Y-50399761D01*
X138064952Y-50447380D01*
X137874476Y-50447380D01*
X137779238Y-50399761D01*
X137684000Y-50304523D01*
X137636380Y-50114047D01*
X137636380Y-49780714D01*
X137684000Y-49590238D01*
X137779238Y-49495000D01*
X137874476Y-49447380D01*
X138731619Y-50447380D02*
X138731619Y-49447380D01*
X139303047Y-50447380D01*
X139303047Y-49447380D01*
X139731619Y-50399761D02*
X139874476Y-50447380D01*
X140112571Y-50447380D01*
X140207809Y-50399761D01*
X140255428Y-50352142D01*
X140303047Y-50256904D01*
X140303047Y-50161666D01*
X140255428Y-50066428D01*
X140207809Y-50018809D01*
X140112571Y-49971190D01*
X139922095Y-49923571D01*
X139826857Y-49875952D01*
X139779238Y-49828333D01*
X139731619Y-49733095D01*
X139731619Y-49637857D01*
X139779238Y-49542619D01*
X139826857Y-49495000D01*
X139922095Y-49447380D01*
X140160190Y-49447380D01*
X140303047Y-49495000D01*
X141350666Y-49447380D02*
X141922095Y-49447380D01*
X141636380Y-50447380D02*
X141636380Y-49447380D01*
X142445904Y-49447380D02*
X142636380Y-49447380D01*
X142731619Y-49495000D01*
X142826857Y-49590238D01*
X142874476Y-49780714D01*
X142874476Y-50114047D01*
X142826857Y-50304523D01*
X142731619Y-50399761D01*
X142636380Y-50447380D01*
X142445904Y-50447380D01*
X142350666Y-50399761D01*
X142255428Y-50304523D01*
X142207809Y-50114047D01*
X142207809Y-49780714D01*
X142255428Y-49590238D01*
X142350666Y-49495000D01*
X142445904Y-49447380D01*
X144017333Y-50399761D02*
X144160190Y-50447380D01*
X144398285Y-50447380D01*
X144493523Y-50399761D01*
X144541142Y-50352142D01*
X144588761Y-50256904D01*
X144588761Y-50161666D01*
X144541142Y-50066428D01*
X144493523Y-50018809D01*
X144398285Y-49971190D01*
X144207809Y-49923571D01*
X144112571Y-49875952D01*
X144064952Y-49828333D01*
X144017333Y-49733095D01*
X144017333Y-49637857D01*
X144064952Y-49542619D01*
X144112571Y-49495000D01*
X144207809Y-49447380D01*
X144445904Y-49447380D01*
X144588761Y-49495000D01*
X145588761Y-50352142D02*
X145541142Y-50399761D01*
X145398285Y-50447380D01*
X145303047Y-50447380D01*
X145160190Y-50399761D01*
X145064952Y-50304523D01*
X145017333Y-50209285D01*
X144969714Y-50018809D01*
X144969714Y-49875952D01*
X145017333Y-49685476D01*
X145064952Y-49590238D01*
X145160190Y-49495000D01*
X145303047Y-49447380D01*
X145398285Y-49447380D01*
X145541142Y-49495000D01*
X145588761Y-49542619D01*
X145969714Y-50399761D02*
X146112571Y-50447380D01*
X146350666Y-50447380D01*
X146445904Y-50399761D01*
X146493523Y-50352142D01*
X146541142Y-50256904D01*
X146541142Y-50161666D01*
X146493523Y-50066428D01*
X146445904Y-50018809D01*
X146350666Y-49971190D01*
X146160190Y-49923571D01*
X146064952Y-49875952D01*
X146017333Y-49828333D01*
X145969714Y-49733095D01*
X145969714Y-49637857D01*
X146017333Y-49542619D01*
X146064952Y-49495000D01*
X146160190Y-49447380D01*
X146398285Y-49447380D01*
X146541142Y-49495000D01*
X146969714Y-50447380D02*
X146969714Y-49447380D01*
X130517333Y-51962142D02*
X130469714Y-52009761D01*
X130326857Y-52057380D01*
X130231619Y-52057380D01*
X130088761Y-52009761D01*
X129993523Y-51914523D01*
X129945904Y-51819285D01*
X129898285Y-51628809D01*
X129898285Y-51485952D01*
X129945904Y-51295476D01*
X129993523Y-51200238D01*
X130088761Y-51105000D01*
X130231619Y-51057380D01*
X130326857Y-51057380D01*
X130469714Y-51105000D01*
X130517333Y-51152619D01*
X130898285Y-51771666D02*
X131374476Y-51771666D01*
X130803047Y-52057380D02*
X131136380Y-51057380D01*
X131469714Y-52057380D01*
X132374476Y-52057380D02*
X132041142Y-51581190D01*
X131803047Y-52057380D02*
X131803047Y-51057380D01*
X132184000Y-51057380D01*
X132279238Y-51105000D01*
X132326857Y-51152619D01*
X132374476Y-51247857D01*
X132374476Y-51390714D01*
X132326857Y-51485952D01*
X132279238Y-51533571D01*
X132184000Y-51581190D01*
X131803047Y-51581190D01*
X132803047Y-52057380D02*
X132803047Y-51057380D01*
X133041142Y-51057380D01*
X133184000Y-51105000D01*
X133279238Y-51200238D01*
X133326857Y-51295476D01*
X133374476Y-51485952D01*
X133374476Y-51628809D01*
X133326857Y-51819285D01*
X133279238Y-51914523D01*
X133184000Y-52009761D01*
X133041142Y-52057380D01*
X132803047Y-52057380D01*
X134517333Y-51771666D02*
X134993523Y-51771666D01*
X134422095Y-52057380D02*
X134755428Y-51057380D01*
X135088761Y-52057380D01*
X135422095Y-52057380D02*
X135422095Y-51057380D01*
X135993523Y-52057380D01*
X135993523Y-51057380D01*
X136469714Y-52057380D02*
X136469714Y-51057380D01*
X136707809Y-51057380D01*
X136850666Y-51105000D01*
X136945904Y-51200238D01*
X136993523Y-51295476D01*
X137041142Y-51485952D01*
X137041142Y-51628809D01*
X136993523Y-51819285D01*
X136945904Y-51914523D01*
X136850666Y-52009761D01*
X136707809Y-52057380D01*
X136469714Y-52057380D01*
X138803047Y-52057380D02*
X138469714Y-51581190D01*
X138231619Y-52057380D02*
X138231619Y-51057380D01*
X138612571Y-51057380D01*
X138707809Y-51105000D01*
X138755428Y-51152619D01*
X138803047Y-51247857D01*
X138803047Y-51390714D01*
X138755428Y-51485952D01*
X138707809Y-51533571D01*
X138612571Y-51581190D01*
X138231619Y-51581190D01*
X139231619Y-51533571D02*
X139564952Y-51533571D01*
X139707809Y-52057380D02*
X139231619Y-52057380D01*
X139231619Y-51057380D01*
X139707809Y-51057380D01*
X140088761Y-51771666D02*
X140564952Y-51771666D01*
X139993523Y-52057380D02*
X140326857Y-51057380D01*
X140660190Y-52057380D01*
X141564952Y-52057380D02*
X141231619Y-51581190D01*
X140993523Y-52057380D02*
X140993523Y-51057380D01*
X141374476Y-51057380D01*
X141469714Y-51105000D01*
X141517333Y-51152619D01*
X141564952Y-51247857D01*
X141564952Y-51390714D01*
X141517333Y-51485952D01*
X141469714Y-51533571D01*
X141374476Y-51581190D01*
X140993523Y-51581190D01*
X142755428Y-52057380D02*
X142755428Y-51057380D01*
X142993523Y-51057380D01*
X143136380Y-51105000D01*
X143231619Y-51200238D01*
X143279238Y-51295476D01*
X143326857Y-51485952D01*
X143326857Y-51628809D01*
X143279238Y-51819285D01*
X143231619Y-51914523D01*
X143136380Y-52009761D01*
X142993523Y-52057380D01*
X142755428Y-52057380D01*
X144088761Y-51533571D02*
X144231619Y-51581190D01*
X144279238Y-51628809D01*
X144326857Y-51724047D01*
X144326857Y-51866904D01*
X144279238Y-51962142D01*
X144231619Y-52009761D01*
X144136380Y-52057380D01*
X143755428Y-52057380D01*
X143755428Y-51057380D01*
X144088761Y-51057380D01*
X144184000Y-51105000D01*
X144231619Y-51152619D01*
X144279238Y-51247857D01*
X144279238Y-51343095D01*
X144231619Y-51438333D01*
X144184000Y-51485952D01*
X144088761Y-51533571D01*
X143755428Y-51533571D01*
X144755428Y-51676428D02*
X145517333Y-51676428D01*
X145945904Y-51152619D02*
X145993523Y-51105000D01*
X146088761Y-51057380D01*
X146326857Y-51057380D01*
X146422095Y-51105000D01*
X146469714Y-51152619D01*
X146517333Y-51247857D01*
X146517333Y-51343095D01*
X146469714Y-51485952D01*
X145898285Y-52057380D01*
X146517333Y-52057380D01*
X147422095Y-51057380D02*
X146945904Y-51057380D01*
X146898285Y-51533571D01*
X146945904Y-51485952D01*
X147041142Y-51438333D01*
X147279238Y-51438333D01*
X147374476Y-51485952D01*
X147422095Y-51533571D01*
X147469714Y-51628809D01*
X147469714Y-51866904D01*
X147422095Y-51962142D01*
X147374476Y-52009761D01*
X147279238Y-52057380D01*
X147041142Y-52057380D01*
X146945904Y-52009761D01*
X146898285Y-51962142D01*
X181316380Y-57951619D02*
X181316380Y-57761142D01*
X181364000Y-57665904D01*
X181459238Y-57570666D01*
X181649714Y-57523047D01*
X181983047Y-57523047D01*
X182173523Y-57570666D01*
X182268761Y-57665904D01*
X182316380Y-57761142D01*
X182316380Y-57951619D01*
X182268761Y-58046857D01*
X182173523Y-58142095D01*
X181983047Y-58189714D01*
X181649714Y-58189714D01*
X181459238Y-58142095D01*
X181364000Y-58046857D01*
X181316380Y-57951619D01*
X181649714Y-57094476D02*
X182316380Y-57094476D01*
X181744952Y-57094476D02*
X181697333Y-57046857D01*
X181649714Y-56951619D01*
X181649714Y-56808761D01*
X181697333Y-56713523D01*
X181792571Y-56665904D01*
X182316380Y-56665904D01*
X179792380Y-65856904D02*
X179792380Y-65285476D01*
X180792380Y-65571190D02*
X179792380Y-65571190D01*
X180744761Y-64571190D02*
X180792380Y-64666428D01*
X180792380Y-64856904D01*
X180744761Y-64952142D01*
X180649523Y-64999761D01*
X180268571Y-64999761D01*
X180173333Y-64952142D01*
X180125714Y-64856904D01*
X180125714Y-64666428D01*
X180173333Y-64571190D01*
X180268571Y-64523571D01*
X180363809Y-64523571D01*
X180459047Y-64999761D01*
X180792380Y-64095000D02*
X180125714Y-64095000D01*
X180316190Y-64095000D02*
X180220952Y-64047380D01*
X180173333Y-63999761D01*
X180125714Y-63904523D01*
X180125714Y-63809285D01*
X180792380Y-63475952D02*
X180125714Y-63475952D01*
X180220952Y-63475952D02*
X180173333Y-63428333D01*
X180125714Y-63333095D01*
X180125714Y-63190238D01*
X180173333Y-63095000D01*
X180268571Y-63047380D01*
X180792380Y-63047380D01*
X180268571Y-63047380D02*
X180173333Y-62999761D01*
X180125714Y-62904523D01*
X180125714Y-62761666D01*
X180173333Y-62666428D01*
X180268571Y-62618809D01*
X180792380Y-62618809D01*
X180792380Y-62142619D02*
X180125714Y-62142619D01*
X179792380Y-62142619D02*
X179840000Y-62190238D01*
X179887619Y-62142619D01*
X179840000Y-62095000D01*
X179792380Y-62142619D01*
X179887619Y-62142619D01*
X180125714Y-61666428D02*
X180792380Y-61666428D01*
X180220952Y-61666428D02*
X180173333Y-61618809D01*
X180125714Y-61523571D01*
X180125714Y-61380714D01*
X180173333Y-61285476D01*
X180268571Y-61237857D01*
X180792380Y-61237857D01*
X180792380Y-60333095D02*
X180268571Y-60333095D01*
X180173333Y-60380714D01*
X180125714Y-60475952D01*
X180125714Y-60666428D01*
X180173333Y-60761666D01*
X180744761Y-60333095D02*
X180792380Y-60428333D01*
X180792380Y-60666428D01*
X180744761Y-60761666D01*
X180649523Y-60809285D01*
X180554285Y-60809285D01*
X180459047Y-60761666D01*
X180411428Y-60666428D01*
X180411428Y-60428333D01*
X180363809Y-60333095D01*
X180125714Y-59999761D02*
X180125714Y-59618809D01*
X179792380Y-59856904D02*
X180649523Y-59856904D01*
X180744761Y-59809285D01*
X180792380Y-59714047D01*
X180792380Y-59618809D01*
X180792380Y-59285476D02*
X180125714Y-59285476D01*
X179792380Y-59285476D02*
X179840000Y-59333095D01*
X179887619Y-59285476D01*
X179840000Y-59237857D01*
X179792380Y-59285476D01*
X179887619Y-59285476D01*
X180792380Y-58666428D02*
X180744761Y-58761666D01*
X180697142Y-58809285D01*
X180601904Y-58856904D01*
X180316190Y-58856904D01*
X180220952Y-58809285D01*
X180173333Y-58761666D01*
X180125714Y-58666428D01*
X180125714Y-58523571D01*
X180173333Y-58428333D01*
X180220952Y-58380714D01*
X180316190Y-58333095D01*
X180601904Y-58333095D01*
X180697142Y-58380714D01*
X180744761Y-58428333D01*
X180792380Y-58523571D01*
X180792380Y-58666428D01*
X180125714Y-57904523D02*
X180792380Y-57904523D01*
X180220952Y-57904523D02*
X180173333Y-57856904D01*
X180125714Y-57761666D01*
X180125714Y-57618809D01*
X180173333Y-57523571D01*
X180268571Y-57475952D01*
X180792380Y-57475952D01*
X157377142Y-90493380D02*
X157377142Y-89493380D01*
X157853333Y-89826714D02*
X157853333Y-90493380D01*
X157853333Y-89921952D02*
X157900952Y-89874333D01*
X157996190Y-89826714D01*
X158139047Y-89826714D01*
X158234285Y-89874333D01*
X158281904Y-89969571D01*
X158281904Y-90493380D01*
X158615238Y-89826714D02*
X158996190Y-89826714D01*
X158758095Y-89493380D02*
X158758095Y-90350523D01*
X158805714Y-90445761D01*
X158900952Y-90493380D01*
X158996190Y-90493380D01*
X159710476Y-90445761D02*
X159615238Y-90493380D01*
X159424761Y-90493380D01*
X159329523Y-90445761D01*
X159281904Y-90350523D01*
X159281904Y-89969571D01*
X159329523Y-89874333D01*
X159424761Y-89826714D01*
X159615238Y-89826714D01*
X159710476Y-89874333D01*
X159758095Y-89969571D01*
X159758095Y-90064809D01*
X159281904Y-90160047D01*
X160186666Y-90493380D02*
X160186666Y-89826714D01*
X160186666Y-90017190D02*
X160234285Y-89921952D01*
X160281904Y-89874333D01*
X160377142Y-89826714D01*
X160472380Y-89826714D01*
X160805714Y-89826714D02*
X160805714Y-90493380D01*
X160805714Y-89921952D02*
X160853333Y-89874333D01*
X160948571Y-89826714D01*
X161091428Y-89826714D01*
X161186666Y-89874333D01*
X161234285Y-89969571D01*
X161234285Y-90493380D01*
X162139047Y-90493380D02*
X162139047Y-89969571D01*
X162091428Y-89874333D01*
X161996190Y-89826714D01*
X161805714Y-89826714D01*
X161710476Y-89874333D01*
X162139047Y-90445761D02*
X162043809Y-90493380D01*
X161805714Y-90493380D01*
X161710476Y-90445761D01*
X161662857Y-90350523D01*
X161662857Y-90255285D01*
X161710476Y-90160047D01*
X161805714Y-90112428D01*
X162043809Y-90112428D01*
X162139047Y-90064809D01*
X162758095Y-90493380D02*
X162662857Y-90445761D01*
X162615238Y-90350523D01*
X162615238Y-89493380D01*
X157258095Y-91579571D02*
X157400952Y-91627190D01*
X157448571Y-91674809D01*
X157496190Y-91770047D01*
X157496190Y-91912904D01*
X157448571Y-92008142D01*
X157400952Y-92055761D01*
X157305714Y-92103380D01*
X156924761Y-92103380D01*
X156924761Y-91103380D01*
X157258095Y-91103380D01*
X157353333Y-91151000D01*
X157400952Y-91198619D01*
X157448571Y-91293857D01*
X157448571Y-91389095D01*
X157400952Y-91484333D01*
X157353333Y-91531952D01*
X157258095Y-91579571D01*
X156924761Y-91579571D01*
X158067619Y-92103380D02*
X157972380Y-92055761D01*
X157924761Y-91960523D01*
X157924761Y-91103380D01*
X158877142Y-91436714D02*
X158877142Y-92103380D01*
X158448571Y-91436714D02*
X158448571Y-91960523D01*
X158496190Y-92055761D01*
X158591428Y-92103380D01*
X158734285Y-92103380D01*
X158829523Y-92055761D01*
X158877142Y-92008142D01*
X159734285Y-92055761D02*
X159639047Y-92103380D01*
X159448571Y-92103380D01*
X159353333Y-92055761D01*
X159305714Y-91960523D01*
X159305714Y-91579571D01*
X159353333Y-91484333D01*
X159448571Y-91436714D01*
X159639047Y-91436714D01*
X159734285Y-91484333D01*
X159781904Y-91579571D01*
X159781904Y-91674809D01*
X159305714Y-91770047D01*
X160162857Y-92055761D02*
X160305714Y-92103380D01*
X160543809Y-92103380D01*
X160639047Y-92055761D01*
X160686666Y-92008142D01*
X160734285Y-91912904D01*
X160734285Y-91817666D01*
X160686666Y-91722428D01*
X160639047Y-91674809D01*
X160543809Y-91627190D01*
X160353333Y-91579571D01*
X160258095Y-91531952D01*
X160210476Y-91484333D01*
X160162857Y-91389095D01*
X160162857Y-91293857D01*
X160210476Y-91198619D01*
X160258095Y-91151000D01*
X160353333Y-91103380D01*
X160591428Y-91103380D01*
X160734285Y-91151000D01*
X161734285Y-92008142D02*
X161686666Y-92055761D01*
X161543809Y-92103380D01*
X161448571Y-92103380D01*
X161305714Y-92055761D01*
X161210476Y-91960523D01*
X161162857Y-91865285D01*
X161115238Y-91674809D01*
X161115238Y-91531952D01*
X161162857Y-91341476D01*
X161210476Y-91246238D01*
X161305714Y-91151000D01*
X161448571Y-91103380D01*
X161543809Y-91103380D01*
X161686666Y-91151000D01*
X161734285Y-91198619D01*
X162115238Y-92055761D02*
X162258095Y-92103380D01*
X162496190Y-92103380D01*
X162591428Y-92055761D01*
X162639047Y-92008142D01*
X162686666Y-91912904D01*
X162686666Y-91817666D01*
X162639047Y-91722428D01*
X162591428Y-91674809D01*
X162496190Y-91627190D01*
X162305714Y-91579571D01*
X162210476Y-91531952D01*
X162162857Y-91484333D01*
X162115238Y-91389095D01*
X162115238Y-91293857D01*
X162162857Y-91198619D01*
X162210476Y-91151000D01*
X162305714Y-91103380D01*
X162543809Y-91103380D01*
X162686666Y-91151000D01*
X163115238Y-92103380D02*
X163115238Y-91103380D01*
X156662857Y-93046714D02*
X157043809Y-93046714D01*
X156805714Y-93713380D02*
X156805714Y-92856238D01*
X156853333Y-92761000D01*
X156948571Y-92713380D01*
X157043809Y-92713380D01*
X157520000Y-93713380D02*
X157424761Y-93665761D01*
X157377142Y-93618142D01*
X157329523Y-93522904D01*
X157329523Y-93237190D01*
X157377142Y-93141952D01*
X157424761Y-93094333D01*
X157520000Y-93046714D01*
X157662857Y-93046714D01*
X157758095Y-93094333D01*
X157805714Y-93141952D01*
X157853333Y-93237190D01*
X157853333Y-93522904D01*
X157805714Y-93618142D01*
X157758095Y-93665761D01*
X157662857Y-93713380D01*
X157520000Y-93713380D01*
X158281904Y-93713380D02*
X158281904Y-93046714D01*
X158281904Y-93237190D02*
X158329523Y-93141952D01*
X158377142Y-93094333D01*
X158472380Y-93046714D01*
X158567619Y-93046714D01*
X159615238Y-93427666D02*
X160091428Y-93427666D01*
X159520000Y-93713380D02*
X159853333Y-92713380D01*
X160186666Y-93713380D01*
X160520000Y-93046714D02*
X160520000Y-94046714D01*
X160520000Y-93094333D02*
X160615238Y-93046714D01*
X160805714Y-93046714D01*
X160900952Y-93094333D01*
X160948571Y-93141952D01*
X160996190Y-93237190D01*
X160996190Y-93522904D01*
X160948571Y-93618142D01*
X160900952Y-93665761D01*
X160805714Y-93713380D01*
X160615238Y-93713380D01*
X160520000Y-93665761D01*
X161424761Y-93046714D02*
X161424761Y-94046714D01*
X161424761Y-93094333D02*
X161520000Y-93046714D01*
X161710476Y-93046714D01*
X161805714Y-93094333D01*
X161853333Y-93141952D01*
X161900952Y-93237190D01*
X161900952Y-93522904D01*
X161853333Y-93618142D01*
X161805714Y-93665761D01*
X161710476Y-93713380D01*
X161520000Y-93713380D01*
X161424761Y-93665761D01*
X162472380Y-93713380D02*
X162377142Y-93665761D01*
X162329523Y-93570523D01*
X162329523Y-92713380D01*
X163234285Y-93665761D02*
X163139047Y-93713380D01*
X162948571Y-93713380D01*
X162853333Y-93665761D01*
X162805714Y-93570523D01*
X162805714Y-93189571D01*
X162853333Y-93094333D01*
X162948571Y-93046714D01*
X163139047Y-93046714D01*
X163234285Y-93094333D01*
X163281904Y-93189571D01*
X163281904Y-93284809D01*
X162805714Y-93380047D01*
X155329523Y-95323380D02*
X155329523Y-94323380D01*
X155805714Y-95323380D02*
X155805714Y-94323380D01*
X156710476Y-94656714D02*
X156710476Y-95466238D01*
X156662857Y-95561476D01*
X156615238Y-95609095D01*
X156520000Y-95656714D01*
X156377142Y-95656714D01*
X156281904Y-95609095D01*
X156710476Y-95275761D02*
X156615238Y-95323380D01*
X156424761Y-95323380D01*
X156329523Y-95275761D01*
X156281904Y-95228142D01*
X156234285Y-95132904D01*
X156234285Y-94847190D01*
X156281904Y-94751952D01*
X156329523Y-94704333D01*
X156424761Y-94656714D01*
X156615238Y-94656714D01*
X156710476Y-94704333D01*
X157139047Y-95275761D02*
X157234285Y-95323380D01*
X157424761Y-95323380D01*
X157520000Y-95275761D01*
X157567619Y-95180523D01*
X157567619Y-95132904D01*
X157520000Y-95037666D01*
X157424761Y-94990047D01*
X157281904Y-94990047D01*
X157186666Y-94942428D01*
X157139047Y-94847190D01*
X157139047Y-94799571D01*
X157186666Y-94704333D01*
X157281904Y-94656714D01*
X157424761Y-94656714D01*
X157520000Y-94704333D01*
X159186666Y-95323380D02*
X159186666Y-94799571D01*
X159139047Y-94704333D01*
X159043809Y-94656714D01*
X158853333Y-94656714D01*
X158758095Y-94704333D01*
X159186666Y-95275761D02*
X159091428Y-95323380D01*
X158853333Y-95323380D01*
X158758095Y-95275761D01*
X158710476Y-95180523D01*
X158710476Y-95085285D01*
X158758095Y-94990047D01*
X158853333Y-94942428D01*
X159091428Y-94942428D01*
X159186666Y-94894809D01*
X159662857Y-94656714D02*
X159662857Y-95323380D01*
X159662857Y-94751952D02*
X159710476Y-94704333D01*
X159805714Y-94656714D01*
X159948571Y-94656714D01*
X160043809Y-94704333D01*
X160091428Y-94799571D01*
X160091428Y-95323380D01*
X160996190Y-95323380D02*
X160996190Y-94323380D01*
X160996190Y-95275761D02*
X160900952Y-95323380D01*
X160710476Y-95323380D01*
X160615238Y-95275761D01*
X160567619Y-95228142D01*
X160520000Y-95132904D01*
X160520000Y-94847190D01*
X160567619Y-94751952D01*
X160615238Y-94704333D01*
X160710476Y-94656714D01*
X160900952Y-94656714D01*
X160996190Y-94704333D01*
X162948571Y-94275761D02*
X162091428Y-95561476D01*
X163996190Y-94275761D02*
X163139047Y-95561476D01*
X164710476Y-95275761D02*
X164615238Y-95323380D01*
X164424761Y-95323380D01*
X164329523Y-95275761D01*
X164281904Y-95180523D01*
X164281904Y-94799571D01*
X164329523Y-94704333D01*
X164424761Y-94656714D01*
X164615238Y-94656714D01*
X164710476Y-94704333D01*
X164758095Y-94799571D01*
X164758095Y-94894809D01*
X164281904Y-94990047D01*
X157829523Y-71776761D02*
X157972380Y-71824380D01*
X158210476Y-71824380D01*
X158305714Y-71776761D01*
X158353333Y-71729142D01*
X158400952Y-71633904D01*
X158400952Y-71538666D01*
X158353333Y-71443428D01*
X158305714Y-71395809D01*
X158210476Y-71348190D01*
X158020000Y-71300571D01*
X157924761Y-71252952D01*
X157877142Y-71205333D01*
X157829523Y-71110095D01*
X157829523Y-71014857D01*
X157877142Y-70919619D01*
X157924761Y-70872000D01*
X158020000Y-70824380D01*
X158258095Y-70824380D01*
X158400952Y-70872000D01*
X158686666Y-70824380D02*
X159258095Y-70824380D01*
X158972380Y-71824380D02*
X158972380Y-70824380D01*
X159591428Y-71824380D02*
X159591428Y-70824380D01*
X159924761Y-71538666D01*
X160258095Y-70824380D01*
X160258095Y-71824380D01*
X160639047Y-70824380D02*
X161258095Y-70824380D01*
X160924761Y-71205333D01*
X161067619Y-71205333D01*
X161162857Y-71252952D01*
X161210476Y-71300571D01*
X161258095Y-71395809D01*
X161258095Y-71633904D01*
X161210476Y-71729142D01*
X161162857Y-71776761D01*
X161067619Y-71824380D01*
X160781904Y-71824380D01*
X160686666Y-71776761D01*
X160639047Y-71729142D01*
X161639047Y-70919619D02*
X161686666Y-70872000D01*
X161781904Y-70824380D01*
X162020000Y-70824380D01*
X162115238Y-70872000D01*
X162162857Y-70919619D01*
X162210476Y-71014857D01*
X162210476Y-71110095D01*
X162162857Y-71252952D01*
X161591428Y-71824380D01*
X162210476Y-71824380D01*
X156781904Y-72910571D02*
X156924761Y-72958190D01*
X156972380Y-73005809D01*
X157020000Y-73101047D01*
X157020000Y-73243904D01*
X156972380Y-73339142D01*
X156924761Y-73386761D01*
X156829523Y-73434380D01*
X156448571Y-73434380D01*
X156448571Y-72434380D01*
X156781904Y-72434380D01*
X156877142Y-72482000D01*
X156924761Y-72529619D01*
X156972380Y-72624857D01*
X156972380Y-72720095D01*
X156924761Y-72815333D01*
X156877142Y-72862952D01*
X156781904Y-72910571D01*
X156448571Y-72910571D01*
X157924761Y-73434380D02*
X157448571Y-73434380D01*
X157448571Y-72434380D01*
X158258095Y-72434380D02*
X158258095Y-73243904D01*
X158305714Y-73339142D01*
X158353333Y-73386761D01*
X158448571Y-73434380D01*
X158639047Y-73434380D01*
X158734285Y-73386761D01*
X158781904Y-73339142D01*
X158829523Y-73243904D01*
X158829523Y-72434380D01*
X159305714Y-72910571D02*
X159639047Y-72910571D01*
X159781904Y-73434380D02*
X159305714Y-73434380D01*
X159305714Y-72434380D01*
X159781904Y-72434380D01*
X160972380Y-73434380D02*
X160972380Y-72434380D01*
X161353333Y-72434380D01*
X161448571Y-72482000D01*
X161496190Y-72529619D01*
X161543809Y-72624857D01*
X161543809Y-72767714D01*
X161496190Y-72862952D01*
X161448571Y-72910571D01*
X161353333Y-72958190D01*
X160972380Y-72958190D01*
X161972380Y-73434380D02*
X161972380Y-72434380D01*
X162924761Y-73434380D02*
X162448571Y-73434380D01*
X162448571Y-72434380D01*
X163734285Y-73434380D02*
X163258095Y-73434380D01*
X163258095Y-72434380D01*
X157281904Y-75044380D02*
X157281904Y-74044380D01*
X157615238Y-74758666D01*
X157948571Y-74044380D01*
X157948571Y-75044380D01*
X158615238Y-74044380D02*
X158805714Y-74044380D01*
X158900952Y-74092000D01*
X158996190Y-74187238D01*
X159043809Y-74377714D01*
X159043809Y-74711047D01*
X158996190Y-74901523D01*
X158900952Y-74996761D01*
X158805714Y-75044380D01*
X158615238Y-75044380D01*
X158520000Y-74996761D01*
X158424761Y-74901523D01*
X158377142Y-74711047D01*
X158377142Y-74377714D01*
X158424761Y-74187238D01*
X158520000Y-74092000D01*
X158615238Y-74044380D01*
X159472380Y-75044380D02*
X159472380Y-74044380D01*
X159710476Y-74044380D01*
X159853333Y-74092000D01*
X159948571Y-74187238D01*
X159996190Y-74282476D01*
X160043809Y-74472952D01*
X160043809Y-74615809D01*
X159996190Y-74806285D01*
X159948571Y-74901523D01*
X159853333Y-74996761D01*
X159710476Y-75044380D01*
X159472380Y-75044380D01*
X160472380Y-74044380D02*
X160472380Y-74853904D01*
X160520000Y-74949142D01*
X160567619Y-74996761D01*
X160662857Y-75044380D01*
X160853333Y-75044380D01*
X160948571Y-74996761D01*
X160996190Y-74949142D01*
X161043809Y-74853904D01*
X161043809Y-74044380D01*
X161996190Y-75044380D02*
X161520000Y-75044380D01*
X161520000Y-74044380D01*
X162329523Y-74520571D02*
X162662857Y-74520571D01*
X162805714Y-75044380D02*
X162329523Y-75044380D01*
X162329523Y-74044380D01*
X162805714Y-74044380D01*
X156520000Y-75702000D02*
X156424761Y-75654380D01*
X156281904Y-75654380D01*
X156139047Y-75702000D01*
X156043809Y-75797238D01*
X155996190Y-75892476D01*
X155948571Y-76082952D01*
X155948571Y-76225809D01*
X155996190Y-76416285D01*
X156043809Y-76511523D01*
X156139047Y-76606761D01*
X156281904Y-76654380D01*
X156377142Y-76654380D01*
X156520000Y-76606761D01*
X156567619Y-76559142D01*
X156567619Y-76225809D01*
X156377142Y-76225809D01*
X157186666Y-75654380D02*
X157377142Y-75654380D01*
X157472380Y-75702000D01*
X157567619Y-75797238D01*
X157615238Y-75987714D01*
X157615238Y-76321047D01*
X157567619Y-76511523D01*
X157472380Y-76606761D01*
X157377142Y-76654380D01*
X157186666Y-76654380D01*
X157091428Y-76606761D01*
X156996190Y-76511523D01*
X156948571Y-76321047D01*
X156948571Y-75987714D01*
X156996190Y-75797238D01*
X157091428Y-75702000D01*
X157186666Y-75654380D01*
X158043809Y-76130571D02*
X158377142Y-76130571D01*
X158520000Y-76654380D02*
X158043809Y-76654380D01*
X158043809Y-75654380D01*
X158520000Y-75654380D01*
X158900952Y-76606761D02*
X159043809Y-76654380D01*
X159281904Y-76654380D01*
X159377142Y-76606761D01*
X159424761Y-76559142D01*
X159472380Y-76463904D01*
X159472380Y-76368666D01*
X159424761Y-76273428D01*
X159377142Y-76225809D01*
X159281904Y-76178190D01*
X159091428Y-76130571D01*
X158996190Y-76082952D01*
X158948571Y-76035333D01*
X158900952Y-75940095D01*
X158900952Y-75844857D01*
X158948571Y-75749619D01*
X158996190Y-75702000D01*
X159091428Y-75654380D01*
X159329523Y-75654380D01*
X159472380Y-75702000D01*
X160662857Y-76654380D02*
X160662857Y-75654380D01*
X160662857Y-76130571D02*
X161234285Y-76130571D01*
X161234285Y-76654380D02*
X161234285Y-75654380D01*
X161710476Y-76130571D02*
X162043809Y-76130571D01*
X162186666Y-76654380D02*
X161710476Y-76654380D01*
X161710476Y-75654380D01*
X162186666Y-75654380D01*
X163186666Y-76654380D02*
X162853333Y-76178190D01*
X162615238Y-76654380D02*
X162615238Y-75654380D01*
X162996190Y-75654380D01*
X163091428Y-75702000D01*
X163139047Y-75749619D01*
X163186666Y-75844857D01*
X163186666Y-75987714D01*
X163139047Y-76082952D01*
X163091428Y-76130571D01*
X162996190Y-76178190D01*
X162615238Y-76178190D01*
X163615238Y-76130571D02*
X163948571Y-76130571D01*
X164091428Y-76654380D02*
X163615238Y-76654380D01*
X163615238Y-75654380D01*
X164091428Y-75654380D01*
X155027952Y-49236380D02*
X155027952Y-50045904D01*
X155075571Y-50141142D01*
X155123190Y-50188761D01*
X155218428Y-50236380D01*
X155408904Y-50236380D01*
X155504142Y-50188761D01*
X155551761Y-50141142D01*
X155599380Y-50045904D01*
X155599380Y-49236380D01*
X156027952Y-50188761D02*
X156170809Y-50236380D01*
X156408904Y-50236380D01*
X156504142Y-50188761D01*
X156551761Y-50141142D01*
X156599380Y-50045904D01*
X156599380Y-49950666D01*
X156551761Y-49855428D01*
X156504142Y-49807809D01*
X156408904Y-49760190D01*
X156218428Y-49712571D01*
X156123190Y-49664952D01*
X156075571Y-49617333D01*
X156027952Y-49522095D01*
X156027952Y-49426857D01*
X156075571Y-49331619D01*
X156123190Y-49284000D01*
X156218428Y-49236380D01*
X156456523Y-49236380D01*
X156599380Y-49284000D01*
X157361285Y-49712571D02*
X157504142Y-49760190D01*
X157551761Y-49807809D01*
X157599380Y-49903047D01*
X157599380Y-50045904D01*
X157551761Y-50141142D01*
X157504142Y-50188761D01*
X157408904Y-50236380D01*
X157027952Y-50236380D01*
X157027952Y-49236380D01*
X157361285Y-49236380D01*
X157456523Y-49284000D01*
X157504142Y-49331619D01*
X157551761Y-49426857D01*
X157551761Y-49522095D01*
X157504142Y-49617333D01*
X157456523Y-49664952D01*
X157361285Y-49712571D01*
X157027952Y-49712571D01*
X158647000Y-49236380D02*
X159218428Y-49236380D01*
X158932714Y-50236380D02*
X158932714Y-49236380D01*
X159551761Y-50236380D02*
X159551761Y-49236380D01*
X159551761Y-49712571D02*
X160123190Y-49712571D01*
X160123190Y-50236380D02*
X160123190Y-49236380D01*
X160599380Y-50236380D02*
X160599380Y-49236380D01*
X161027952Y-50188761D02*
X161170809Y-50236380D01*
X161408904Y-50236380D01*
X161504142Y-50188761D01*
X161551761Y-50141142D01*
X161599380Y-50045904D01*
X161599380Y-49950666D01*
X161551761Y-49855428D01*
X161504142Y-49807809D01*
X161408904Y-49760190D01*
X161218428Y-49712571D01*
X161123190Y-49664952D01*
X161075571Y-49617333D01*
X161027952Y-49522095D01*
X161027952Y-49426857D01*
X161075571Y-49331619D01*
X161123190Y-49284000D01*
X161218428Y-49236380D01*
X161456523Y-49236380D01*
X161599380Y-49284000D01*
X162789857Y-49712571D02*
X163123190Y-49712571D01*
X163266047Y-50236380D02*
X162789857Y-50236380D01*
X162789857Y-49236380D01*
X163266047Y-49236380D01*
X163694619Y-50236380D02*
X163694619Y-49236380D01*
X164266047Y-50236380D01*
X164266047Y-49236380D01*
X164742238Y-50236380D02*
X164742238Y-49236380D01*
X164980333Y-49236380D01*
X165123190Y-49284000D01*
X165218428Y-49379238D01*
X165266047Y-49474476D01*
X165313666Y-49664952D01*
X165313666Y-49807809D01*
X165266047Y-49998285D01*
X165218428Y-50093523D01*
X165123190Y-50188761D01*
X164980333Y-50236380D01*
X164742238Y-50236380D01*
X159829523Y-99120142D02*
X159781904Y-99167761D01*
X159639047Y-99215380D01*
X159543809Y-99215380D01*
X159400952Y-99167761D01*
X159305714Y-99072523D01*
X159258095Y-98977285D01*
X159210476Y-98786809D01*
X159210476Y-98643952D01*
X159258095Y-98453476D01*
X159305714Y-98358238D01*
X159400952Y-98263000D01*
X159543809Y-98215380D01*
X159639047Y-98215380D01*
X159781904Y-98263000D01*
X159829523Y-98310619D01*
X160829523Y-99120142D02*
X160781904Y-99167761D01*
X160639047Y-99215380D01*
X160543809Y-99215380D01*
X160400952Y-99167761D01*
X160305714Y-99072523D01*
X160258095Y-98977285D01*
X160210476Y-98786809D01*
X160210476Y-98643952D01*
X160258095Y-98453476D01*
X160305714Y-98358238D01*
X160400952Y-98263000D01*
X160543809Y-98215380D01*
X160639047Y-98215380D01*
X160781904Y-98263000D01*
X160829523Y-98310619D01*
X154781904Y-100301571D02*
X154924761Y-100349190D01*
X154972380Y-100396809D01*
X155020000Y-100492047D01*
X155020000Y-100634904D01*
X154972380Y-100730142D01*
X154924761Y-100777761D01*
X154829523Y-100825380D01*
X154448571Y-100825380D01*
X154448571Y-99825380D01*
X154781904Y-99825380D01*
X154877142Y-99873000D01*
X154924761Y-99920619D01*
X154972380Y-100015857D01*
X154972380Y-100111095D01*
X154924761Y-100206333D01*
X154877142Y-100253952D01*
X154781904Y-100301571D01*
X154448571Y-100301571D01*
X155639047Y-100349190D02*
X155639047Y-100825380D01*
X155305714Y-99825380D02*
X155639047Y-100349190D01*
X155972380Y-99825380D01*
X156305714Y-100444428D02*
X157067619Y-100444428D01*
X157496190Y-100777761D02*
X157639047Y-100825380D01*
X157877142Y-100825380D01*
X157972380Y-100777761D01*
X158020000Y-100730142D01*
X158067619Y-100634904D01*
X158067619Y-100539666D01*
X158020000Y-100444428D01*
X157972380Y-100396809D01*
X157877142Y-100349190D01*
X157686666Y-100301571D01*
X157591428Y-100253952D01*
X157543809Y-100206333D01*
X157496190Y-100111095D01*
X157496190Y-100015857D01*
X157543809Y-99920619D01*
X157591428Y-99873000D01*
X157686666Y-99825380D01*
X157924761Y-99825380D01*
X158067619Y-99873000D01*
X158448571Y-100539666D02*
X158924761Y-100539666D01*
X158353333Y-100825380D02*
X158686666Y-99825380D01*
X159020000Y-100825380D01*
X159353333Y-100444428D02*
X160115238Y-100444428D01*
X160591428Y-100825380D02*
X160591428Y-99825380D01*
X161162857Y-100825380D01*
X161162857Y-99825380D01*
X162210476Y-100730142D02*
X162162857Y-100777761D01*
X162020000Y-100825380D01*
X161924761Y-100825380D01*
X161781904Y-100777761D01*
X161686666Y-100682523D01*
X161639047Y-100587285D01*
X161591428Y-100396809D01*
X161591428Y-100253952D01*
X161639047Y-100063476D01*
X161686666Y-99968238D01*
X161781904Y-99873000D01*
X161924761Y-99825380D01*
X162020000Y-99825380D01*
X162162857Y-99873000D01*
X162210476Y-99920619D01*
X163353333Y-99777761D02*
X162496190Y-101063476D01*
X164115238Y-100158714D02*
X164115238Y-100825380D01*
X163877142Y-99777761D02*
X163639047Y-100492047D01*
X164258095Y-100492047D01*
X164639047Y-100730142D02*
X164686666Y-100777761D01*
X164639047Y-100825380D01*
X164591428Y-100777761D01*
X164639047Y-100730142D01*
X164639047Y-100825380D01*
X165305714Y-99825380D02*
X165400952Y-99825380D01*
X165496190Y-99873000D01*
X165543809Y-99920619D01*
X165591428Y-100015857D01*
X165639047Y-100206333D01*
X165639047Y-100444428D01*
X165591428Y-100634904D01*
X165543809Y-100730142D01*
X165496190Y-100777761D01*
X165400952Y-100825380D01*
X165305714Y-100825380D01*
X165210476Y-100777761D01*
X165162857Y-100730142D01*
X165115238Y-100634904D01*
X165067619Y-100444428D01*
X165067619Y-100206333D01*
X165115238Y-100015857D01*
X165162857Y-99920619D01*
X165210476Y-99873000D01*
X165305714Y-99825380D01*
X130682952Y-94416571D02*
X129921047Y-94416571D01*
X130302000Y-94035619D02*
X130302000Y-94797523D01*
X182626047Y-86304428D02*
X183387952Y-86304428D01*
X183007000Y-86685380D02*
X183007000Y-85923476D01*
D12*
X156694571Y-88030857D02*
X156908857Y-88102285D01*
X156980285Y-88173714D01*
X157051714Y-88316571D01*
X157051714Y-88530857D01*
X156980285Y-88673714D01*
X156908857Y-88745142D01*
X156766000Y-88816571D01*
X156194571Y-88816571D01*
X156194571Y-87316571D01*
X156694571Y-87316571D01*
X156837428Y-87388000D01*
X156908857Y-87459428D01*
X156980285Y-87602285D01*
X156980285Y-87745142D01*
X156908857Y-87888000D01*
X156837428Y-87959428D01*
X156694571Y-88030857D01*
X156194571Y-88030857D01*
X157908857Y-88816571D02*
X157766000Y-88745142D01*
X157694571Y-88602285D01*
X157694571Y-87316571D01*
X159123142Y-87816571D02*
X159123142Y-88816571D01*
X158480285Y-87816571D02*
X158480285Y-88602285D01*
X158551714Y-88745142D01*
X158694571Y-88816571D01*
X158908857Y-88816571D01*
X159051714Y-88745142D01*
X159123142Y-88673714D01*
X160408857Y-88745142D02*
X160266000Y-88816571D01*
X159980285Y-88816571D01*
X159837428Y-88745142D01*
X159766000Y-88602285D01*
X159766000Y-88030857D01*
X159837428Y-87888000D01*
X159980285Y-87816571D01*
X160266000Y-87816571D01*
X160408857Y-87888000D01*
X160480285Y-88030857D01*
X160480285Y-88173714D01*
X159766000Y-88316571D01*
X161908857Y-87388000D02*
X161766000Y-87316571D01*
X161551714Y-87316571D01*
X161337428Y-87388000D01*
X161194571Y-87530857D01*
X161123142Y-87673714D01*
X161051714Y-87959428D01*
X161051714Y-88173714D01*
X161123142Y-88459428D01*
X161194571Y-88602285D01*
X161337428Y-88745142D01*
X161551714Y-88816571D01*
X161694571Y-88816571D01*
X161908857Y-88745142D01*
X161980285Y-88673714D01*
X161980285Y-88173714D01*
X161694571Y-88173714D01*
X162551714Y-88745142D02*
X162766000Y-88816571D01*
X163123142Y-88816571D01*
X163266000Y-88745142D01*
X163337428Y-88673714D01*
X163408857Y-88530857D01*
X163408857Y-88388000D01*
X163337428Y-88245142D01*
X163266000Y-88173714D01*
X163123142Y-88102285D01*
X162837428Y-88030857D01*
X162694571Y-87959428D01*
X162623142Y-87888000D01*
X162551714Y-87745142D01*
X162551714Y-87602285D01*
X162623142Y-87459428D01*
X162694571Y-87388000D01*
X162837428Y-87316571D01*
X163194571Y-87316571D01*
X163408857Y-87388000D01*
D11*
X130333714Y-54300380D02*
X129762285Y-54300380D01*
X130048000Y-54300380D02*
X130048000Y-53300380D01*
X129952761Y-53443238D01*
X129857523Y-53538476D01*
X129762285Y-53586095D01*
X183401928Y-82462666D02*
X183878119Y-82462666D01*
X183306690Y-82748380D02*
X183640023Y-81748380D01*
X183973357Y-82748380D01*
X184878119Y-82653142D02*
X184830500Y-82700761D01*
X184687642Y-82748380D01*
X184592404Y-82748380D01*
X184449547Y-82700761D01*
X184354309Y-82605523D01*
X184306690Y-82510285D01*
X184259071Y-82319809D01*
X184259071Y-82176952D01*
X184306690Y-81986476D01*
X184354309Y-81891238D01*
X184449547Y-81796000D01*
X184592404Y-81748380D01*
X184687642Y-81748380D01*
X184830500Y-81796000D01*
X184878119Y-81843619D01*
X185163833Y-81748380D02*
X185735261Y-81748380D01*
X185449547Y-82748380D02*
X185449547Y-81748380D01*
X140493714Y-54300380D02*
X139922285Y-54300380D01*
X140208000Y-54300380D02*
X140208000Y-53300380D01*
X140112761Y-53443238D01*
X140017523Y-53538476D01*
X139922285Y-53586095D01*
X181316380Y-66198666D02*
X181316380Y-66008190D01*
X181364000Y-65912952D01*
X181459238Y-65817714D01*
X181649714Y-65770095D01*
X181983047Y-65770095D01*
X182173523Y-65817714D01*
X182268761Y-65912952D01*
X182316380Y-66008190D01*
X182316380Y-66198666D01*
X182268761Y-66293904D01*
X182173523Y-66389142D01*
X181983047Y-66436761D01*
X181649714Y-66436761D01*
X181459238Y-66389142D01*
X181364000Y-66293904D01*
X181316380Y-66198666D01*
X181649714Y-65484380D02*
X181649714Y-65103428D01*
X182316380Y-65341523D02*
X181459238Y-65341523D01*
X181364000Y-65293904D01*
X181316380Y-65198666D01*
X181316380Y-65103428D01*
X181649714Y-64912952D02*
X181649714Y-64532000D01*
X182316380Y-64770095D02*
X181459238Y-64770095D01*
X181364000Y-64722476D01*
X181316380Y-64627238D01*
X181316380Y-64532000D01*
%TO.C,U1*%
X159258095Y-104100380D02*
X159258095Y-104909904D01*
X159305714Y-105005142D01*
X159353333Y-105052761D01*
X159448571Y-105100380D01*
X159639047Y-105100380D01*
X159734285Y-105052761D01*
X159781904Y-105005142D01*
X159829523Y-104909904D01*
X159829523Y-104100380D01*
X160829523Y-105100380D02*
X160258095Y-105100380D01*
X160543809Y-105100380D02*
X160543809Y-104100380D01*
X160448571Y-104243238D01*
X160353333Y-104338476D01*
X160258095Y-104386095D01*
%TO.C,SW1*%
X183070666Y-67206761D02*
X183213523Y-67254380D01*
X183451619Y-67254380D01*
X183546857Y-67206761D01*
X183594476Y-67159142D01*
X183642095Y-67063904D01*
X183642095Y-66968666D01*
X183594476Y-66873428D01*
X183546857Y-66825809D01*
X183451619Y-66778190D01*
X183261142Y-66730571D01*
X183165904Y-66682952D01*
X183118285Y-66635333D01*
X183070666Y-66540095D01*
X183070666Y-66444857D01*
X183118285Y-66349619D01*
X183165904Y-66302000D01*
X183261142Y-66254380D01*
X183499238Y-66254380D01*
X183642095Y-66302000D01*
X183975428Y-66254380D02*
X184213523Y-67254380D01*
X184404000Y-66540095D01*
X184594476Y-67254380D01*
X184832571Y-66254380D01*
X185737333Y-67254380D02*
X185165904Y-67254380D01*
X185451619Y-67254380D02*
X185451619Y-66254380D01*
X185356380Y-66397238D01*
X185261142Y-66492476D01*
X185165904Y-66540095D01*
%TO.C,R2*%
X174966333Y-90749380D02*
X174633000Y-90273190D01*
X174394904Y-90749380D02*
X174394904Y-89749380D01*
X174775857Y-89749380D01*
X174871095Y-89797000D01*
X174918714Y-89844619D01*
X174966333Y-89939857D01*
X174966333Y-90082714D01*
X174918714Y-90177952D01*
X174871095Y-90225571D01*
X174775857Y-90273190D01*
X174394904Y-90273190D01*
X175347285Y-89844619D02*
X175394904Y-89797000D01*
X175490142Y-89749380D01*
X175728238Y-89749380D01*
X175823476Y-89797000D01*
X175871095Y-89844619D01*
X175918714Y-89939857D01*
X175918714Y-90035095D01*
X175871095Y-90177952D01*
X175299666Y-90749380D01*
X175918714Y-90749380D01*
%TO.C,D1*%
X181760904Y-85288380D02*
X181760904Y-84288380D01*
X181999000Y-84288380D01*
X182141857Y-84336000D01*
X182237095Y-84431238D01*
X182284714Y-84526476D01*
X182332333Y-84716952D01*
X182332333Y-84859809D01*
X182284714Y-85050285D01*
X182237095Y-85145523D01*
X182141857Y-85240761D01*
X181999000Y-85288380D01*
X181760904Y-85288380D01*
X183284714Y-85288380D02*
X182713285Y-85288380D01*
X182999000Y-85288380D02*
X182999000Y-84288380D01*
X182903761Y-84431238D01*
X182808523Y-84526476D01*
X182713285Y-84574095D01*
%TO.C,JP2*%
X174299666Y-64200380D02*
X174299666Y-64914666D01*
X174252047Y-65057523D01*
X174156809Y-65152761D01*
X174013952Y-65200380D01*
X173918714Y-65200380D01*
X174775857Y-65200380D02*
X174775857Y-64200380D01*
X175156809Y-64200380D01*
X175252047Y-64248000D01*
X175299666Y-64295619D01*
X175347285Y-64390857D01*
X175347285Y-64533714D01*
X175299666Y-64628952D01*
X175252047Y-64676571D01*
X175156809Y-64724190D01*
X174775857Y-64724190D01*
X175728238Y-64295619D02*
X175775857Y-64248000D01*
X175871095Y-64200380D01*
X176109190Y-64200380D01*
X176204428Y-64248000D01*
X176252047Y-64295619D01*
X176299666Y-64390857D01*
X176299666Y-64486095D01*
X176252047Y-64628952D01*
X175680619Y-65200380D01*
X176299666Y-65200380D01*
X172818714Y-67000380D02*
X172247285Y-67000380D01*
X172533000Y-67000380D02*
X172533000Y-66000380D01*
X172437761Y-66143238D01*
X172342523Y-66238476D01*
X172247285Y-66286095D01*
X177399666Y-66000380D02*
X178018714Y-66000380D01*
X177685380Y-66381333D01*
X177828238Y-66381333D01*
X177923476Y-66428952D01*
X177971095Y-66476571D01*
X178018714Y-66571809D01*
X178018714Y-66809904D01*
X177971095Y-66905142D01*
X177923476Y-66952761D01*
X177828238Y-67000380D01*
X177542523Y-67000380D01*
X177447285Y-66952761D01*
X177399666Y-66905142D01*
%TO.C,JP1*%
X174299666Y-59374380D02*
X174299666Y-60088666D01*
X174252047Y-60231523D01*
X174156809Y-60326761D01*
X174013952Y-60374380D01*
X173918714Y-60374380D01*
X174775857Y-60374380D02*
X174775857Y-59374380D01*
X175156809Y-59374380D01*
X175252047Y-59422000D01*
X175299666Y-59469619D01*
X175347285Y-59564857D01*
X175347285Y-59707714D01*
X175299666Y-59802952D01*
X175252047Y-59850571D01*
X175156809Y-59898190D01*
X174775857Y-59898190D01*
X176299666Y-60374380D02*
X175728238Y-60374380D01*
X176013952Y-60374380D02*
X176013952Y-59374380D01*
X175918714Y-59517238D01*
X175823476Y-59612476D01*
X175728238Y-59660095D01*
X172818714Y-62174380D02*
X172247285Y-62174380D01*
X172533000Y-62174380D02*
X172533000Y-61174380D01*
X172437761Y-61317238D01*
X172342523Y-61412476D01*
X172247285Y-61460095D01*
X177399666Y-61174380D02*
X178018714Y-61174380D01*
X177685380Y-61555333D01*
X177828238Y-61555333D01*
X177923476Y-61602952D01*
X177971095Y-61650571D01*
X178018714Y-61745809D01*
X178018714Y-61983904D01*
X177971095Y-62079142D01*
X177923476Y-62126761D01*
X177828238Y-62174380D01*
X177542523Y-62174380D01*
X177447285Y-62126761D01*
X177399666Y-62079142D01*
%TO.C,R1*%
X174966333Y-85415380D02*
X174633000Y-84939190D01*
X174394904Y-85415380D02*
X174394904Y-84415380D01*
X174775857Y-84415380D01*
X174871095Y-84463000D01*
X174918714Y-84510619D01*
X174966333Y-84605857D01*
X174966333Y-84748714D01*
X174918714Y-84843952D01*
X174871095Y-84891571D01*
X174775857Y-84939190D01*
X174394904Y-84939190D01*
X175918714Y-85415380D02*
X175347285Y-85415380D01*
X175633000Y-85415380D02*
X175633000Y-84415380D01*
X175537761Y-84558238D01*
X175442523Y-84653476D01*
X175347285Y-84701095D01*
%TO.C,J1*%
X129500380Y-57229333D02*
X130214666Y-57229333D01*
X130357523Y-57276952D01*
X130452761Y-57372190D01*
X130500380Y-57515047D01*
X130500380Y-57610285D01*
X130500380Y-56229333D02*
X130500380Y-56800761D01*
X130500380Y-56515047D02*
X129500380Y-56515047D01*
X129643238Y-56610285D01*
X129738476Y-56705523D01*
X129786095Y-56800761D01*
%TO.C,J2*%
X139660380Y-57229333D02*
X140374666Y-57229333D01*
X140517523Y-57276952D01*
X140612761Y-57372190D01*
X140660380Y-57515047D01*
X140660380Y-57610285D01*
X139755619Y-56800761D02*
X139708000Y-56753142D01*
X139660380Y-56657904D01*
X139660380Y-56419809D01*
X139708000Y-56324571D01*
X139755619Y-56276952D01*
X139850857Y-56229333D01*
X139946095Y-56229333D01*
X140088952Y-56276952D01*
X140660380Y-56848380D01*
X140660380Y-56229333D01*
%TO.C,J4*%
X126198380Y-96345333D02*
X126912666Y-96345333D01*
X127055523Y-96392952D01*
X127150761Y-96488190D01*
X127198380Y-96631047D01*
X127198380Y-96726285D01*
X126531714Y-95440571D02*
X127198380Y-95440571D01*
X126150761Y-95678666D02*
X126865047Y-95916761D01*
X126865047Y-95297714D01*
%TO.C,J5*%
X125944380Y-93551333D02*
X126658666Y-93551333D01*
X126801523Y-93598952D01*
X126896761Y-93694190D01*
X126944380Y-93837047D01*
X126944380Y-93932285D01*
X125944380Y-92598952D02*
X125944380Y-93075142D01*
X126420571Y-93122761D01*
X126372952Y-93075142D01*
X126325333Y-92979904D01*
X126325333Y-92741809D01*
X126372952Y-92646571D01*
X126420571Y-92598952D01*
X126515809Y-92551333D01*
X126753904Y-92551333D01*
X126849142Y-92598952D01*
X126896761Y-92646571D01*
X126944380Y-92741809D01*
X126944380Y-92979904D01*
X126896761Y-93075142D01*
X126849142Y-93122761D01*
%TO.C,M1*%
X174119476Y-105662380D02*
X174119476Y-104662380D01*
X174452809Y-105376666D01*
X174786142Y-104662380D01*
X174786142Y-105662380D01*
X175786142Y-105662380D02*
X175214714Y-105662380D01*
X175500428Y-105662380D02*
X175500428Y-104662380D01*
X175405190Y-104805238D01*
X175309952Y-104900476D01*
X175214714Y-104948095D01*
%TO.C,M2*%
X174119476Y-42258380D02*
X174119476Y-41258380D01*
X174452809Y-41972666D01*
X174786142Y-41258380D01*
X174786142Y-42258380D01*
X175214714Y-41353619D02*
X175262333Y-41306000D01*
X175357571Y-41258380D01*
X175595666Y-41258380D01*
X175690904Y-41306000D01*
X175738523Y-41353619D01*
X175786142Y-41448857D01*
X175786142Y-41544095D01*
X175738523Y-41686952D01*
X175167095Y-42258380D01*
X175786142Y-42258380D01*
%TO.C,D2*%
X181760904Y-90876380D02*
X181760904Y-89876380D01*
X181999000Y-89876380D01*
X182141857Y-89924000D01*
X182237095Y-90019238D01*
X182284714Y-90114476D01*
X182332333Y-90304952D01*
X182332333Y-90447809D01*
X182284714Y-90638285D01*
X182237095Y-90733523D01*
X182141857Y-90828761D01*
X181999000Y-90876380D01*
X181760904Y-90876380D01*
X182713285Y-89971619D02*
X182760904Y-89924000D01*
X182856142Y-89876380D01*
X183094238Y-89876380D01*
X183189476Y-89924000D01*
X183237095Y-89971619D01*
X183284714Y-90066857D01*
X183284714Y-90162095D01*
X183237095Y-90304952D01*
X182665666Y-90876380D01*
X183284714Y-90876380D01*
%TO.C,J3*%
X175855380Y-75517333D02*
X176569666Y-75517333D01*
X176712523Y-75564952D01*
X176807761Y-75660190D01*
X176855380Y-75803047D01*
X176855380Y-75898285D01*
X175855380Y-75136380D02*
X175855380Y-74517333D01*
X176236333Y-74850666D01*
X176236333Y-74707809D01*
X176283952Y-74612571D01*
X176331571Y-74564952D01*
X176426809Y-74517333D01*
X176664904Y-74517333D01*
X176760142Y-74564952D01*
X176807761Y-74612571D01*
X176855380Y-74707809D01*
X176855380Y-74993523D01*
X176807761Y-75088761D01*
X176760142Y-75136380D01*
%TO.C,J6*%
X129841666Y-47712380D02*
X129841666Y-48426666D01*
X129794047Y-48569523D01*
X129698809Y-48664761D01*
X129555952Y-48712380D01*
X129460714Y-48712380D01*
X130746428Y-47712380D02*
X130555952Y-47712380D01*
X130460714Y-47760000D01*
X130413095Y-47807619D01*
X130317857Y-47950476D01*
X130270238Y-48140952D01*
X130270238Y-48521904D01*
X130317857Y-48617142D01*
X130365476Y-48664761D01*
X130460714Y-48712380D01*
X130651190Y-48712380D01*
X130746428Y-48664761D01*
X130794047Y-48617142D01*
X130841666Y-48521904D01*
X130841666Y-48283809D01*
X130794047Y-48188571D01*
X130746428Y-48140952D01*
X130651190Y-48093333D01*
X130460714Y-48093333D01*
X130365476Y-48140952D01*
X130317857Y-48188571D01*
X130270238Y-48283809D01*
D13*
%TO.C,U1*%
X148645000Y-101505000D02*
X148645000Y-48355000D01*
X151070000Y-50800000D02*
X151070000Y-49470000D01*
X171395000Y-48355000D02*
X171395000Y-101505000D01*
X166370000Y-49530000D02*
X168910000Y-49530000D01*
X153730000Y-52070000D02*
X153730000Y-100390000D01*
X166370000Y-100330000D02*
X166370000Y-49530000D01*
X171395000Y-101505000D02*
X148645000Y-101505000D01*
X151070000Y-52070000D02*
X153730000Y-52070000D01*
X153730000Y-100390000D02*
X151070000Y-100390000D01*
X151070000Y-100390000D02*
X151070000Y-52070000D01*
X168910000Y-49530000D02*
X168910000Y-100330000D01*
X168910000Y-100330000D02*
X166370000Y-100330000D01*
X151070000Y-49470000D02*
X152400000Y-49470000D01*
X148645000Y-48355000D02*
X171395000Y-48355000D01*
%TO.C,SW1*%
X185626000Y-64445000D02*
X185626000Y-58745000D01*
X187126000Y-62795000D02*
X187126000Y-61895000D01*
X182776000Y-63195000D02*
X182776000Y-61495000D01*
X186916000Y-61695000D02*
X185626000Y-61695000D01*
X182776000Y-60195000D02*
X182776000Y-59995000D01*
X186916000Y-62995000D02*
X187126000Y-62795000D01*
X184616000Y-58145000D02*
X183826000Y-58145000D01*
X186916000Y-61695000D02*
X187126000Y-61895000D01*
X183826000Y-65045000D02*
X184616000Y-65045000D01*
X185626000Y-62995000D02*
X186916000Y-62995000D01*
%TO.C,R2*%
X178154064Y-90143000D02*
X177699936Y-90143000D01*
X178154064Y-88673000D02*
X177699936Y-88673000D01*
%TO.C,D1*%
X183571000Y-82976000D02*
X183571000Y-85836000D01*
X185491000Y-85836000D02*
X185491000Y-82976000D01*
X185491000Y-82976000D02*
X183571000Y-82976000D01*
%TO.C,JP2*%
X177183000Y-67548000D02*
X173083000Y-67548000D01*
X173083000Y-67548000D02*
X173083000Y-65548000D01*
X173083000Y-65548000D02*
X177183000Y-65548000D01*
X177183000Y-65548000D02*
X177183000Y-67548000D01*
%TO.C,JP1*%
X177183000Y-60722000D02*
X177183000Y-62722000D01*
X173083000Y-60722000D02*
X177183000Y-60722000D01*
X173083000Y-62722000D02*
X173083000Y-60722000D01*
X177183000Y-62722000D02*
X173083000Y-62722000D01*
%TO.C,R1*%
X177699936Y-84990000D02*
X178154064Y-84990000D01*
X177699936Y-86460000D02*
X178154064Y-86460000D01*
%TO.C,J1*%
X135950000Y-53280000D02*
X135950000Y-86420000D01*
X133350000Y-53280000D02*
X135950000Y-53280000D01*
X130750000Y-55880000D02*
X133350000Y-55880000D01*
X130750000Y-55880000D02*
X130750000Y-86420000D01*
X130750000Y-54610000D02*
X130750000Y-53280000D01*
X130750000Y-53280000D02*
X132080000Y-53280000D01*
X130750000Y-86420000D02*
X135950000Y-86420000D01*
X133350000Y-55880000D02*
X133350000Y-53280000D01*
%TO.C,J2*%
X143510000Y-55880000D02*
X143510000Y-53280000D01*
X140910000Y-86420000D02*
X146110000Y-86420000D01*
X140910000Y-55880000D02*
X140910000Y-86420000D01*
X140910000Y-53280000D02*
X142240000Y-53280000D01*
X143510000Y-53280000D02*
X146110000Y-53280000D01*
X140910000Y-55880000D02*
X143510000Y-55880000D01*
X140910000Y-54610000D02*
X140910000Y-53280000D01*
X146110000Y-53280000D02*
X146110000Y-86420000D01*
%TO.C,J4*%
X127575000Y-94555000D02*
X128905000Y-94555000D01*
X127575000Y-95885000D02*
X127575000Y-94555000D01*
X127575000Y-97155000D02*
X130235000Y-97155000D01*
X127575000Y-97155000D02*
X127575000Y-99755000D01*
X130235000Y-97155000D02*
X130235000Y-99755000D01*
X127575000Y-99755000D02*
X130235000Y-99755000D01*
%TO.C,J5*%
X129219000Y-91313000D02*
X129219000Y-92643000D01*
X129219000Y-90043000D02*
X126559000Y-90043000D01*
X129219000Y-92643000D02*
X127889000Y-92643000D01*
X129219000Y-90043000D02*
X129219000Y-87443000D01*
X129219000Y-87443000D02*
X126559000Y-87443000D01*
X126559000Y-90043000D02*
X126559000Y-87443000D01*
%TO.C,D2*%
X185491000Y-92284000D02*
X185491000Y-89424000D01*
X183571000Y-92284000D02*
X185491000Y-92284000D01*
X183571000Y-89424000D02*
X183571000Y-92284000D01*
D12*
%TO.C,J3*%
X181075000Y-69534000D02*
X179980000Y-69534000D01*
X181075000Y-80834000D02*
X180653000Y-80834000D01*
X181075000Y-80834000D02*
X181075000Y-69534000D01*
D13*
%TO.C,J6*%
X129240000Y-47996667D02*
X129240000Y-52190000D01*
X125260000Y-83843333D02*
X129000000Y-83843333D01*
X129000000Y-83843333D02*
X129000000Y-48236667D01*
X129000000Y-48236667D02*
X125260000Y-48236667D01*
X127000000Y-47996667D02*
X129240000Y-47996667D01*
%TD*%
%LPC*%
D14*
%TO.C,U1*%
X152400000Y-50800000D03*
D15*
X152400000Y-53340000D03*
X152400000Y-55880000D03*
X152400000Y-58420000D03*
X152400000Y-60960000D03*
X152400000Y-63500000D03*
X152400000Y-66040000D03*
X152400000Y-68580000D03*
X152400000Y-71120000D03*
X152400000Y-73660000D03*
X152400000Y-76200000D03*
X152400000Y-78740000D03*
X152400000Y-81280000D03*
X152400000Y-83820000D03*
X152400000Y-86360000D03*
X152400000Y-88900000D03*
X152400000Y-91440000D03*
X152400000Y-93980000D03*
X152400000Y-96520000D03*
X152400000Y-99060000D03*
X167640000Y-99060000D03*
X167640000Y-96520000D03*
X167640000Y-93980000D03*
X167640000Y-91440000D03*
X167640000Y-88900000D03*
X167640000Y-86360000D03*
X167640000Y-83820000D03*
X167640000Y-81280000D03*
X167640000Y-78740000D03*
X167640000Y-76200000D03*
X167640000Y-73660000D03*
X167640000Y-71120000D03*
X167640000Y-68580000D03*
X167640000Y-66040000D03*
X167640000Y-63500000D03*
X167640000Y-60960000D03*
X167640000Y-58420000D03*
X167640000Y-55880000D03*
X167640000Y-53340000D03*
X167640000Y-50800000D03*
%TD*%
D16*
%TO.C,SW1*%
X182466000Y-59345000D03*
X182466000Y-60845000D03*
X182466000Y-63845000D03*
D17*
X185326000Y-65245000D03*
X183116000Y-65245000D03*
X185326000Y-57945000D03*
D18*
X184226000Y-60095000D03*
X184226000Y-63095000D03*
D17*
X183116000Y-57945000D03*
%TD*%
D19*
%TO.C,R2*%
X178927000Y-89408000D03*
X176927000Y-89408000D03*
%TD*%
D20*
%TO.C,D1*%
X184531000Y-83811000D03*
X184531000Y-85861000D03*
%TD*%
D21*
%TO.C,JP2*%
X173833000Y-66548000D03*
X175133000Y-66548000D03*
X176433000Y-66548000D03*
%TD*%
%TO.C,JP1*%
X173833000Y-61722000D03*
X175133000Y-61722000D03*
X176433000Y-61722000D03*
%TD*%
D22*
%TO.C,R1*%
X176927000Y-85725000D03*
X178927000Y-85725000D03*
%TD*%
D14*
%TO.C,J1*%
X132080000Y-54610000D03*
D23*
X134620000Y-54610000D03*
X132080000Y-57150000D03*
X134620000Y-57150000D03*
X132080000Y-59690000D03*
X134620000Y-59690000D03*
X132080000Y-62230000D03*
X134620000Y-62230000D03*
X132080000Y-64770000D03*
X134620000Y-64770000D03*
X132080000Y-67310000D03*
X134620000Y-67310000D03*
X132080000Y-69850000D03*
X134620000Y-69850000D03*
X132080000Y-72390000D03*
X134620000Y-72390000D03*
X132080000Y-74930000D03*
X134620000Y-74930000D03*
X132080000Y-77470000D03*
X134620000Y-77470000D03*
X132080000Y-80010000D03*
X134620000Y-80010000D03*
X132080000Y-82550000D03*
X134620000Y-82550000D03*
X132080000Y-85090000D03*
X134620000Y-85090000D03*
%TD*%
D14*
%TO.C,J2*%
X142240000Y-54610000D03*
D23*
X144780000Y-54610000D03*
X142240000Y-57150000D03*
X144780000Y-57150000D03*
X142240000Y-59690000D03*
X144780000Y-59690000D03*
X142240000Y-62230000D03*
X144780000Y-62230000D03*
X142240000Y-64770000D03*
X144780000Y-64770000D03*
X142240000Y-67310000D03*
X144780000Y-67310000D03*
X142240000Y-69850000D03*
X144780000Y-69850000D03*
X142240000Y-72390000D03*
X144780000Y-72390000D03*
X142240000Y-74930000D03*
X144780000Y-74930000D03*
X142240000Y-77470000D03*
X144780000Y-77470000D03*
X142240000Y-80010000D03*
X144780000Y-80010000D03*
X142240000Y-82550000D03*
X144780000Y-82550000D03*
X142240000Y-85090000D03*
X144780000Y-85090000D03*
%TD*%
D14*
%TO.C,J4*%
X128905000Y-95885000D03*
D23*
X128905000Y-98425000D03*
%TD*%
D14*
%TO.C,J5*%
X127889000Y-91313000D03*
D23*
X127889000Y-88773000D03*
%TD*%
D24*
%TO.C,M1*%
X177591000Y-95481000D03*
X177591000Y-100561000D03*
X172511000Y-95481000D03*
X172511000Y-100561000D03*
%TD*%
%TO.C,M2*%
X177591000Y-48791000D03*
X172511000Y-48791000D03*
X177591000Y-53871000D03*
X172511000Y-53871000D03*
%TD*%
D25*
%TO.C,D2*%
X184531000Y-91449000D03*
X184531000Y-89399000D03*
%TD*%
D26*
%TO.C,J3*%
X174730000Y-77388000D03*
X174730000Y-73198000D03*
D27*
X179160000Y-80509000D03*
D28*
X175975000Y-80509000D03*
X175405000Y-69859000D03*
D29*
X178015000Y-69859000D03*
D30*
X179285000Y-69874000D03*
D31*
X181965000Y-79334000D03*
X181965000Y-78234000D03*
X181965000Y-77134000D03*
X181965000Y-76034000D03*
X181965000Y-74934000D03*
X181965000Y-73834000D03*
X181965000Y-72734000D03*
X181965000Y-71634000D03*
%TD*%
D32*
%TO.C,J6*%
X127000000Y-49420000D03*
X127000000Y-52190000D03*
X127000000Y-54960000D03*
X127000000Y-57730000D03*
X127000000Y-60500000D03*
X127000000Y-63270000D03*
X127000000Y-66040000D03*
X127000000Y-68810000D03*
X127000000Y-71580000D03*
X127000000Y-74350000D03*
X127000000Y-77120000D03*
X127000000Y-79890000D03*
X127000000Y-82660000D03*
%TD*%
M02*
