%TF.GenerationSoftware,KiCad,Pcbnew,(6.0.4-0)*%
%TF.CreationDate,2023-01-26T09:36:58-07:00*%
%TF.ProjectId,bluescsi_iigs_internal,626c7565-7363-4736-995f-696967735f69,rev?*%
%TF.SameCoordinates,Original*%
%TF.FileFunction,Paste,Top*%
%TF.FilePolarity,Positive*%
%FSLAX46Y46*%
G04 Gerber Fmt 4.6, Leading zero omitted, Abs format (unit mm)*
G04 Created by KiCad (PCBNEW (6.0.4-0)) date 2023-01-26 09:36:58*
%MOMM*%
%LPD*%
G01*
G04 APERTURE LIST*
G04 Aperture macros list*
%AMRoundRect*
0 Rectangle with rounded corners*
0 $1 Rounding radius*
0 $2 $3 $4 $5 $6 $7 $8 $9 X,Y pos of 4 corners*
0 Add a 4 corners polygon primitive as box body*
4,1,4,$2,$3,$4,$5,$6,$7,$8,$9,$2,$3,0*
0 Add four circle primitives for the rounded corners*
1,1,$1+$1,$2,$3*
1,1,$1+$1,$4,$5*
1,1,$1+$1,$6,$7*
1,1,$1+$1,$8,$9*
0 Add four rect primitives between the rounded corners*
20,1,$1+$1,$2,$3,$4,$5,0*
20,1,$1+$1,$4,$5,$6,$7,0*
20,1,$1+$1,$6,$7,$8,$9,0*
20,1,$1+$1,$8,$9,$2,$3,0*%
G04 Aperture macros list end*
%ADD10R,0.800000X1.000000*%
%ADD11R,1.500000X0.700000*%
%ADD12RoundRect,0.249999X0.350001X0.450001X-0.350001X0.450001X-0.350001X-0.450001X0.350001X-0.450001X0*%
%ADD13RoundRect,0.249999X-0.450001X0.325001X-0.450001X-0.325001X0.450001X-0.325001X0.450001X0.325001X0*%
%ADD14RoundRect,0.249999X-0.350001X-0.450001X0.350001X-0.450001X0.350001X0.450001X-0.350001X0.450001X0*%
%ADD15RoundRect,0.249999X0.450001X-0.325001X0.450001X0.325001X-0.450001X0.325001X-0.450001X-0.325001X0*%
%ADD16R,1.000000X0.500000*%
%ADD17R,0.780000X0.720000*%
%ADD18R,1.080000X1.050000*%
%ADD19R,1.200000X1.050000*%
%ADD20R,2.390000X1.050000*%
%ADD21R,0.550000X2.910000*%
%ADD22R,3.480000X1.846667*%
%ADD23R,0.900000X1.200000*%
%ADD24RoundRect,0.250000X0.450000X0.425000X-0.450000X0.425000X-0.450000X-0.425000X0.450000X-0.425000X0*%
%ADD25RoundRect,0.150000X-0.825000X-0.150000X0.825000X-0.150000X0.825000X0.150000X-0.825000X0.150000X0*%
G04 APERTURE END LIST*
D10*
%TO.C,SW1*%
X183116000Y-57945000D03*
X185326000Y-57945000D03*
X183116000Y-65245000D03*
X185326000Y-65245000D03*
D11*
X182466000Y-63845000D03*
X182466000Y-60845000D03*
X182466000Y-59345000D03*
%TD*%
D12*
%TO.C,R2*%
X178927000Y-89408000D03*
X176927000Y-89408000D03*
%TD*%
D13*
%TO.C,D1*%
X184531000Y-83811000D03*
X184531000Y-85861000D03*
%TD*%
D14*
%TO.C,R1*%
X176927000Y-85725000D03*
X178927000Y-85725000D03*
%TD*%
D15*
%TO.C,D2*%
X184531000Y-91449000D03*
X184531000Y-89399000D03*
%TD*%
D16*
%TO.C,J3*%
X181330000Y-71634000D03*
X181330000Y-72734000D03*
X181330000Y-73834000D03*
X181330000Y-74934000D03*
X181330000Y-76034000D03*
X181330000Y-77134000D03*
X181330000Y-78234000D03*
X181330000Y-79334000D03*
D17*
X178650000Y-69874000D03*
D18*
X177380000Y-69859000D03*
D19*
X174770000Y-69859000D03*
X175340000Y-80509000D03*
D20*
X178525000Y-80509000D03*
D21*
X174095000Y-73198000D03*
X174095000Y-77388000D03*
%TD*%
D22*
%TO.C,J6*%
X127000000Y-49420000D03*
X127000000Y-52190000D03*
X127000000Y-54960000D03*
X127000000Y-57730000D03*
X127000000Y-60500000D03*
X127000000Y-63270000D03*
X127000000Y-66040000D03*
X127000000Y-68810000D03*
X127000000Y-71580000D03*
X127000000Y-74350000D03*
X127000000Y-77120000D03*
X127000000Y-79890000D03*
X127000000Y-82660000D03*
%TD*%
D23*
%TO.C,D3*%
X145922000Y-100330000D03*
X142622000Y-100330000D03*
%TD*%
D24*
%TO.C,C5*%
X138256000Y-100330000D03*
X135556000Y-100330000D03*
%TD*%
D25*
%TO.C,U4*%
X140781000Y-94107000D03*
X140781000Y-95377000D03*
X140781000Y-96647000D03*
X140781000Y-97917000D03*
X145731000Y-97917000D03*
X145731000Y-96647000D03*
X145731000Y-95377000D03*
X145731000Y-94107000D03*
%TD*%
M02*
