%TF.GenerationSoftware,KiCad,Pcbnew,(6.0.4-0)*%
%TF.CreationDate,2023-01-26T09:36:58-07:00*%
%TF.ProjectId,bluescsi_iigs_internal,626c7565-7363-4736-995f-696967735f69,rev?*%
%TF.SameCoordinates,Original*%
%TF.FileFunction,Legend,Top*%
%TF.FilePolarity,Positive*%
%FSLAX46Y46*%
G04 Gerber Fmt 4.6, Leading zero omitted, Abs format (unit mm)*
G04 Created by KiCad (PCBNEW (6.0.4-0)) date 2023-01-26 09:36:58*
%MOMM*%
%LPD*%
G01*
G04 APERTURE LIST*
G04 Aperture macros list*
%AMRoundRect*
0 Rectangle with rounded corners*
0 $1 Rounding radius*
0 $2 $3 $4 $5 $6 $7 $8 $9 X,Y pos of 4 corners*
0 Add a 4 corners polygon primitive as box body*
4,1,4,$2,$3,$4,$5,$6,$7,$8,$9,$2,$3,0*
0 Add four circle primitives for the rounded corners*
1,1,$1+$1,$2,$3*
1,1,$1+$1,$4,$5*
1,1,$1+$1,$6,$7*
1,1,$1+$1,$8,$9*
0 Add four rect primitives between the rounded corners*
20,1,$1+$1,$2,$3,$4,$5,0*
20,1,$1+$1,$4,$5,$6,$7,0*
20,1,$1+$1,$6,$7,$8,$9,0*
20,1,$1+$1,$8,$9,$2,$3,0*%
G04 Aperture macros list end*
%ADD10C,0.150000*%
%ADD11C,0.200000*%
%ADD12C,0.125000*%
%ADD13C,0.120000*%
%ADD14R,1.700000X1.700000*%
%ADD15C,1.700000*%
%ADD16R,0.800000X1.000000*%
%ADD17C,0.900000*%
%ADD18R,1.500000X0.700000*%
%ADD19RoundRect,0.249999X0.350001X0.450001X-0.350001X0.450001X-0.350001X-0.450001X0.350001X-0.450001X0*%
%ADD20RoundRect,0.249999X-0.450001X0.325001X-0.450001X-0.325001X0.450001X-0.325001X0.450001X0.325001X0*%
%ADD21R,1.000000X1.500000*%
%ADD22RoundRect,0.249999X-0.350001X-0.450001X0.350001X-0.450001X0.350001X0.450001X-0.350001X0.450001X0*%
%ADD23O,1.700000X1.700000*%
%ADD24C,2.100000*%
%ADD25RoundRect,0.249999X0.450001X-0.325001X0.450001X0.325001X-0.450001X0.325001X-0.450001X-0.325001X0*%
%ADD26R,1.000000X0.500000*%
%ADD27R,0.780000X0.720000*%
%ADD28R,1.080000X1.050000*%
%ADD29R,1.200000X1.050000*%
%ADD30R,2.390000X1.050000*%
%ADD31R,0.550000X2.910000*%
%ADD32R,3.480000X1.846667*%
%ADD33R,0.900000X1.200000*%
%ADD34RoundRect,0.250000X0.450000X0.425000X-0.450000X0.425000X-0.450000X-0.425000X0.450000X-0.425000X0*%
%ADD35RoundRect,0.150000X-0.825000X-0.150000X0.825000X-0.150000X0.825000X0.150000X-0.825000X0.150000X0*%
G04 APERTURE END LIST*
D10*
X184404000Y-80772000D02*
X186436000Y-80772000D01*
X184404000Y-69596000D02*
X186436000Y-69596000D01*
X130843976Y-96897666D02*
X131320166Y-96897666D01*
X130748738Y-97183380D02*
X131082071Y-96183380D01*
X131415404Y-97183380D01*
X132177309Y-96516714D02*
X132177309Y-97183380D01*
X131748738Y-96516714D02*
X131748738Y-97040523D01*
X131796357Y-97135761D01*
X131891595Y-97183380D01*
X132034452Y-97183380D01*
X132129690Y-97135761D01*
X132177309Y-97088142D01*
X132558261Y-97183380D02*
X133082071Y-96516714D01*
X132558261Y-96516714D02*
X133082071Y-97183380D01*
X134701119Y-96183380D02*
X134224928Y-96183380D01*
X134177309Y-96659571D01*
X134224928Y-96611952D01*
X134320166Y-96564333D01*
X134558261Y-96564333D01*
X134653500Y-96611952D01*
X134701119Y-96659571D01*
X134748738Y-96754809D01*
X134748738Y-96992904D01*
X134701119Y-97088142D01*
X134653500Y-97135761D01*
X134558261Y-97183380D01*
X134320166Y-97183380D01*
X134224928Y-97135761D01*
X134177309Y-97088142D01*
X135034452Y-96183380D02*
X135367785Y-97183380D01*
X135701119Y-96183380D01*
X130891595Y-98793380D02*
X130891595Y-97793380D01*
X131272547Y-97793380D01*
X131367785Y-97841000D01*
X131415404Y-97888619D01*
X131463023Y-97983857D01*
X131463023Y-98126714D01*
X131415404Y-98221952D01*
X131367785Y-98269571D01*
X131272547Y-98317190D01*
X130891595Y-98317190D01*
X132034452Y-98793380D02*
X131939214Y-98745761D01*
X131891595Y-98698142D01*
X131843976Y-98602904D01*
X131843976Y-98317190D01*
X131891595Y-98221952D01*
X131939214Y-98174333D01*
X132034452Y-98126714D01*
X132177309Y-98126714D01*
X132272547Y-98174333D01*
X132320166Y-98221952D01*
X132367785Y-98317190D01*
X132367785Y-98602904D01*
X132320166Y-98698142D01*
X132272547Y-98745761D01*
X132177309Y-98793380D01*
X132034452Y-98793380D01*
X132701119Y-98126714D02*
X132891595Y-98793380D01*
X133082071Y-98317190D01*
X133272547Y-98793380D01*
X133463023Y-98126714D01*
X134224928Y-98745761D02*
X134129690Y-98793380D01*
X133939214Y-98793380D01*
X133843976Y-98745761D01*
X133796357Y-98650523D01*
X133796357Y-98269571D01*
X133843976Y-98174333D01*
X133939214Y-98126714D01*
X134129690Y-98126714D01*
X134224928Y-98174333D01*
X134272547Y-98269571D01*
X134272547Y-98364809D01*
X133796357Y-98460047D01*
X134701119Y-98793380D02*
X134701119Y-98126714D01*
X134701119Y-98317190D02*
X134748738Y-98221952D01*
X134796357Y-98174333D01*
X134891595Y-98126714D01*
X134986833Y-98126714D01*
X136082071Y-98793380D02*
X136082071Y-97793380D01*
X136558261Y-98126714D02*
X136558261Y-98793380D01*
X136558261Y-98221952D02*
X136605880Y-98174333D01*
X136701119Y-98126714D01*
X136843976Y-98126714D01*
X136939214Y-98174333D01*
X136986833Y-98269571D01*
X136986833Y-98793380D01*
D11*
X138537142Y-60428571D02*
X138465714Y-60642857D01*
X138394285Y-60714285D01*
X138251428Y-60785714D01*
X138037142Y-60785714D01*
X137894285Y-60714285D01*
X137822857Y-60642857D01*
X137751428Y-60500000D01*
X137751428Y-59928571D01*
X139251428Y-59928571D01*
X139251428Y-60428571D01*
X139180000Y-60571428D01*
X139108571Y-60642857D01*
X138965714Y-60714285D01*
X138822857Y-60714285D01*
X138680000Y-60642857D01*
X138608571Y-60571428D01*
X138537142Y-60428571D01*
X138537142Y-59928571D01*
X137751428Y-61642857D02*
X137822857Y-61500000D01*
X137965714Y-61428571D01*
X139251428Y-61428571D01*
X138751428Y-62857142D02*
X137751428Y-62857142D01*
X138751428Y-62214285D02*
X137965714Y-62214285D01*
X137822857Y-62285714D01*
X137751428Y-62428571D01*
X137751428Y-62642857D01*
X137822857Y-62785714D01*
X137894285Y-62857142D01*
X137822857Y-64142857D02*
X137751428Y-64000000D01*
X137751428Y-63714285D01*
X137822857Y-63571428D01*
X137965714Y-63500000D01*
X138537142Y-63500000D01*
X138680000Y-63571428D01*
X138751428Y-63714285D01*
X138751428Y-64000000D01*
X138680000Y-64142857D01*
X138537142Y-64214285D01*
X138394285Y-64214285D01*
X138251428Y-63500000D01*
X139180000Y-65642857D02*
X139251428Y-65500000D01*
X139251428Y-65285714D01*
X139180000Y-65071428D01*
X139037142Y-64928571D01*
X138894285Y-64857142D01*
X138608571Y-64785714D01*
X138394285Y-64785714D01*
X138108571Y-64857142D01*
X137965714Y-64928571D01*
X137822857Y-65071428D01*
X137751428Y-65285714D01*
X137751428Y-65428571D01*
X137822857Y-65642857D01*
X137894285Y-65714285D01*
X138394285Y-65714285D01*
X138394285Y-65428571D01*
X137822857Y-66285714D02*
X137751428Y-66500000D01*
X137751428Y-66857142D01*
X137822857Y-67000000D01*
X137894285Y-67071428D01*
X138037142Y-67142857D01*
X138180000Y-67142857D01*
X138322857Y-67071428D01*
X138394285Y-67000000D01*
X138465714Y-66857142D01*
X138537142Y-66571428D01*
X138608571Y-66428571D01*
X138680000Y-66357142D01*
X138822857Y-66285714D01*
X138965714Y-66285714D01*
X139108571Y-66357142D01*
X139180000Y-66428571D01*
X139251428Y-66571428D01*
X139251428Y-66928571D01*
X139180000Y-67142857D01*
D10*
X129920952Y-94670571D02*
X129159047Y-94670571D01*
X129540000Y-94289619D02*
X129540000Y-95051523D01*
D12*
X138782619Y-69049285D02*
X139782619Y-69049285D01*
X139449285Y-69525476D02*
X138782619Y-69525476D01*
X139354047Y-69525476D02*
X139401666Y-69573095D01*
X139449285Y-69668333D01*
X139449285Y-69811190D01*
X139401666Y-69906428D01*
X139306428Y-69954047D01*
X138782619Y-69954047D01*
X139449285Y-70287380D02*
X139449285Y-70668333D01*
X139782619Y-70430238D02*
X138925476Y-70430238D01*
X138830238Y-70477857D01*
X138782619Y-70573095D01*
X138782619Y-70668333D01*
X138830238Y-71382619D02*
X138782619Y-71287380D01*
X138782619Y-71096904D01*
X138830238Y-71001666D01*
X138925476Y-70954047D01*
X139306428Y-70954047D01*
X139401666Y-71001666D01*
X139449285Y-71096904D01*
X139449285Y-71287380D01*
X139401666Y-71382619D01*
X139306428Y-71430238D01*
X139211190Y-71430238D01*
X139115952Y-70954047D01*
X138782619Y-71858809D02*
X139449285Y-71858809D01*
X139258809Y-71858809D02*
X139354047Y-71906428D01*
X139401666Y-71954047D01*
X139449285Y-72049285D01*
X139449285Y-72144523D01*
X139449285Y-72477857D02*
X138782619Y-72477857D01*
X139354047Y-72477857D02*
X139401666Y-72525476D01*
X139449285Y-72620714D01*
X139449285Y-72763571D01*
X139401666Y-72858809D01*
X139306428Y-72906428D01*
X138782619Y-72906428D01*
X138782619Y-73811190D02*
X139306428Y-73811190D01*
X139401666Y-73763571D01*
X139449285Y-73668333D01*
X139449285Y-73477857D01*
X139401666Y-73382619D01*
X138830238Y-73811190D02*
X138782619Y-73715952D01*
X138782619Y-73477857D01*
X138830238Y-73382619D01*
X138925476Y-73335000D01*
X139020714Y-73335000D01*
X139115952Y-73382619D01*
X139163571Y-73477857D01*
X139163571Y-73715952D01*
X139211190Y-73811190D01*
X138782619Y-74430238D02*
X138830238Y-74335000D01*
X138925476Y-74287380D01*
X139782619Y-74287380D01*
X139306428Y-75906428D02*
X139258809Y-76049285D01*
X139211190Y-76096904D01*
X139115952Y-76144523D01*
X138973095Y-76144523D01*
X138877857Y-76096904D01*
X138830238Y-76049285D01*
X138782619Y-75954047D01*
X138782619Y-75573095D01*
X139782619Y-75573095D01*
X139782619Y-75906428D01*
X139735000Y-76001666D01*
X139687380Y-76049285D01*
X139592142Y-76096904D01*
X139496904Y-76096904D01*
X139401666Y-76049285D01*
X139354047Y-76001666D01*
X139306428Y-75906428D01*
X139306428Y-75573095D01*
X138782619Y-76715952D02*
X138830238Y-76620714D01*
X138925476Y-76573095D01*
X139782619Y-76573095D01*
X139449285Y-77525476D02*
X138782619Y-77525476D01*
X139449285Y-77096904D02*
X138925476Y-77096904D01*
X138830238Y-77144523D01*
X138782619Y-77239761D01*
X138782619Y-77382619D01*
X138830238Y-77477857D01*
X138877857Y-77525476D01*
X138830238Y-78382619D02*
X138782619Y-78287380D01*
X138782619Y-78096904D01*
X138830238Y-78001666D01*
X138925476Y-77954047D01*
X139306428Y-77954047D01*
X139401666Y-78001666D01*
X139449285Y-78096904D01*
X139449285Y-78287380D01*
X139401666Y-78382619D01*
X139306428Y-78430238D01*
X139211190Y-78430238D01*
X139115952Y-77954047D01*
X138830238Y-78811190D02*
X138782619Y-78954047D01*
X138782619Y-79192142D01*
X138830238Y-79287380D01*
X138877857Y-79335000D01*
X138973095Y-79382619D01*
X139068333Y-79382619D01*
X139163571Y-79335000D01*
X139211190Y-79287380D01*
X139258809Y-79192142D01*
X139306428Y-79001666D01*
X139354047Y-78906428D01*
X139401666Y-78858809D01*
X139496904Y-78811190D01*
X139592142Y-78811190D01*
X139687380Y-78858809D01*
X139735000Y-78906428D01*
X139782619Y-79001666D01*
X139782619Y-79239761D01*
X139735000Y-79382619D01*
X138877857Y-80382619D02*
X138830238Y-80335000D01*
X138782619Y-80192142D01*
X138782619Y-80096904D01*
X138830238Y-79954047D01*
X138925476Y-79858809D01*
X139020714Y-79811190D01*
X139211190Y-79763571D01*
X139354047Y-79763571D01*
X139544523Y-79811190D01*
X139639761Y-79858809D01*
X139735000Y-79954047D01*
X139782619Y-80096904D01*
X139782619Y-80192142D01*
X139735000Y-80335000D01*
X139687380Y-80382619D01*
X138830238Y-80763571D02*
X138782619Y-80906428D01*
X138782619Y-81144523D01*
X138830238Y-81239761D01*
X138877857Y-81287380D01*
X138973095Y-81335000D01*
X139068333Y-81335000D01*
X139163571Y-81287380D01*
X139211190Y-81239761D01*
X139258809Y-81144523D01*
X139306428Y-80954047D01*
X139354047Y-80858809D01*
X139401666Y-80811190D01*
X139496904Y-80763571D01*
X139592142Y-80763571D01*
X139687380Y-80811190D01*
X139735000Y-80858809D01*
X139782619Y-80954047D01*
X139782619Y-81192142D01*
X139735000Y-81335000D01*
X138782619Y-81763571D02*
X139782619Y-81763571D01*
X139449285Y-82858809D02*
X139449285Y-83239761D01*
X138782619Y-83001666D02*
X139639761Y-83001666D01*
X139735000Y-83049285D01*
X139782619Y-83144523D01*
X139782619Y-83239761D01*
X138782619Y-83715952D02*
X138830238Y-83620714D01*
X138877857Y-83573095D01*
X138973095Y-83525476D01*
X139258809Y-83525476D01*
X139354047Y-83573095D01*
X139401666Y-83620714D01*
X139449285Y-83715952D01*
X139449285Y-83858809D01*
X139401666Y-83954047D01*
X139354047Y-84001666D01*
X139258809Y-84049285D01*
X138973095Y-84049285D01*
X138877857Y-84001666D01*
X138830238Y-83954047D01*
X138782619Y-83858809D01*
X138782619Y-83715952D01*
X138782619Y-84477857D02*
X139449285Y-84477857D01*
X139258809Y-84477857D02*
X139354047Y-84525476D01*
X139401666Y-84573095D01*
X139449285Y-84668333D01*
X139449285Y-84763571D01*
X137458333Y-69768333D02*
X137458333Y-70244523D01*
X137172619Y-69673095D02*
X138172619Y-70006428D01*
X137172619Y-70339761D01*
X137839285Y-70673095D02*
X136839285Y-70673095D01*
X137791666Y-70673095D02*
X137839285Y-70768333D01*
X137839285Y-70958809D01*
X137791666Y-71054047D01*
X137744047Y-71101666D01*
X137648809Y-71149285D01*
X137363095Y-71149285D01*
X137267857Y-71101666D01*
X137220238Y-71054047D01*
X137172619Y-70958809D01*
X137172619Y-70768333D01*
X137220238Y-70673095D01*
X137839285Y-71577857D02*
X136839285Y-71577857D01*
X137791666Y-71577857D02*
X137839285Y-71673095D01*
X137839285Y-71863571D01*
X137791666Y-71958809D01*
X137744047Y-72006428D01*
X137648809Y-72054047D01*
X137363095Y-72054047D01*
X137267857Y-72006428D01*
X137220238Y-71958809D01*
X137172619Y-71863571D01*
X137172619Y-71673095D01*
X137220238Y-71577857D01*
X137172619Y-72625476D02*
X137220238Y-72530238D01*
X137315476Y-72482619D01*
X138172619Y-72482619D01*
X137220238Y-73387380D02*
X137172619Y-73292142D01*
X137172619Y-73101666D01*
X137220238Y-73006428D01*
X137315476Y-72958809D01*
X137696428Y-72958809D01*
X137791666Y-73006428D01*
X137839285Y-73101666D01*
X137839285Y-73292142D01*
X137791666Y-73387380D01*
X137696428Y-73435000D01*
X137601190Y-73435000D01*
X137505952Y-72958809D01*
X137172619Y-74625476D02*
X138172619Y-74625476D01*
X137172619Y-75101666D02*
X138172619Y-75101666D01*
X137825000Y-75949285D02*
X137863095Y-75873095D01*
X137863095Y-75758809D01*
X137825000Y-75644523D01*
X137748809Y-75568333D01*
X137672619Y-75530238D01*
X137520238Y-75492142D01*
X137405952Y-75492142D01*
X137253571Y-75530238D01*
X137177380Y-75568333D01*
X137101190Y-75644523D01*
X137063095Y-75758809D01*
X137063095Y-75835000D01*
X137101190Y-75949285D01*
X137139285Y-75987380D01*
X137405952Y-75987380D01*
X137405952Y-75835000D01*
X137101190Y-76292142D02*
X137063095Y-76406428D01*
X137063095Y-76596904D01*
X137101190Y-76673095D01*
X137139285Y-76711190D01*
X137215476Y-76749285D01*
X137291666Y-76749285D01*
X137367857Y-76711190D01*
X137405952Y-76673095D01*
X137444047Y-76596904D01*
X137482142Y-76444523D01*
X137520238Y-76368333D01*
X137558333Y-76330238D01*
X137634523Y-76292142D01*
X137710714Y-76292142D01*
X137786904Y-76330238D01*
X137825000Y-76368333D01*
X137863095Y-76444523D01*
X137863095Y-76635000D01*
X137825000Y-76749285D01*
X137172619Y-78330238D02*
X137696428Y-78330238D01*
X137791666Y-78282619D01*
X137839285Y-78187380D01*
X137839285Y-77996904D01*
X137791666Y-77901666D01*
X137220238Y-78330238D02*
X137172619Y-78235000D01*
X137172619Y-77996904D01*
X137220238Y-77901666D01*
X137315476Y-77854047D01*
X137410714Y-77854047D01*
X137505952Y-77901666D01*
X137553571Y-77996904D01*
X137553571Y-78235000D01*
X137601190Y-78330238D01*
X137839285Y-78806428D02*
X137172619Y-78806428D01*
X137744047Y-78806428D02*
X137791666Y-78854047D01*
X137839285Y-78949285D01*
X137839285Y-79092142D01*
X137791666Y-79187380D01*
X137696428Y-79235000D01*
X137172619Y-79235000D01*
X137172619Y-80139761D02*
X138172619Y-80139761D01*
X137220238Y-80139761D02*
X137172619Y-80044523D01*
X137172619Y-79854047D01*
X137220238Y-79758809D01*
X137267857Y-79711190D01*
X137363095Y-79663571D01*
X137648809Y-79663571D01*
X137744047Y-79711190D01*
X137791666Y-79758809D01*
X137839285Y-79854047D01*
X137839285Y-80044523D01*
X137791666Y-80139761D01*
X138220238Y-82092142D02*
X136934523Y-81235000D01*
X138220238Y-83139761D02*
X136934523Y-82282619D01*
X137220238Y-83854047D02*
X137172619Y-83758809D01*
X137172619Y-83568333D01*
X137220238Y-83473095D01*
X137315476Y-83425476D01*
X137696428Y-83425476D01*
X137791666Y-83473095D01*
X137839285Y-83568333D01*
X137839285Y-83758809D01*
X137791666Y-83854047D01*
X137696428Y-83901666D01*
X137601190Y-83901666D01*
X137505952Y-83425476D01*
D10*
X183052738Y-88336380D02*
X183052738Y-87336380D01*
X183433690Y-87336380D01*
X183528928Y-87384000D01*
X183576547Y-87431619D01*
X183624166Y-87526857D01*
X183624166Y-87669714D01*
X183576547Y-87764952D01*
X183528928Y-87812571D01*
X183433690Y-87860190D01*
X183052738Y-87860190D01*
X183957500Y-87336380D02*
X184195595Y-88336380D01*
X184386071Y-87622095D01*
X184576547Y-88336380D01*
X184814642Y-87336380D01*
X185767023Y-88336380D02*
X185433690Y-87860190D01*
X185195595Y-88336380D02*
X185195595Y-87336380D01*
X185576547Y-87336380D01*
X185671785Y-87384000D01*
X185719404Y-87431619D01*
X185767023Y-87526857D01*
X185767023Y-87669714D01*
X185719404Y-87764952D01*
X185671785Y-87812571D01*
X185576547Y-87860190D01*
X185195595Y-87860190D01*
X130129595Y-89844571D02*
X130462928Y-89844571D01*
X130605785Y-90368380D02*
X130129595Y-90368380D01*
X130129595Y-89368380D01*
X130605785Y-89368380D01*
X130939119Y-90368380D02*
X131462928Y-89701714D01*
X130939119Y-89701714D02*
X131462928Y-90368380D01*
X131701023Y-89701714D02*
X132081976Y-89701714D01*
X131843880Y-89368380D02*
X131843880Y-90225523D01*
X131891500Y-90320761D01*
X131986738Y-90368380D01*
X132081976Y-90368380D01*
X132796261Y-90320761D02*
X132701023Y-90368380D01*
X132510547Y-90368380D01*
X132415309Y-90320761D01*
X132367690Y-90225523D01*
X132367690Y-89844571D01*
X132415309Y-89749333D01*
X132510547Y-89701714D01*
X132701023Y-89701714D01*
X132796261Y-89749333D01*
X132843880Y-89844571D01*
X132843880Y-89939809D01*
X132367690Y-90035047D01*
X133272452Y-90368380D02*
X133272452Y-89701714D01*
X133272452Y-89892190D02*
X133320071Y-89796952D01*
X133367690Y-89749333D01*
X133462928Y-89701714D01*
X133558166Y-89701714D01*
X133891500Y-89701714D02*
X133891500Y-90368380D01*
X133891500Y-89796952D02*
X133939119Y-89749333D01*
X134034357Y-89701714D01*
X134177214Y-89701714D01*
X134272452Y-89749333D01*
X134320071Y-89844571D01*
X134320071Y-90368380D01*
X135224833Y-90368380D02*
X135224833Y-89844571D01*
X135177214Y-89749333D01*
X135081976Y-89701714D01*
X134891500Y-89701714D01*
X134796261Y-89749333D01*
X135224833Y-90320761D02*
X135129595Y-90368380D01*
X134891500Y-90368380D01*
X134796261Y-90320761D01*
X134748642Y-90225523D01*
X134748642Y-90130285D01*
X134796261Y-90035047D01*
X134891500Y-89987428D01*
X135129595Y-89987428D01*
X135224833Y-89939809D01*
X135843880Y-90368380D02*
X135748642Y-90320761D01*
X135701023Y-90225523D01*
X135701023Y-89368380D01*
X136939119Y-90082666D02*
X137415309Y-90082666D01*
X136843880Y-90368380D02*
X137177214Y-89368380D01*
X137510547Y-90368380D01*
X138272452Y-90320761D02*
X138177214Y-90368380D01*
X137986738Y-90368380D01*
X137891500Y-90320761D01*
X137843880Y-90273142D01*
X137796261Y-90177904D01*
X137796261Y-89892190D01*
X137843880Y-89796952D01*
X137891500Y-89749333D01*
X137986738Y-89701714D01*
X138177214Y-89701714D01*
X138272452Y-89749333D01*
X138558166Y-89701714D02*
X138939119Y-89701714D01*
X138701023Y-89368380D02*
X138701023Y-90225523D01*
X138748642Y-90320761D01*
X138843880Y-90368380D01*
X138939119Y-90368380D01*
X139272452Y-90368380D02*
X139272452Y-89701714D01*
X139272452Y-89368380D02*
X139224833Y-89416000D01*
X139272452Y-89463619D01*
X139320071Y-89416000D01*
X139272452Y-89368380D01*
X139272452Y-89463619D01*
X139653404Y-89701714D02*
X139891500Y-90368380D01*
X140129595Y-89701714D01*
X140510547Y-90368380D02*
X140510547Y-89701714D01*
X140510547Y-89368380D02*
X140462928Y-89416000D01*
X140510547Y-89463619D01*
X140558166Y-89416000D01*
X140510547Y-89368380D01*
X140510547Y-89463619D01*
X140843880Y-89701714D02*
X141224833Y-89701714D01*
X140986738Y-89368380D02*
X140986738Y-90225523D01*
X141034357Y-90320761D01*
X141129595Y-90368380D01*
X141224833Y-90368380D01*
X141462928Y-89701714D02*
X141701023Y-90368380D01*
X141939119Y-89701714D02*
X141701023Y-90368380D01*
X141605785Y-90606476D01*
X141558166Y-90654095D01*
X141462928Y-90701714D01*
X143558166Y-90368380D02*
X143081976Y-90368380D01*
X143081976Y-89368380D01*
X143891500Y-89844571D02*
X144224833Y-89844571D01*
X144367690Y-90368380D02*
X143891500Y-90368380D01*
X143891500Y-89368380D01*
X144367690Y-89368380D01*
X144796261Y-90368380D02*
X144796261Y-89368380D01*
X145034357Y-89368380D01*
X145177214Y-89416000D01*
X145272452Y-89511238D01*
X145320071Y-89606476D01*
X145367690Y-89796952D01*
X145367690Y-89939809D01*
X145320071Y-90130285D01*
X145272452Y-90225523D01*
X145177214Y-90320761D01*
X145034357Y-90368380D01*
X144796261Y-90368380D01*
X182626047Y-88971428D02*
X183387952Y-88971428D01*
X183007000Y-89352380D02*
X183007000Y-88590476D01*
X177447380Y-77668095D02*
X176447380Y-77668095D01*
X177161666Y-77334761D01*
X176447380Y-77001428D01*
X177447380Y-77001428D01*
X177447380Y-76525238D02*
X176780714Y-76525238D01*
X176447380Y-76525238D02*
X176495000Y-76572857D01*
X176542619Y-76525238D01*
X176495000Y-76477619D01*
X176447380Y-76525238D01*
X176542619Y-76525238D01*
X177399761Y-75620476D02*
X177447380Y-75715714D01*
X177447380Y-75906190D01*
X177399761Y-76001428D01*
X177352142Y-76049047D01*
X177256904Y-76096666D01*
X176971190Y-76096666D01*
X176875952Y-76049047D01*
X176828333Y-76001428D01*
X176780714Y-75906190D01*
X176780714Y-75715714D01*
X176828333Y-75620476D01*
X177447380Y-75191904D02*
X176780714Y-75191904D01*
X176971190Y-75191904D02*
X176875952Y-75144285D01*
X176828333Y-75096666D01*
X176780714Y-75001428D01*
X176780714Y-74906190D01*
X177447380Y-74430000D02*
X177399761Y-74525238D01*
X177352142Y-74572857D01*
X177256904Y-74620476D01*
X176971190Y-74620476D01*
X176875952Y-74572857D01*
X176828333Y-74525238D01*
X176780714Y-74430000D01*
X176780714Y-74287142D01*
X176828333Y-74191904D01*
X176875952Y-74144285D01*
X176971190Y-74096666D01*
X177256904Y-74096666D01*
X177352142Y-74144285D01*
X177399761Y-74191904D01*
X177447380Y-74287142D01*
X177447380Y-74430000D01*
X177399761Y-73715714D02*
X177447380Y-73572857D01*
X177447380Y-73334761D01*
X177399761Y-73239523D01*
X177352142Y-73191904D01*
X177256904Y-73144285D01*
X177161666Y-73144285D01*
X177066428Y-73191904D01*
X177018809Y-73239523D01*
X176971190Y-73334761D01*
X176923571Y-73525238D01*
X176875952Y-73620476D01*
X176828333Y-73668095D01*
X176733095Y-73715714D01*
X176637857Y-73715714D01*
X176542619Y-73668095D01*
X176495000Y-73620476D01*
X176447380Y-73525238D01*
X176447380Y-73287142D01*
X176495000Y-73144285D01*
X177447380Y-72715714D02*
X176447380Y-72715714D01*
X176447380Y-72477619D01*
X176495000Y-72334761D01*
X176590238Y-72239523D01*
X176685476Y-72191904D01*
X176875952Y-72144285D01*
X177018809Y-72144285D01*
X177209285Y-72191904D01*
X177304523Y-72239523D01*
X177399761Y-72334761D01*
X177447380Y-72477619D01*
X177447380Y-72715714D01*
X178962142Y-77691904D02*
X179009761Y-77739523D01*
X179057380Y-77882380D01*
X179057380Y-77977619D01*
X179009761Y-78120476D01*
X178914523Y-78215714D01*
X178819285Y-78263333D01*
X178628809Y-78310952D01*
X178485952Y-78310952D01*
X178295476Y-78263333D01*
X178200238Y-78215714D01*
X178105000Y-78120476D01*
X178057380Y-77977619D01*
X178057380Y-77882380D01*
X178105000Y-77739523D01*
X178152619Y-77691904D01*
X179057380Y-76834761D02*
X178533571Y-76834761D01*
X178438333Y-76882380D01*
X178390714Y-76977619D01*
X178390714Y-77168095D01*
X178438333Y-77263333D01*
X179009761Y-76834761D02*
X179057380Y-76930000D01*
X179057380Y-77168095D01*
X179009761Y-77263333D01*
X178914523Y-77310952D01*
X178819285Y-77310952D01*
X178724047Y-77263333D01*
X178676428Y-77168095D01*
X178676428Y-76930000D01*
X178628809Y-76834761D01*
X179057380Y-76358571D02*
X178390714Y-76358571D01*
X178581190Y-76358571D02*
X178485952Y-76310952D01*
X178438333Y-76263333D01*
X178390714Y-76168095D01*
X178390714Y-76072857D01*
X179057380Y-75310952D02*
X178057380Y-75310952D01*
X179009761Y-75310952D02*
X179057380Y-75406190D01*
X179057380Y-75596666D01*
X179009761Y-75691904D01*
X178962142Y-75739523D01*
X178866904Y-75787142D01*
X178581190Y-75787142D01*
X178485952Y-75739523D01*
X178438333Y-75691904D01*
X178390714Y-75596666D01*
X178390714Y-75406190D01*
X178438333Y-75310952D01*
X179009761Y-74120476D02*
X179057380Y-73977619D01*
X179057380Y-73739523D01*
X179009761Y-73644285D01*
X178962142Y-73596666D01*
X178866904Y-73549047D01*
X178771666Y-73549047D01*
X178676428Y-73596666D01*
X178628809Y-73644285D01*
X178581190Y-73739523D01*
X178533571Y-73930000D01*
X178485952Y-74025238D01*
X178438333Y-74072857D01*
X178343095Y-74120476D01*
X178247857Y-74120476D01*
X178152619Y-74072857D01*
X178105000Y-74025238D01*
X178057380Y-73930000D01*
X178057380Y-73691904D01*
X178105000Y-73549047D01*
X179057380Y-72977619D02*
X179009761Y-73072857D01*
X178914523Y-73120476D01*
X178057380Y-73120476D01*
X179057380Y-72453809D02*
X179009761Y-72549047D01*
X178962142Y-72596666D01*
X178866904Y-72644285D01*
X178581190Y-72644285D01*
X178485952Y-72596666D01*
X178438333Y-72549047D01*
X178390714Y-72453809D01*
X178390714Y-72310952D01*
X178438333Y-72215714D01*
X178485952Y-72168095D01*
X178581190Y-72120476D01*
X178866904Y-72120476D01*
X178962142Y-72168095D01*
X179009761Y-72215714D01*
X179057380Y-72310952D01*
X179057380Y-72453809D01*
X178390714Y-71834761D02*
X178390714Y-71453809D01*
X178057380Y-71691904D02*
X178914523Y-71691904D01*
X179009761Y-71644285D01*
X179057380Y-71549047D01*
X179057380Y-71453809D01*
D12*
X185110380Y-80017333D02*
X184110380Y-80017333D01*
X184824666Y-79684000D01*
X184110380Y-79350666D01*
X185110380Y-79350666D01*
X185110380Y-78874476D02*
X184443714Y-78874476D01*
X184110380Y-78874476D02*
X184158000Y-78922095D01*
X184205619Y-78874476D01*
X184158000Y-78826857D01*
X184110380Y-78874476D01*
X184205619Y-78874476D01*
X185062761Y-77969714D02*
X185110380Y-78064952D01*
X185110380Y-78255428D01*
X185062761Y-78350666D01*
X185015142Y-78398285D01*
X184919904Y-78445904D01*
X184634190Y-78445904D01*
X184538952Y-78398285D01*
X184491333Y-78350666D01*
X184443714Y-78255428D01*
X184443714Y-78064952D01*
X184491333Y-77969714D01*
X185110380Y-77541142D02*
X184443714Y-77541142D01*
X184634190Y-77541142D02*
X184538952Y-77493523D01*
X184491333Y-77445904D01*
X184443714Y-77350666D01*
X184443714Y-77255428D01*
X185110380Y-76779238D02*
X185062761Y-76874476D01*
X185015142Y-76922095D01*
X184919904Y-76969714D01*
X184634190Y-76969714D01*
X184538952Y-76922095D01*
X184491333Y-76874476D01*
X184443714Y-76779238D01*
X184443714Y-76636380D01*
X184491333Y-76541142D01*
X184538952Y-76493523D01*
X184634190Y-76445904D01*
X184919904Y-76445904D01*
X185015142Y-76493523D01*
X185062761Y-76541142D01*
X185110380Y-76636380D01*
X185110380Y-76779238D01*
X185062761Y-76064952D02*
X185110380Y-75922095D01*
X185110380Y-75684000D01*
X185062761Y-75588761D01*
X185015142Y-75541142D01*
X184919904Y-75493523D01*
X184824666Y-75493523D01*
X184729428Y-75541142D01*
X184681809Y-75588761D01*
X184634190Y-75684000D01*
X184586571Y-75874476D01*
X184538952Y-75969714D01*
X184491333Y-76017333D01*
X184396095Y-76064952D01*
X184300857Y-76064952D01*
X184205619Y-76017333D01*
X184158000Y-75969714D01*
X184110380Y-75874476D01*
X184110380Y-75636380D01*
X184158000Y-75493523D01*
X185110380Y-75064952D02*
X184110380Y-75064952D01*
X184110380Y-74826857D01*
X184158000Y-74684000D01*
X184253238Y-74588761D01*
X184348476Y-74541142D01*
X184538952Y-74493523D01*
X184681809Y-74493523D01*
X184872285Y-74541142D01*
X184967523Y-74588761D01*
X185062761Y-74684000D01*
X185110380Y-74826857D01*
X185110380Y-75064952D01*
X185015142Y-72731619D02*
X185062761Y-72779238D01*
X185110380Y-72922095D01*
X185110380Y-73017333D01*
X185062761Y-73160190D01*
X184967523Y-73255428D01*
X184872285Y-73303047D01*
X184681809Y-73350666D01*
X184538952Y-73350666D01*
X184348476Y-73303047D01*
X184253238Y-73255428D01*
X184158000Y-73160190D01*
X184110380Y-73017333D01*
X184110380Y-72922095D01*
X184158000Y-72779238D01*
X184205619Y-72731619D01*
X185110380Y-71874476D02*
X184586571Y-71874476D01*
X184491333Y-71922095D01*
X184443714Y-72017333D01*
X184443714Y-72207809D01*
X184491333Y-72303047D01*
X185062761Y-71874476D02*
X185110380Y-71969714D01*
X185110380Y-72207809D01*
X185062761Y-72303047D01*
X184967523Y-72350666D01*
X184872285Y-72350666D01*
X184777047Y-72303047D01*
X184729428Y-72207809D01*
X184729428Y-71969714D01*
X184681809Y-71874476D01*
X185110380Y-71398285D02*
X184443714Y-71398285D01*
X184634190Y-71398285D02*
X184538952Y-71350666D01*
X184491333Y-71303047D01*
X184443714Y-71207809D01*
X184443714Y-71112571D01*
X185110380Y-70350666D02*
X184110380Y-70350666D01*
X185062761Y-70350666D02*
X185110380Y-70445904D01*
X185110380Y-70636380D01*
X185062761Y-70731619D01*
X185015142Y-70779238D01*
X184919904Y-70826857D01*
X184634190Y-70826857D01*
X184538952Y-70779238D01*
X184491333Y-70731619D01*
X184443714Y-70636380D01*
X184443714Y-70445904D01*
X184491333Y-70350666D01*
D10*
X130969714Y-50098142D02*
X130922095Y-50145761D01*
X130779238Y-50193380D01*
X130684000Y-50193380D01*
X130541142Y-50145761D01*
X130445904Y-50050523D01*
X130398285Y-49955285D01*
X130350666Y-49764809D01*
X130350666Y-49621952D01*
X130398285Y-49431476D01*
X130445904Y-49336238D01*
X130541142Y-49241000D01*
X130684000Y-49193380D01*
X130779238Y-49193380D01*
X130922095Y-49241000D01*
X130969714Y-49288619D01*
X131588761Y-49193380D02*
X131779238Y-49193380D01*
X131874476Y-49241000D01*
X131969714Y-49336238D01*
X132017333Y-49526714D01*
X132017333Y-49860047D01*
X131969714Y-50050523D01*
X131874476Y-50145761D01*
X131779238Y-50193380D01*
X131588761Y-50193380D01*
X131493523Y-50145761D01*
X131398285Y-50050523D01*
X131350666Y-49860047D01*
X131350666Y-49526714D01*
X131398285Y-49336238D01*
X131493523Y-49241000D01*
X131588761Y-49193380D01*
X132445904Y-50193380D02*
X132445904Y-49193380D01*
X133017333Y-50193380D01*
X133017333Y-49193380D01*
X133493523Y-50193380D02*
X133493523Y-49193380D01*
X134064952Y-50193380D01*
X134064952Y-49193380D01*
X134541142Y-49669571D02*
X134874476Y-49669571D01*
X135017333Y-50193380D02*
X134541142Y-50193380D01*
X134541142Y-49193380D01*
X135017333Y-49193380D01*
X136017333Y-50098142D02*
X135969714Y-50145761D01*
X135826857Y-50193380D01*
X135731619Y-50193380D01*
X135588761Y-50145761D01*
X135493523Y-50050523D01*
X135445904Y-49955285D01*
X135398285Y-49764809D01*
X135398285Y-49621952D01*
X135445904Y-49431476D01*
X135493523Y-49336238D01*
X135588761Y-49241000D01*
X135731619Y-49193380D01*
X135826857Y-49193380D01*
X135969714Y-49241000D01*
X136017333Y-49288619D01*
X136303047Y-49193380D02*
X136874476Y-49193380D01*
X136588761Y-50193380D02*
X136588761Y-49193380D01*
X137207809Y-50193380D02*
X137207809Y-49193380D01*
X137874476Y-49193380D02*
X138064952Y-49193380D01*
X138160190Y-49241000D01*
X138255428Y-49336238D01*
X138303047Y-49526714D01*
X138303047Y-49860047D01*
X138255428Y-50050523D01*
X138160190Y-50145761D01*
X138064952Y-50193380D01*
X137874476Y-50193380D01*
X137779238Y-50145761D01*
X137684000Y-50050523D01*
X137636380Y-49860047D01*
X137636380Y-49526714D01*
X137684000Y-49336238D01*
X137779238Y-49241000D01*
X137874476Y-49193380D01*
X138731619Y-50193380D02*
X138731619Y-49193380D01*
X139303047Y-50193380D01*
X139303047Y-49193380D01*
X139731619Y-50145761D02*
X139874476Y-50193380D01*
X140112571Y-50193380D01*
X140207809Y-50145761D01*
X140255428Y-50098142D01*
X140303047Y-50002904D01*
X140303047Y-49907666D01*
X140255428Y-49812428D01*
X140207809Y-49764809D01*
X140112571Y-49717190D01*
X139922095Y-49669571D01*
X139826857Y-49621952D01*
X139779238Y-49574333D01*
X139731619Y-49479095D01*
X139731619Y-49383857D01*
X139779238Y-49288619D01*
X139826857Y-49241000D01*
X139922095Y-49193380D01*
X140160190Y-49193380D01*
X140303047Y-49241000D01*
X141350666Y-49193380D02*
X141922095Y-49193380D01*
X141636380Y-50193380D02*
X141636380Y-49193380D01*
X142445904Y-49193380D02*
X142636380Y-49193380D01*
X142731619Y-49241000D01*
X142826857Y-49336238D01*
X142874476Y-49526714D01*
X142874476Y-49860047D01*
X142826857Y-50050523D01*
X142731619Y-50145761D01*
X142636380Y-50193380D01*
X142445904Y-50193380D01*
X142350666Y-50145761D01*
X142255428Y-50050523D01*
X142207809Y-49860047D01*
X142207809Y-49526714D01*
X142255428Y-49336238D01*
X142350666Y-49241000D01*
X142445904Y-49193380D01*
X144017333Y-50145761D02*
X144160190Y-50193380D01*
X144398285Y-50193380D01*
X144493523Y-50145761D01*
X144541142Y-50098142D01*
X144588761Y-50002904D01*
X144588761Y-49907666D01*
X144541142Y-49812428D01*
X144493523Y-49764809D01*
X144398285Y-49717190D01*
X144207809Y-49669571D01*
X144112571Y-49621952D01*
X144064952Y-49574333D01*
X144017333Y-49479095D01*
X144017333Y-49383857D01*
X144064952Y-49288619D01*
X144112571Y-49241000D01*
X144207809Y-49193380D01*
X144445904Y-49193380D01*
X144588761Y-49241000D01*
X145588761Y-50098142D02*
X145541142Y-50145761D01*
X145398285Y-50193380D01*
X145303047Y-50193380D01*
X145160190Y-50145761D01*
X145064952Y-50050523D01*
X145017333Y-49955285D01*
X144969714Y-49764809D01*
X144969714Y-49621952D01*
X145017333Y-49431476D01*
X145064952Y-49336238D01*
X145160190Y-49241000D01*
X145303047Y-49193380D01*
X145398285Y-49193380D01*
X145541142Y-49241000D01*
X145588761Y-49288619D01*
X145969714Y-50145761D02*
X146112571Y-50193380D01*
X146350666Y-50193380D01*
X146445904Y-50145761D01*
X146493523Y-50098142D01*
X146541142Y-50002904D01*
X146541142Y-49907666D01*
X146493523Y-49812428D01*
X146445904Y-49764809D01*
X146350666Y-49717190D01*
X146160190Y-49669571D01*
X146064952Y-49621952D01*
X146017333Y-49574333D01*
X145969714Y-49479095D01*
X145969714Y-49383857D01*
X146017333Y-49288619D01*
X146064952Y-49241000D01*
X146160190Y-49193380D01*
X146398285Y-49193380D01*
X146541142Y-49241000D01*
X146969714Y-50193380D02*
X146969714Y-49193380D01*
X130517333Y-51708142D02*
X130469714Y-51755761D01*
X130326857Y-51803380D01*
X130231619Y-51803380D01*
X130088761Y-51755761D01*
X129993523Y-51660523D01*
X129945904Y-51565285D01*
X129898285Y-51374809D01*
X129898285Y-51231952D01*
X129945904Y-51041476D01*
X129993523Y-50946238D01*
X130088761Y-50851000D01*
X130231619Y-50803380D01*
X130326857Y-50803380D01*
X130469714Y-50851000D01*
X130517333Y-50898619D01*
X130898285Y-51517666D02*
X131374476Y-51517666D01*
X130803047Y-51803380D02*
X131136380Y-50803380D01*
X131469714Y-51803380D01*
X132374476Y-51803380D02*
X132041142Y-51327190D01*
X131803047Y-51803380D02*
X131803047Y-50803380D01*
X132184000Y-50803380D01*
X132279238Y-50851000D01*
X132326857Y-50898619D01*
X132374476Y-50993857D01*
X132374476Y-51136714D01*
X132326857Y-51231952D01*
X132279238Y-51279571D01*
X132184000Y-51327190D01*
X131803047Y-51327190D01*
X132803047Y-51803380D02*
X132803047Y-50803380D01*
X133041142Y-50803380D01*
X133184000Y-50851000D01*
X133279238Y-50946238D01*
X133326857Y-51041476D01*
X133374476Y-51231952D01*
X133374476Y-51374809D01*
X133326857Y-51565285D01*
X133279238Y-51660523D01*
X133184000Y-51755761D01*
X133041142Y-51803380D01*
X132803047Y-51803380D01*
X134517333Y-51517666D02*
X134993523Y-51517666D01*
X134422095Y-51803380D02*
X134755428Y-50803380D01*
X135088761Y-51803380D01*
X135422095Y-51803380D02*
X135422095Y-50803380D01*
X135993523Y-51803380D01*
X135993523Y-50803380D01*
X136469714Y-51803380D02*
X136469714Y-50803380D01*
X136707809Y-50803380D01*
X136850666Y-50851000D01*
X136945904Y-50946238D01*
X136993523Y-51041476D01*
X137041142Y-51231952D01*
X137041142Y-51374809D01*
X136993523Y-51565285D01*
X136945904Y-51660523D01*
X136850666Y-51755761D01*
X136707809Y-51803380D01*
X136469714Y-51803380D01*
X138803047Y-51803380D02*
X138469714Y-51327190D01*
X138231619Y-51803380D02*
X138231619Y-50803380D01*
X138612571Y-50803380D01*
X138707809Y-50851000D01*
X138755428Y-50898619D01*
X138803047Y-50993857D01*
X138803047Y-51136714D01*
X138755428Y-51231952D01*
X138707809Y-51279571D01*
X138612571Y-51327190D01*
X138231619Y-51327190D01*
X139231619Y-51279571D02*
X139564952Y-51279571D01*
X139707809Y-51803380D02*
X139231619Y-51803380D01*
X139231619Y-50803380D01*
X139707809Y-50803380D01*
X140088761Y-51517666D02*
X140564952Y-51517666D01*
X139993523Y-51803380D02*
X140326857Y-50803380D01*
X140660190Y-51803380D01*
X141564952Y-51803380D02*
X141231619Y-51327190D01*
X140993523Y-51803380D02*
X140993523Y-50803380D01*
X141374476Y-50803380D01*
X141469714Y-50851000D01*
X141517333Y-50898619D01*
X141564952Y-50993857D01*
X141564952Y-51136714D01*
X141517333Y-51231952D01*
X141469714Y-51279571D01*
X141374476Y-51327190D01*
X140993523Y-51327190D01*
X142755428Y-51803380D02*
X142755428Y-50803380D01*
X142993523Y-50803380D01*
X143136380Y-50851000D01*
X143231619Y-50946238D01*
X143279238Y-51041476D01*
X143326857Y-51231952D01*
X143326857Y-51374809D01*
X143279238Y-51565285D01*
X143231619Y-51660523D01*
X143136380Y-51755761D01*
X142993523Y-51803380D01*
X142755428Y-51803380D01*
X144088761Y-51279571D02*
X144231619Y-51327190D01*
X144279238Y-51374809D01*
X144326857Y-51470047D01*
X144326857Y-51612904D01*
X144279238Y-51708142D01*
X144231619Y-51755761D01*
X144136380Y-51803380D01*
X143755428Y-51803380D01*
X143755428Y-50803380D01*
X144088761Y-50803380D01*
X144184000Y-50851000D01*
X144231619Y-50898619D01*
X144279238Y-50993857D01*
X144279238Y-51089095D01*
X144231619Y-51184333D01*
X144184000Y-51231952D01*
X144088761Y-51279571D01*
X143755428Y-51279571D01*
X144755428Y-51422428D02*
X145517333Y-51422428D01*
X145945904Y-50898619D02*
X145993523Y-50851000D01*
X146088761Y-50803380D01*
X146326857Y-50803380D01*
X146422095Y-50851000D01*
X146469714Y-50898619D01*
X146517333Y-50993857D01*
X146517333Y-51089095D01*
X146469714Y-51231952D01*
X145898285Y-51803380D01*
X146517333Y-51803380D01*
X147422095Y-50803380D02*
X146945904Y-50803380D01*
X146898285Y-51279571D01*
X146945904Y-51231952D01*
X147041142Y-51184333D01*
X147279238Y-51184333D01*
X147374476Y-51231952D01*
X147422095Y-51279571D01*
X147469714Y-51374809D01*
X147469714Y-51612904D01*
X147422095Y-51708142D01*
X147374476Y-51755761D01*
X147279238Y-51803380D01*
X147041142Y-51803380D01*
X146945904Y-51755761D01*
X146898285Y-51708142D01*
X139826952Y-101528571D02*
X139065047Y-101528571D01*
X139446000Y-101147619D02*
X139446000Y-101909523D01*
X181316380Y-57951619D02*
X181316380Y-57761142D01*
X181364000Y-57665904D01*
X181459238Y-57570666D01*
X181649714Y-57523047D01*
X181983047Y-57523047D01*
X182173523Y-57570666D01*
X182268761Y-57665904D01*
X182316380Y-57761142D01*
X182316380Y-57951619D01*
X182268761Y-58046857D01*
X182173523Y-58142095D01*
X181983047Y-58189714D01*
X181649714Y-58189714D01*
X181459238Y-58142095D01*
X181364000Y-58046857D01*
X181316380Y-57951619D01*
X181649714Y-57094476D02*
X182316380Y-57094476D01*
X181744952Y-57094476D02*
X181697333Y-57046857D01*
X181649714Y-56951619D01*
X181649714Y-56808761D01*
X181697333Y-56713523D01*
X181792571Y-56665904D01*
X182316380Y-56665904D01*
X179792380Y-65856904D02*
X179792380Y-65285476D01*
X180792380Y-65571190D02*
X179792380Y-65571190D01*
X180744761Y-64571190D02*
X180792380Y-64666428D01*
X180792380Y-64856904D01*
X180744761Y-64952142D01*
X180649523Y-64999761D01*
X180268571Y-64999761D01*
X180173333Y-64952142D01*
X180125714Y-64856904D01*
X180125714Y-64666428D01*
X180173333Y-64571190D01*
X180268571Y-64523571D01*
X180363809Y-64523571D01*
X180459047Y-64999761D01*
X180792380Y-64095000D02*
X180125714Y-64095000D01*
X180316190Y-64095000D02*
X180220952Y-64047380D01*
X180173333Y-63999761D01*
X180125714Y-63904523D01*
X180125714Y-63809285D01*
X180792380Y-63475952D02*
X180125714Y-63475952D01*
X180220952Y-63475952D02*
X180173333Y-63428333D01*
X180125714Y-63333095D01*
X180125714Y-63190238D01*
X180173333Y-63095000D01*
X180268571Y-63047380D01*
X180792380Y-63047380D01*
X180268571Y-63047380D02*
X180173333Y-62999761D01*
X180125714Y-62904523D01*
X180125714Y-62761666D01*
X180173333Y-62666428D01*
X180268571Y-62618809D01*
X180792380Y-62618809D01*
X180792380Y-62142619D02*
X180125714Y-62142619D01*
X179792380Y-62142619D02*
X179840000Y-62190238D01*
X179887619Y-62142619D01*
X179840000Y-62095000D01*
X179792380Y-62142619D01*
X179887619Y-62142619D01*
X180125714Y-61666428D02*
X180792380Y-61666428D01*
X180220952Y-61666428D02*
X180173333Y-61618809D01*
X180125714Y-61523571D01*
X180125714Y-61380714D01*
X180173333Y-61285476D01*
X180268571Y-61237857D01*
X180792380Y-61237857D01*
X180792380Y-60333095D02*
X180268571Y-60333095D01*
X180173333Y-60380714D01*
X180125714Y-60475952D01*
X180125714Y-60666428D01*
X180173333Y-60761666D01*
X180744761Y-60333095D02*
X180792380Y-60428333D01*
X180792380Y-60666428D01*
X180744761Y-60761666D01*
X180649523Y-60809285D01*
X180554285Y-60809285D01*
X180459047Y-60761666D01*
X180411428Y-60666428D01*
X180411428Y-60428333D01*
X180363809Y-60333095D01*
X180125714Y-59999761D02*
X180125714Y-59618809D01*
X179792380Y-59856904D02*
X180649523Y-59856904D01*
X180744761Y-59809285D01*
X180792380Y-59714047D01*
X180792380Y-59618809D01*
X180792380Y-59285476D02*
X180125714Y-59285476D01*
X179792380Y-59285476D02*
X179840000Y-59333095D01*
X179887619Y-59285476D01*
X179840000Y-59237857D01*
X179792380Y-59285476D01*
X179887619Y-59285476D01*
X180792380Y-58666428D02*
X180744761Y-58761666D01*
X180697142Y-58809285D01*
X180601904Y-58856904D01*
X180316190Y-58856904D01*
X180220952Y-58809285D01*
X180173333Y-58761666D01*
X180125714Y-58666428D01*
X180125714Y-58523571D01*
X180173333Y-58428333D01*
X180220952Y-58380714D01*
X180316190Y-58333095D01*
X180601904Y-58333095D01*
X180697142Y-58380714D01*
X180744761Y-58428333D01*
X180792380Y-58523571D01*
X180792380Y-58666428D01*
X180125714Y-57904523D02*
X180792380Y-57904523D01*
X180220952Y-57904523D02*
X180173333Y-57856904D01*
X180125714Y-57761666D01*
X180125714Y-57618809D01*
X180173333Y-57523571D01*
X180268571Y-57475952D01*
X180792380Y-57475952D01*
X157829523Y-71776761D02*
X157972380Y-71824380D01*
X158210476Y-71824380D01*
X158305714Y-71776761D01*
X158353333Y-71729142D01*
X158400952Y-71633904D01*
X158400952Y-71538666D01*
X158353333Y-71443428D01*
X158305714Y-71395809D01*
X158210476Y-71348190D01*
X158020000Y-71300571D01*
X157924761Y-71252952D01*
X157877142Y-71205333D01*
X157829523Y-71110095D01*
X157829523Y-71014857D01*
X157877142Y-70919619D01*
X157924761Y-70872000D01*
X158020000Y-70824380D01*
X158258095Y-70824380D01*
X158400952Y-70872000D01*
X158686666Y-70824380D02*
X159258095Y-70824380D01*
X158972380Y-71824380D02*
X158972380Y-70824380D01*
X159591428Y-71824380D02*
X159591428Y-70824380D01*
X159924761Y-71538666D01*
X160258095Y-70824380D01*
X160258095Y-71824380D01*
X160639047Y-70824380D02*
X161258095Y-70824380D01*
X160924761Y-71205333D01*
X161067619Y-71205333D01*
X161162857Y-71252952D01*
X161210476Y-71300571D01*
X161258095Y-71395809D01*
X161258095Y-71633904D01*
X161210476Y-71729142D01*
X161162857Y-71776761D01*
X161067619Y-71824380D01*
X160781904Y-71824380D01*
X160686666Y-71776761D01*
X160639047Y-71729142D01*
X161639047Y-70919619D02*
X161686666Y-70872000D01*
X161781904Y-70824380D01*
X162020000Y-70824380D01*
X162115238Y-70872000D01*
X162162857Y-70919619D01*
X162210476Y-71014857D01*
X162210476Y-71110095D01*
X162162857Y-71252952D01*
X161591428Y-71824380D01*
X162210476Y-71824380D01*
X156781904Y-72910571D02*
X156924761Y-72958190D01*
X156972380Y-73005809D01*
X157020000Y-73101047D01*
X157020000Y-73243904D01*
X156972380Y-73339142D01*
X156924761Y-73386761D01*
X156829523Y-73434380D01*
X156448571Y-73434380D01*
X156448571Y-72434380D01*
X156781904Y-72434380D01*
X156877142Y-72482000D01*
X156924761Y-72529619D01*
X156972380Y-72624857D01*
X156972380Y-72720095D01*
X156924761Y-72815333D01*
X156877142Y-72862952D01*
X156781904Y-72910571D01*
X156448571Y-72910571D01*
X157924761Y-73434380D02*
X157448571Y-73434380D01*
X157448571Y-72434380D01*
X158258095Y-72434380D02*
X158258095Y-73243904D01*
X158305714Y-73339142D01*
X158353333Y-73386761D01*
X158448571Y-73434380D01*
X158639047Y-73434380D01*
X158734285Y-73386761D01*
X158781904Y-73339142D01*
X158829523Y-73243904D01*
X158829523Y-72434380D01*
X159305714Y-72910571D02*
X159639047Y-72910571D01*
X159781904Y-73434380D02*
X159305714Y-73434380D01*
X159305714Y-72434380D01*
X159781904Y-72434380D01*
X160972380Y-73434380D02*
X160972380Y-72434380D01*
X161353333Y-72434380D01*
X161448571Y-72482000D01*
X161496190Y-72529619D01*
X161543809Y-72624857D01*
X161543809Y-72767714D01*
X161496190Y-72862952D01*
X161448571Y-72910571D01*
X161353333Y-72958190D01*
X160972380Y-72958190D01*
X161972380Y-73434380D02*
X161972380Y-72434380D01*
X162924761Y-73434380D02*
X162448571Y-73434380D01*
X162448571Y-72434380D01*
X163734285Y-73434380D02*
X163258095Y-73434380D01*
X163258095Y-72434380D01*
X157281904Y-75044380D02*
X157281904Y-74044380D01*
X157615238Y-74758666D01*
X157948571Y-74044380D01*
X157948571Y-75044380D01*
X158615238Y-74044380D02*
X158805714Y-74044380D01*
X158900952Y-74092000D01*
X158996190Y-74187238D01*
X159043809Y-74377714D01*
X159043809Y-74711047D01*
X158996190Y-74901523D01*
X158900952Y-74996761D01*
X158805714Y-75044380D01*
X158615238Y-75044380D01*
X158520000Y-74996761D01*
X158424761Y-74901523D01*
X158377142Y-74711047D01*
X158377142Y-74377714D01*
X158424761Y-74187238D01*
X158520000Y-74092000D01*
X158615238Y-74044380D01*
X159472380Y-75044380D02*
X159472380Y-74044380D01*
X159710476Y-74044380D01*
X159853333Y-74092000D01*
X159948571Y-74187238D01*
X159996190Y-74282476D01*
X160043809Y-74472952D01*
X160043809Y-74615809D01*
X159996190Y-74806285D01*
X159948571Y-74901523D01*
X159853333Y-74996761D01*
X159710476Y-75044380D01*
X159472380Y-75044380D01*
X160472380Y-74044380D02*
X160472380Y-74853904D01*
X160520000Y-74949142D01*
X160567619Y-74996761D01*
X160662857Y-75044380D01*
X160853333Y-75044380D01*
X160948571Y-74996761D01*
X160996190Y-74949142D01*
X161043809Y-74853904D01*
X161043809Y-74044380D01*
X161996190Y-75044380D02*
X161520000Y-75044380D01*
X161520000Y-74044380D01*
X162329523Y-74520571D02*
X162662857Y-74520571D01*
X162805714Y-75044380D02*
X162329523Y-75044380D01*
X162329523Y-74044380D01*
X162805714Y-74044380D01*
X156520000Y-75702000D02*
X156424761Y-75654380D01*
X156281904Y-75654380D01*
X156139047Y-75702000D01*
X156043809Y-75797238D01*
X155996190Y-75892476D01*
X155948571Y-76082952D01*
X155948571Y-76225809D01*
X155996190Y-76416285D01*
X156043809Y-76511523D01*
X156139047Y-76606761D01*
X156281904Y-76654380D01*
X156377142Y-76654380D01*
X156520000Y-76606761D01*
X156567619Y-76559142D01*
X156567619Y-76225809D01*
X156377142Y-76225809D01*
X157186666Y-75654380D02*
X157377142Y-75654380D01*
X157472380Y-75702000D01*
X157567619Y-75797238D01*
X157615238Y-75987714D01*
X157615238Y-76321047D01*
X157567619Y-76511523D01*
X157472380Y-76606761D01*
X157377142Y-76654380D01*
X157186666Y-76654380D01*
X157091428Y-76606761D01*
X156996190Y-76511523D01*
X156948571Y-76321047D01*
X156948571Y-75987714D01*
X156996190Y-75797238D01*
X157091428Y-75702000D01*
X157186666Y-75654380D01*
X158043809Y-76130571D02*
X158377142Y-76130571D01*
X158520000Y-76654380D02*
X158043809Y-76654380D01*
X158043809Y-75654380D01*
X158520000Y-75654380D01*
X158900952Y-76606761D02*
X159043809Y-76654380D01*
X159281904Y-76654380D01*
X159377142Y-76606761D01*
X159424761Y-76559142D01*
X159472380Y-76463904D01*
X159472380Y-76368666D01*
X159424761Y-76273428D01*
X159377142Y-76225809D01*
X159281904Y-76178190D01*
X159091428Y-76130571D01*
X158996190Y-76082952D01*
X158948571Y-76035333D01*
X158900952Y-75940095D01*
X158900952Y-75844857D01*
X158948571Y-75749619D01*
X158996190Y-75702000D01*
X159091428Y-75654380D01*
X159329523Y-75654380D01*
X159472380Y-75702000D01*
X160662857Y-76654380D02*
X160662857Y-75654380D01*
X160662857Y-76130571D02*
X161234285Y-76130571D01*
X161234285Y-76654380D02*
X161234285Y-75654380D01*
X161710476Y-76130571D02*
X162043809Y-76130571D01*
X162186666Y-76654380D02*
X161710476Y-76654380D01*
X161710476Y-75654380D01*
X162186666Y-75654380D01*
X163186666Y-76654380D02*
X162853333Y-76178190D01*
X162615238Y-76654380D02*
X162615238Y-75654380D01*
X162996190Y-75654380D01*
X163091428Y-75702000D01*
X163139047Y-75749619D01*
X163186666Y-75844857D01*
X163186666Y-75987714D01*
X163139047Y-76082952D01*
X163091428Y-76130571D01*
X162996190Y-76178190D01*
X162615238Y-76178190D01*
X163615238Y-76130571D02*
X163948571Y-76130571D01*
X164091428Y-76654380D02*
X163615238Y-76654380D01*
X163615238Y-75654380D01*
X164091428Y-75654380D01*
D12*
X139406285Y-93557285D02*
X138977714Y-93557285D01*
X139192000Y-93557285D02*
X139192000Y-92807285D01*
X139120571Y-92914428D01*
X139049142Y-92985857D01*
X138977714Y-93021571D01*
D10*
X155027952Y-49236380D02*
X155027952Y-50045904D01*
X155075571Y-50141142D01*
X155123190Y-50188761D01*
X155218428Y-50236380D01*
X155408904Y-50236380D01*
X155504142Y-50188761D01*
X155551761Y-50141142D01*
X155599380Y-50045904D01*
X155599380Y-49236380D01*
X156027952Y-50188761D02*
X156170809Y-50236380D01*
X156408904Y-50236380D01*
X156504142Y-50188761D01*
X156551761Y-50141142D01*
X156599380Y-50045904D01*
X156599380Y-49950666D01*
X156551761Y-49855428D01*
X156504142Y-49807809D01*
X156408904Y-49760190D01*
X156218428Y-49712571D01*
X156123190Y-49664952D01*
X156075571Y-49617333D01*
X156027952Y-49522095D01*
X156027952Y-49426857D01*
X156075571Y-49331619D01*
X156123190Y-49284000D01*
X156218428Y-49236380D01*
X156456523Y-49236380D01*
X156599380Y-49284000D01*
X157361285Y-49712571D02*
X157504142Y-49760190D01*
X157551761Y-49807809D01*
X157599380Y-49903047D01*
X157599380Y-50045904D01*
X157551761Y-50141142D01*
X157504142Y-50188761D01*
X157408904Y-50236380D01*
X157027952Y-50236380D01*
X157027952Y-49236380D01*
X157361285Y-49236380D01*
X157456523Y-49284000D01*
X157504142Y-49331619D01*
X157551761Y-49426857D01*
X157551761Y-49522095D01*
X157504142Y-49617333D01*
X157456523Y-49664952D01*
X157361285Y-49712571D01*
X157027952Y-49712571D01*
X158647000Y-49236380D02*
X159218428Y-49236380D01*
X158932714Y-50236380D02*
X158932714Y-49236380D01*
X159551761Y-50236380D02*
X159551761Y-49236380D01*
X159551761Y-49712571D02*
X160123190Y-49712571D01*
X160123190Y-50236380D02*
X160123190Y-49236380D01*
X160599380Y-50236380D02*
X160599380Y-49236380D01*
X161027952Y-50188761D02*
X161170809Y-50236380D01*
X161408904Y-50236380D01*
X161504142Y-50188761D01*
X161551761Y-50141142D01*
X161599380Y-50045904D01*
X161599380Y-49950666D01*
X161551761Y-49855428D01*
X161504142Y-49807809D01*
X161408904Y-49760190D01*
X161218428Y-49712571D01*
X161123190Y-49664952D01*
X161075571Y-49617333D01*
X161027952Y-49522095D01*
X161027952Y-49426857D01*
X161075571Y-49331619D01*
X161123190Y-49284000D01*
X161218428Y-49236380D01*
X161456523Y-49236380D01*
X161599380Y-49284000D01*
X162789857Y-49712571D02*
X163123190Y-49712571D01*
X163266047Y-50236380D02*
X162789857Y-50236380D01*
X162789857Y-49236380D01*
X163266047Y-49236380D01*
X163694619Y-50236380D02*
X163694619Y-49236380D01*
X164266047Y-50236380D01*
X164266047Y-49236380D01*
X164742238Y-50236380D02*
X164742238Y-49236380D01*
X164980333Y-49236380D01*
X165123190Y-49284000D01*
X165218428Y-49379238D01*
X165266047Y-49474476D01*
X165313666Y-49664952D01*
X165313666Y-49807809D01*
X165266047Y-49998285D01*
X165218428Y-50093523D01*
X165123190Y-50188761D01*
X164980333Y-50236380D01*
X164742238Y-50236380D01*
D12*
X155872380Y-101070142D02*
X155841428Y-101101095D01*
X155748571Y-101132047D01*
X155686666Y-101132047D01*
X155593809Y-101101095D01*
X155531904Y-101039190D01*
X155500952Y-100977285D01*
X155470000Y-100853476D01*
X155470000Y-100760619D01*
X155500952Y-100636809D01*
X155531904Y-100574904D01*
X155593809Y-100513000D01*
X155686666Y-100482047D01*
X155748571Y-100482047D01*
X155841428Y-100513000D01*
X155872380Y-100543952D01*
X156522380Y-101070142D02*
X156491428Y-101101095D01*
X156398571Y-101132047D01*
X156336666Y-101132047D01*
X156243809Y-101101095D01*
X156181904Y-101039190D01*
X156150952Y-100977285D01*
X156120000Y-100853476D01*
X156120000Y-100760619D01*
X156150952Y-100636809D01*
X156181904Y-100574904D01*
X156243809Y-100513000D01*
X156336666Y-100482047D01*
X156398571Y-100482047D01*
X156491428Y-100513000D01*
X156522380Y-100543952D01*
X157512857Y-100791571D02*
X157605714Y-100822523D01*
X157636666Y-100853476D01*
X157667619Y-100915380D01*
X157667619Y-101008238D01*
X157636666Y-101070142D01*
X157605714Y-101101095D01*
X157543809Y-101132047D01*
X157296190Y-101132047D01*
X157296190Y-100482047D01*
X157512857Y-100482047D01*
X157574761Y-100513000D01*
X157605714Y-100543952D01*
X157636666Y-100605857D01*
X157636666Y-100667761D01*
X157605714Y-100729666D01*
X157574761Y-100760619D01*
X157512857Y-100791571D01*
X157296190Y-100791571D01*
X158070000Y-100822523D02*
X158070000Y-101132047D01*
X157853333Y-100482047D02*
X158070000Y-100822523D01*
X158286666Y-100482047D01*
X158503333Y-100884428D02*
X158998571Y-100884428D01*
X159277142Y-101101095D02*
X159370000Y-101132047D01*
X159524761Y-101132047D01*
X159586666Y-101101095D01*
X159617619Y-101070142D01*
X159648571Y-101008238D01*
X159648571Y-100946333D01*
X159617619Y-100884428D01*
X159586666Y-100853476D01*
X159524761Y-100822523D01*
X159400952Y-100791571D01*
X159339047Y-100760619D01*
X159308095Y-100729666D01*
X159277142Y-100667761D01*
X159277142Y-100605857D01*
X159308095Y-100543952D01*
X159339047Y-100513000D01*
X159400952Y-100482047D01*
X159555714Y-100482047D01*
X159648571Y-100513000D01*
X159896190Y-100946333D02*
X160205714Y-100946333D01*
X159834285Y-101132047D02*
X160050952Y-100482047D01*
X160267619Y-101132047D01*
X160484285Y-100884428D02*
X160979523Y-100884428D01*
X161289047Y-101132047D02*
X161289047Y-100482047D01*
X161660476Y-101132047D01*
X161660476Y-100482047D01*
X162341428Y-101070142D02*
X162310476Y-101101095D01*
X162217619Y-101132047D01*
X162155714Y-101132047D01*
X162062857Y-101101095D01*
X162000952Y-101039190D01*
X161970000Y-100977285D01*
X161939047Y-100853476D01*
X161939047Y-100760619D01*
X161970000Y-100636809D01*
X162000952Y-100574904D01*
X162062857Y-100513000D01*
X162155714Y-100482047D01*
X162217619Y-100482047D01*
X162310476Y-100513000D01*
X162341428Y-100543952D01*
X163084285Y-100451095D02*
X162527142Y-101286809D01*
X163579523Y-100698714D02*
X163579523Y-101132047D01*
X163424761Y-100451095D02*
X163270000Y-100915380D01*
X163672380Y-100915380D01*
X163920000Y-101070142D02*
X163950952Y-101101095D01*
X163920000Y-101132047D01*
X163889047Y-101101095D01*
X163920000Y-101070142D01*
X163920000Y-101132047D01*
X164353333Y-100482047D02*
X164415238Y-100482047D01*
X164477142Y-100513000D01*
X164508095Y-100543952D01*
X164539047Y-100605857D01*
X164570000Y-100729666D01*
X164570000Y-100884428D01*
X164539047Y-101008238D01*
X164508095Y-101070142D01*
X164477142Y-101101095D01*
X164415238Y-101132047D01*
X164353333Y-101132047D01*
X164291428Y-101101095D01*
X164260476Y-101070142D01*
X164229523Y-101008238D01*
X164198571Y-100884428D01*
X164198571Y-100729666D01*
X164229523Y-100605857D01*
X164260476Y-100543952D01*
X164291428Y-100513000D01*
X164353333Y-100482047D01*
X131137250Y-91025285D02*
X131137250Y-91525285D01*
X130815821Y-91025285D02*
X130815821Y-91418142D01*
X130851535Y-91489571D01*
X130922964Y-91525285D01*
X131030107Y-91525285D01*
X131101535Y-91489571D01*
X131137250Y-91453857D01*
X131458678Y-91489571D02*
X131530107Y-91525285D01*
X131672964Y-91525285D01*
X131744392Y-91489571D01*
X131780107Y-91418142D01*
X131780107Y-91382428D01*
X131744392Y-91311000D01*
X131672964Y-91275285D01*
X131565821Y-91275285D01*
X131494392Y-91239571D01*
X131458678Y-91168142D01*
X131458678Y-91132428D01*
X131494392Y-91061000D01*
X131565821Y-91025285D01*
X131672964Y-91025285D01*
X131744392Y-91061000D01*
X132387250Y-91489571D02*
X132315821Y-91525285D01*
X132172964Y-91525285D01*
X132101535Y-91489571D01*
X132065821Y-91418142D01*
X132065821Y-91132428D01*
X132101535Y-91061000D01*
X132172964Y-91025285D01*
X132315821Y-91025285D01*
X132387250Y-91061000D01*
X132422964Y-91132428D01*
X132422964Y-91203857D01*
X132065821Y-91275285D01*
X133637250Y-91525285D02*
X133637250Y-91132428D01*
X133601535Y-91061000D01*
X133530107Y-91025285D01*
X133387250Y-91025285D01*
X133315821Y-91061000D01*
X133637250Y-91489571D02*
X133565821Y-91525285D01*
X133387250Y-91525285D01*
X133315821Y-91489571D01*
X133280107Y-91418142D01*
X133280107Y-91346714D01*
X133315821Y-91275285D01*
X133387250Y-91239571D01*
X133565821Y-91239571D01*
X133637250Y-91203857D01*
X133994392Y-91025285D02*
X133994392Y-91775285D01*
X133994392Y-91061000D02*
X134065821Y-91025285D01*
X134208678Y-91025285D01*
X134280107Y-91061000D01*
X134315821Y-91096714D01*
X134351535Y-91168142D01*
X134351535Y-91382428D01*
X134315821Y-91453857D01*
X134280107Y-91489571D01*
X134208678Y-91525285D01*
X134065821Y-91525285D01*
X133994392Y-91489571D01*
X134672964Y-91025285D02*
X134672964Y-91775285D01*
X134672964Y-91061000D02*
X134744392Y-91025285D01*
X134887250Y-91025285D01*
X134958678Y-91061000D01*
X134994392Y-91096714D01*
X135030107Y-91168142D01*
X135030107Y-91382428D01*
X134994392Y-91453857D01*
X134958678Y-91489571D01*
X134887250Y-91525285D01*
X134744392Y-91525285D01*
X134672964Y-91489571D01*
X135351535Y-91525285D02*
X135351535Y-91025285D01*
X135351535Y-91168142D02*
X135387250Y-91096714D01*
X135422964Y-91061000D01*
X135494392Y-91025285D01*
X135565821Y-91025285D01*
X135922964Y-91525285D02*
X135851535Y-91489571D01*
X135815821Y-91453857D01*
X135780107Y-91382428D01*
X135780107Y-91168142D01*
X135815821Y-91096714D01*
X135851535Y-91061000D01*
X135922964Y-91025285D01*
X136030107Y-91025285D01*
X136101535Y-91061000D01*
X136137250Y-91096714D01*
X136172964Y-91168142D01*
X136172964Y-91382428D01*
X136137250Y-91453857D01*
X136101535Y-91489571D01*
X136030107Y-91525285D01*
X135922964Y-91525285D01*
X136494392Y-91025285D02*
X136494392Y-91775285D01*
X136494392Y-91061000D02*
X136565821Y-91025285D01*
X136708678Y-91025285D01*
X136780107Y-91061000D01*
X136815821Y-91096714D01*
X136851535Y-91168142D01*
X136851535Y-91382428D01*
X136815821Y-91453857D01*
X136780107Y-91489571D01*
X136708678Y-91525285D01*
X136565821Y-91525285D01*
X136494392Y-91489571D01*
X137172964Y-91525285D02*
X137172964Y-91025285D01*
X137172964Y-91168142D02*
X137208678Y-91096714D01*
X137244392Y-91061000D01*
X137315821Y-91025285D01*
X137387250Y-91025285D01*
X137637250Y-91525285D02*
X137637250Y-91025285D01*
X137637250Y-90775285D02*
X137601535Y-90811000D01*
X137637250Y-90846714D01*
X137672964Y-90811000D01*
X137637250Y-90775285D01*
X137637250Y-90846714D01*
X138315821Y-91525285D02*
X138315821Y-91132428D01*
X138280107Y-91061000D01*
X138208678Y-91025285D01*
X138065821Y-91025285D01*
X137994392Y-91061000D01*
X138315821Y-91489571D02*
X138244392Y-91525285D01*
X138065821Y-91525285D01*
X137994392Y-91489571D01*
X137958678Y-91418142D01*
X137958678Y-91346714D01*
X137994392Y-91275285D01*
X138065821Y-91239571D01*
X138244392Y-91239571D01*
X138315821Y-91203857D01*
X138565821Y-91025285D02*
X138851535Y-91025285D01*
X138672964Y-90775285D02*
X138672964Y-91418142D01*
X138708678Y-91489571D01*
X138780107Y-91525285D01*
X138851535Y-91525285D01*
X139387250Y-91489571D02*
X139315821Y-91525285D01*
X139172964Y-91525285D01*
X139101535Y-91489571D01*
X139065821Y-91418142D01*
X139065821Y-91132428D01*
X139101535Y-91061000D01*
X139172964Y-91025285D01*
X139315821Y-91025285D01*
X139387250Y-91061000D01*
X139422964Y-91132428D01*
X139422964Y-91203857D01*
X139065821Y-91275285D01*
X140315821Y-91525285D02*
X140315821Y-91025285D01*
X140315821Y-91168142D02*
X140351535Y-91096714D01*
X140387250Y-91061000D01*
X140458678Y-91025285D01*
X140530107Y-91025285D01*
X141065821Y-91489571D02*
X140994392Y-91525285D01*
X140851535Y-91525285D01*
X140780107Y-91489571D01*
X140744392Y-91418142D01*
X140744392Y-91132428D01*
X140780107Y-91061000D01*
X140851535Y-91025285D01*
X140994392Y-91025285D01*
X141065821Y-91061000D01*
X141101535Y-91132428D01*
X141101535Y-91203857D01*
X140744392Y-91275285D01*
X141387250Y-91489571D02*
X141458678Y-91525285D01*
X141601535Y-91525285D01*
X141672964Y-91489571D01*
X141708678Y-91418142D01*
X141708678Y-91382428D01*
X141672964Y-91311000D01*
X141601535Y-91275285D01*
X141494392Y-91275285D01*
X141422964Y-91239571D01*
X141387250Y-91168142D01*
X141387250Y-91132428D01*
X141422964Y-91061000D01*
X141494392Y-91025285D01*
X141601535Y-91025285D01*
X141672964Y-91061000D01*
X142030107Y-91525285D02*
X142030107Y-91025285D01*
X142030107Y-90775285D02*
X141994392Y-90811000D01*
X142030107Y-90846714D01*
X142065821Y-90811000D01*
X142030107Y-90775285D01*
X142030107Y-90846714D01*
X142351535Y-91489571D02*
X142422964Y-91525285D01*
X142565821Y-91525285D01*
X142637250Y-91489571D01*
X142672964Y-91418142D01*
X142672964Y-91382428D01*
X142637250Y-91311000D01*
X142565821Y-91275285D01*
X142458678Y-91275285D01*
X142387250Y-91239571D01*
X142351535Y-91168142D01*
X142351535Y-91132428D01*
X142387250Y-91061000D01*
X142458678Y-91025285D01*
X142565821Y-91025285D01*
X142637250Y-91061000D01*
X142887250Y-91025285D02*
X143172964Y-91025285D01*
X142994392Y-90775285D02*
X142994392Y-91418142D01*
X143030107Y-91489571D01*
X143101535Y-91525285D01*
X143172964Y-91525285D01*
X143530107Y-91525285D02*
X143458678Y-91489571D01*
X143422964Y-91453857D01*
X143387250Y-91382428D01*
X143387250Y-91168142D01*
X143422964Y-91096714D01*
X143458678Y-91061000D01*
X143530107Y-91025285D01*
X143637250Y-91025285D01*
X143708678Y-91061000D01*
X143744392Y-91096714D01*
X143780107Y-91168142D01*
X143780107Y-91382428D01*
X143744392Y-91453857D01*
X143708678Y-91489571D01*
X143637250Y-91525285D01*
X143530107Y-91525285D01*
X144101535Y-91525285D02*
X144101535Y-91025285D01*
X144101535Y-91168142D02*
X144137250Y-91096714D01*
X144172964Y-91061000D01*
X144244392Y-91025285D01*
X144315821Y-91025285D01*
D10*
X127634952Y-95940571D02*
X126873047Y-95940571D01*
X127254000Y-95559619D02*
X127254000Y-96321523D01*
X182626047Y-86304428D02*
X183387952Y-86304428D01*
X183007000Y-86685380D02*
X183007000Y-85923476D01*
X126809523Y-85288380D02*
X126238095Y-85288380D01*
X126523809Y-85288380D02*
X126523809Y-84288380D01*
X126428571Y-84431238D01*
X126333333Y-84526476D01*
X126238095Y-84574095D01*
X127142857Y-84288380D02*
X127761904Y-84288380D01*
X127428571Y-84669333D01*
X127571428Y-84669333D01*
X127666666Y-84716952D01*
X127714285Y-84764571D01*
X127761904Y-84859809D01*
X127761904Y-85097904D01*
X127714285Y-85193142D01*
X127666666Y-85240761D01*
X127571428Y-85288380D01*
X127285714Y-85288380D01*
X127190476Y-85240761D01*
X127142857Y-85193142D01*
X130333714Y-54300380D02*
X129762285Y-54300380D01*
X130048000Y-54300380D02*
X130048000Y-53300380D01*
X129952761Y-53443238D01*
X129857523Y-53538476D01*
X129762285Y-53586095D01*
X183401928Y-82462666D02*
X183878119Y-82462666D01*
X183306690Y-82748380D02*
X183640023Y-81748380D01*
X183973357Y-82748380D01*
X184878119Y-82653142D02*
X184830500Y-82700761D01*
X184687642Y-82748380D01*
X184592404Y-82748380D01*
X184449547Y-82700761D01*
X184354309Y-82605523D01*
X184306690Y-82510285D01*
X184259071Y-82319809D01*
X184259071Y-82176952D01*
X184306690Y-81986476D01*
X184354309Y-81891238D01*
X184449547Y-81796000D01*
X184592404Y-81748380D01*
X184687642Y-81748380D01*
X184830500Y-81796000D01*
X184878119Y-81843619D01*
X185163833Y-81748380D02*
X185735261Y-81748380D01*
X185449547Y-82748380D02*
X185449547Y-81748380D01*
X140493714Y-54300380D02*
X139922285Y-54300380D01*
X140208000Y-54300380D02*
X140208000Y-53300380D01*
X140112761Y-53443238D01*
X140017523Y-53538476D01*
X139922285Y-53586095D01*
X181316380Y-66198666D02*
X181316380Y-66008190D01*
X181364000Y-65912952D01*
X181459238Y-65817714D01*
X181649714Y-65770095D01*
X181983047Y-65770095D01*
X182173523Y-65817714D01*
X182268761Y-65912952D01*
X182316380Y-66008190D01*
X182316380Y-66198666D01*
X182268761Y-66293904D01*
X182173523Y-66389142D01*
X181983047Y-66436761D01*
X181649714Y-66436761D01*
X181459238Y-66389142D01*
X181364000Y-66293904D01*
X181316380Y-66198666D01*
X181649714Y-65484380D02*
X181649714Y-65103428D01*
X182316380Y-65341523D02*
X181459238Y-65341523D01*
X181364000Y-65293904D01*
X181316380Y-65198666D01*
X181316380Y-65103428D01*
X181649714Y-64912952D02*
X181649714Y-64532000D01*
X182316380Y-64770095D02*
X181459238Y-64770095D01*
X181364000Y-64722476D01*
X181316380Y-64627238D01*
X181316380Y-64532000D01*
%TO.C,U1*%
X159258095Y-104100380D02*
X159258095Y-104909904D01*
X159305714Y-105005142D01*
X159353333Y-105052761D01*
X159448571Y-105100380D01*
X159639047Y-105100380D01*
X159734285Y-105052761D01*
X159781904Y-105005142D01*
X159829523Y-104909904D01*
X159829523Y-104100380D01*
X160829523Y-105100380D02*
X160258095Y-105100380D01*
X160543809Y-105100380D02*
X160543809Y-104100380D01*
X160448571Y-104243238D01*
X160353333Y-104338476D01*
X160258095Y-104386095D01*
%TO.C,SW1*%
X183070666Y-67206761D02*
X183213523Y-67254380D01*
X183451619Y-67254380D01*
X183546857Y-67206761D01*
X183594476Y-67159142D01*
X183642095Y-67063904D01*
X183642095Y-66968666D01*
X183594476Y-66873428D01*
X183546857Y-66825809D01*
X183451619Y-66778190D01*
X183261142Y-66730571D01*
X183165904Y-66682952D01*
X183118285Y-66635333D01*
X183070666Y-66540095D01*
X183070666Y-66444857D01*
X183118285Y-66349619D01*
X183165904Y-66302000D01*
X183261142Y-66254380D01*
X183499238Y-66254380D01*
X183642095Y-66302000D01*
X183975428Y-66254380D02*
X184213523Y-67254380D01*
X184404000Y-66540095D01*
X184594476Y-67254380D01*
X184832571Y-66254380D01*
X185737333Y-67254380D02*
X185165904Y-67254380D01*
X185451619Y-67254380D02*
X185451619Y-66254380D01*
X185356380Y-66397238D01*
X185261142Y-66492476D01*
X185165904Y-66540095D01*
%TO.C,R2*%
X174966333Y-90749380D02*
X174633000Y-90273190D01*
X174394904Y-90749380D02*
X174394904Y-89749380D01*
X174775857Y-89749380D01*
X174871095Y-89797000D01*
X174918714Y-89844619D01*
X174966333Y-89939857D01*
X174966333Y-90082714D01*
X174918714Y-90177952D01*
X174871095Y-90225571D01*
X174775857Y-90273190D01*
X174394904Y-90273190D01*
X175347285Y-89844619D02*
X175394904Y-89797000D01*
X175490142Y-89749380D01*
X175728238Y-89749380D01*
X175823476Y-89797000D01*
X175871095Y-89844619D01*
X175918714Y-89939857D01*
X175918714Y-90035095D01*
X175871095Y-90177952D01*
X175299666Y-90749380D01*
X175918714Y-90749380D01*
%TO.C,D1*%
X181760904Y-85288380D02*
X181760904Y-84288380D01*
X181999000Y-84288380D01*
X182141857Y-84336000D01*
X182237095Y-84431238D01*
X182284714Y-84526476D01*
X182332333Y-84716952D01*
X182332333Y-84859809D01*
X182284714Y-85050285D01*
X182237095Y-85145523D01*
X182141857Y-85240761D01*
X181999000Y-85288380D01*
X181760904Y-85288380D01*
X183284714Y-85288380D02*
X182713285Y-85288380D01*
X182999000Y-85288380D02*
X182999000Y-84288380D01*
X182903761Y-84431238D01*
X182808523Y-84526476D01*
X182713285Y-84574095D01*
%TO.C,JP2*%
X174299666Y-64200380D02*
X174299666Y-64914666D01*
X174252047Y-65057523D01*
X174156809Y-65152761D01*
X174013952Y-65200380D01*
X173918714Y-65200380D01*
X174775857Y-65200380D02*
X174775857Y-64200380D01*
X175156809Y-64200380D01*
X175252047Y-64248000D01*
X175299666Y-64295619D01*
X175347285Y-64390857D01*
X175347285Y-64533714D01*
X175299666Y-64628952D01*
X175252047Y-64676571D01*
X175156809Y-64724190D01*
X174775857Y-64724190D01*
X175728238Y-64295619D02*
X175775857Y-64248000D01*
X175871095Y-64200380D01*
X176109190Y-64200380D01*
X176204428Y-64248000D01*
X176252047Y-64295619D01*
X176299666Y-64390857D01*
X176299666Y-64486095D01*
X176252047Y-64628952D01*
X175680619Y-65200380D01*
X176299666Y-65200380D01*
X172818714Y-67000380D02*
X172247285Y-67000380D01*
X172533000Y-67000380D02*
X172533000Y-66000380D01*
X172437761Y-66143238D01*
X172342523Y-66238476D01*
X172247285Y-66286095D01*
X177399666Y-66000380D02*
X178018714Y-66000380D01*
X177685380Y-66381333D01*
X177828238Y-66381333D01*
X177923476Y-66428952D01*
X177971095Y-66476571D01*
X178018714Y-66571809D01*
X178018714Y-66809904D01*
X177971095Y-66905142D01*
X177923476Y-66952761D01*
X177828238Y-67000380D01*
X177542523Y-67000380D01*
X177447285Y-66952761D01*
X177399666Y-66905142D01*
%TO.C,JP1*%
X174299666Y-59374380D02*
X174299666Y-60088666D01*
X174252047Y-60231523D01*
X174156809Y-60326761D01*
X174013952Y-60374380D01*
X173918714Y-60374380D01*
X174775857Y-60374380D02*
X174775857Y-59374380D01*
X175156809Y-59374380D01*
X175252047Y-59422000D01*
X175299666Y-59469619D01*
X175347285Y-59564857D01*
X175347285Y-59707714D01*
X175299666Y-59802952D01*
X175252047Y-59850571D01*
X175156809Y-59898190D01*
X174775857Y-59898190D01*
X176299666Y-60374380D02*
X175728238Y-60374380D01*
X176013952Y-60374380D02*
X176013952Y-59374380D01*
X175918714Y-59517238D01*
X175823476Y-59612476D01*
X175728238Y-59660095D01*
X172818714Y-62174380D02*
X172247285Y-62174380D01*
X172533000Y-62174380D02*
X172533000Y-61174380D01*
X172437761Y-61317238D01*
X172342523Y-61412476D01*
X172247285Y-61460095D01*
X177399666Y-61174380D02*
X178018714Y-61174380D01*
X177685380Y-61555333D01*
X177828238Y-61555333D01*
X177923476Y-61602952D01*
X177971095Y-61650571D01*
X178018714Y-61745809D01*
X178018714Y-61983904D01*
X177971095Y-62079142D01*
X177923476Y-62126761D01*
X177828238Y-62174380D01*
X177542523Y-62174380D01*
X177447285Y-62126761D01*
X177399666Y-62079142D01*
%TO.C,R1*%
X174966333Y-85415380D02*
X174633000Y-84939190D01*
X174394904Y-85415380D02*
X174394904Y-84415380D01*
X174775857Y-84415380D01*
X174871095Y-84463000D01*
X174918714Y-84510619D01*
X174966333Y-84605857D01*
X174966333Y-84748714D01*
X174918714Y-84843952D01*
X174871095Y-84891571D01*
X174775857Y-84939190D01*
X174394904Y-84939190D01*
X175918714Y-85415380D02*
X175347285Y-85415380D01*
X175633000Y-85415380D02*
X175633000Y-84415380D01*
X175537761Y-84558238D01*
X175442523Y-84653476D01*
X175347285Y-84701095D01*
%TO.C,J1*%
X129500380Y-57229333D02*
X130214666Y-57229333D01*
X130357523Y-57276952D01*
X130452761Y-57372190D01*
X130500380Y-57515047D01*
X130500380Y-57610285D01*
X130500380Y-56229333D02*
X130500380Y-56800761D01*
X130500380Y-56515047D02*
X129500380Y-56515047D01*
X129643238Y-56610285D01*
X129738476Y-56705523D01*
X129786095Y-56800761D01*
%TO.C,J2*%
X139660380Y-57229333D02*
X140374666Y-57229333D01*
X140517523Y-57276952D01*
X140612761Y-57372190D01*
X140660380Y-57515047D01*
X140660380Y-57610285D01*
X139755619Y-56800761D02*
X139708000Y-56753142D01*
X139660380Y-56657904D01*
X139660380Y-56419809D01*
X139708000Y-56324571D01*
X139755619Y-56276952D01*
X139850857Y-56229333D01*
X139946095Y-56229333D01*
X140088952Y-56276952D01*
X140660380Y-56848380D01*
X140660380Y-56229333D01*
%TO.C,J4*%
X126198380Y-99012333D02*
X126912666Y-99012333D01*
X127055523Y-99059952D01*
X127150761Y-99155190D01*
X127198380Y-99298047D01*
X127198380Y-99393285D01*
X126531714Y-98107571D02*
X127198380Y-98107571D01*
X126150761Y-98345666D02*
X126865047Y-98583761D01*
X126865047Y-97964714D01*
%TO.C,J5*%
X125436380Y-93424333D02*
X126150666Y-93424333D01*
X126293523Y-93471952D01*
X126388761Y-93567190D01*
X126436380Y-93710047D01*
X126436380Y-93805285D01*
X125436380Y-92471952D02*
X125436380Y-92948142D01*
X125912571Y-92995761D01*
X125864952Y-92948142D01*
X125817333Y-92852904D01*
X125817333Y-92614809D01*
X125864952Y-92519571D01*
X125912571Y-92471952D01*
X126007809Y-92424333D01*
X126245904Y-92424333D01*
X126341142Y-92471952D01*
X126388761Y-92519571D01*
X126436380Y-92614809D01*
X126436380Y-92852904D01*
X126388761Y-92948142D01*
X126341142Y-92995761D01*
%TO.C,M1*%
X174119476Y-105662380D02*
X174119476Y-104662380D01*
X174452809Y-105376666D01*
X174786142Y-104662380D01*
X174786142Y-105662380D01*
X175786142Y-105662380D02*
X175214714Y-105662380D01*
X175500428Y-105662380D02*
X175500428Y-104662380D01*
X175405190Y-104805238D01*
X175309952Y-104900476D01*
X175214714Y-104948095D01*
%TO.C,M2*%
X174119476Y-42258380D02*
X174119476Y-41258380D01*
X174452809Y-41972666D01*
X174786142Y-41258380D01*
X174786142Y-42258380D01*
X175214714Y-41353619D02*
X175262333Y-41306000D01*
X175357571Y-41258380D01*
X175595666Y-41258380D01*
X175690904Y-41306000D01*
X175738523Y-41353619D01*
X175786142Y-41448857D01*
X175786142Y-41544095D01*
X175738523Y-41686952D01*
X175167095Y-42258380D01*
X175786142Y-42258380D01*
%TO.C,D2*%
X181760904Y-90876380D02*
X181760904Y-89876380D01*
X181999000Y-89876380D01*
X182141857Y-89924000D01*
X182237095Y-90019238D01*
X182284714Y-90114476D01*
X182332333Y-90304952D01*
X182332333Y-90447809D01*
X182284714Y-90638285D01*
X182237095Y-90733523D01*
X182141857Y-90828761D01*
X181999000Y-90876380D01*
X181760904Y-90876380D01*
X182713285Y-89971619D02*
X182760904Y-89924000D01*
X182856142Y-89876380D01*
X183094238Y-89876380D01*
X183189476Y-89924000D01*
X183237095Y-89971619D01*
X183284714Y-90066857D01*
X183284714Y-90162095D01*
X183237095Y-90304952D01*
X182665666Y-90876380D01*
X183284714Y-90876380D01*
%TO.C,J3*%
X175220380Y-75517333D02*
X175934666Y-75517333D01*
X176077523Y-75564952D01*
X176172761Y-75660190D01*
X176220380Y-75803047D01*
X176220380Y-75898285D01*
X175220380Y-75136380D02*
X175220380Y-74517333D01*
X175601333Y-74850666D01*
X175601333Y-74707809D01*
X175648952Y-74612571D01*
X175696571Y-74564952D01*
X175791809Y-74517333D01*
X176029904Y-74517333D01*
X176125142Y-74564952D01*
X176172761Y-74612571D01*
X176220380Y-74707809D01*
X176220380Y-74993523D01*
X176172761Y-75088761D01*
X176125142Y-75136380D01*
%TO.C,J6*%
X130595619Y-47926666D02*
X129881333Y-47926666D01*
X129738476Y-47879047D01*
X129643238Y-47783809D01*
X129595619Y-47640952D01*
X129595619Y-47545714D01*
X130595619Y-48831428D02*
X130595619Y-48640952D01*
X130548000Y-48545714D01*
X130500380Y-48498095D01*
X130357523Y-48402857D01*
X130167047Y-48355238D01*
X129786095Y-48355238D01*
X129690857Y-48402857D01*
X129643238Y-48450476D01*
X129595619Y-48545714D01*
X129595619Y-48736190D01*
X129643238Y-48831428D01*
X129690857Y-48879047D01*
X129786095Y-48926666D01*
X130024190Y-48926666D01*
X130119428Y-48879047D01*
X130167047Y-48831428D01*
X130214666Y-48736190D01*
X130214666Y-48545714D01*
X130167047Y-48450476D01*
X130119428Y-48402857D01*
X130024190Y-48355238D01*
%TO.C,D3*%
X146835904Y-100909380D02*
X146835904Y-99909380D01*
X147074000Y-99909380D01*
X147216857Y-99957000D01*
X147312095Y-100052238D01*
X147359714Y-100147476D01*
X147407333Y-100337952D01*
X147407333Y-100480809D01*
X147359714Y-100671285D01*
X147312095Y-100766523D01*
X147216857Y-100861761D01*
X147074000Y-100909380D01*
X146835904Y-100909380D01*
X147740666Y-99909380D02*
X148359714Y-99909380D01*
X148026380Y-100290333D01*
X148169238Y-100290333D01*
X148264476Y-100337952D01*
X148312095Y-100385571D01*
X148359714Y-100480809D01*
X148359714Y-100718904D01*
X148312095Y-100814142D01*
X148264476Y-100861761D01*
X148169238Y-100909380D01*
X147883523Y-100909380D01*
X147788285Y-100861761D01*
X147740666Y-100814142D01*
%TO.C,C5*%
X140041333Y-100687142D02*
X139993714Y-100734761D01*
X139850857Y-100782380D01*
X139755619Y-100782380D01*
X139612761Y-100734761D01*
X139517523Y-100639523D01*
X139469904Y-100544285D01*
X139422285Y-100353809D01*
X139422285Y-100210952D01*
X139469904Y-100020476D01*
X139517523Y-99925238D01*
X139612761Y-99830000D01*
X139755619Y-99782380D01*
X139850857Y-99782380D01*
X139993714Y-99830000D01*
X140041333Y-99877619D01*
X140946095Y-99782380D02*
X140469904Y-99782380D01*
X140422285Y-100258571D01*
X140469904Y-100210952D01*
X140565142Y-100163333D01*
X140803238Y-100163333D01*
X140898476Y-100210952D01*
X140946095Y-100258571D01*
X140993714Y-100353809D01*
X140993714Y-100591904D01*
X140946095Y-100687142D01*
X140898476Y-100734761D01*
X140803238Y-100782380D01*
X140565142Y-100782380D01*
X140469904Y-100734761D01*
X140422285Y-100687142D01*
D12*
%TO.C,U4*%
X142684571Y-92426285D02*
X142684571Y-93033428D01*
X142720285Y-93104857D01*
X142756000Y-93140571D01*
X142827428Y-93176285D01*
X142970285Y-93176285D01*
X143041714Y-93140571D01*
X143077428Y-93104857D01*
X143113142Y-93033428D01*
X143113142Y-92426285D01*
X143791714Y-92676285D02*
X143791714Y-93176285D01*
X143613142Y-92390571D02*
X143434571Y-92926285D01*
X143898857Y-92926285D01*
D13*
%TO.C,U1*%
X148645000Y-101505000D02*
X148645000Y-48355000D01*
X151070000Y-50800000D02*
X151070000Y-49470000D01*
X171395000Y-48355000D02*
X171395000Y-101505000D01*
X166370000Y-49530000D02*
X168910000Y-49530000D01*
X153730000Y-52070000D02*
X153730000Y-100390000D01*
X166370000Y-100330000D02*
X166370000Y-49530000D01*
X171395000Y-101505000D02*
X148645000Y-101505000D01*
X151070000Y-52070000D02*
X153730000Y-52070000D01*
X153730000Y-100390000D02*
X151070000Y-100390000D01*
X151070000Y-100390000D02*
X151070000Y-52070000D01*
X168910000Y-49530000D02*
X168910000Y-100330000D01*
X168910000Y-100330000D02*
X166370000Y-100330000D01*
X151070000Y-49470000D02*
X152400000Y-49470000D01*
X148645000Y-48355000D02*
X171395000Y-48355000D01*
%TO.C,SW1*%
X185626000Y-62995000D02*
X186916000Y-62995000D01*
X183826000Y-65045000D02*
X184616000Y-65045000D01*
X186916000Y-61695000D02*
X187126000Y-61895000D01*
X184616000Y-58145000D02*
X183826000Y-58145000D01*
X186916000Y-62995000D02*
X187126000Y-62795000D01*
X182776000Y-60195000D02*
X182776000Y-59995000D01*
X186916000Y-61695000D02*
X185626000Y-61695000D01*
X182776000Y-63195000D02*
X182776000Y-61495000D01*
X187126000Y-62795000D02*
X187126000Y-61895000D01*
X185626000Y-64445000D02*
X185626000Y-58745000D01*
%TO.C,R2*%
X178154064Y-90143000D02*
X177699936Y-90143000D01*
X178154064Y-88673000D02*
X177699936Y-88673000D01*
%TO.C,D1*%
X183571000Y-82976000D02*
X183571000Y-85836000D01*
X185491000Y-85836000D02*
X185491000Y-82976000D01*
X185491000Y-82976000D02*
X183571000Y-82976000D01*
%TO.C,JP2*%
X177183000Y-67548000D02*
X173083000Y-67548000D01*
X173083000Y-67548000D02*
X173083000Y-65548000D01*
X173083000Y-65548000D02*
X177183000Y-65548000D01*
X177183000Y-65548000D02*
X177183000Y-67548000D01*
%TO.C,JP1*%
X177183000Y-60722000D02*
X177183000Y-62722000D01*
X173083000Y-60722000D02*
X177183000Y-60722000D01*
X173083000Y-62722000D02*
X173083000Y-60722000D01*
X177183000Y-62722000D02*
X173083000Y-62722000D01*
%TO.C,R1*%
X177699936Y-84990000D02*
X178154064Y-84990000D01*
X177699936Y-86460000D02*
X178154064Y-86460000D01*
%TO.C,J1*%
X135950000Y-53280000D02*
X135950000Y-86420000D01*
X133350000Y-53280000D02*
X135950000Y-53280000D01*
X130750000Y-55880000D02*
X133350000Y-55880000D01*
X130750000Y-55880000D02*
X130750000Y-86420000D01*
X130750000Y-54610000D02*
X130750000Y-53280000D01*
X130750000Y-53280000D02*
X132080000Y-53280000D01*
X130750000Y-86420000D02*
X135950000Y-86420000D01*
X133350000Y-55880000D02*
X133350000Y-53280000D01*
%TO.C,J2*%
X143510000Y-55880000D02*
X143510000Y-53280000D01*
X140910000Y-86420000D02*
X146110000Y-86420000D01*
X140910000Y-55880000D02*
X140910000Y-86420000D01*
X140910000Y-53280000D02*
X142240000Y-53280000D01*
X143510000Y-53280000D02*
X146110000Y-53280000D01*
X140910000Y-55880000D02*
X143510000Y-55880000D01*
X140910000Y-54610000D02*
X140910000Y-53280000D01*
X146110000Y-53280000D02*
X146110000Y-86420000D01*
%TO.C,J4*%
X127575000Y-96206000D02*
X128905000Y-96206000D01*
X127575000Y-97536000D02*
X127575000Y-96206000D01*
X127575000Y-98806000D02*
X130235000Y-98806000D01*
X127575000Y-98806000D02*
X127575000Y-101406000D01*
X130235000Y-98806000D02*
X130235000Y-101406000D01*
X127575000Y-101406000D02*
X130235000Y-101406000D01*
%TO.C,J5*%
X129219000Y-92964000D02*
X129219000Y-94294000D01*
X129219000Y-91694000D02*
X126559000Y-91694000D01*
X129219000Y-94294000D02*
X127889000Y-94294000D01*
X129219000Y-91694000D02*
X129219000Y-89094000D01*
X129219000Y-89094000D02*
X126559000Y-89094000D01*
X126559000Y-91694000D02*
X126559000Y-89094000D01*
%TO.C,D2*%
X185491000Y-92284000D02*
X185491000Y-89424000D01*
X183571000Y-92284000D02*
X185491000Y-92284000D01*
X183571000Y-89424000D02*
X183571000Y-92284000D01*
D11*
%TO.C,J3*%
X180440000Y-80834000D02*
X180440000Y-69534000D01*
X180440000Y-80834000D02*
X180018000Y-80834000D01*
X180440000Y-69534000D02*
X179345000Y-69534000D01*
D13*
%TO.C,J6*%
X129240000Y-47996667D02*
X129240000Y-52190000D01*
X125260000Y-83843333D02*
X129000000Y-83843333D01*
X129000000Y-83843333D02*
X129000000Y-48236667D01*
X129000000Y-48236667D02*
X125260000Y-48236667D01*
X127000000Y-47996667D02*
X129240000Y-47996667D01*
%TO.C,D3*%
X146522000Y-101330000D02*
X142622000Y-101330000D01*
X146522000Y-101330000D02*
X146522000Y-99330000D01*
X146522000Y-99330000D02*
X142622000Y-99330000D01*
%TO.C,C5*%
X139216000Y-99395000D02*
X135306000Y-99395000D01*
X135306000Y-101265000D02*
X139216000Y-101265000D01*
X139216000Y-101265000D02*
X139216000Y-99395000D01*
%TO.C,U4*%
X143256000Y-93452000D02*
X139806000Y-93452000D01*
X143256000Y-98572000D02*
X145206000Y-98572000D01*
X143256000Y-98572000D02*
X141306000Y-98572000D01*
X143256000Y-93452000D02*
X145206000Y-93452000D01*
%TD*%
%LPC*%
D14*
%TO.C,U1*%
X152400000Y-50800000D03*
D15*
X152400000Y-53340000D03*
X152400000Y-55880000D03*
X152400000Y-58420000D03*
X152400000Y-60960000D03*
X152400000Y-63500000D03*
X152400000Y-66040000D03*
X152400000Y-68580000D03*
X152400000Y-71120000D03*
X152400000Y-73660000D03*
X152400000Y-76200000D03*
X152400000Y-78740000D03*
X152400000Y-81280000D03*
X152400000Y-83820000D03*
X152400000Y-86360000D03*
X152400000Y-88900000D03*
X152400000Y-91440000D03*
X152400000Y-93980000D03*
X152400000Y-96520000D03*
X152400000Y-99060000D03*
X167640000Y-99060000D03*
X167640000Y-96520000D03*
X167640000Y-93980000D03*
X167640000Y-91440000D03*
X167640000Y-88900000D03*
X167640000Y-86360000D03*
X167640000Y-83820000D03*
X167640000Y-81280000D03*
X167640000Y-78740000D03*
X167640000Y-76200000D03*
X167640000Y-73660000D03*
X167640000Y-71120000D03*
X167640000Y-68580000D03*
X167640000Y-66040000D03*
X167640000Y-63500000D03*
X167640000Y-60960000D03*
X167640000Y-58420000D03*
X167640000Y-55880000D03*
X167640000Y-53340000D03*
X167640000Y-50800000D03*
%TD*%
D16*
%TO.C,SW1*%
X183116000Y-57945000D03*
D17*
X184226000Y-63095000D03*
X184226000Y-60095000D03*
D16*
X185326000Y-57945000D03*
X183116000Y-65245000D03*
X185326000Y-65245000D03*
D18*
X182466000Y-63845000D03*
X182466000Y-60845000D03*
X182466000Y-59345000D03*
%TD*%
D19*
%TO.C,R2*%
X178927000Y-89408000D03*
X176927000Y-89408000D03*
%TD*%
D20*
%TO.C,D1*%
X184531000Y-83811000D03*
X184531000Y-85861000D03*
%TD*%
D21*
%TO.C,JP2*%
X173833000Y-66548000D03*
X175133000Y-66548000D03*
X176433000Y-66548000D03*
%TD*%
%TO.C,JP1*%
X173833000Y-61722000D03*
X175133000Y-61722000D03*
X176433000Y-61722000D03*
%TD*%
D22*
%TO.C,R1*%
X176927000Y-85725000D03*
X178927000Y-85725000D03*
%TD*%
D14*
%TO.C,J1*%
X132080000Y-54610000D03*
D23*
X134620000Y-54610000D03*
X132080000Y-57150000D03*
X134620000Y-57150000D03*
X132080000Y-59690000D03*
X134620000Y-59690000D03*
X132080000Y-62230000D03*
X134620000Y-62230000D03*
X132080000Y-64770000D03*
X134620000Y-64770000D03*
X132080000Y-67310000D03*
X134620000Y-67310000D03*
X132080000Y-69850000D03*
X134620000Y-69850000D03*
X132080000Y-72390000D03*
X134620000Y-72390000D03*
X132080000Y-74930000D03*
X134620000Y-74930000D03*
X132080000Y-77470000D03*
X134620000Y-77470000D03*
X132080000Y-80010000D03*
X134620000Y-80010000D03*
X132080000Y-82550000D03*
X134620000Y-82550000D03*
X132080000Y-85090000D03*
X134620000Y-85090000D03*
%TD*%
D14*
%TO.C,J2*%
X142240000Y-54610000D03*
D23*
X144780000Y-54610000D03*
X142240000Y-57150000D03*
X144780000Y-57150000D03*
X142240000Y-59690000D03*
X144780000Y-59690000D03*
X142240000Y-62230000D03*
X144780000Y-62230000D03*
X142240000Y-64770000D03*
X144780000Y-64770000D03*
X142240000Y-67310000D03*
X144780000Y-67310000D03*
X142240000Y-69850000D03*
X144780000Y-69850000D03*
X142240000Y-72390000D03*
X144780000Y-72390000D03*
X142240000Y-74930000D03*
X144780000Y-74930000D03*
X142240000Y-77470000D03*
X144780000Y-77470000D03*
X142240000Y-80010000D03*
X144780000Y-80010000D03*
X142240000Y-82550000D03*
X144780000Y-82550000D03*
X142240000Y-85090000D03*
X144780000Y-85090000D03*
%TD*%
D14*
%TO.C,J4*%
X128905000Y-97536000D03*
D23*
X128905000Y-100076000D03*
%TD*%
D14*
%TO.C,J5*%
X127889000Y-92964000D03*
D23*
X127889000Y-90424000D03*
%TD*%
D24*
%TO.C,M1*%
X177591000Y-95481000D03*
X177591000Y-100561000D03*
X172511000Y-95481000D03*
X172511000Y-100561000D03*
%TD*%
%TO.C,M2*%
X177591000Y-48791000D03*
X172511000Y-48791000D03*
X177591000Y-53871000D03*
X172511000Y-53871000D03*
%TD*%
D25*
%TO.C,D2*%
X184531000Y-91449000D03*
X184531000Y-89399000D03*
%TD*%
D26*
%TO.C,J3*%
X181330000Y-71634000D03*
X181330000Y-72734000D03*
X181330000Y-73834000D03*
X181330000Y-74934000D03*
X181330000Y-76034000D03*
X181330000Y-77134000D03*
X181330000Y-78234000D03*
X181330000Y-79334000D03*
D27*
X178650000Y-69874000D03*
D28*
X177380000Y-69859000D03*
D29*
X174770000Y-69859000D03*
X175340000Y-80509000D03*
D30*
X178525000Y-80509000D03*
D31*
X174095000Y-73198000D03*
X174095000Y-77388000D03*
%TD*%
D32*
%TO.C,J6*%
X127000000Y-49420000D03*
X127000000Y-52190000D03*
X127000000Y-54960000D03*
X127000000Y-57730000D03*
X127000000Y-60500000D03*
X127000000Y-63270000D03*
X127000000Y-66040000D03*
X127000000Y-68810000D03*
X127000000Y-71580000D03*
X127000000Y-74350000D03*
X127000000Y-77120000D03*
X127000000Y-79890000D03*
X127000000Y-82660000D03*
%TD*%
D33*
%TO.C,D3*%
X145922000Y-100330000D03*
X142622000Y-100330000D03*
%TD*%
D34*
%TO.C,C5*%
X138256000Y-100330000D03*
X135556000Y-100330000D03*
%TD*%
D35*
%TO.C,U4*%
X140781000Y-94107000D03*
X140781000Y-95377000D03*
X140781000Y-96647000D03*
X140781000Y-97917000D03*
X145731000Y-97917000D03*
X145731000Y-96647000D03*
X145731000Y-95377000D03*
X145731000Y-94107000D03*
%TD*%
M02*
