%TF.GenerationSoftware,KiCad,Pcbnew,(6.0.4-0)*%
%TF.CreationDate,2023-01-26T09:36:58-07:00*%
%TF.ProjectId,bluescsi_iigs_internal,626c7565-7363-4736-995f-696967735f69,rev?*%
%TF.SameCoordinates,Original*%
%TF.FileFunction,Soldermask,Bot*%
%TF.FilePolarity,Negative*%
%FSLAX46Y46*%
G04 Gerber Fmt 4.6, Leading zero omitted, Abs format (unit mm)*
G04 Created by KiCad (PCBNEW (6.0.4-0)) date 2023-01-26 09:36:58*
%MOMM*%
%LPD*%
G01*
G04 APERTURE LIST*
G04 Aperture macros list*
%AMRoundRect*
0 Rectangle with rounded corners*
0 $1 Rounding radius*
0 $2 $3 $4 $5 $6 $7 $8 $9 X,Y pos of 4 corners*
0 Add a 4 corners polygon primitive as box body*
4,1,4,$2,$3,$4,$5,$6,$7,$8,$9,$2,$3,0*
0 Add four circle primitives for the rounded corners*
1,1,$1+$1,$2,$3*
1,1,$1+$1,$4,$5*
1,1,$1+$1,$6,$7*
1,1,$1+$1,$8,$9*
0 Add four rect primitives between the rounded corners*
20,1,$1+$1,$2,$3,$4,$5,0*
20,1,$1+$1,$4,$5,$6,$7,0*
20,1,$1+$1,$6,$7,$8,$9,0*
20,1,$1+$1,$8,$9,$2,$3,0*%
G04 Aperture macros list end*
%ADD10R,1.700000X1.700000*%
%ADD11C,1.700000*%
%ADD12C,0.900000*%
%ADD13O,1.700000X1.700000*%
%ADD14C,2.100000*%
%ADD15R,3.480000X1.846667*%
%ADD16RoundRect,0.250000X-0.500000X-0.925000X0.500000X-0.925000X0.500000X0.925000X-0.500000X0.925000X0*%
%ADD17R,1.970000X0.600000*%
%ADD18RoundRect,0.250000X0.500000X0.925000X-0.500000X0.925000X-0.500000X-0.925000X0.500000X-0.925000X0*%
%ADD19RoundRect,0.250000X1.075000X-0.375000X1.075000X0.375000X-1.075000X0.375000X-1.075000X-0.375000X0*%
%ADD20R,1.500000X0.400000*%
%ADD21RoundRect,0.250000X0.925000X-0.500000X0.925000X0.500000X-0.925000X0.500000X-0.925000X-0.500000X0*%
G04 APERTURE END LIST*
D10*
%TO.C,U1*%
X152400000Y-50800000D03*
D11*
X152400000Y-53340000D03*
X152400000Y-55880000D03*
X152400000Y-58420000D03*
X152400000Y-60960000D03*
X152400000Y-63500000D03*
X152400000Y-66040000D03*
X152400000Y-68580000D03*
X152400000Y-71120000D03*
X152400000Y-73660000D03*
X152400000Y-76200000D03*
X152400000Y-78740000D03*
X152400000Y-81280000D03*
X152400000Y-83820000D03*
X152400000Y-86360000D03*
X152400000Y-88900000D03*
X152400000Y-91440000D03*
X152400000Y-93980000D03*
X152400000Y-96520000D03*
X152400000Y-99060000D03*
X167640000Y-99060000D03*
X167640000Y-96520000D03*
X167640000Y-93980000D03*
X167640000Y-91440000D03*
X167640000Y-88900000D03*
X167640000Y-86360000D03*
X167640000Y-83820000D03*
X167640000Y-81280000D03*
X167640000Y-78740000D03*
X167640000Y-76200000D03*
X167640000Y-73660000D03*
X167640000Y-71120000D03*
X167640000Y-68580000D03*
X167640000Y-66040000D03*
X167640000Y-63500000D03*
X167640000Y-60960000D03*
X167640000Y-58420000D03*
X167640000Y-55880000D03*
X167640000Y-53340000D03*
X167640000Y-50800000D03*
%TD*%
D12*
%TO.C,SW1*%
X184226000Y-63095000D03*
X184226000Y-60095000D03*
%TD*%
D10*
%TO.C,J1*%
X132080000Y-54610000D03*
D13*
X134620000Y-54610000D03*
X132080000Y-57150000D03*
X134620000Y-57150000D03*
X132080000Y-59690000D03*
X134620000Y-59690000D03*
X132080000Y-62230000D03*
X134620000Y-62230000D03*
X132080000Y-64770000D03*
X134620000Y-64770000D03*
X132080000Y-67310000D03*
X134620000Y-67310000D03*
X132080000Y-69850000D03*
X134620000Y-69850000D03*
X132080000Y-72390000D03*
X134620000Y-72390000D03*
X132080000Y-74930000D03*
X134620000Y-74930000D03*
X132080000Y-77470000D03*
X134620000Y-77470000D03*
X132080000Y-80010000D03*
X134620000Y-80010000D03*
X132080000Y-82550000D03*
X134620000Y-82550000D03*
X132080000Y-85090000D03*
X134620000Y-85090000D03*
%TD*%
D10*
%TO.C,J2*%
X142240000Y-54610000D03*
D13*
X144780000Y-54610000D03*
X142240000Y-57150000D03*
X144780000Y-57150000D03*
X142240000Y-59690000D03*
X144780000Y-59690000D03*
X142240000Y-62230000D03*
X144780000Y-62230000D03*
X142240000Y-64770000D03*
X144780000Y-64770000D03*
X142240000Y-67310000D03*
X144780000Y-67310000D03*
X142240000Y-69850000D03*
X144780000Y-69850000D03*
X142240000Y-72390000D03*
X144780000Y-72390000D03*
X142240000Y-74930000D03*
X144780000Y-74930000D03*
X142240000Y-77470000D03*
X144780000Y-77470000D03*
X142240000Y-80010000D03*
X144780000Y-80010000D03*
X142240000Y-82550000D03*
X144780000Y-82550000D03*
X142240000Y-85090000D03*
X144780000Y-85090000D03*
%TD*%
D10*
%TO.C,J4*%
X128905000Y-97536000D03*
D13*
X128905000Y-100076000D03*
%TD*%
D10*
%TO.C,J5*%
X127889000Y-92964000D03*
D13*
X127889000Y-90424000D03*
%TD*%
D14*
%TO.C,M1*%
X177591000Y-95481000D03*
X177591000Y-100561000D03*
X172511000Y-95481000D03*
X172511000Y-100561000D03*
%TD*%
%TO.C,M2*%
X177591000Y-48791000D03*
X172511000Y-48791000D03*
X177591000Y-53871000D03*
X172511000Y-53871000D03*
%TD*%
D15*
%TO.C,J6*%
X127000000Y-50805000D03*
X127000000Y-53575000D03*
X127000000Y-56345000D03*
X127000000Y-59115000D03*
X127000000Y-61885000D03*
X127000000Y-64655000D03*
X127000000Y-67425000D03*
X127000000Y-70195000D03*
X127000000Y-72965000D03*
X127000000Y-75735000D03*
X127000000Y-78505000D03*
X127000000Y-81275000D03*
%TD*%
D16*
%TO.C,C1*%
X160935000Y-52324000D03*
X164185000Y-52324000D03*
%TD*%
D17*
%TO.C,U3*%
X162495000Y-81915000D03*
X162495000Y-83185000D03*
X162495000Y-84455000D03*
X162495000Y-85725000D03*
X162495000Y-86995000D03*
X162495000Y-88265000D03*
X162495000Y-89535000D03*
X162495000Y-90805000D03*
X157545000Y-90805000D03*
X157545000Y-89535000D03*
X157545000Y-88265000D03*
X157545000Y-86995000D03*
X157545000Y-85725000D03*
X157545000Y-84455000D03*
X157545000Y-83185000D03*
X157545000Y-81915000D03*
%TD*%
D16*
%TO.C,C3*%
X135942000Y-88392000D03*
X139192000Y-88392000D03*
%TD*%
D18*
%TO.C,C2*%
X163169000Y-94996000D03*
X159919000Y-94996000D03*
%TD*%
D17*
%TO.C,U2*%
X162495000Y-56515000D03*
X162495000Y-57785000D03*
X162495000Y-59055000D03*
X162495000Y-60325000D03*
X162495000Y-61595000D03*
X162495000Y-62865000D03*
X162495000Y-64135000D03*
X162495000Y-65405000D03*
X157545000Y-65405000D03*
X157545000Y-64135000D03*
X157545000Y-62865000D03*
X157545000Y-61595000D03*
X157545000Y-60325000D03*
X157545000Y-59055000D03*
X157545000Y-57785000D03*
X157545000Y-56515000D03*
%TD*%
D19*
%TO.C,F1*%
X143510000Y-90935000D03*
X143510000Y-88135000D03*
%TD*%
D20*
%TO.C,U5*%
X174177000Y-87234000D03*
X174177000Y-87884000D03*
X174177000Y-88534000D03*
X171517000Y-88534000D03*
X171517000Y-87234000D03*
%TD*%
D21*
%TO.C,C4*%
X132080000Y-93827000D03*
X132080000Y-90577000D03*
%TD*%
M02*
