M48
; DRILL file {KiCad (6.0.4-0)} date Sunday, November 20, 2022 at 02:03:20 PM
; FORMAT={-:-/ absolute / metric / decimal}
; #@! TF.CreationDate,2022-11-20T14:03:20-07:00
; #@! TF.GenerationSoftware,Kicad,Pcbnew,(6.0.4-0)
; #@! TF.FileFunction,Plated,1,2,PTH
FMAT,2
METRIC
; #@! TA.AperFunction,Plated,PTH,ViaDrill
T1C0.400
; #@! TA.AperFunction,Plated,PTH,ComponentDrill
T2C1.000
; #@! TA.AperFunction,Plated,PTH,ComponentDrill
T3C1.700
%
G90
G05
T1
X136.525Y-93.345
X139.954Y-50.8
X142.175Y-98.425
X142.24Y-51.308
X144.78Y-95.885
X147.701Y-68.199
X155.575Y-60.96
X155.905Y-86.36
X156.845Y-52.705
X159.025Y-62.234
X160.909Y-64.135
X162.433Y-67.818
X163.703Y-79.502
X164.338Y-60.96
X164.338Y-86.36
X169.799Y-64.77
X170.307Y-85.979
X170.815Y-66.675
X170.815Y-61.722
X171.45Y-83.947
X171.577Y-58.674
X172.847Y-83.82
X180.594Y-74.676
T2
X127.889Y-88.773
X127.889Y-91.313
X128.905Y-95.885
X128.905Y-98.425
X132.08Y-54.61
X132.08Y-57.15
X132.08Y-59.69
X132.08Y-62.23
X132.08Y-64.77
X132.08Y-67.31
X132.08Y-69.85
X132.08Y-72.39
X132.08Y-74.93
X132.08Y-77.47
X132.08Y-80.01
X132.08Y-82.55
X132.08Y-85.09
X134.62Y-54.61
X134.62Y-57.15
X134.62Y-59.69
X134.62Y-62.23
X134.62Y-64.77
X134.62Y-67.31
X134.62Y-69.85
X134.62Y-72.39
X134.62Y-74.93
X134.62Y-77.47
X134.62Y-80.01
X134.62Y-82.55
X134.62Y-85.09
X142.24Y-54.61
X142.24Y-57.15
X142.24Y-59.69
X142.24Y-62.23
X142.24Y-64.77
X142.24Y-67.31
X142.24Y-69.85
X142.24Y-72.39
X142.24Y-74.93
X142.24Y-77.47
X142.24Y-80.01
X142.24Y-82.55
X142.24Y-85.09
X144.78Y-54.61
X144.78Y-57.15
X144.78Y-59.69
X144.78Y-62.23
X144.78Y-64.77
X144.78Y-67.31
X144.78Y-69.85
X144.78Y-72.39
X144.78Y-74.93
X144.78Y-77.47
X144.78Y-80.01
X144.78Y-82.55
X144.78Y-85.09
X152.4Y-50.8
X152.4Y-53.34
X152.4Y-55.88
X152.4Y-58.42
X152.4Y-60.96
X152.4Y-63.5
X152.4Y-66.04
X152.4Y-68.58
X152.4Y-71.12
X152.4Y-73.66
X152.4Y-76.2
X152.4Y-78.74
X152.4Y-81.28
X152.4Y-83.82
X152.4Y-86.36
X152.4Y-88.9
X152.4Y-91.44
X152.4Y-93.98
X152.4Y-96.52
X152.4Y-99.06
X167.64Y-50.8
X167.64Y-53.34
X167.64Y-55.88
X167.64Y-58.42
X167.64Y-60.96
X167.64Y-63.5
X167.64Y-66.04
X167.64Y-68.58
X167.64Y-71.12
X167.64Y-73.66
X167.64Y-76.2
X167.64Y-78.74
X167.64Y-81.28
X167.64Y-83.82
X167.64Y-86.36
X167.64Y-88.9
X167.64Y-91.44
X167.64Y-93.98
X167.64Y-96.52
X167.64Y-99.06
T3
X172.511Y-48.791
X172.511Y-53.871
X172.511Y-95.481
X172.511Y-100.561
X177.591Y-48.791
X177.591Y-53.871
X177.591Y-95.481
X177.591Y-100.561
T0
M30
