%TF.GenerationSoftware,KiCad,Pcbnew,(6.0.4-0)*%
%TF.CreationDate,2022-11-20T14:03:23-07:00*%
%TF.ProjectId,bluescsi_iigs_internal,626c7565-7363-4736-995f-696967735f69,rev?*%
%TF.SameCoordinates,Original*%
%TF.FileFunction,Legend,Bot*%
%TF.FilePolarity,Positive*%
%FSLAX46Y46*%
G04 Gerber Fmt 4.6, Leading zero omitted, Abs format (unit mm)*
G04 Created by KiCad (PCBNEW (6.0.4-0)) date 2022-11-20 14:03:23*
%MOMM*%
%LPD*%
G01*
G04 APERTURE LIST*
G04 Aperture macros list*
%AMRoundRect*
0 Rectangle with rounded corners*
0 $1 Rounding radius*
0 $2 $3 $4 $5 $6 $7 $8 $9 X,Y pos of 4 corners*
0 Add a 4 corners polygon primitive as box body*
4,1,4,$2,$3,$4,$5,$6,$7,$8,$9,$2,$3,0*
0 Add four circle primitives for the rounded corners*
1,1,$1+$1,$2,$3*
1,1,$1+$1,$4,$5*
1,1,$1+$1,$6,$7*
1,1,$1+$1,$8,$9*
0 Add four rect primitives between the rounded corners*
20,1,$1+$1,$2,$3,$4,$5,0*
20,1,$1+$1,$4,$5,$6,$7,0*
20,1,$1+$1,$6,$7,$8,$9,0*
20,1,$1+$1,$8,$9,$2,$3,0*%
G04 Aperture macros list end*
%ADD10C,0.150000*%
%ADD11C,0.200000*%
%ADD12C,0.100000*%
%ADD13C,0.120000*%
%ADD14C,0.127000*%
%ADD15RoundRect,0.150000X0.150000X-0.825000X0.150000X0.825000X-0.150000X0.825000X-0.150000X-0.825000X0*%
%ADD16R,1.200000X0.900000*%
%ADD17RoundRect,0.250001X-0.924999X0.499999X-0.924999X-0.499999X0.924999X-0.499999X0.924999X0.499999X0*%
%ADD18R,1.700000X1.700000*%
%ADD19C,1.700000*%
%ADD20C,0.900000*%
%ADD21O,1.700000X1.700000*%
%ADD22C,2.100000*%
%ADD23R,3.480000X1.846667*%
%ADD24RoundRect,0.250000X-0.500000X-0.925000X0.500000X-0.925000X0.500000X0.925000X-0.500000X0.925000X0*%
%ADD25R,1.970000X0.600000*%
%ADD26RoundRect,0.250000X-0.925000X0.500000X-0.925000X-0.500000X0.925000X-0.500000X0.925000X0.500000X0*%
%ADD27RoundRect,0.250000X1.075000X-0.375000X1.075000X0.375000X-1.075000X0.375000X-1.075000X-0.375000X0*%
%ADD28R,1.500000X0.400000*%
G04 APERTURE END LIST*
D10*
X185586666Y-83970952D02*
X185586666Y-84447142D01*
X185872380Y-83875714D02*
X184872380Y-84209047D01*
X185872380Y-84542380D01*
X185777142Y-85447142D02*
X185824761Y-85399523D01*
X185872380Y-85256666D01*
X185872380Y-85161428D01*
X185824761Y-85018571D01*
X185729523Y-84923333D01*
X185634285Y-84875714D01*
X185443809Y-84828095D01*
X185300952Y-84828095D01*
X185110476Y-84875714D01*
X185015238Y-84923333D01*
X184920000Y-85018571D01*
X184872380Y-85161428D01*
X184872380Y-85256666D01*
X184920000Y-85399523D01*
X184967619Y-85447142D01*
X184872380Y-85732857D02*
X184872380Y-86304285D01*
X185872380Y-86018571D02*
X184872380Y-86018571D01*
X185872380Y-88836666D02*
X184872380Y-88836666D01*
X184872380Y-89217619D01*
X184920000Y-89312857D01*
X184967619Y-89360476D01*
X185062857Y-89408095D01*
X185205714Y-89408095D01*
X185300952Y-89360476D01*
X185348571Y-89312857D01*
X185396190Y-89217619D01*
X185396190Y-88836666D01*
X184872380Y-89741428D02*
X185872380Y-89979523D01*
X185158095Y-90170000D01*
X185872380Y-90360476D01*
X184872380Y-90598571D01*
X185872380Y-91550952D02*
X185396190Y-91217619D01*
X185872380Y-90979523D02*
X184872380Y-90979523D01*
X184872380Y-91360476D01*
X184920000Y-91455714D01*
X184967619Y-91503333D01*
X185062857Y-91550952D01*
X185205714Y-91550952D01*
X185300952Y-91503333D01*
X185348571Y-91455714D01*
X185396190Y-91360476D01*
X185396190Y-90979523D01*
X185126380Y-58325142D02*
X185126380Y-58515619D01*
X185174000Y-58610857D01*
X185269238Y-58706095D01*
X185459714Y-58753714D01*
X185793047Y-58753714D01*
X185983523Y-58706095D01*
X186078761Y-58610857D01*
X186126380Y-58515619D01*
X186126380Y-58325142D01*
X186078761Y-58229904D01*
X185983523Y-58134666D01*
X185793047Y-58087047D01*
X185459714Y-58087047D01*
X185269238Y-58134666D01*
X185174000Y-58229904D01*
X185126380Y-58325142D01*
X186126380Y-59182285D02*
X185126380Y-59182285D01*
X186126380Y-59753714D01*
X185126380Y-59753714D01*
X185126380Y-62706095D02*
X185126380Y-62896571D01*
X185174000Y-62991809D01*
X185269238Y-63087047D01*
X185459714Y-63134666D01*
X185793047Y-63134666D01*
X185983523Y-63087047D01*
X186078761Y-62991809D01*
X186126380Y-62896571D01*
X186126380Y-62706095D01*
X186078761Y-62610857D01*
X185983523Y-62515619D01*
X185793047Y-62468000D01*
X185459714Y-62468000D01*
X185269238Y-62515619D01*
X185174000Y-62610857D01*
X185126380Y-62706095D01*
X185602571Y-63896571D02*
X185602571Y-63563238D01*
X186126380Y-63563238D02*
X185126380Y-63563238D01*
X185126380Y-64039428D01*
X185602571Y-64753714D02*
X185602571Y-64420380D01*
X186126380Y-64420380D02*
X185126380Y-64420380D01*
X185126380Y-64896571D01*
X138469714Y-59572190D02*
X139279238Y-59572190D01*
X139374476Y-59524571D01*
X139422095Y-59476952D01*
X139469714Y-59381714D01*
X139469714Y-59238857D01*
X139422095Y-59143619D01*
X139088761Y-59572190D02*
X139136380Y-59476952D01*
X139136380Y-59286476D01*
X139088761Y-59191238D01*
X139041142Y-59143619D01*
X138945904Y-59096000D01*
X138660190Y-59096000D01*
X138564952Y-59143619D01*
X138517333Y-59191238D01*
X138469714Y-59286476D01*
X138469714Y-59476952D01*
X138517333Y-59572190D01*
X139136380Y-60048380D02*
X138469714Y-60048380D01*
X138136380Y-60048380D02*
X138184000Y-60000761D01*
X138231619Y-60048380D01*
X138184000Y-60096000D01*
X138136380Y-60048380D01*
X138231619Y-60048380D01*
X138469714Y-60381714D02*
X138469714Y-60762666D01*
X138136380Y-60524571D02*
X138993523Y-60524571D01*
X139088761Y-60572190D01*
X139136380Y-60667428D01*
X139136380Y-60762666D01*
X139136380Y-61096000D02*
X138136380Y-61096000D01*
X139136380Y-61524571D02*
X138612571Y-61524571D01*
X138517333Y-61476952D01*
X138469714Y-61381714D01*
X138469714Y-61238857D01*
X138517333Y-61143619D01*
X138564952Y-61096000D01*
X138469714Y-62429333D02*
X139136380Y-62429333D01*
X138469714Y-62000761D02*
X138993523Y-62000761D01*
X139088761Y-62048380D01*
X139136380Y-62143619D01*
X139136380Y-62286476D01*
X139088761Y-62381714D01*
X139041142Y-62429333D01*
X139136380Y-62905523D02*
X138136380Y-62905523D01*
X138517333Y-62905523D02*
X138469714Y-63000761D01*
X138469714Y-63191238D01*
X138517333Y-63286476D01*
X138564952Y-63334095D01*
X138660190Y-63381714D01*
X138945904Y-63381714D01*
X139041142Y-63334095D01*
X139088761Y-63286476D01*
X139136380Y-63191238D01*
X139136380Y-63000761D01*
X139088761Y-62905523D01*
X139041142Y-63810285D02*
X139088761Y-63857904D01*
X139136380Y-63810285D01*
X139088761Y-63762666D01*
X139041142Y-63810285D01*
X139136380Y-63810285D01*
X139088761Y-64715047D02*
X139136380Y-64619809D01*
X139136380Y-64429333D01*
X139088761Y-64334095D01*
X139041142Y-64286476D01*
X138945904Y-64238857D01*
X138660190Y-64238857D01*
X138564952Y-64286476D01*
X138517333Y-64334095D01*
X138469714Y-64429333D01*
X138469714Y-64619809D01*
X138517333Y-64715047D01*
X139136380Y-65286476D02*
X139088761Y-65191238D01*
X139041142Y-65143619D01*
X138945904Y-65096000D01*
X138660190Y-65096000D01*
X138564952Y-65143619D01*
X138517333Y-65191238D01*
X138469714Y-65286476D01*
X138469714Y-65429333D01*
X138517333Y-65524571D01*
X138564952Y-65572190D01*
X138660190Y-65619809D01*
X138945904Y-65619809D01*
X139041142Y-65572190D01*
X139088761Y-65524571D01*
X139136380Y-65429333D01*
X139136380Y-65286476D01*
X139136380Y-66048380D02*
X138469714Y-66048380D01*
X138564952Y-66048380D02*
X138517333Y-66096000D01*
X138469714Y-66191238D01*
X138469714Y-66334095D01*
X138517333Y-66429333D01*
X138612571Y-66476952D01*
X139136380Y-66476952D01*
X138612571Y-66476952D02*
X138517333Y-66524571D01*
X138469714Y-66619809D01*
X138469714Y-66762666D01*
X138517333Y-66857904D01*
X138612571Y-66905523D01*
X139136380Y-66905523D01*
X138088761Y-68096000D02*
X139374476Y-67238857D01*
X139136380Y-68334095D02*
X138469714Y-68857904D01*
X138469714Y-68334095D02*
X139136380Y-68857904D01*
X138469714Y-69667428D02*
X139136380Y-69667428D01*
X138469714Y-69238857D02*
X138993523Y-69238857D01*
X139088761Y-69286476D01*
X139136380Y-69381714D01*
X139136380Y-69524571D01*
X139088761Y-69619809D01*
X139041142Y-69667428D01*
X138469714Y-70143619D02*
X139136380Y-70143619D01*
X138564952Y-70143619D02*
X138517333Y-70191238D01*
X138469714Y-70286476D01*
X138469714Y-70429333D01*
X138517333Y-70524571D01*
X138612571Y-70572190D01*
X139136380Y-70572190D01*
X139136380Y-71048380D02*
X138136380Y-71048380D01*
X138755428Y-71143619D02*
X139136380Y-71429333D01*
X138469714Y-71429333D02*
X138850666Y-71048380D01*
X139088761Y-72238857D02*
X139136380Y-72143619D01*
X139136380Y-71953142D01*
X139088761Y-71857904D01*
X138993523Y-71810285D01*
X138612571Y-71810285D01*
X138517333Y-71857904D01*
X138469714Y-71953142D01*
X138469714Y-72143619D01*
X138517333Y-72238857D01*
X138612571Y-72286476D01*
X138707809Y-72286476D01*
X138803047Y-71810285D01*
X139136380Y-72715047D02*
X138469714Y-72715047D01*
X138660190Y-72715047D02*
X138564952Y-72762666D01*
X138517333Y-72810285D01*
X138469714Y-72905523D01*
X138469714Y-73000761D01*
X138088761Y-74048380D02*
X139374476Y-73191238D01*
X139136380Y-74381714D02*
X138136380Y-74381714D01*
X138517333Y-74381714D02*
X138469714Y-74476952D01*
X138469714Y-74667428D01*
X138517333Y-74762666D01*
X138564952Y-74810285D01*
X138660190Y-74857904D01*
X138945904Y-74857904D01*
X139041142Y-74810285D01*
X139088761Y-74762666D01*
X139136380Y-74667428D01*
X139136380Y-74476952D01*
X139088761Y-74381714D01*
X139136380Y-75429333D02*
X139088761Y-75334095D01*
X138993523Y-75286476D01*
X138136380Y-75286476D01*
X138469714Y-76238857D02*
X139136380Y-76238857D01*
X138469714Y-75810285D02*
X138993523Y-75810285D01*
X139088761Y-75857904D01*
X139136380Y-75953142D01*
X139136380Y-76096000D01*
X139088761Y-76191238D01*
X139041142Y-76238857D01*
X139088761Y-77096000D02*
X139136380Y-77000761D01*
X139136380Y-76810285D01*
X139088761Y-76715047D01*
X138993523Y-76667428D01*
X138612571Y-76667428D01*
X138517333Y-76715047D01*
X138469714Y-76810285D01*
X138469714Y-77000761D01*
X138517333Y-77096000D01*
X138612571Y-77143619D01*
X138707809Y-77143619D01*
X138803047Y-76667428D01*
X138755428Y-77572190D02*
X138755428Y-78334095D01*
X138469714Y-79238857D02*
X139279238Y-79238857D01*
X139374476Y-79191238D01*
X139422095Y-79143619D01*
X139469714Y-79048380D01*
X139469714Y-78905523D01*
X139422095Y-78810285D01*
X139088761Y-79238857D02*
X139136380Y-79143619D01*
X139136380Y-78953142D01*
X139088761Y-78857904D01*
X139041142Y-78810285D01*
X138945904Y-78762666D01*
X138660190Y-78762666D01*
X138564952Y-78810285D01*
X138517333Y-78857904D01*
X138469714Y-78953142D01*
X138469714Y-79143619D01*
X138517333Y-79238857D01*
X139088761Y-79667428D02*
X139136380Y-79762666D01*
X139136380Y-79953142D01*
X139088761Y-80048380D01*
X138993523Y-80096000D01*
X138945904Y-80096000D01*
X138850666Y-80048380D01*
X138803047Y-79953142D01*
X138803047Y-79810285D01*
X138755428Y-79715047D01*
X138660190Y-79667428D01*
X138612571Y-79667428D01*
X138517333Y-79715047D01*
X138469714Y-79810285D01*
X138469714Y-79953142D01*
X138517333Y-80048380D01*
X177447380Y-59270285D02*
X176447380Y-59270285D01*
X176780714Y-59746476D02*
X177447380Y-59746476D01*
X176875952Y-59746476D02*
X176828333Y-59794095D01*
X176780714Y-59889333D01*
X176780714Y-60032190D01*
X176828333Y-60127428D01*
X176923571Y-60175047D01*
X177447380Y-60175047D01*
X176780714Y-60508380D02*
X176780714Y-60889333D01*
X176447380Y-60651238D02*
X177304523Y-60651238D01*
X177399761Y-60698857D01*
X177447380Y-60794095D01*
X177447380Y-60889333D01*
X177399761Y-61603619D02*
X177447380Y-61508380D01*
X177447380Y-61317904D01*
X177399761Y-61222666D01*
X177304523Y-61175047D01*
X176923571Y-61175047D01*
X176828333Y-61222666D01*
X176780714Y-61317904D01*
X176780714Y-61508380D01*
X176828333Y-61603619D01*
X176923571Y-61651238D01*
X177018809Y-61651238D01*
X177114047Y-61175047D01*
X177447380Y-62079809D02*
X176780714Y-62079809D01*
X176971190Y-62079809D02*
X176875952Y-62127428D01*
X176828333Y-62175047D01*
X176780714Y-62270285D01*
X176780714Y-62365523D01*
X176780714Y-62698857D02*
X177447380Y-62698857D01*
X176875952Y-62698857D02*
X176828333Y-62746476D01*
X176780714Y-62841714D01*
X176780714Y-62984571D01*
X176828333Y-63079809D01*
X176923571Y-63127428D01*
X177447380Y-63127428D01*
X177447380Y-64032190D02*
X176923571Y-64032190D01*
X176828333Y-63984571D01*
X176780714Y-63889333D01*
X176780714Y-63698857D01*
X176828333Y-63603619D01*
X177399761Y-64032190D02*
X177447380Y-63936952D01*
X177447380Y-63698857D01*
X177399761Y-63603619D01*
X177304523Y-63556000D01*
X177209285Y-63556000D01*
X177114047Y-63603619D01*
X177066428Y-63698857D01*
X177066428Y-63936952D01*
X177018809Y-64032190D01*
X177447380Y-64651238D02*
X177399761Y-64556000D01*
X177304523Y-64508380D01*
X176447380Y-64508380D01*
X176923571Y-66127428D02*
X176971190Y-66270285D01*
X177018809Y-66317904D01*
X177114047Y-66365523D01*
X177256904Y-66365523D01*
X177352142Y-66317904D01*
X177399761Y-66270285D01*
X177447380Y-66175047D01*
X177447380Y-65794095D01*
X176447380Y-65794095D01*
X176447380Y-66127428D01*
X176495000Y-66222666D01*
X176542619Y-66270285D01*
X176637857Y-66317904D01*
X176733095Y-66317904D01*
X176828333Y-66270285D01*
X176875952Y-66222666D01*
X176923571Y-66127428D01*
X176923571Y-65794095D01*
X177447380Y-66936952D02*
X177399761Y-66841714D01*
X177304523Y-66794095D01*
X176447380Y-66794095D01*
X176780714Y-67746476D02*
X177447380Y-67746476D01*
X176780714Y-67317904D02*
X177304523Y-67317904D01*
X177399761Y-67365523D01*
X177447380Y-67460761D01*
X177447380Y-67603619D01*
X177399761Y-67698857D01*
X177352142Y-67746476D01*
X177399761Y-68603619D02*
X177447380Y-68508380D01*
X177447380Y-68317904D01*
X177399761Y-68222666D01*
X177304523Y-68175047D01*
X176923571Y-68175047D01*
X176828333Y-68222666D01*
X176780714Y-68317904D01*
X176780714Y-68508380D01*
X176828333Y-68603619D01*
X176923571Y-68651238D01*
X177018809Y-68651238D01*
X177114047Y-68175047D01*
X177399761Y-69032190D02*
X177447380Y-69175047D01*
X177447380Y-69413142D01*
X177399761Y-69508380D01*
X177352142Y-69556000D01*
X177256904Y-69603619D01*
X177161666Y-69603619D01*
X177066428Y-69556000D01*
X177018809Y-69508380D01*
X176971190Y-69413142D01*
X176923571Y-69222666D01*
X176875952Y-69127428D01*
X176828333Y-69079809D01*
X176733095Y-69032190D01*
X176637857Y-69032190D01*
X176542619Y-69079809D01*
X176495000Y-69127428D01*
X176447380Y-69222666D01*
X176447380Y-69460761D01*
X176495000Y-69603619D01*
X177352142Y-70603619D02*
X177399761Y-70556000D01*
X177447380Y-70413142D01*
X177447380Y-70317904D01*
X177399761Y-70175047D01*
X177304523Y-70079809D01*
X177209285Y-70032190D01*
X177018809Y-69984571D01*
X176875952Y-69984571D01*
X176685476Y-70032190D01*
X176590238Y-70079809D01*
X176495000Y-70175047D01*
X176447380Y-70317904D01*
X176447380Y-70413142D01*
X176495000Y-70556000D01*
X176542619Y-70603619D01*
X177399761Y-70984571D02*
X177447380Y-71127428D01*
X177447380Y-71365523D01*
X177399761Y-71460761D01*
X177352142Y-71508380D01*
X177256904Y-71556000D01*
X177161666Y-71556000D01*
X177066428Y-71508380D01*
X177018809Y-71460761D01*
X176971190Y-71365523D01*
X176923571Y-71175047D01*
X176875952Y-71079809D01*
X176828333Y-71032190D01*
X176733095Y-70984571D01*
X176637857Y-70984571D01*
X176542619Y-71032190D01*
X176495000Y-71079809D01*
X176447380Y-71175047D01*
X176447380Y-71413142D01*
X176495000Y-71556000D01*
X177447380Y-71984571D02*
X176447380Y-71984571D01*
X176780714Y-73079809D02*
X176780714Y-73460761D01*
X177447380Y-73222666D02*
X176590238Y-73222666D01*
X176495000Y-73270285D01*
X176447380Y-73365523D01*
X176447380Y-73460761D01*
X177447380Y-73936952D02*
X177399761Y-73841714D01*
X177352142Y-73794095D01*
X177256904Y-73746476D01*
X176971190Y-73746476D01*
X176875952Y-73794095D01*
X176828333Y-73841714D01*
X176780714Y-73936952D01*
X176780714Y-74079809D01*
X176828333Y-74175047D01*
X176875952Y-74222666D01*
X176971190Y-74270285D01*
X177256904Y-74270285D01*
X177352142Y-74222666D01*
X177399761Y-74175047D01*
X177447380Y-74079809D01*
X177447380Y-73936952D01*
X177447380Y-74698857D02*
X176780714Y-74698857D01*
X176971190Y-74698857D02*
X176875952Y-74746476D01*
X176828333Y-74794095D01*
X176780714Y-74889333D01*
X176780714Y-74984571D01*
X178771666Y-59794095D02*
X178771666Y-60270285D01*
X179057380Y-59698857D02*
X178057380Y-60032190D01*
X179057380Y-60365523D01*
X178390714Y-60698857D02*
X179390714Y-60698857D01*
X178438333Y-60698857D02*
X178390714Y-60794095D01*
X178390714Y-60984571D01*
X178438333Y-61079809D01*
X178485952Y-61127428D01*
X178581190Y-61175047D01*
X178866904Y-61175047D01*
X178962142Y-61127428D01*
X179009761Y-61079809D01*
X179057380Y-60984571D01*
X179057380Y-60794095D01*
X179009761Y-60698857D01*
X178390714Y-61603619D02*
X179390714Y-61603619D01*
X178438333Y-61603619D02*
X178390714Y-61698857D01*
X178390714Y-61889333D01*
X178438333Y-61984571D01*
X178485952Y-62032190D01*
X178581190Y-62079809D01*
X178866904Y-62079809D01*
X178962142Y-62032190D01*
X179009761Y-61984571D01*
X179057380Y-61889333D01*
X179057380Y-61698857D01*
X179009761Y-61603619D01*
X179057380Y-62651238D02*
X179009761Y-62556000D01*
X178914523Y-62508380D01*
X178057380Y-62508380D01*
X179009761Y-63413142D02*
X179057380Y-63317904D01*
X179057380Y-63127428D01*
X179009761Y-63032190D01*
X178914523Y-62984571D01*
X178533571Y-62984571D01*
X178438333Y-63032190D01*
X178390714Y-63127428D01*
X178390714Y-63317904D01*
X178438333Y-63413142D01*
X178533571Y-63460761D01*
X178628809Y-63460761D01*
X178724047Y-62984571D01*
X179057380Y-64651238D02*
X178057380Y-64651238D01*
X179057380Y-65127428D02*
X178057380Y-65127428D01*
X178105000Y-66127428D02*
X178057380Y-66032190D01*
X178057380Y-65889333D01*
X178105000Y-65746476D01*
X178200238Y-65651238D01*
X178295476Y-65603619D01*
X178485952Y-65556000D01*
X178628809Y-65556000D01*
X178819285Y-65603619D01*
X178914523Y-65651238D01*
X179009761Y-65746476D01*
X179057380Y-65889333D01*
X179057380Y-65984571D01*
X179009761Y-66127428D01*
X178962142Y-66175047D01*
X178628809Y-66175047D01*
X178628809Y-65984571D01*
X179009761Y-66556000D02*
X179057380Y-66698857D01*
X179057380Y-66936952D01*
X179009761Y-67032190D01*
X178962142Y-67079809D01*
X178866904Y-67127428D01*
X178771666Y-67127428D01*
X178676428Y-67079809D01*
X178628809Y-67032190D01*
X178581190Y-66936952D01*
X178533571Y-66746476D01*
X178485952Y-66651238D01*
X178438333Y-66603619D01*
X178343095Y-66556000D01*
X178247857Y-66556000D01*
X178152619Y-66603619D01*
X178105000Y-66651238D01*
X178057380Y-66746476D01*
X178057380Y-66984571D01*
X178105000Y-67127428D01*
X179057380Y-68746476D02*
X178533571Y-68746476D01*
X178438333Y-68698857D01*
X178390714Y-68603619D01*
X178390714Y-68413142D01*
X178438333Y-68317904D01*
X179009761Y-68746476D02*
X179057380Y-68651238D01*
X179057380Y-68413142D01*
X179009761Y-68317904D01*
X178914523Y-68270285D01*
X178819285Y-68270285D01*
X178724047Y-68317904D01*
X178676428Y-68413142D01*
X178676428Y-68651238D01*
X178628809Y-68746476D01*
X178390714Y-69222666D02*
X179057380Y-69222666D01*
X178485952Y-69222666D02*
X178438333Y-69270285D01*
X178390714Y-69365523D01*
X178390714Y-69508380D01*
X178438333Y-69603619D01*
X178533571Y-69651238D01*
X179057380Y-69651238D01*
X179057380Y-70556000D02*
X178057380Y-70556000D01*
X179009761Y-70556000D02*
X179057380Y-70460761D01*
X179057380Y-70270285D01*
X179009761Y-70175047D01*
X178962142Y-70127428D01*
X178866904Y-70079809D01*
X178581190Y-70079809D01*
X178485952Y-70127428D01*
X178438333Y-70175047D01*
X178390714Y-70270285D01*
X178390714Y-70460761D01*
X178438333Y-70556000D01*
X178009761Y-72508380D02*
X179295476Y-71651238D01*
X178009761Y-73556000D02*
X179295476Y-72698857D01*
X179009761Y-74270285D02*
X179057380Y-74175047D01*
X179057380Y-73984571D01*
X179009761Y-73889333D01*
X178914523Y-73841714D01*
X178533571Y-73841714D01*
X178438333Y-73889333D01*
X178390714Y-73984571D01*
X178390714Y-74175047D01*
X178438333Y-74270285D01*
X178533571Y-74317904D01*
X178628809Y-74317904D01*
X178724047Y-73841714D01*
X133604047Y-88193571D02*
X134365952Y-88193571D01*
X133985000Y-87812619D02*
X133985000Y-88574523D01*
X186205714Y-69731619D02*
X184777142Y-69731619D01*
X185777142Y-74064952D02*
X185824761Y-74017333D01*
X185872380Y-73874476D01*
X185872380Y-73779238D01*
X185824761Y-73636380D01*
X185729523Y-73541142D01*
X185634285Y-73493523D01*
X185443809Y-73445904D01*
X185300952Y-73445904D01*
X185110476Y-73493523D01*
X185015238Y-73541142D01*
X184920000Y-73636380D01*
X184872380Y-73779238D01*
X184872380Y-73874476D01*
X184920000Y-74017333D01*
X184967619Y-74064952D01*
X185586666Y-74445904D02*
X185586666Y-74922095D01*
X185872380Y-74350666D02*
X184872380Y-74684000D01*
X185872380Y-75017333D01*
X185872380Y-75922095D02*
X185396190Y-75588761D01*
X185872380Y-75350666D02*
X184872380Y-75350666D01*
X184872380Y-75731619D01*
X184920000Y-75826857D01*
X184967619Y-75874476D01*
X185062857Y-75922095D01*
X185205714Y-75922095D01*
X185300952Y-75874476D01*
X185348571Y-75826857D01*
X185396190Y-75731619D01*
X185396190Y-75350666D01*
X185872380Y-76350666D02*
X184872380Y-76350666D01*
X184872380Y-76588761D01*
X184920000Y-76731619D01*
X185015238Y-76826857D01*
X185110476Y-76874476D01*
X185300952Y-76922095D01*
X185443809Y-76922095D01*
X185634285Y-76874476D01*
X185729523Y-76826857D01*
X185824761Y-76731619D01*
X185872380Y-76588761D01*
X185872380Y-76350666D01*
X186205714Y-80636380D02*
X184777142Y-80636380D01*
X182332380Y-57206095D02*
X182332380Y-57777523D01*
X183332380Y-57491809D02*
X182332380Y-57491809D01*
X183284761Y-58491809D02*
X183332380Y-58396571D01*
X183332380Y-58206095D01*
X183284761Y-58110857D01*
X183189523Y-58063238D01*
X182808571Y-58063238D01*
X182713333Y-58110857D01*
X182665714Y-58206095D01*
X182665714Y-58396571D01*
X182713333Y-58491809D01*
X182808571Y-58539428D01*
X182903809Y-58539428D01*
X182999047Y-58063238D01*
X183332380Y-58968000D02*
X182665714Y-58968000D01*
X182856190Y-58968000D02*
X182760952Y-59015619D01*
X182713333Y-59063238D01*
X182665714Y-59158476D01*
X182665714Y-59253714D01*
X183332380Y-59587047D02*
X182665714Y-59587047D01*
X182760952Y-59587047D02*
X182713333Y-59634666D01*
X182665714Y-59729904D01*
X182665714Y-59872761D01*
X182713333Y-59968000D01*
X182808571Y-60015619D01*
X183332380Y-60015619D01*
X182808571Y-60015619D02*
X182713333Y-60063238D01*
X182665714Y-60158476D01*
X182665714Y-60301333D01*
X182713333Y-60396571D01*
X182808571Y-60444190D01*
X183332380Y-60444190D01*
X183332380Y-60920380D02*
X182665714Y-60920380D01*
X182332380Y-60920380D02*
X182380000Y-60872761D01*
X182427619Y-60920380D01*
X182380000Y-60968000D01*
X182332380Y-60920380D01*
X182427619Y-60920380D01*
X182665714Y-61396571D02*
X183332380Y-61396571D01*
X182760952Y-61396571D02*
X182713333Y-61444190D01*
X182665714Y-61539428D01*
X182665714Y-61682285D01*
X182713333Y-61777523D01*
X182808571Y-61825142D01*
X183332380Y-61825142D01*
X183332380Y-62729904D02*
X182808571Y-62729904D01*
X182713333Y-62682285D01*
X182665714Y-62587047D01*
X182665714Y-62396571D01*
X182713333Y-62301333D01*
X183284761Y-62729904D02*
X183332380Y-62634666D01*
X183332380Y-62396571D01*
X183284761Y-62301333D01*
X183189523Y-62253714D01*
X183094285Y-62253714D01*
X182999047Y-62301333D01*
X182951428Y-62396571D01*
X182951428Y-62634666D01*
X182903809Y-62729904D01*
X182665714Y-63063238D02*
X182665714Y-63444190D01*
X182332380Y-63206095D02*
X183189523Y-63206095D01*
X183284761Y-63253714D01*
X183332380Y-63348952D01*
X183332380Y-63444190D01*
X183332380Y-63777523D02*
X182665714Y-63777523D01*
X182332380Y-63777523D02*
X182380000Y-63729904D01*
X182427619Y-63777523D01*
X182380000Y-63825142D01*
X182332380Y-63777523D01*
X182427619Y-63777523D01*
X183332380Y-64396571D02*
X183284761Y-64301333D01*
X183237142Y-64253714D01*
X183141904Y-64206095D01*
X182856190Y-64206095D01*
X182760952Y-64253714D01*
X182713333Y-64301333D01*
X182665714Y-64396571D01*
X182665714Y-64539428D01*
X182713333Y-64634666D01*
X182760952Y-64682285D01*
X182856190Y-64729904D01*
X183141904Y-64729904D01*
X183237142Y-64682285D01*
X183284761Y-64634666D01*
X183332380Y-64539428D01*
X183332380Y-64396571D01*
X182665714Y-65158476D02*
X183332380Y-65158476D01*
X182760952Y-65158476D02*
X182713333Y-65206095D01*
X182665714Y-65301333D01*
X182665714Y-65444190D01*
X182713333Y-65539428D01*
X182808571Y-65587047D01*
X183332380Y-65587047D01*
D11*
X173628857Y-64238571D02*
X173700285Y-64452857D01*
X173771714Y-64524285D01*
X173914571Y-64595714D01*
X174128857Y-64595714D01*
X174271714Y-64524285D01*
X174343142Y-64452857D01*
X174414571Y-64310000D01*
X174414571Y-63738571D01*
X172914571Y-63738571D01*
X172914571Y-64238571D01*
X172986000Y-64381428D01*
X173057428Y-64452857D01*
X173200285Y-64524285D01*
X173343142Y-64524285D01*
X173486000Y-64452857D01*
X173557428Y-64381428D01*
X173628857Y-64238571D01*
X173628857Y-63738571D01*
X174414571Y-65452857D02*
X174343142Y-65310000D01*
X174200285Y-65238571D01*
X172914571Y-65238571D01*
X173414571Y-66667142D02*
X174414571Y-66667142D01*
X173414571Y-66024285D02*
X174200285Y-66024285D01*
X174343142Y-66095714D01*
X174414571Y-66238571D01*
X174414571Y-66452857D01*
X174343142Y-66595714D01*
X174271714Y-66667142D01*
X174343142Y-67952857D02*
X174414571Y-67810000D01*
X174414571Y-67524285D01*
X174343142Y-67381428D01*
X174200285Y-67310000D01*
X173628857Y-67310000D01*
X173486000Y-67381428D01*
X173414571Y-67524285D01*
X173414571Y-67810000D01*
X173486000Y-67952857D01*
X173628857Y-68024285D01*
X173771714Y-68024285D01*
X173914571Y-67310000D01*
X172986000Y-69452857D02*
X172914571Y-69310000D01*
X172914571Y-69095714D01*
X172986000Y-68881428D01*
X173128857Y-68738571D01*
X173271714Y-68667142D01*
X173557428Y-68595714D01*
X173771714Y-68595714D01*
X174057428Y-68667142D01*
X174200285Y-68738571D01*
X174343142Y-68881428D01*
X174414571Y-69095714D01*
X174414571Y-69238571D01*
X174343142Y-69452857D01*
X174271714Y-69524285D01*
X173771714Y-69524285D01*
X173771714Y-69238571D01*
X174343142Y-70095714D02*
X174414571Y-70310000D01*
X174414571Y-70667142D01*
X174343142Y-70810000D01*
X174271714Y-70881428D01*
X174128857Y-70952857D01*
X173986000Y-70952857D01*
X173843142Y-70881428D01*
X173771714Y-70810000D01*
X173700285Y-70667142D01*
X173628857Y-70381428D01*
X173557428Y-70238571D01*
X173486000Y-70167142D01*
X173343142Y-70095714D01*
X173200285Y-70095714D01*
X173057428Y-70167142D01*
X172986000Y-70238571D01*
X172914571Y-70381428D01*
X172914571Y-70738571D01*
X172986000Y-70952857D01*
D10*
X129087619Y-68293809D02*
X130087619Y-68293809D01*
X130087619Y-68055714D01*
X130040000Y-67912857D01*
X129944761Y-67817619D01*
X129849523Y-67770000D01*
X129659047Y-67722380D01*
X129516190Y-67722380D01*
X129325714Y-67770000D01*
X129230476Y-67817619D01*
X129135238Y-67912857D01*
X129087619Y-68055714D01*
X129087619Y-68293809D01*
X129611428Y-66960476D02*
X129563809Y-66817619D01*
X129516190Y-66770000D01*
X129420952Y-66722380D01*
X129278095Y-66722380D01*
X129182857Y-66770000D01*
X129135238Y-66817619D01*
X129087619Y-66912857D01*
X129087619Y-67293809D01*
X130087619Y-67293809D01*
X130087619Y-66960476D01*
X130040000Y-66865238D01*
X129992380Y-66817619D01*
X129897142Y-66770000D01*
X129801904Y-66770000D01*
X129706666Y-66817619D01*
X129659047Y-66865238D01*
X129611428Y-66960476D01*
X129611428Y-67293809D01*
X129468571Y-66293809D02*
X129468571Y-65531904D01*
X129992380Y-65103333D02*
X130040000Y-65055714D01*
X130087619Y-64960476D01*
X130087619Y-64722380D01*
X130040000Y-64627142D01*
X129992380Y-64579523D01*
X129897142Y-64531904D01*
X129801904Y-64531904D01*
X129659047Y-64579523D01*
X129087619Y-65150952D01*
X129087619Y-64531904D01*
X130087619Y-63627142D02*
X130087619Y-64103333D01*
X129611428Y-64150952D01*
X129659047Y-64103333D01*
X129706666Y-64008095D01*
X129706666Y-63770000D01*
X129659047Y-63674761D01*
X129611428Y-63627142D01*
X129516190Y-63579523D01*
X129278095Y-63579523D01*
X129182857Y-63627142D01*
X129135238Y-63674761D01*
X129087619Y-63770000D01*
X129087619Y-64008095D01*
X129135238Y-64103333D01*
X129182857Y-64150952D01*
X129468571Y-63150952D02*
X129468571Y-62389047D01*
X129087619Y-61912857D02*
X130087619Y-61912857D01*
X129373333Y-61579523D01*
X130087619Y-61246190D01*
X129087619Y-61246190D01*
X159638952Y-52776428D02*
X158877047Y-52776428D01*
X159258000Y-53157380D02*
X159258000Y-52395476D01*
X155138428Y-92583047D02*
X155138428Y-93344952D01*
X155519380Y-92964000D02*
X154757476Y-92964000D01*
X165171428Y-92583047D02*
X165171428Y-93344952D01*
X165552380Y-92964000D02*
X164790476Y-92964000D01*
X165281904Y-69087380D02*
X165043809Y-70087380D01*
X164853333Y-69373095D01*
X164662857Y-70087380D01*
X164424761Y-69087380D01*
X164091428Y-69801666D02*
X163615238Y-69801666D01*
X164186666Y-70087380D02*
X163853333Y-69087380D01*
X163520000Y-70087380D01*
X162615238Y-70087380D02*
X162948571Y-69611190D01*
X163186666Y-70087380D02*
X163186666Y-69087380D01*
X162805714Y-69087380D01*
X162710476Y-69135000D01*
X162662857Y-69182619D01*
X162615238Y-69277857D01*
X162615238Y-69420714D01*
X162662857Y-69515952D01*
X162710476Y-69563571D01*
X162805714Y-69611190D01*
X163186666Y-69611190D01*
X162186666Y-70087380D02*
X162186666Y-69087380D01*
X161615238Y-70087380D01*
X161615238Y-69087380D01*
X161139047Y-70087380D02*
X161139047Y-69087380D01*
X160662857Y-70087380D02*
X160662857Y-69087380D01*
X160091428Y-70087380D01*
X160091428Y-69087380D01*
X159091428Y-69135000D02*
X159186666Y-69087380D01*
X159329523Y-69087380D01*
X159472380Y-69135000D01*
X159567619Y-69230238D01*
X159615238Y-69325476D01*
X159662857Y-69515952D01*
X159662857Y-69658809D01*
X159615238Y-69849285D01*
X159567619Y-69944523D01*
X159472380Y-70039761D01*
X159329523Y-70087380D01*
X159234285Y-70087380D01*
X159091428Y-70039761D01*
X159043809Y-69992142D01*
X159043809Y-69658809D01*
X159234285Y-69658809D01*
X158615238Y-69992142D02*
X158567619Y-70039761D01*
X158615238Y-70087380D01*
X158662857Y-70039761D01*
X158615238Y-69992142D01*
X158615238Y-70087380D01*
X158615238Y-69468333D02*
X158567619Y-69515952D01*
X158615238Y-69563571D01*
X158662857Y-69515952D01*
X158615238Y-69468333D01*
X158615238Y-69563571D01*
X157377142Y-69087380D02*
X157377142Y-69896904D01*
X157329523Y-69992142D01*
X157281904Y-70039761D01*
X157186666Y-70087380D01*
X156996190Y-70087380D01*
X156900952Y-70039761D01*
X156853333Y-69992142D01*
X156805714Y-69896904D01*
X156805714Y-69087380D01*
X156377142Y-70039761D02*
X156234285Y-70087380D01*
X155996190Y-70087380D01*
X155900952Y-70039761D01*
X155853333Y-69992142D01*
X155805714Y-69896904D01*
X155805714Y-69801666D01*
X155853333Y-69706428D01*
X155900952Y-69658809D01*
X155996190Y-69611190D01*
X156186666Y-69563571D01*
X156281904Y-69515952D01*
X156329523Y-69468333D01*
X156377142Y-69373095D01*
X156377142Y-69277857D01*
X156329523Y-69182619D01*
X156281904Y-69135000D01*
X156186666Y-69087380D01*
X155948571Y-69087380D01*
X155805714Y-69135000D01*
X155043809Y-69563571D02*
X154900952Y-69611190D01*
X154853333Y-69658809D01*
X154805714Y-69754047D01*
X154805714Y-69896904D01*
X154853333Y-69992142D01*
X154900952Y-70039761D01*
X154996190Y-70087380D01*
X155377142Y-70087380D01*
X155377142Y-69087380D01*
X155043809Y-69087380D01*
X154948571Y-69135000D01*
X154900952Y-69182619D01*
X154853333Y-69277857D01*
X154853333Y-69373095D01*
X154900952Y-69468333D01*
X154948571Y-69515952D01*
X155043809Y-69563571D01*
X155377142Y-69563571D01*
X164805714Y-71030714D02*
X164805714Y-72030714D01*
X164805714Y-71078333D02*
X164710476Y-71030714D01*
X164520000Y-71030714D01*
X164424761Y-71078333D01*
X164377142Y-71125952D01*
X164329523Y-71221190D01*
X164329523Y-71506904D01*
X164377142Y-71602142D01*
X164424761Y-71649761D01*
X164520000Y-71697380D01*
X164710476Y-71697380D01*
X164805714Y-71649761D01*
X163758095Y-71697380D02*
X163853333Y-71649761D01*
X163900952Y-71602142D01*
X163948571Y-71506904D01*
X163948571Y-71221190D01*
X163900952Y-71125952D01*
X163853333Y-71078333D01*
X163758095Y-71030714D01*
X163615238Y-71030714D01*
X163520000Y-71078333D01*
X163472380Y-71125952D01*
X163424761Y-71221190D01*
X163424761Y-71506904D01*
X163472380Y-71602142D01*
X163520000Y-71649761D01*
X163615238Y-71697380D01*
X163758095Y-71697380D01*
X163091428Y-71030714D02*
X162900952Y-71697380D01*
X162710476Y-71221190D01*
X162520000Y-71697380D01*
X162329523Y-71030714D01*
X161567619Y-71649761D02*
X161662857Y-71697380D01*
X161853333Y-71697380D01*
X161948571Y-71649761D01*
X161996190Y-71554523D01*
X161996190Y-71173571D01*
X161948571Y-71078333D01*
X161853333Y-71030714D01*
X161662857Y-71030714D01*
X161567619Y-71078333D01*
X161520000Y-71173571D01*
X161520000Y-71268809D01*
X161996190Y-71364047D01*
X161091428Y-71697380D02*
X161091428Y-71030714D01*
X161091428Y-71221190D02*
X161043809Y-71125952D01*
X160996190Y-71078333D01*
X160900952Y-71030714D01*
X160805714Y-71030714D01*
X159758095Y-71649761D02*
X159662857Y-71697380D01*
X159472380Y-71697380D01*
X159377142Y-71649761D01*
X159329523Y-71554523D01*
X159329523Y-71506904D01*
X159377142Y-71411666D01*
X159472380Y-71364047D01*
X159615238Y-71364047D01*
X159710476Y-71316428D01*
X159758095Y-71221190D01*
X159758095Y-71173571D01*
X159710476Y-71078333D01*
X159615238Y-71030714D01*
X159472380Y-71030714D01*
X159377142Y-71078333D01*
X158900952Y-71697380D02*
X158900952Y-70697380D01*
X158472380Y-71697380D02*
X158472380Y-71173571D01*
X158520000Y-71078333D01*
X158615238Y-71030714D01*
X158758095Y-71030714D01*
X158853333Y-71078333D01*
X158900952Y-71125952D01*
X157853333Y-71697380D02*
X157948571Y-71649761D01*
X157996190Y-71602142D01*
X158043809Y-71506904D01*
X158043809Y-71221190D01*
X157996190Y-71125952D01*
X157948571Y-71078333D01*
X157853333Y-71030714D01*
X157710476Y-71030714D01*
X157615238Y-71078333D01*
X157567619Y-71125952D01*
X157520000Y-71221190D01*
X157520000Y-71506904D01*
X157567619Y-71602142D01*
X157615238Y-71649761D01*
X157710476Y-71697380D01*
X157853333Y-71697380D01*
X156662857Y-71030714D02*
X156662857Y-71697380D01*
X157091428Y-71030714D02*
X157091428Y-71554523D01*
X157043809Y-71649761D01*
X156948571Y-71697380D01*
X156805714Y-71697380D01*
X156710476Y-71649761D01*
X156662857Y-71602142D01*
X156043809Y-71697380D02*
X156139047Y-71649761D01*
X156186666Y-71554523D01*
X156186666Y-70697380D01*
X155234285Y-71697380D02*
X155234285Y-70697380D01*
X155234285Y-71649761D02*
X155329523Y-71697380D01*
X155520000Y-71697380D01*
X155615238Y-71649761D01*
X155662857Y-71602142D01*
X155710476Y-71506904D01*
X155710476Y-71221190D01*
X155662857Y-71125952D01*
X155615238Y-71078333D01*
X155520000Y-71030714D01*
X155329523Y-71030714D01*
X155234285Y-71078333D01*
X164353333Y-72640714D02*
X164353333Y-73307380D01*
X164353333Y-72735952D02*
X164305714Y-72688333D01*
X164210476Y-72640714D01*
X164067619Y-72640714D01*
X163972380Y-72688333D01*
X163924761Y-72783571D01*
X163924761Y-73307380D01*
X163305714Y-73307380D02*
X163400952Y-73259761D01*
X163448571Y-73212142D01*
X163496190Y-73116904D01*
X163496190Y-72831190D01*
X163448571Y-72735952D01*
X163400952Y-72688333D01*
X163305714Y-72640714D01*
X163162857Y-72640714D01*
X163067619Y-72688333D01*
X163020000Y-72735952D01*
X162972380Y-72831190D01*
X162972380Y-73116904D01*
X163020000Y-73212142D01*
X163067619Y-73259761D01*
X163162857Y-73307380D01*
X163305714Y-73307380D01*
X162686666Y-72640714D02*
X162305714Y-72640714D01*
X162543809Y-72307380D02*
X162543809Y-73164523D01*
X162496190Y-73259761D01*
X162400952Y-73307380D01*
X162305714Y-73307380D01*
X161210476Y-73307380D02*
X161210476Y-72307380D01*
X161210476Y-72688333D02*
X161115238Y-72640714D01*
X160924761Y-72640714D01*
X160829523Y-72688333D01*
X160781904Y-72735952D01*
X160734285Y-72831190D01*
X160734285Y-73116904D01*
X160781904Y-73212142D01*
X160829523Y-73259761D01*
X160924761Y-73307380D01*
X161115238Y-73307380D01*
X161210476Y-73259761D01*
X159924761Y-73259761D02*
X160020000Y-73307380D01*
X160210476Y-73307380D01*
X160305714Y-73259761D01*
X160353333Y-73164523D01*
X160353333Y-72783571D01*
X160305714Y-72688333D01*
X160210476Y-72640714D01*
X160020000Y-72640714D01*
X159924761Y-72688333D01*
X159877142Y-72783571D01*
X159877142Y-72878809D01*
X160353333Y-72974047D01*
X158258095Y-72640714D02*
X158258095Y-73307380D01*
X158686666Y-72640714D02*
X158686666Y-73164523D01*
X158639047Y-73259761D01*
X158543809Y-73307380D01*
X158400952Y-73307380D01*
X158305714Y-73259761D01*
X158258095Y-73212142D01*
X157829523Y-73259761D02*
X157734285Y-73307380D01*
X157543809Y-73307380D01*
X157448571Y-73259761D01*
X157400952Y-73164523D01*
X157400952Y-73116904D01*
X157448571Y-73021666D01*
X157543809Y-72974047D01*
X157686666Y-72974047D01*
X157781904Y-72926428D01*
X157829523Y-72831190D01*
X157829523Y-72783571D01*
X157781904Y-72688333D01*
X157686666Y-72640714D01*
X157543809Y-72640714D01*
X157448571Y-72688333D01*
X156591428Y-73259761D02*
X156686666Y-73307380D01*
X156877142Y-73307380D01*
X156972380Y-73259761D01*
X157020000Y-73164523D01*
X157020000Y-72783571D01*
X156972380Y-72688333D01*
X156877142Y-72640714D01*
X156686666Y-72640714D01*
X156591428Y-72688333D01*
X156543809Y-72783571D01*
X156543809Y-72878809D01*
X157020000Y-72974047D01*
X155686666Y-73307380D02*
X155686666Y-72307380D01*
X155686666Y-73259761D02*
X155781904Y-73307380D01*
X155972380Y-73307380D01*
X156067619Y-73259761D01*
X156115238Y-73212142D01*
X156162857Y-73116904D01*
X156162857Y-72831190D01*
X156115238Y-72735952D01*
X156067619Y-72688333D01*
X155972380Y-72640714D01*
X155781904Y-72640714D01*
X155686666Y-72688333D01*
X165210476Y-74250714D02*
X165020000Y-74917380D01*
X164829523Y-74441190D01*
X164639047Y-74917380D01*
X164448571Y-74250714D01*
X164067619Y-74917380D02*
X164067619Y-73917380D01*
X163639047Y-74917380D02*
X163639047Y-74393571D01*
X163686666Y-74298333D01*
X163781904Y-74250714D01*
X163924761Y-74250714D01*
X164020000Y-74298333D01*
X164067619Y-74345952D01*
X163162857Y-74917380D02*
X163162857Y-74250714D01*
X163162857Y-73917380D02*
X163210476Y-73965000D01*
X163162857Y-74012619D01*
X163115238Y-73965000D01*
X163162857Y-73917380D01*
X163162857Y-74012619D01*
X162543809Y-74917380D02*
X162639047Y-74869761D01*
X162686666Y-74774523D01*
X162686666Y-73917380D01*
X161781904Y-74869761D02*
X161877142Y-74917380D01*
X162067619Y-74917380D01*
X162162857Y-74869761D01*
X162210476Y-74774523D01*
X162210476Y-74393571D01*
X162162857Y-74298333D01*
X162067619Y-74250714D01*
X161877142Y-74250714D01*
X161781904Y-74298333D01*
X161734285Y-74393571D01*
X161734285Y-74488809D01*
X162210476Y-74584047D01*
X160543809Y-74250714D02*
X160543809Y-75250714D01*
X160543809Y-74298333D02*
X160448571Y-74250714D01*
X160258095Y-74250714D01*
X160162857Y-74298333D01*
X160115238Y-74345952D01*
X160067619Y-74441190D01*
X160067619Y-74726904D01*
X160115238Y-74822142D01*
X160162857Y-74869761D01*
X160258095Y-74917380D01*
X160448571Y-74917380D01*
X160543809Y-74869761D01*
X159496190Y-74917380D02*
X159591428Y-74869761D01*
X159639047Y-74822142D01*
X159686666Y-74726904D01*
X159686666Y-74441190D01*
X159639047Y-74345952D01*
X159591428Y-74298333D01*
X159496190Y-74250714D01*
X159353333Y-74250714D01*
X159258095Y-74298333D01*
X159210476Y-74345952D01*
X159162857Y-74441190D01*
X159162857Y-74726904D01*
X159210476Y-74822142D01*
X159258095Y-74869761D01*
X159353333Y-74917380D01*
X159496190Y-74917380D01*
X158829523Y-74250714D02*
X158639047Y-74917380D01*
X158448571Y-74441190D01*
X158258095Y-74917380D01*
X158067619Y-74250714D01*
X157305714Y-74869761D02*
X157400952Y-74917380D01*
X157591428Y-74917380D01*
X157686666Y-74869761D01*
X157734285Y-74774523D01*
X157734285Y-74393571D01*
X157686666Y-74298333D01*
X157591428Y-74250714D01*
X157400952Y-74250714D01*
X157305714Y-74298333D01*
X157258095Y-74393571D01*
X157258095Y-74488809D01*
X157734285Y-74584047D01*
X156829523Y-74917380D02*
X156829523Y-74250714D01*
X156829523Y-74441190D02*
X156781904Y-74345952D01*
X156734285Y-74298333D01*
X156639047Y-74250714D01*
X156543809Y-74250714D01*
X155829523Y-74869761D02*
X155924761Y-74917380D01*
X156115238Y-74917380D01*
X156210476Y-74869761D01*
X156258095Y-74774523D01*
X156258095Y-74393571D01*
X156210476Y-74298333D01*
X156115238Y-74250714D01*
X155924761Y-74250714D01*
X155829523Y-74298333D01*
X155781904Y-74393571D01*
X155781904Y-74488809D01*
X156258095Y-74584047D01*
X154924761Y-74917380D02*
X154924761Y-73917380D01*
X154924761Y-74869761D02*
X155020000Y-74917380D01*
X155210476Y-74917380D01*
X155305714Y-74869761D01*
X155353333Y-74822142D01*
X155400952Y-74726904D01*
X155400952Y-74441190D01*
X155353333Y-74345952D01*
X155305714Y-74298333D01*
X155210476Y-74250714D01*
X155020000Y-74250714D01*
X154924761Y-74298333D01*
X163710476Y-75860714D02*
X163329523Y-75860714D01*
X163567619Y-76527380D02*
X163567619Y-75670238D01*
X163520000Y-75575000D01*
X163424761Y-75527380D01*
X163329523Y-75527380D01*
X162996190Y-76527380D02*
X162996190Y-75860714D01*
X162996190Y-76051190D02*
X162948571Y-75955952D01*
X162900952Y-75908333D01*
X162805714Y-75860714D01*
X162710476Y-75860714D01*
X162234285Y-76527380D02*
X162329523Y-76479761D01*
X162377142Y-76432142D01*
X162424761Y-76336904D01*
X162424761Y-76051190D01*
X162377142Y-75955952D01*
X162329523Y-75908333D01*
X162234285Y-75860714D01*
X162091428Y-75860714D01*
X161996190Y-75908333D01*
X161948571Y-75955952D01*
X161900952Y-76051190D01*
X161900952Y-76336904D01*
X161948571Y-76432142D01*
X161996190Y-76479761D01*
X162091428Y-76527380D01*
X162234285Y-76527380D01*
X161472380Y-76527380D02*
X161472380Y-75860714D01*
X161472380Y-75955952D02*
X161424761Y-75908333D01*
X161329523Y-75860714D01*
X161186666Y-75860714D01*
X161091428Y-75908333D01*
X161043809Y-76003571D01*
X161043809Y-76527380D01*
X161043809Y-76003571D02*
X160996190Y-75908333D01*
X160900952Y-75860714D01*
X160758095Y-75860714D01*
X160662857Y-75908333D01*
X160615238Y-76003571D01*
X160615238Y-76527380D01*
X159424761Y-76479761D02*
X159281904Y-76527380D01*
X159043809Y-76527380D01*
X158948571Y-76479761D01*
X158900952Y-76432142D01*
X158853333Y-76336904D01*
X158853333Y-76241666D01*
X158900952Y-76146428D01*
X158948571Y-76098809D01*
X159043809Y-76051190D01*
X159234285Y-76003571D01*
X159329523Y-75955952D01*
X159377142Y-75908333D01*
X159424761Y-75813095D01*
X159424761Y-75717857D01*
X159377142Y-75622619D01*
X159329523Y-75575000D01*
X159234285Y-75527380D01*
X158996190Y-75527380D01*
X158853333Y-75575000D01*
X157853333Y-76432142D02*
X157900952Y-76479761D01*
X158043809Y-76527380D01*
X158139047Y-76527380D01*
X158281904Y-76479761D01*
X158377142Y-76384523D01*
X158424761Y-76289285D01*
X158472380Y-76098809D01*
X158472380Y-75955952D01*
X158424761Y-75765476D01*
X158377142Y-75670238D01*
X158281904Y-75575000D01*
X158139047Y-75527380D01*
X158043809Y-75527380D01*
X157900952Y-75575000D01*
X157853333Y-75622619D01*
X157472380Y-76479761D02*
X157329523Y-76527380D01*
X157091428Y-76527380D01*
X156996190Y-76479761D01*
X156948571Y-76432142D01*
X156900952Y-76336904D01*
X156900952Y-76241666D01*
X156948571Y-76146428D01*
X156996190Y-76098809D01*
X157091428Y-76051190D01*
X157281904Y-76003571D01*
X157377142Y-75955952D01*
X157424761Y-75908333D01*
X157472380Y-75813095D01*
X157472380Y-75717857D01*
X157424761Y-75622619D01*
X157377142Y-75575000D01*
X157281904Y-75527380D01*
X157043809Y-75527380D01*
X156900952Y-75575000D01*
X156472380Y-76527380D02*
X156472380Y-75527380D01*
X164448571Y-78137380D02*
X164543809Y-78089761D01*
X164591428Y-78042142D01*
X164639047Y-77946904D01*
X164639047Y-77661190D01*
X164591428Y-77565952D01*
X164543809Y-77518333D01*
X164448571Y-77470714D01*
X164305714Y-77470714D01*
X164210476Y-77518333D01*
X164162857Y-77565952D01*
X164115238Y-77661190D01*
X164115238Y-77946904D01*
X164162857Y-78042142D01*
X164210476Y-78089761D01*
X164305714Y-78137380D01*
X164448571Y-78137380D01*
X163686666Y-78137380D02*
X163686666Y-77470714D01*
X163686666Y-77661190D02*
X163639047Y-77565952D01*
X163591428Y-77518333D01*
X163496190Y-77470714D01*
X163400952Y-77470714D01*
X162353333Y-77851666D02*
X161877142Y-77851666D01*
X162448571Y-78137380D02*
X162115238Y-77137380D01*
X161781904Y-78137380D01*
X161020000Y-77470714D02*
X161020000Y-78137380D01*
X161448571Y-77470714D02*
X161448571Y-77994523D01*
X161400952Y-78089761D01*
X161305714Y-78137380D01*
X161162857Y-78137380D01*
X161067619Y-78089761D01*
X161020000Y-78042142D01*
X160639047Y-78137380D02*
X160115238Y-77470714D01*
X160639047Y-77470714D02*
X160115238Y-78137380D01*
X158972380Y-77756428D02*
X158210476Y-77756428D01*
X158591428Y-78137380D02*
X158591428Y-77375476D01*
X157210476Y-78137380D02*
X157781904Y-78137380D01*
X157496190Y-78137380D02*
X157496190Y-77137380D01*
X157591428Y-77280238D01*
X157686666Y-77375476D01*
X157781904Y-77423095D01*
X156829523Y-77232619D02*
X156781904Y-77185000D01*
X156686666Y-77137380D01*
X156448571Y-77137380D01*
X156353333Y-77185000D01*
X156305714Y-77232619D01*
X156258095Y-77327857D01*
X156258095Y-77423095D01*
X156305714Y-77565952D01*
X156877142Y-78137380D01*
X156258095Y-78137380D01*
X155972380Y-77137380D02*
X155639047Y-78137380D01*
X155305714Y-77137380D01*
X178855714Y-79232857D02*
X179522380Y-79470952D01*
X178855714Y-79709047D01*
X179522380Y-80613809D02*
X179522380Y-80042380D01*
X179522380Y-80328095D02*
X178522380Y-80328095D01*
X178665238Y-80232857D01*
X178760476Y-80137619D01*
X178808095Y-80042380D01*
X179427142Y-81042380D02*
X179474761Y-81090000D01*
X179522380Y-81042380D01*
X179474761Y-80994761D01*
X179427142Y-81042380D01*
X179522380Y-81042380D01*
X178855714Y-81947142D02*
X179522380Y-81947142D01*
X178474761Y-81709047D02*
X179189047Y-81470952D01*
X179189047Y-82090000D01*
X179903333Y-83518571D02*
X179855714Y-83470952D01*
X179712857Y-83375714D01*
X179617619Y-83328095D01*
X179474761Y-83280476D01*
X179236666Y-83232857D01*
X179046190Y-83232857D01*
X178808095Y-83280476D01*
X178665238Y-83328095D01*
X178570000Y-83375714D01*
X178427142Y-83470952D01*
X178379523Y-83518571D01*
X179522380Y-84423333D02*
X179522380Y-83851904D01*
X179522380Y-84137619D02*
X178522380Y-84137619D01*
X178665238Y-84042380D01*
X178760476Y-83947142D01*
X178808095Y-83851904D01*
X179522380Y-85375714D02*
X179522380Y-84804285D01*
X179522380Y-85090000D02*
X178522380Y-85090000D01*
X178665238Y-84994761D01*
X178760476Y-84899523D01*
X178808095Y-84804285D01*
X178474761Y-86518571D02*
X179760476Y-85661428D01*
X178617619Y-86804285D02*
X178570000Y-86851904D01*
X178522380Y-86947142D01*
X178522380Y-87185238D01*
X178570000Y-87280476D01*
X178617619Y-87328095D01*
X178712857Y-87375714D01*
X178808095Y-87375714D01*
X178950952Y-87328095D01*
X179522380Y-86756666D01*
X179522380Y-87375714D01*
X178522380Y-87994761D02*
X178522380Y-88090000D01*
X178570000Y-88185238D01*
X178617619Y-88232857D01*
X178712857Y-88280476D01*
X178903333Y-88328095D01*
X179141428Y-88328095D01*
X179331904Y-88280476D01*
X179427142Y-88232857D01*
X179474761Y-88185238D01*
X179522380Y-88090000D01*
X179522380Y-87994761D01*
X179474761Y-87899523D01*
X179427142Y-87851904D01*
X179331904Y-87804285D01*
X179141428Y-87756666D01*
X178903333Y-87756666D01*
X178712857Y-87804285D01*
X178617619Y-87851904D01*
X178570000Y-87899523D01*
X178522380Y-87994761D01*
X178617619Y-88709047D02*
X178570000Y-88756666D01*
X178522380Y-88851904D01*
X178522380Y-89090000D01*
X178570000Y-89185238D01*
X178617619Y-89232857D01*
X178712857Y-89280476D01*
X178808095Y-89280476D01*
X178950952Y-89232857D01*
X179522380Y-88661428D01*
X179522380Y-89280476D01*
X178617619Y-89661428D02*
X178570000Y-89709047D01*
X178522380Y-89804285D01*
X178522380Y-90042380D01*
X178570000Y-90137619D01*
X178617619Y-90185238D01*
X178712857Y-90232857D01*
X178808095Y-90232857D01*
X178950952Y-90185238D01*
X179522380Y-89613809D01*
X179522380Y-90232857D01*
X179903333Y-90566190D02*
X179855714Y-90613809D01*
X179712857Y-90709047D01*
X179617619Y-90756666D01*
X179474761Y-90804285D01*
X179236666Y-90851904D01*
X179046190Y-90851904D01*
X178808095Y-90804285D01*
X178665238Y-90756666D01*
X178570000Y-90709047D01*
X178427142Y-90613809D01*
X178379523Y-90566190D01*
%TO.C,U4*%
X141917380Y-96393095D02*
X142726904Y-96393095D01*
X142822142Y-96440714D01*
X142869761Y-96488333D01*
X142917380Y-96583571D01*
X142917380Y-96774047D01*
X142869761Y-96869285D01*
X142822142Y-96916904D01*
X142726904Y-96964523D01*
X141917380Y-96964523D01*
X142250714Y-97869285D02*
X142917380Y-97869285D01*
X141869761Y-97631190D02*
X142584047Y-97393095D01*
X142584047Y-98012142D01*
%TO.C,D3*%
X132659380Y-92733904D02*
X131659380Y-92733904D01*
X131659380Y-92972000D01*
X131707000Y-93114857D01*
X131802238Y-93210095D01*
X131897476Y-93257714D01*
X132087952Y-93305333D01*
X132230809Y-93305333D01*
X132421285Y-93257714D01*
X132516523Y-93210095D01*
X132611761Y-93114857D01*
X132659380Y-92972000D01*
X132659380Y-92733904D01*
X131659380Y-93638666D02*
X131659380Y-94257714D01*
X132040333Y-93924380D01*
X132040333Y-94067238D01*
X132087952Y-94162476D01*
X132135571Y-94210095D01*
X132230809Y-94257714D01*
X132468904Y-94257714D01*
X132564142Y-94210095D01*
X132611761Y-94162476D01*
X132659380Y-94067238D01*
X132659380Y-93781523D01*
X132611761Y-93686285D01*
X132564142Y-93638666D01*
%TO.C,C5*%
X131992142Y-98258333D02*
X132039761Y-98210714D01*
X132087380Y-98067857D01*
X132087380Y-97972619D01*
X132039761Y-97829761D01*
X131944523Y-97734523D01*
X131849285Y-97686904D01*
X131658809Y-97639285D01*
X131515952Y-97639285D01*
X131325476Y-97686904D01*
X131230238Y-97734523D01*
X131135000Y-97829761D01*
X131087380Y-97972619D01*
X131087380Y-98067857D01*
X131135000Y-98210714D01*
X131182619Y-98258333D01*
X131087380Y-99163095D02*
X131087380Y-98686904D01*
X131563571Y-98639285D01*
X131515952Y-98686904D01*
X131468333Y-98782142D01*
X131468333Y-99020238D01*
X131515952Y-99115476D01*
X131563571Y-99163095D01*
X131658809Y-99210714D01*
X131896904Y-99210714D01*
X131992142Y-99163095D01*
X132039761Y-99115476D01*
X132087380Y-99020238D01*
X132087380Y-98782142D01*
X132039761Y-98686904D01*
X131992142Y-98639285D01*
%TO.C,C1*%
X162726666Y-55031142D02*
X162774285Y-55078761D01*
X162917142Y-55126380D01*
X163012380Y-55126380D01*
X163155238Y-55078761D01*
X163250476Y-54983523D01*
X163298095Y-54888285D01*
X163345714Y-54697809D01*
X163345714Y-54554952D01*
X163298095Y-54364476D01*
X163250476Y-54269238D01*
X163155238Y-54174000D01*
X163012380Y-54126380D01*
X162917142Y-54126380D01*
X162774285Y-54174000D01*
X162726666Y-54221619D01*
X161774285Y-55126380D02*
X162345714Y-55126380D01*
X162060000Y-55126380D02*
X162060000Y-54126380D01*
X162155238Y-54269238D01*
X162250476Y-54364476D01*
X162345714Y-54412095D01*
D12*
%TO.C,U3*%
X160781904Y-79970380D02*
X160781904Y-80779904D01*
X160734285Y-80875142D01*
X160686666Y-80922761D01*
X160591428Y-80970380D01*
X160400952Y-80970380D01*
X160305714Y-80922761D01*
X160258095Y-80875142D01*
X160210476Y-80779904D01*
X160210476Y-79970380D01*
X159829523Y-79970380D02*
X159210476Y-79970380D01*
X159543809Y-80351333D01*
X159400952Y-80351333D01*
X159305714Y-80398952D01*
X159258095Y-80446571D01*
X159210476Y-80541809D01*
X159210476Y-80779904D01*
X159258095Y-80875142D01*
X159305714Y-80922761D01*
X159400952Y-80970380D01*
X159686666Y-80970380D01*
X159781904Y-80922761D01*
X159829523Y-80875142D01*
D10*
%TO.C,C3*%
X155487142Y-95210333D02*
X155534761Y-95162714D01*
X155582380Y-95019857D01*
X155582380Y-94924619D01*
X155534761Y-94781761D01*
X155439523Y-94686523D01*
X155344285Y-94638904D01*
X155153809Y-94591285D01*
X155010952Y-94591285D01*
X154820476Y-94638904D01*
X154725238Y-94686523D01*
X154630000Y-94781761D01*
X154582380Y-94924619D01*
X154582380Y-95019857D01*
X154630000Y-95162714D01*
X154677619Y-95210333D01*
X154582380Y-95543666D02*
X154582380Y-96162714D01*
X154963333Y-95829380D01*
X154963333Y-95972238D01*
X155010952Y-96067476D01*
X155058571Y-96115095D01*
X155153809Y-96162714D01*
X155391904Y-96162714D01*
X155487142Y-96115095D01*
X155534761Y-96067476D01*
X155582380Y-95972238D01*
X155582380Y-95686523D01*
X155534761Y-95591285D01*
X155487142Y-95543666D01*
%TO.C,C2*%
X160821142Y-95210333D02*
X160868761Y-95162714D01*
X160916380Y-95019857D01*
X160916380Y-94924619D01*
X160868761Y-94781761D01*
X160773523Y-94686523D01*
X160678285Y-94638904D01*
X160487809Y-94591285D01*
X160344952Y-94591285D01*
X160154476Y-94638904D01*
X160059238Y-94686523D01*
X159964000Y-94781761D01*
X159916380Y-94924619D01*
X159916380Y-95019857D01*
X159964000Y-95162714D01*
X160011619Y-95210333D01*
X160011619Y-95591285D02*
X159964000Y-95638904D01*
X159916380Y-95734142D01*
X159916380Y-95972238D01*
X159964000Y-96067476D01*
X160011619Y-96115095D01*
X160106857Y-96162714D01*
X160202095Y-96162714D01*
X160344952Y-96115095D01*
X160916380Y-95543666D01*
X160916380Y-96162714D01*
D12*
%TO.C,U2*%
X160654904Y-66381380D02*
X160654904Y-67190904D01*
X160607285Y-67286142D01*
X160559666Y-67333761D01*
X160464428Y-67381380D01*
X160273952Y-67381380D01*
X160178714Y-67333761D01*
X160131095Y-67286142D01*
X160083476Y-67190904D01*
X160083476Y-66381380D01*
X159654904Y-66476619D02*
X159607285Y-66429000D01*
X159512047Y-66381380D01*
X159273952Y-66381380D01*
X159178714Y-66429000D01*
X159131095Y-66476619D01*
X159083476Y-66571857D01*
X159083476Y-66667095D01*
X159131095Y-66809952D01*
X159702523Y-67381380D01*
X159083476Y-67381380D01*
D10*
%TO.C,F1*%
X145718571Y-89201666D02*
X145718571Y-88868333D01*
X146242380Y-88868333D02*
X145242380Y-88868333D01*
X145242380Y-89344523D01*
X146242380Y-90249285D02*
X146242380Y-89677857D01*
X146242380Y-89963571D02*
X145242380Y-89963571D01*
X145385238Y-89868333D01*
X145480476Y-89773095D01*
X145528095Y-89677857D01*
%TO.C,U5*%
X173608904Y-85336380D02*
X173608904Y-86145904D01*
X173561285Y-86241142D01*
X173513666Y-86288761D01*
X173418428Y-86336380D01*
X173227952Y-86336380D01*
X173132714Y-86288761D01*
X173085095Y-86241142D01*
X173037476Y-86145904D01*
X173037476Y-85336380D01*
X172085095Y-85336380D02*
X172561285Y-85336380D01*
X172608904Y-85812571D01*
X172561285Y-85764952D01*
X172466047Y-85717333D01*
X172227952Y-85717333D01*
X172132714Y-85764952D01*
X172085095Y-85812571D01*
X172037476Y-85907809D01*
X172037476Y-86145904D01*
X172085095Y-86241142D01*
X172132714Y-86288761D01*
X172227952Y-86336380D01*
X172466047Y-86336380D01*
X172561285Y-86288761D01*
X172608904Y-86241142D01*
%TO.C,C4*%
X137961666Y-87987142D02*
X138009285Y-88034761D01*
X138152142Y-88082380D01*
X138247380Y-88082380D01*
X138390238Y-88034761D01*
X138485476Y-87939523D01*
X138533095Y-87844285D01*
X138580714Y-87653809D01*
X138580714Y-87510952D01*
X138533095Y-87320476D01*
X138485476Y-87225238D01*
X138390238Y-87130000D01*
X138247380Y-87082380D01*
X138152142Y-87082380D01*
X138009285Y-87130000D01*
X137961666Y-87177619D01*
X137104523Y-87415714D02*
X137104523Y-88082380D01*
X137342619Y-87034761D02*
X137580714Y-87749047D01*
X136961666Y-87749047D01*
D13*
%TO.C,U4*%
X141625000Y-97155000D02*
X141625000Y-95205000D01*
X136505000Y-97155000D02*
X136505000Y-95205000D01*
X141625000Y-97155000D02*
X141625000Y-100605000D01*
X136505000Y-97155000D02*
X136505000Y-99105000D01*
%TO.C,D3*%
X133080000Y-92420000D02*
X133080000Y-88520000D01*
X133080000Y-92420000D02*
X131080000Y-92420000D01*
X131080000Y-92420000D02*
X131080000Y-88520000D01*
%TO.C,C5*%
X132475000Y-95790000D02*
X135495000Y-95790000D01*
X135495000Y-95790000D02*
X135495000Y-100175000D01*
X132475000Y-100175000D02*
X132475000Y-95790000D01*
%TO.C,C1*%
X164310000Y-53834000D02*
X159925000Y-53834000D01*
X159925000Y-53834000D02*
X159925000Y-50814000D01*
X159925000Y-50814000D02*
X164310000Y-50814000D01*
D14*
%TO.C,U3*%
X161970000Y-91425000D02*
X158070000Y-91425000D01*
X161970000Y-81295000D02*
X158070000Y-81295000D01*
D11*
X164265000Y-81415000D02*
G75*
G03*
X164265000Y-81415000I-100000J0D01*
G01*
D13*
%TO.C,C3*%
X158990000Y-92742000D02*
X158990000Y-97127000D01*
X155970000Y-92742000D02*
X158990000Y-92742000D01*
X155970000Y-97127000D02*
X155970000Y-92742000D01*
%TO.C,C2*%
X164324000Y-92742000D02*
X164324000Y-97127000D01*
X161304000Y-97127000D02*
X161304000Y-92742000D01*
X161304000Y-92742000D02*
X164324000Y-92742000D01*
D14*
%TO.C,U2*%
X161970000Y-55895000D02*
X158070000Y-55895000D01*
X161970000Y-66025000D02*
X158070000Y-66025000D01*
D11*
X164265000Y-56015000D02*
G75*
G03*
X164265000Y-56015000I-100000J0D01*
G01*
D13*
%TO.C,F1*%
X144870000Y-90137064D02*
X144870000Y-88932936D01*
X142150000Y-90137064D02*
X142150000Y-88932936D01*
%TO.C,U5*%
X173547000Y-89044000D02*
X172147000Y-89044000D01*
X172147000Y-86724000D02*
X174047000Y-86724000D01*
%TO.C,C4*%
X135160000Y-91680000D02*
X135160000Y-88660000D01*
X135160000Y-88660000D02*
X139545000Y-88660000D01*
X139545000Y-91680000D02*
X135160000Y-91680000D01*
%TD*%
%LPC*%
D15*
%TO.C,U4*%
X140970000Y-99630000D03*
X139700000Y-99630000D03*
X138430000Y-99630000D03*
X137160000Y-99630000D03*
X137160000Y-94680000D03*
X138430000Y-94680000D03*
X139700000Y-94680000D03*
X140970000Y-94680000D03*
%TD*%
D16*
%TO.C,D3*%
X132080000Y-91820000D03*
X132080000Y-88520000D03*
%TD*%
D17*
%TO.C,C5*%
X133985000Y-96800000D03*
X133985000Y-100050000D03*
%TD*%
D18*
%TO.C,U1*%
X152400000Y-50800000D03*
D19*
X152400000Y-53340000D03*
X152400000Y-55880000D03*
X152400000Y-58420000D03*
X152400000Y-60960000D03*
X152400000Y-63500000D03*
X152400000Y-66040000D03*
X152400000Y-68580000D03*
X152400000Y-71120000D03*
X152400000Y-73660000D03*
X152400000Y-76200000D03*
X152400000Y-78740000D03*
X152400000Y-81280000D03*
X152400000Y-83820000D03*
X152400000Y-86360000D03*
X152400000Y-88900000D03*
X152400000Y-91440000D03*
X152400000Y-93980000D03*
X152400000Y-96520000D03*
X152400000Y-99060000D03*
X167640000Y-99060000D03*
X167640000Y-96520000D03*
X167640000Y-93980000D03*
X167640000Y-91440000D03*
X167640000Y-88900000D03*
X167640000Y-86360000D03*
X167640000Y-83820000D03*
X167640000Y-81280000D03*
X167640000Y-78740000D03*
X167640000Y-76200000D03*
X167640000Y-73660000D03*
X167640000Y-71120000D03*
X167640000Y-68580000D03*
X167640000Y-66040000D03*
X167640000Y-63500000D03*
X167640000Y-60960000D03*
X167640000Y-58420000D03*
X167640000Y-55880000D03*
X167640000Y-53340000D03*
X167640000Y-50800000D03*
%TD*%
D20*
%TO.C,SW1*%
X184226000Y-60095000D03*
X184226000Y-63095000D03*
%TD*%
D18*
%TO.C,J1*%
X132080000Y-54610000D03*
D21*
X134620000Y-54610000D03*
X132080000Y-57150000D03*
X134620000Y-57150000D03*
X132080000Y-59690000D03*
X134620000Y-59690000D03*
X132080000Y-62230000D03*
X134620000Y-62230000D03*
X132080000Y-64770000D03*
X134620000Y-64770000D03*
X132080000Y-67310000D03*
X134620000Y-67310000D03*
X132080000Y-69850000D03*
X134620000Y-69850000D03*
X132080000Y-72390000D03*
X134620000Y-72390000D03*
X132080000Y-74930000D03*
X134620000Y-74930000D03*
X132080000Y-77470000D03*
X134620000Y-77470000D03*
X132080000Y-80010000D03*
X134620000Y-80010000D03*
X132080000Y-82550000D03*
X134620000Y-82550000D03*
X132080000Y-85090000D03*
X134620000Y-85090000D03*
%TD*%
D18*
%TO.C,J2*%
X142240000Y-54610000D03*
D21*
X144780000Y-54610000D03*
X142240000Y-57150000D03*
X144780000Y-57150000D03*
X142240000Y-59690000D03*
X144780000Y-59690000D03*
X142240000Y-62230000D03*
X144780000Y-62230000D03*
X142240000Y-64770000D03*
X144780000Y-64770000D03*
X142240000Y-67310000D03*
X144780000Y-67310000D03*
X142240000Y-69850000D03*
X144780000Y-69850000D03*
X142240000Y-72390000D03*
X144780000Y-72390000D03*
X142240000Y-74930000D03*
X144780000Y-74930000D03*
X142240000Y-77470000D03*
X144780000Y-77470000D03*
X142240000Y-80010000D03*
X144780000Y-80010000D03*
X142240000Y-82550000D03*
X144780000Y-82550000D03*
X142240000Y-85090000D03*
X144780000Y-85090000D03*
%TD*%
D18*
%TO.C,J4*%
X128905000Y-95885000D03*
D21*
X128905000Y-98425000D03*
%TD*%
D18*
%TO.C,J5*%
X127889000Y-91313000D03*
D21*
X127889000Y-88773000D03*
%TD*%
D22*
%TO.C,M1*%
X177591000Y-95481000D03*
X177591000Y-100561000D03*
X172511000Y-95481000D03*
X172511000Y-100561000D03*
%TD*%
%TO.C,M2*%
X177591000Y-48791000D03*
X172511000Y-48791000D03*
X177591000Y-53871000D03*
X172511000Y-53871000D03*
%TD*%
D23*
%TO.C,J6*%
X127000000Y-50805000D03*
X127000000Y-53575000D03*
X127000000Y-56345000D03*
X127000000Y-59115000D03*
X127000000Y-61885000D03*
X127000000Y-64655000D03*
X127000000Y-67425000D03*
X127000000Y-70195000D03*
X127000000Y-72965000D03*
X127000000Y-75735000D03*
X127000000Y-78505000D03*
X127000000Y-81275000D03*
%TD*%
D24*
%TO.C,C1*%
X160935000Y-52324000D03*
X164185000Y-52324000D03*
%TD*%
D25*
%TO.C,U3*%
X162495000Y-81915000D03*
X162495000Y-83185000D03*
X162495000Y-84455000D03*
X162495000Y-85725000D03*
X162495000Y-86995000D03*
X162495000Y-88265000D03*
X162495000Y-89535000D03*
X162495000Y-90805000D03*
X157545000Y-90805000D03*
X157545000Y-89535000D03*
X157545000Y-88265000D03*
X157545000Y-86995000D03*
X157545000Y-85725000D03*
X157545000Y-84455000D03*
X157545000Y-83185000D03*
X157545000Y-81915000D03*
%TD*%
D26*
%TO.C,C3*%
X157480000Y-93752000D03*
X157480000Y-97002000D03*
%TD*%
%TO.C,C2*%
X162814000Y-93752000D03*
X162814000Y-97002000D03*
%TD*%
D25*
%TO.C,U2*%
X162495000Y-56515000D03*
X162495000Y-57785000D03*
X162495000Y-59055000D03*
X162495000Y-60325000D03*
X162495000Y-61595000D03*
X162495000Y-62865000D03*
X162495000Y-64135000D03*
X162495000Y-65405000D03*
X157545000Y-65405000D03*
X157545000Y-64135000D03*
X157545000Y-62865000D03*
X157545000Y-61595000D03*
X157545000Y-60325000D03*
X157545000Y-59055000D03*
X157545000Y-57785000D03*
X157545000Y-56515000D03*
%TD*%
D27*
%TO.C,F1*%
X143510000Y-90935000D03*
X143510000Y-88135000D03*
%TD*%
D28*
%TO.C,U5*%
X174177000Y-87234000D03*
X174177000Y-87884000D03*
X174177000Y-88534000D03*
X171517000Y-88534000D03*
X171517000Y-87234000D03*
%TD*%
D24*
%TO.C,C4*%
X136170000Y-90170000D03*
X139420000Y-90170000D03*
%TD*%
M02*
