%TF.GenerationSoftware,KiCad,Pcbnew,(6.0.4-0)*%
%TF.CreationDate,2023-01-26T09:36:58-07:00*%
%TF.ProjectId,bluescsi_iigs_internal,626c7565-7363-4736-995f-696967735f69,rev?*%
%TF.SameCoordinates,Original*%
%TF.FileFunction,Paste,Bot*%
%TF.FilePolarity,Positive*%
%FSLAX46Y46*%
G04 Gerber Fmt 4.6, Leading zero omitted, Abs format (unit mm)*
G04 Created by KiCad (PCBNEW (6.0.4-0)) date 2023-01-26 09:36:58*
%MOMM*%
%LPD*%
G01*
G04 APERTURE LIST*
G04 Aperture macros list*
%AMRoundRect*
0 Rectangle with rounded corners*
0 $1 Rounding radius*
0 $2 $3 $4 $5 $6 $7 $8 $9 X,Y pos of 4 corners*
0 Add a 4 corners polygon primitive as box body*
4,1,4,$2,$3,$4,$5,$6,$7,$8,$9,$2,$3,0*
0 Add four circle primitives for the rounded corners*
1,1,$1+$1,$2,$3*
1,1,$1+$1,$4,$5*
1,1,$1+$1,$6,$7*
1,1,$1+$1,$8,$9*
0 Add four rect primitives between the rounded corners*
20,1,$1+$1,$2,$3,$4,$5,0*
20,1,$1+$1,$4,$5,$6,$7,0*
20,1,$1+$1,$6,$7,$8,$9,0*
20,1,$1+$1,$8,$9,$2,$3,0*%
G04 Aperture macros list end*
%ADD10R,3.480000X1.846667*%
%ADD11RoundRect,0.250000X-0.500000X-0.925000X0.500000X-0.925000X0.500000X0.925000X-0.500000X0.925000X0*%
%ADD12R,1.970000X0.600000*%
%ADD13RoundRect,0.250000X0.500000X0.925000X-0.500000X0.925000X-0.500000X-0.925000X0.500000X-0.925000X0*%
%ADD14RoundRect,0.250000X1.075000X-0.375000X1.075000X0.375000X-1.075000X0.375000X-1.075000X-0.375000X0*%
%ADD15R,1.500000X0.400000*%
%ADD16RoundRect,0.250000X0.925000X-0.500000X0.925000X0.500000X-0.925000X0.500000X-0.925000X-0.500000X0*%
G04 APERTURE END LIST*
D10*
%TO.C,J6*%
X127000000Y-50805000D03*
X127000000Y-53575000D03*
X127000000Y-56345000D03*
X127000000Y-59115000D03*
X127000000Y-61885000D03*
X127000000Y-64655000D03*
X127000000Y-67425000D03*
X127000000Y-70195000D03*
X127000000Y-72965000D03*
X127000000Y-75735000D03*
X127000000Y-78505000D03*
X127000000Y-81275000D03*
%TD*%
D11*
%TO.C,C1*%
X160935000Y-52324000D03*
X164185000Y-52324000D03*
%TD*%
D12*
%TO.C,U3*%
X162495000Y-81915000D03*
X162495000Y-83185000D03*
X162495000Y-84455000D03*
X162495000Y-85725000D03*
X162495000Y-86995000D03*
X162495000Y-88265000D03*
X162495000Y-89535000D03*
X162495000Y-90805000D03*
X157545000Y-90805000D03*
X157545000Y-89535000D03*
X157545000Y-88265000D03*
X157545000Y-86995000D03*
X157545000Y-85725000D03*
X157545000Y-84455000D03*
X157545000Y-83185000D03*
X157545000Y-81915000D03*
%TD*%
D11*
%TO.C,C3*%
X135942000Y-88392000D03*
X139192000Y-88392000D03*
%TD*%
D13*
%TO.C,C2*%
X163169000Y-94996000D03*
X159919000Y-94996000D03*
%TD*%
D12*
%TO.C,U2*%
X162495000Y-56515000D03*
X162495000Y-57785000D03*
X162495000Y-59055000D03*
X162495000Y-60325000D03*
X162495000Y-61595000D03*
X162495000Y-62865000D03*
X162495000Y-64135000D03*
X162495000Y-65405000D03*
X157545000Y-65405000D03*
X157545000Y-64135000D03*
X157545000Y-62865000D03*
X157545000Y-61595000D03*
X157545000Y-60325000D03*
X157545000Y-59055000D03*
X157545000Y-57785000D03*
X157545000Y-56515000D03*
%TD*%
D14*
%TO.C,F1*%
X143510000Y-90935000D03*
X143510000Y-88135000D03*
%TD*%
D15*
%TO.C,U5*%
X174177000Y-87234000D03*
X174177000Y-87884000D03*
X174177000Y-88534000D03*
X171517000Y-88534000D03*
X171517000Y-87234000D03*
%TD*%
D16*
%TO.C,C4*%
X132080000Y-93827000D03*
X132080000Y-90577000D03*
%TD*%
M02*
